/* XPM */
static char *_2749_a143787cfd23deefb55c1c89d379deee33abdd88932bd780fa1be2e14a504d99[] = {
/* columns rows colors chars-per-pixel */
"64 64 34 1 ",
"  c #0D0D0F",
". c #100E0F",
"X c #0E0F10",
"o c #110F10",
"O c #0F1011",
"+ c #131314",
"@ c #191416",
"# c #161719",
"$ c #191719",
"% c #17181A",
"& c #1B1B1D",
"* c #211C1F",
"= c #1D1E21",
"- c #211E21",
"; c #1F2023",
": c #222225",
"> c #292326",
", c #252629",
"< c #29272A",
"1 c #27282C",
"2 c #292A2E",
"3 c #2C2D32",
"4 c #302F33",
"5 c #2F3035",
"6 c #313236",
"7 c #333539",
"8 c #37383C",
"9 c #3C3D41",
"0 c #3F4145",
"q c #43454A",
"w c #494A4E",
"e c #4D4E54",
"r c #525358",
"t c #5E5F62",
/* pixels */
"   XX          X  OO OX  X  XX XXXXXXXXXOO  X OXXXXXXXXXXXXXXOO+",
"X   XX+ XXOOOXOXOOOOOOOOOOOOO+OOOX++XX+X+O++OO+O#O++++++++#++OOO",
"X  +&,,%#&&%#+#+%&;,&#%;;#OO%=%%==;=%=======O#%=;;=%==&;=,3;%++#",
"# +%   Xo O     O     OXXXOOXXXXXXXXXXXXX  XOOOOOXXXOOO+XXXO%%X%",
"= +& O+.Xo+XO+++++++++++OOO++#+++o++++++O++++++O##O#+#+X ##+&;X&",
"; +; ++.+++##%%%%&%&%&%&===%%====+=%&&================##&##X&, =",
"& O& +.:3=X+%%%&%%%%&%&&%%%%==%%&+%==%=%=%=%========%##33+++%;X%",
"& O#. .,=++ #%&%&%&&%&&&%====%%=&===%=&=%=====%==%==%O=,+&o+%=X%",
"%Xo+... +%.o+%&%%%=&=&&&&&&&&&&&=$=&%======%====;&=&@.+o#+++#=O&",
"%Xo#.ooo  o+$&%==&%&&%&&;&&&&=&&=&======%========;&:@@+++o@+$& &",
"=X+&.+oo.o+@&%&&&%&&&##&&&=&&=&&===&==========;=;=:&&$@+.@@+&; &",
"=Xo&.+++++$@&&%&&%==@##++&&=&=&&&&&=============;=&=*&@&@@@+&:X&",
"%XO=X+&#+$#$%%=%&&&&#@&%%&&==&=&==::=======;===;;=;;=&$&*$&+%=.&",
"#XO%X#&$&$&+&=&=&&=&&&%&&;=&&=====--;=====;==;;=;==;=***&$&##&+&",
"+X+%o#$&$$&&&%%=&=&&&&&&&&&;&====&+$:==;====;;;;;;;;:&&;**&##&O&",
"%XX=o+&&$$&&&=%=&===&&=&&;&=========;==;====;;;;;:;;;*:;**;+%&+&",
"=XO%X%=#&&&&&&&====&===&%=====;=====;=:=;;;;;;;;;;:;:;;;::-#&,O&",
";X+:+%#&&%&&&=&==&=&=&=====;;=====:;;;=;;;;;;;;;:;;::;-::;&+&,O:",
"=X+=o+&$&=%;===&&&======;;;;=;=;;;;;;::=;;;;;,;,::;::;;,::&#&=+&",
"%XX%+&=$%===&=&=====&===;;;;;;;;;;;;:=;=&;,;;;;;:::&;,;;::-#&;+%",
"=Xo%o%==&==%&=&=====;;==;;;;;;;;::;;=:::-=::,;;,:::::::::-:#&;+%",
"%X+%+%&&&=&============;;;;;;,;;=;;;;:;:*:::;,,;;,:::::,::-%%;+=",
"=X+%o&=&&==&=======;;;;;;;;;;;;;;;:::::-&;::;;;,::::::::,:-%=;+=",
"=X+%++=&=;====;==;=;;=;;;;;;;;;;:;::::::::::,;,;:,:,,:,,:::%&:O&",
"=X+=O#=&&&===;=;===;;;;,;;;;;,;;::,;,,,;;,,;,,;,:,,::,,,:,:#&,+=",
"=X+=+%&========;;;;;;;;;;;;,;;;,::;;;;,;;,,;,;,,>,::::,,,>:%&:+=",
"=X#=+%========;=;;;;;;;;;;;,;,,;:,;,;,,:,;,;,;,;:,,,:,,,,::%=,+:",
":o%=+%==;==;;;;;;;;;;;,;;,;;;,;,,;,;,,;,,;,,,,,,,,,,,,,,,>:&=1+-",
"=++$o&====;==;;:;;,;;,;,,;;,;;,;;,,;;,,,,;,,,,,,,,,,,,,,,,:&&,+&",
"&++$+&===;;;;:;;;;;;;;;;;,,;,,;,,;,,,,,,,,,,,,,,,,,,,,1,<,,&&-#*",
"&o+$+&=-;;;:;;;:,;;;;,;,;;,;,;,;,,,,12,,,,,,,,,,,1,1,11111,&=-#&",
"&o+=#&==;;;;;:;,=;;,,;,;,,;,;,,,,;,,;;;,,,,,1,1,,1,11<,111,&*-#-",
"#+#&+&;;;:;;;:;=#;::::,:,:,,,:,,,,,2;=:1,1,1,,11,111111111====+=",
"#+#&+&;:;;;::;:;=::::,::::;:,,,,,,,1,;>,1,,111111111111111====+=",
"=++&#&;;:;:;:,,;=;:,,:,,,=&=;,,,,,,,>,,,1,1,1111111131111,===-#=",
"&+#=+&:;::::;::;;;:::,:::&&;:,,,,,,,,,,<,1111111,121121231===-==",
"=+#=+=;:;::::,:::::,,,:,,-->,,,,,,,1,,<111122111,222222231,==,#-",
";+#:+&:;::,,::::,,,,:,,,,>,,:,1,1,2,,<<112212122<<222222111=-2#,",
";+#,+=::::;::,,:,:,:,,,,,>,,,,11<11112121122121222222232322==,#,",
";+#,+&,:::;;::,:;:,,,,,,,,,,,,1111112111121222132<222232321==,#1",
"=+&4+&,::,:,:,,::,,,,,,,,,,,111111211212111222311322333222,==<#3",
"-+$3+-::;,;;,,,:,,,,,,1,2,2,,212212122223333222332321233331==2+3",
":##&+&::;,;;,,,,,,,,,,,,1,2,1211111211223335323213333373331=:3%-",
"1+#=@&,,,,,,:,,,,,,2,2,21,21112132133222,:;1332323133323333=,5%:",
"3#+-#&,,:,,,,,,,,,11,,2,2121122211222225>->><432333333<3332=16#-",
"4+$-+-,,,,:,,,1,11,12,221112222213322335<-><><33333333<3531=29%:",
"9o#-#-:,,,,,,,,11,,12,,21222222231223233<->><<43333353<3352=29#,",
"3+$-+&:,,,,,,1,111,,22,212222223233223323<4<443333333325352&18&-",
";##:#=,,,,,1111,11,21,22222222322293333334<33333335335<5353==1=-",
"&#$:#-,,,,,,1,1<112222222222223232:232333242333553353524553,=1=-",
":##:#=,,,1111111112222,222232332293332333333333335535535553--2=-",
"-#&:#;11,,,111211222222,232232332,3333323333353355555555553--2=1",
"-$&1#-1-&;1:12112222322232232333219,3331443335525995554<-52-,2=<",
"-&&3#--#&;1:,12222236222333333339,912239434335592,<455-=122--4=3",
",&&1#==9q1=:,221223-,2323233333393,139533554353922245--er=---3=1",
">$&,&&#99&;#,213223><22323333333,1,953555554533565443=qt=3==,3=<",
"2$&,#&$#+-#$<3<32322223333333333192393395553335544462=-=22--26=2",
"9#=9#**###&><332333,3333353353553,191331555955396444<-=-==--6q+9",
"9#=9#-=$#&->11,1,,12222213133131133333335546555544423<-==-<-6w#9",
",&&3#&#&#@#&#&##&&&&#&#&%##&&&#&=%&=====-==-=====-==--==-=---2=1",
":&&,=;=:;:1;;::1:;&&;;,,159;,31;,,:,,,,;==--131-1,<2691,111;33=2",
"#&#=111<2991,333,:&;,1135q01399,1311113,==<2593-33669q9235322===",
"&##=#####++########+%%##+##############==============+=========,",
"=##=,33::,2::::=,,391,133,,;,33,3591,,913223==123521321535952,=="
};
