/* XPM */
static char *_970_b2cd834647673262d2b4bdbfdc7975a676e3b84b8014d12ebab564cbd04c0510[] = {
/* columns rows colors chars-per-pixel */
"64 64 21 1 ",
"  c #060707",
". c #080607",
"X c #070708",
"o c #080708",
"O c #070808",
"+ c #0B0B0C",
"@ c #100E0F",
"# c #0F0F10",
"$ c #100F11",
"% c #0F1011",
"& c #121314",
"* c #181517",
"= c #161619",
"- c #181719",
"; c #17181A",
": c #19191C",
"> c #1D1E21",
", c #222224",
"< c #262629",
"1 c #2A2A2D",
"2 c #303132",
/* pixels */
"  OOOXXOooOooXXXXXXXXXXXXXXXXXXXXXXXXXXXOOOOOOOOOooOXXoXXXXXOXO+",
"XXOXXoOOOOOOO+oXOO++OXX++XOO++O+OOO++++O+OO+O+O+++++++++++++++OO",
"OoOO#=&##$#++#+O##&&####%++++%###%&%+#%#&%&#O+@$&&##$##&#&;##+++",
"#O++XooOoOOoXoooXXXXXXXXOOOXXXXOOOO+X+OOOOOOO+oOoOOOOOo++XO++#X#",
"$X+%XOOOXXO+OO++X+O+#OOO++++++++++O+++++++++++O+++#++++OX+++#&X#",
"& O&X++X++++##+###############%%#+%###%###%#%$&&#&%###++#+#X#&X#",
"# O$o+o&;%O+++##+##+#####+####+##+#%%#####$######&##&++:;O++#&X#",
"#XO+oXo=%++X+##+###################%#%#%&$###&%%$#%&#X&&+$OO+%O+",
"$O++..o.++oo++$#######$#########%##&$&###$&#&###&%+&+.O+++o++&o#",
"#OO+.+ooXXo+@#+#######$$&#######%####%%%&#&%%#%&#%&@@@++o+@O+$O+",
"$ ++O++.XO+@&+$+####+++$########%%#&%%#&%%##%&%&%&$&@@+Oo++++&O&",
"&OO@.+++O++++&+&###&+++++####&##&%##%%##%%&%%&##&%&@&+@+@+@+#&o#",
"+O+#O+%++++++&+$##%#++#######%&&+&&&&$&#&%&%&$&&%&%%%+$$$@$O#&X#",
"+OO#O+%@$@#@&+#&##%#########%&#%#&&&#&#&#&%&&%%&%&%&&@$&@@#++#O#",
"+OO&O@@#+@#+#%+&$$$$$#&###&#%%%%&+++&&#%&&&%&%%%&%&&&@$&$@&+++O&",
"#OO+O++@$+@+&%%+$$$#######&#%%&%%&&$&$%&%%%%%&&&&&&&$&&&&$&++&O$",
"&OO+++$#+$%##%+&&##%&+&#%%%%%&&%#&&%%%%%%&%&%%&&&&%&&&#&&&&+#=O#",
"&O+=O+###%%#+&###$#&#&#&%&%&&%%%&%%&%&&&%&&%&%&&&#&&&&#&&&#+#=O&",
"+O+$++#@###&&+&&$#&%%##&%%&%%&%&%&&%=%&%%&&&&&&&&%%&&&&&&&#+#&O&",
"$OO+O+#@#$###&#%%&#%%%&#&%%&&%%&%&%&&&&%%%&&&&&&&&&&&&&&&&&+#%++",
"%OO#+#####&#%%%&%#&%&$&#&&%&%%&%&&&$%&&&%%&&&&&&&&&&&&&&&$&O+&O#",
"#O++++$#&###%%#%##&$%&%&%&&&&&&&&#&&&&&&&&&&&&&%&&&&%=&=&&###&+#",
"#OO#++##%%%&&%%%&&%&&&%&%%%&&%%&&&&&%&&&$%=%&&&&&=%&&&&&&&&##&O%",
"%++#O+&#%&%%%%&$%#%&%%#&&&%%&&&&&&&&&&&&&=%=&=&&&&=%&==&&&&##=O%",
"&++#X+####&#%$%%&&%&&%&&&#&&&&&&&&&&=&&&&&&&=&&&&&=&&&&===$##=o$",
"+O+&+###&#&$&#&&%%#&%&&%&&&&&&&&&&&&&&=&&&&=&&=&&=&==&=&=&$##&+&",
"&X+&O#&##&$&%&%%#&&&%&&%&&&&&&&&&&&&&&&&&&&&&&&==&=&&&&=&&$##;O&",
"&++#+##$$&%%&%&&&&&%&&&=&&&&&&&&&&&&&=&&&&=====&&=&=&======#$&+&",
"#Oo++#&#$&&%%&%&&#&&&&%&&&&&&&=&=&&&=&&==&&==&=&=&&=&;&&=&=+#&##",
"#+++O$#&&%%&%&&&&&%&%&&&&&&&=&&&&&&=&=&==&=&==&====&=&;=;=&##&+$",
"#O+$+#$%%%&&&$&&&&&&==&%&&&=&&=&=&=&===&=&&=&====&==&;&;&*=#$$+$",
"+++#+#&&&&&%&&&&#&&&&%&=&&&&&&=&=&&=&%&=&====&&=&==&=;*&=;;$$$#$",
"+++#+%%&&&&&&&&%##&&&$&=&=&&&&==&=&;&%&=&=&&;&===&;&&==&=;&#+@+&",
"#++#+%%&%&&&&&&&#&&&&>&&&&&&==&&&=&=&&=&=&;==;=&==;;==;==&&%&&+&",
"#++#+%%%&&&&%&&=&&&&&&&&=$#$&&&==&;=&========&;;=;;=;=====+#$=+&",
"#++%+%&&&&&&&&&&&&=&&&&==$$$===&=&&===&&===&====&&;&;&===;&%$&+&",
"#++#+%%&&&&&&&&&&&&&&=$=$&&===&&=&&=====&;;;==&;*;;;======&&&&+&",
"&++&+%&&&&&&&&&&&&&==&&&&==&$=======&=&==;&;=;;===;;=;;=;;;#&&+&",
"#++&+%&&&&&&=&&&&&==&=&==&&*$=================;=&*;;=;;;;;;#&=+;",
"&+#=+&&&&&%&&&&&&&=&=&=&==*&===============;===;**;;;;;;;;=+&=+=",
"#+#>X#&&&&&&&=&=&=$&&&=&&===&==&=========&==;;;;=&&>>==;;;&&$=+:",
"&+#=+#=&&=&&=&=&&=>&>&&==========&=======>>==;=;>>=&&=>-;*;&&;+;",
"&++#+#&&&&&&&=&==&>&&&>&&===============;;=;==;;&==>=>>;;;;$&-+&",
"&++&+#=&&&=&=&=&&=$==>&&=========;===&>==%&==>;;>===>&;;*:;#;-#&",
">+#$+#=&=&&==&&&&=>&&&=&===========>==>==$&&*-;;&=>=->&---;&;:+&",
";++$##=&&&=&=%>%=&&$>&&>========;;====&>*$=***=>>===-;=;:;;%=>+&",
">o$$##&=&==&=&&>==&>&%&>=======;;=>=>&>&*****-:->;;;;;=;>;:#*>#&",
">++&X#=&=&==&====&&&>>&&=====;;;=;==&>&>-***--;:;==>>-*>;;:#*>$&",
"#++&#$&&======&-&&&&>&&>&&>&;;;;>=>=&>&>>&-&===>;;>;::=:>;=#&=#&",
"#+#&#$&==&&=&===>&>&>&&>>&&>;;;;==&=>&>&&>->>=>=;::;::-:=>>&$&$&",
"&++&+$=&============&&&&==>&=:;;===>&>=>>&&=&>>=>;;>>-::>==$$&$&",
"&##&#$==&=&==========>>$>&>=:;;:=>;=>&>&>>>=&>=>;;>;::::=>>#&>$=",
"&+$=+$=&#&&&*=======;==-===>===;=;;;=>&>&&>&==>;>>>::::&$&>$&*$&",
"&+#=+&&##$;&&===-=>->=-===&>>=::;;;>>&>&>>=>>==>;&-::>=$=>&&&>#>",
"*+$=+$$><=#&=;====-$&=;:==>==>=:::;;&>>>>&>==>=>=:-::=$11$&$$>#&",
"=+$=#$#>-###=====--=-=:;>=====;;;:::>>&&>>=>>=>=::->:$,2#>$$&&#>",
";+@;+@@+#=+$=;;=;=;==-=;;=:::::::;;>;;>;==>>=>>>>-*>-#&#==$$&>#>",
",+&,+&$+#+$$*-;;;;:=--:;::::::::;>;>>;;>>>>==>=>->->-&$&#$*&>,o>",
",+&:+&$$o$$=&===========;;;===:;;;;;>;;;>=>>=>>>->>&-=&&&&*&>,+>",
"=+&:+++#$+####+#+$$$$+#$##+###+#&#####&####$$$##&#&&$$##$$&$$>$=",
"&$#=&&&#&;;#$&==&$#$&&&=&>:==;=&&==&&&=&$$*$&>&&&===>>=%&#&%>>#&",
"+%+&&;=;-:>=&;;;=&$&=&;::,,=:>>=;===;;;&$$&>>>>=-->>><>>>>>>&$&$",
"#++%+++#++++#+#++#++$+#++++#+++##+######+##+++$$#++#+++++#O#$&$&",
"%#+%=;;&&;;&&&&$&;;>=&&;>&&&=:===::===:=>&>>$&&=>>==&>>=>>>>>&$&"
};
