/* XPM */
static char *_4421_60093b52c281235a5e9814f68afd5e25869a42f44bcca5fdaf2c584e4debc54e[] = {
/* columns rows colors chars-per-pixel */
"64 64 42 1 ",
"  c #141415",
". c #191415",
"X c #1C1816",
"o c #161619",
"O c #181719",
"+ c #1C1B1D",
"@ c #221C1E",
"# c #2A1D1E",
"$ c #311E1F",
"% c #24201E",
"& c #1F1E20",
"* c #211F21",
"= c #2B1F21",
"- c #311F20",
"; c #1F2022",
": c #242225",
"> c #2B2325",
", c #272827",
"< c #282827",
"1 c #262529",
"2 c #29262A",
"3 c #27282B",
"4 c #2B2A2C",
"5 c #332425",
"6 c #392525",
"7 c #332629",
"8 c #3C2628",
"9 c #332B2C",
"0 c #3A2A2C",
"q c #31302F",
"w c #3B322D",
"e c #2F2E30",
"r c #322F31",
"t c #2F3030",
"y c #343333",
"u c #393635",
"i c #373834",
"p c #393937",
"a c #383738",
"s c #3B3B3A",
"d c #412B2D",
"f c #3F403D",
/* pixels */
"+++@O+OO*#@X+o&oO++++O++++@@+X&X++o++o+o+O+O++o+++o+@@O+O+++O+++",
"+O+X+o&+@$@X++o&++++O+++++@++++&++++++&&O+++;o++++++#++O++O+++++",
"+o++++3:@###o&&+OO;,+++O@++X+O+2*+++++o+++O%,++++O+OOO++4%+++O++",
"+++++4+=>@##*&o++,,O4+++X+++++4.::O++&o++O,,+,+O+++++++4O,;O+@@+",
"+O++++  >5#+=&O&++X +4++++@++&+  ,:++++&%%+X +q+++++++++ o2*O@@#",
"*&+++++ .=5#@O*O+++X ;<;+++++O++.O,,o&+++%++  ;<+++++++++.X1<@*X",
"*++&++++ o*#+&&++++;X &+++++&++@@.O&+@+++%%++X ;++++++++++.X=+++",
"&+++&++&+O@#**O&&;+++X+&+&&+&+*@###@++++&++++&X+++O+;@&++@@@+@@@",
"++++++&+&&%=@;++%%+&+&&+&++:&&++@#=+&&&&++&&++;+++O+&@@=&@=@@@+@",
"++OO+++&++++@+&+&++++++++++@++@+*++@++&+%&++&++++++&+@@%@*@@*@&&",
";+X+;&&+&%+&@@&&+&&+&%&+@&+@+&+&+%-@+;&+%+%&&+:++;+++++@@@=@@+++",
";+;+;+++24+&:%;+&;++:4:&+;&&&&&@*68=@;@+&+&++&q;+@@++:@=@*4<&@;@",
",+&+&&+q,:q++=+++%+:q+t:+&+:+*&+9>>4@&&;&&&&:q+t;+*+;@>#%q%<4+&+",
"&&&&&O4< o%+*@&&;O:t+ +&&&++&&@9<.o:+%%++&X,q+ +++:++&@@q: O:+:+",
"&&%&&q,Xo++&&&+:+,q+ +%%&+&&&&r:.O+%&&%+&+<4O O++&+@@@%q: o+&&+&",
";+&%+,o &&&&&&;+%::X%%%&&&;%&&: O@:+%;%:;+,+ +++;++::%+, .+&&&&&",
"&;#>@*O+*&&*&*&&*:%%%+%:***&*&&&+*+***:***++&=**:;+:*&&&O&&&&&&&",
"&%>-=**:&&&*&*****::%:>%:&*&**&::&:@****&&+&*=-=@&;+&*:&&&&&**:*",
"&;>%>++:&::&&&::*+&+%&%%&;:&&*:&@;*:=&*****&**==:&%&**&&&&&&&&&&",
";%%5#:;+;;&&:&***:;;;;;:;;&;&;&&&::=*&*==::***=1+;;;&;&*&&&&&*&&",
"*==::*:*&&&*:::*;&;:;;;:*:&&*&&:&*:***=*=****&*=:*&*;:&&:&&&&&;:",
">>*;>+q<&&**:*&*:&,y+:*&****:*&q,*:*::::*:&4e&***:&:&&&&y:&**:;&",
"=>==>q:43&:;:&:&&34:y&;:**;*&*y:94*=**:**@44:y&**:&&:&:y:t3+*&**",
"=*=:>7@:ee&;:;;;;:;o3t&=>*:&:;3 ;r2&:**:*&,:oee&:&&:*:&3o&e3&:*:",
"4**>5=-@*e4*:&*&:&&+X29566=*:&&& :90**:&&:*&&+2e:&::&&&@&@>9>&::",
"3*:*::5=.*e*:*::::*:@.97-65:*:::+ =95&::::::*o&4:*:*::>:*$#57**:",
"******::&+***:*:***:>##5>>>=*::*,++:>&*::*:***&&*:**:>5:*5-=>*::",
":::1::::*:::::::::::>5>6>:>:;::::::;:::*&&*:***1*:>:>5>=::>5>*:<",
":::3:::::::::::::::::;>5:=>::::::::::::&&*:::::::11>>5::::::::>:",
"::::::::*:::::::::::::>::::::::::::*::::*&::::::::1*:::::::,::::",
":::::::*ey&::::::::::a:::::::::,&ee*:::;&:=>57u**1=:>::::+y4*:<:",
"r*::::&re4y*3::::3*:a3y,:::::::&yeey:::1:::><u2u2*1::::,*y49y*,>",
"3::::;9y&+4:::1>::,y2 33::::::&ye&&4:::3:<-9y2.4>>>:::>*ye+*4::,",
":3:::ty&O*:::>>>:4y4+**:::3:3:ye&+&::::,>59y2O@:><<>>>7ey+O*,:::",
"::,::y&o:,:::2>2>44O@>1=:,,::>y=#>::::::>>94O@75>>>>255w+o:::,<>",
",:::::+:::3:>>5555=@7>11::::>5==55>::::,2>5=@7>5>>>>>>>6@:,:::,:",
":,:33:3::,::1>>55570>11*::3:1279>:::3:::>5685>>1>>>>>>>861::,>,:",
":28:::::3::33:1>577>>2**;:3:::::222::332327>:1:3,22>>22>:3:::1::",
"3::3:3:3:,:3227775>>5>**:::3111*:,:,2>:::::,:2:2:1>:2:3::3:3:33>",
"::,:,*a4:2:::>>2>50p622:*:::11*a4:3>:<:2:3:4a:2:,::3:<::p2:3:::3",
"2:1:1aeae&11277=20u9p:::1111*1a4a4:,11:11:eaey&11*112*2a4p4:3:3,",
":2:3:r+:ae&32221342Oya3:111111e&,a4&111:1:e:&ea*121=111eO4p4::3:",
"e:323:&o*ay121222::++yy2111111*&o4ay12:111::&&yy212221*1++4ie::3",
"e:3:::3&&1a*2*779<23++a411111132&o4y*1221113*&&a222221124+O4y:3:",
"11113:12&&11127272:33+*:112711114&&12222113111&*1227222211&&11:1",
"11111211131111111131:3331127131232221222111111222222277211113:**",
"1113133:311111131111311113311111223:17722131112222227722111111*1",
"212111321121112111113112111213223:321272211122122127722223111311",
"1222222*aa*1222222211f3122222724:yu:22222222:3s12997422221ae:332",
"y12134*ayya122131312aeae1232224*ayya222311214ses37042224*ayay122",
"e1223*ya:&a12211114ar&e2122233*aa*1r322422*ear&e7222123:aa*1r123",
"12323ya:&&1133221eat&&*2221211aa:**>212223ear&&:4222222ya:&*2212",
"222e3a:&*e332424:yy&&e33424441a1&242244221ar&&122222332s&&322332",
"e22223&:e2234222e2*&322e2224321&:4299809e32&&e3322332231&32222e2",
"32e3432e1433434432223222e3**1244e2200d00422e23222223222232332332",
"22332e22444444443e23e22333441443222r799443231e23e32ee3e323e22e22",
"34444*fr14122224e:rf*42e42e2121sr:e274042e:rs:e344244421fe:e322e",
"44444syst1e2e344:ysrf122423233fesr:2e24223aayf*e4233422fese32932",
"14324a&3sa1442e22ur*as33432224a&esr3e44e23r2&as33432432y&eat2099",
"t44441:&4sa149eee7>*&aae4213242*&4sy320233e3&&aae24444r2&&ear472",
"a34e2ee:&es2er9444r9&&aee321244e&&ea1e9244471&1ae2e32r04e&&ea122",
"1423e232&&3324947rr9e&2434444744e&&e223e47rr41&134e3rdd73e&&4e2e",
"44e32ee2e24444r92rrree2244442r444432222e4r0a34e444244000442e3ee2",
"43e22e23e3e44e44929292e2e7eerrde44e3e3e244rr44444444440r443e222e"
};
