/* XPM */
static char *_1015_04be39899c7e65c6eebbf484331323a3c02efd47ffed41b328243ea861e4754a[] = {
/* columns rows colors chars-per-pixel */
"64 64 3 1 ",
"  c #7A8382",
". c #899295",
"X c #9EA7AB",
/* pixels */
"............................     ...........................    ",
"............................     ...........................    ",
"............................     ...........................    ",
"............................     ...........................    ",
"............................     ...........................    ",
"............................     ...........................    ",
"............................     ...........................    ",
"............................     ...........................    ",
"............................     ...........................    ",
"............................     ...........................    ",
"............................     ...........................    ",
"............................     ...........................    ",
"............................     ...........................    ",
"............................     ...........................    ",
"............................     ...........................    ",
"............................     ...........................    ",
"............................     ...........................    ",
"............................     ...........................    ",
"............................     ...........................    ",
"............................     ...........................    ",
"............................     ...........................    ",
"............................     ...........................    ",
"............................     ...........................    ",
"............................     ...........................    ",
"............................     ...........................    ",
"............................     ...........................    ",
"............................     ...........................    ",
"............................     ...........................    ",
"XXXXXXXXXXXXXXXXXXXXXXXXXXXX.....XXXXXXXXXXXXXXXXXXXXXXXXXXX....",
"XXXXXXXXXXXXXXXXXXXXXXXXXXXX.....XXXXXXXXXXXXXXXXXXXXXXXXXXX....",
"XXXXXXXXXXXXXXXXXXXXXXXXXXXX.....XXXXXXXXXXXXXXXXXXXXXXXXXXX....",
"XXXXXXXXXXXXXXXXXXXXXXXXXXXX.....XXXXXXXXXXXXXXXXXXXXXXXXXXX....",
"XXXXXXXXXXXXXXXXXXXXXXXXXXXX.....XXXXXXXXXXXXXXXXXXXXXXXXXXX....",
"............................     ...........................    ",
"............................     ...........................    ",
"............................     ...........................    ",
"............................     ...........................    ",
"............................     ...........................    ",
"............................     ...........................    ",
"............................     ...........................    ",
"    ........................     ...........................    ",
"    ........................     ...........................    ",
"    ........................     ...........................    ",
"    ........................     ...........................    ",
"XXXX            ........         ...........................    ",
"XXXX            ........         ...........................    ",
"XXXX            ........         ...........................    ",
"XXXX            ........         ...........................    ",
"....XXXXXXXXXXXX        XXXX     ...........................    ",
"....XXXXXXXXXXXX        XXXX     ...........................    ",
"....XXXXXXXXXXXX        XXXX     ...........................    ",
"....XXXXXXXXXXXX        XXXX     ...........................    ",
"............    XXXXXXXX....     ...........................    ",
"............    XXXXXXXX....     ...........................    ",
"............    XXXXXXXX....     ...........................    ",
"............    XXXXXXXX....     ...........................    ",
"........    XXXX............     ...........................    ",
"........    XXXX............     ...........................    ",
"........    XXXX............     ...........................    ",
"........    XXXX............     ...........................    ",
"XXXXXXXXXXXXXXXXXXXXXXXXXXXX.....XXXXXXXXXXXXXXXXXXXXXXXXXXX....",
"XXXXXXXXXXXXXXXXXXXXXXXXXXXX.....XXXXXXXXXXXXXXXXXXXXXXXXXXX....",
"XXXXXXXXXXXXXXXXXXXXXXXXXXXX.....XXXXXXXXXXXXXXXXXXXXXXXXXXX....",
"XXXXXXXXXXXXXXXXXXXXXXXXXXXX.....XXXXXXXXXXXXXXXXXXXXXXXXXXX...."
};
