/* XPM */
static char *_4243_993f6c58b187e57379eb0db179c9b2943c369f110cac7b121fff65cb4dfbf142[] = {
/* columns rows colors chars-per-pixel */
"64 64 45 1 ",
"  c #251243",
". c #2B1143",
"X c #2E1E51",
"o c #19274D",
"O c #1D2755",
"+ c #1E2B54",
"@ c #1F275B",
"# c #1E2A5B",
"$ c #242556",
"% c #2B2256",
"& c #212956",
"* c #2C2159",
"= c #202C5D",
"- c #223057",
"; c #24315B",
": c #29375F",
"> c #2A3763",
", c #2E3B64",
"< c #2F3D68",
"1 c #313D67",
"2 c #313E69",
"3 c #324267",
"4 c #37446E",
"5 c #38446E",
"6 c #3A496F",
"7 c #374470",
"8 c #384470",
"9 c #3C4B71",
"0 c #414E76",
"q c #425075",
"w c #45547A",
"e c #48577C",
"r c #475A7A",
"t c #4A5A7D",
"y c #4E5D82",
"u c #4F6283",
"i c #546587",
"p c #546589",
"a c #59678B",
"s c #576A8A",
"d c #5A6A8C",
"f c #5E6D91",
"g c #5F7091",
"h c #606F8F",
"j c #627294",
/* pixels */
",fppasssssddssssasssssssshssasssssasssssasssssssssidssssssssssds",
"<ppaiiiiiiiiiippppppppatsttsiiiiiiiiiiiippiiiiiaiiiippppipppiuiu",
"==&40566666667666699405066q66666666650666666560666666686666693;#",
"@&@,2444433474476525434334444445434433444444344244444444444334=O",
"@==14444443664444858554455552088888255552888584677647477874444O#",
"@@=<4445746436444482445455442282888455824488844444363444444474=#",
"###24444436999961563354444448554444444544444444346999993447472=#",
"###2444463rssss94463454445445554444445454444444439siugy3444777=#",
"###2444433ugssgw4444444444444444444444444444844439dsijt3444447=@",
"###24484439ssssr524444444448444444449844444448443qisdsu4454442##",
"##=2474443rghddw5488444488284477885582828845828569dgdji2444777==",
"###<4444449reet94484444424884474588288888882844446wtwe94447472=#",
"###2444444>#&++,4444444484444444444444444444445441+-++=6777772==",
"O##<444448>++++,444444448444444424544444444444526,++O+;8477772=#",
"+#=24444442<,,<44445445455444445844444454545444444,,,<<4477777=#",
"###24444447444444444544544446744865444444444444444474444477722=#",
"##&4444444444444444444445445465457444447744444444444444846444<##",
"+##<4444447444444444444444744444444454544444445444544444444444=#",
"###24444447444444444447445444444444444444546444444444444474477=#",
"+#=24444447444444444744444744474454674444444444744444444447472=#",
"+##<4444444744444474445444644445444647644474544444644754477447##",
"#=#<444444444446464544444544464445444544544644544444444447774<=#",
"###<4444467444484444457547444447447444447444744445454744447772=#",
"###,4442454444444445444445444745744445454444444444444445447772=#",
"###12774444445457544444474544444454445444644474644447444444444##",
"###2444444447444445474445444475444744447454444445455444444444<##",
"###24444544744744444444544544464444444544444444546744447274477##",
"#=#24444444544444674644474644444546465447455454744445444777472==",
"##=27444444544464454464444464454444447444744447444444474477772==",
"###<444745444745444444544444744447444444444444444744444447774<=#",
"@##24442454554544544744745454445456444444445544454474444447772=#",
"###27444474444447445444447444447444454576444746444457444447772=#",
"###<4444454545454444444444444644744454545445444444444447444444O#",
"#=#<4444444444444464474654544475454744744474645475454644474444##",
"@##<4244454445457445444444454444444444454444447444644444447472=#",
"###<7744445444444445744567744445464446444744444474445475444477=#",
"###24444445444444447447444444444544444444456645444464444477777##",
"###2444454744444454544444474447444744754454444444444444547774<##",
"###24444444544444644448454446457444444447444445457444444447277=#",
"###24444444444444445446444454444454645744454444444544474447772=#",
"###27774445444444444444454454444454645454444444444444442444444##",
"###2774444444444444444444474465447444444464744444444444447443<=#",
"###<7474444444444444444454744474474475445444444447444444444472=#",
"@#=27444244444444444444444444444444444444744444444444444447472=#",
"###<4442444444444444444444645444454444444444544444444444477777=#",
"#&#24447444444444444444444444444444447674544744444444444777772=#",
"###<4477444444444444444444474444447454544444446444444444447772=#",
"###<44774344442444444444445445645464444446474444444444<3447772=#",
"###24444740wwww85534444444444444454444444545444446ww0008022822*=",
"###<447744edaaaw5555444444545454474545454444444439aaiht2280202=#",
"##=2427444edaaaw2554544444444445464475444544444446ddiht5002272=@",
"###2444443wsappy3346444444545444445444454446344440adhht3282077##",
"###4444444rdadfw4535444444444444447445474446444430athht3474477##",
"#=#2444444668905464544444444455444444444544444444466qq05444472##",
"###<444445:-+&o,354444424444545547544584444444445,++oo:3447477##",
"###2444444:--&&12444444444444544644445444444444453---+:3447247##",
"#=#<4488454454434552554445244444444444444444444444245448444444O#",
"###<4444444444544544444444544444444444444444444444444246444444##",
"#+&<4464446444555224444444444444444444444444444455454444444437=#",
"@#&24488453546545200554445544454444444445445444554544455456377##",
"#+=>31211311122122223222131221411141112224111422221122121311<<@@",
"#O&&&&&&&$&&&&&&&&&&&&&&$&&&&&&&&&&&&&&&&$&&&&&&&&&&-&&&++$+&&OO",
"%%%%%X%*%X%*%%%**%*X%*%*****************%*****%%%%%*%*%%XX%%%%%$",
"%   ...................................................... . .  "
};
