/* XPM */
static char *_3623_be391886cb040859f96dda4e227a558b29015047fd368a3e0ec0b5d538ff8688[] = {
/* columns rows colors chars-per-pixel */
"64 64 34 1 ",
"  c #1E0F34",
". c #1C1033",
"X c #151F36",
"o c #1C1F3E",
"O c #210D34",
"+ c #201033",
"@ c #231B3E",
"# c #16203C",
"$ c #1A233E",
"% c #171F43",
"& c #251A40",
"* c #172144",
"= c #1A2243",
"- c #1E2843",
"; c #202140",
": c #222B46",
"> c #262F4C",
", c #292E4E",
"< c #26304B",
"1 c #2A344F",
"2 c #2D394F",
"3 c #30374F",
"4 c #2B3450",
"5 c #2E3951",
"6 c #323D54",
"7 c #353F58",
"8 c #364156",
"9 c #364158",
"0 c #3A455B",
"q c #3E495E",
"w c #3F4961",
"e c #414B5E",
"r c #414D61",
"t c #455164",
/* pixels */
":twqqeeetqetqwwtwwwwqqqqqqqqeeeeeeeeeeeeeeeeeeeeeeeereeeeerrrqer",
">wwqqqqqqqqqqqqqwwqqqqq0qqqqeeeeeeeeeeeeeeeeeeeeqqqqweqqqeewqqw0",
"=-$<2225222222555155822822883333333333,33333333445545531255551-$",
"%==:<11111<<1111111111<1<22<,3,4,3,33,3,,3,3,1,<1<44<1111<1<<<*o",
"%==>1411<11<2211111141512113,344,3,3,,3,3,34131141111111444444**",
"*=*>1114212<<<111111111111111,111111331111,11111<111112141444,=*",
"%=-,11111<182281111>141121111111111111111111111111222221111<44*=",
"%*=,11112<8wwww811111511<1111111111,111111111,1112teqt81214444**",
"***>1114<28qqtq81111114111111144111<111<44114<11<2qqqt011<1114**",
"***>11441<8qqqq01>111111111111141111111111114<4128qqqq0<111114*%",
"***>41111<8wtqt841411141111144444,44444,44<43441<8ttrt01111144**",
"***>1111<288888811411111111141114341,34114441414:2888851111144=*",
"*==41111<1:*$$$:>1111114111111111111111111111111<<#$$#-4111144%%",
"*=*,<11112:#$#X:11111111141>111111111111114111112<###*-4>41>44*%",
"*=*<111111>><<<24114114411111151141411141111111<2<<<<<<1114444**",
"***4111<11112<<<111411411111111111111111114111,111121<11114444**",
"==*<4141>11141>1111111111111151114141111111111111<11111111111<**",
"*=*<1111111441111111111111111111111111114111111111111411111111**",
"$==<1141111111111111411111111111115115114411111>11111111111111**",
"**$<1111111111111111111451111111111111114411111111111114111111-*",
"*=*><111141111111444141111154114511111114111444111441111111111**",
"*==>114<11111111144411411111111111111111144144411141111411111>**",
"*==4<111144111111114111111111111151111111111155111114141114144**",
"*=*<4111111111111111414111111114111111414141111111111111111114**",
"===>411>441111411111511154111141115111111111111114441141111111**",
"*==>4111111111211111111144111111111111411111111114444111111111**",
"***<4>11111111111111111111114444111111111111111141141141111111**",
"==*,4111441111111111111111114441111141411511511111114111<11111**",
"*=*,4411441114114111111111111111111151111111111111144111111111**",
"%=*4441114411111111111114511114111111111111111114111111411111>**",
"%*=,44>1414111124511111141114111111514141151111111111111111144**",
"**=,4>11111114141111115141111141114111111111115141141111111114**",
"***>1111511111111411111111111111111141141141454111511111111111**",
"***>>111111115111111111114141414411411111111111114111541111111**",
"***>1111111111111411151141444111414114141411111111111111111114>*",
"***>1111111111114111111111444111411111111141111411111141111114**",
"***41111111111114444112111111111111151111414111111111414111111**",
"***44411111111114411111141141151111111411111111111411111111111**",
"***41111111111111124111111111111115111111441511141111114111114**",
"***>1111111111111111111111241111141411411111111144411111111114**",
"***,4444111511>11111111111111111111111111111111111111111111111**",
"***,4444111111111>11111151111111145141511114111111111111111111**",
"***,44441>11111111111111111411151111111411111111111111>1111114**",
"***44>44111111111111111141111411111141115114111111111111111144**",
"*=*>444>11111111111111111141141411111111111115111111111111114>**",
"***>>44411>11>111111111114111111111114111111111111111111111141**",
"***1>14411111111111>111411411412111114151111111111111111111144**",
"***>444><11111>111111>1112111141115111111111111111>11>11111144**",
"**=4114111588055<1111<111111111141421411111111111577885111111<**",
"===,11111<0wwww722111111111141411111111111111<1115wwqt01111111**",
"%==41<<4118wwtw8<111111111111112114114151111111115wwqt82111<11**",
"*=*>1114119wwww81111111111111111141111111111111118wwqt8<111111**",
"%*=<4414<<8qtwt81113<11111112111111111141111111115rqrt02111111**",
"**=,<1412<881251<2111111111111111424111121111111<228222<111<11**",
"%*=41<4412:$$$#<11<1111<1111111111111121111111112<##XX<<111111**",
"===,14111<:$$$#<<11111111111111111111111111111111<##$#:2111115**",
"===<111111111111111111<111111111111111111111111111<14<<3111114**",
"*==,<11111111111111<11211111111111111111111111111111414111111>**",
"%==,44111111121<1111<1<111111111111111111111111<1111111<111114**",
"$*=>4411111111121111131111111111111111111111113331131131111114**",
"**=:<><<<:,:<<<<>>>>>>>4<,:<>>>,>,,<<,<>>,<,>,,><>>>:<,<,<<:<<**",
"$o;$;;o$=o;%$=$===o;&%%&;$=;=&=%=;=&$=%=;&=%%=$=$o%$====$=;$**o$",
";@@@@@@@@@&&&&&&&&&&@&&&&&&&&&&&@&&&&&@@&&&&@@&&&@@@&&&&@@@@@oo@",
"@   +++OOOOOOOOOOOOOOOOOOOOOOOOOOOOOOOOOOOOOOOOOOOOOOOOOOO      "
};
