/* XPM */
static char *_4f8466151b043829520c50ce9618230JyFE1Dg9VoT8AWCK[] = {
/* columns rows colors chars-per-pixel */
"115 115 72 1 ",
"  c #1C0C19",
". c #1D0C19",
"X c #1C0C1A",
"o c #1D0C1B",
"O c #1D0C1C",
"+ c #1C0D1C",
"@ c #1D0E1C",
"# c #1D0F1F",
"$ c #290B1F",
"% c #1D0F21",
"& c #1F0F20",
"* c #1E1021",
"= c #1F1023",
"- c #290B20",
"; c #2A0B20",
": c #2A0B22",
"> c #290D22",
", c #290C23",
"< c #290C24",
"1 c #2A0D24",
"2 c #290E24",
"3 c #2A0E25",
"4 c #2B0E26",
"5 c #2B0F27",
"6 c #2C0E27",
"7 c #290E28",
"8 c #290F28",
"9 c #2B0F28",
"0 c #2A0F29",
"q c #2B0F29",
"w c #2B1029",
"e c #281031",
"r c #291032",
"t c #281033",
"y c #291033",
"u c #281034",
"i c #291034",
"p c #281235",
"a c #281136",
"s c #281337",
"d c #2A1237",
"f c #2A1337",
"g c #281338",
"h c #2B1339",
"j c #28133A",
"k c #29133B",
"l c #2C133A",
"z c #28143A",
"x c #28143B",
"c c #2B143B",
"v c #2C143A",
"b c #29143C",
"n c #132543",
"m c #132643",
"M c #132644",
"N c #132744",
"B c #132747",
"V c #152744",
"C c #172747",
"Z c #132847",
"A c #142847",
"S c #172847",
"D c #152748",
"F c #132848",
"G c #162848",
"H c #183351",
"J c #183352",
"K c #183353",
"L c #193353",
"P c #1A3453",
"I c #1A3454",
"U c #1A3554",
/* pixels */
"==998zzzUUUUUUGGVGGDDGFGGGFGFGGGzbvcccbcccccvzcCSSSSCCCDCDDCDDDDDDVDVDDhhjhkkjkhjjlhjhjjjDBVDBDGFGFFGFFFGFFGFFbzbbb",
"====28wwAZAUUUUULUUUGGGGFGFGGGFGGGSSGGGSSccvvvhcvvvhhkchCDDDDDDDDVDDDDDDVDDDVDDDjhjjjkhkhlkjjkzFFAZGFFGFGFFGFGFGGbx",
"&====85wGGFUIIUUUUUUGGFFGGGGGGGSAAAASAGGCvchhhchllhcchkhDDDDDDVDDDDDVDVDDVVBBDFMhhsjjsjjjjjjkjjFFGZGFGFGFFFFFFFGFxx",
"====2w55GZZULIIIUUUUGGGGFGZFGGGAAASAAAAGDchcvvhcchchhkhkVDVDDVDDDVDVDDDVBDBDDBVGjjjhhjhjhjjjhbzGFAZFFGFFFGGFGGFFGbx",
"=&2=#885vzvzjzAAAAAAAAZFAAASAAASAAGGAASSCGGDCDVDCChkhkkhhkhkhkhkhDDDDBDFDBBDMGDMVFMFDFVBDBDGAAGFGZAGFFGFGFFFFFFGFGF",
"==#==w88zvzzzvAAAAAAAAAFAAAAASASSAZGSAAADCVCVCVDCCkhhhhkkhkhhhkhjDVDVGMMBVVBFMBVBMGMVMBDBBMFAZFFGZFGFGFFFFGGFGFFFGF",
"&===#ww8vzzzzzASZZZZAAFFAAAAAAAAAAGVSCCCCDDCCVDVDDhhkhkhhkhkkhhkjVVVBVVBVMGVVGMFDMMGMGDBMGVZZAMGZAAGFFGGFGFFGFGFFFG",
"&&&&=#==#2#====1=#===1=w6w6w6vvzhvzDVDVVVVCVCDVDVDVDVDVDDVDhhhhhhjkjjjjBBDMFBMFMMFFMFMFMBFMZAADzzzzzzGFFFFGFFFGFGFF",
"#==*#==#=#**2*****%%>*=<91w1wzzzhhhVDVDVDVDVDVDVDVDVVDVDVDDhhhhhjhssjhhVFMFMGMFMFMGMFMFMFMFFGBBjzvbzkFFDGFGFFFFFFGF",
"=%#%*=&##=**##****%%**&>99w11uszhhjVVDVDVDVVVDVDVDVGDVDVDMVjjsjshhjhjjjVBFMFMFMFMFMFMFMFBFFFMGGxzzzbbDFFGFFGGFFGFFB",
"#%**%%%==#=*****%%%&%%%*&>%%==**w6q6<6shhhhhhhkVDVGMMGVDVDMFVFVBVjjhsjsjjhFMFMFMFMFMZMZMMBGVDMAASGzzxbxkbbzbzbzbxBB",
"%%#>%%#=#=#*****==>&%%>*%=%#=>>*11w66qhhhhhhhhjVVDMDBVDVDMDMBMGMDjsjjhjhsjMFMFMFMFMFMZMZFBGMFMZAGGxxbxbbbzbzbzbzjBB",
"%*****%%%%&&*#**&&%&&&&&%#&&2$**1q1wq2shhhjhhhjVBVVDVBMFFMGMDVBVFjsszzzzssVBZMMMFMFMFMFZFFFBFZAAFZzzakkkjjjjzbzbjMB",
"$*%%>%%%>%&jzzzzhhjjjhjhjjjjhhsshhhhhhhhjDVDMVDhjjjjhDGMMFMFMFMBMjjszuzujjjjzzxzMFMFMFZMFMMFZAAAFGUUIkkk99976w99999",
"%#%##%#%=*&jshsshshhhhhhhhhhvshhhhjshhjhjDMBBMDjhshsjVFMFMMMMMFMnssssjszuzuzzuzzFMFMFFFZMFMFZAAAFBIIKkxx9779991w991",
"#%#%%#%#%##hszszhshshjhshshsdhsshhhhshhshVBVMDVxsjhszMVDMVVMDMVFVhjjssszzsszzzusMFMFFMZMFMFFZAAAGMULIkkj89988899911",
"%$####=#&#2228dvsdvshshsvsddvsdvshshhhhshszzshhsjsVVBMMMjjjijjujsszzssszusszzssssjjjjjFMMZFFZAZGFFFBGLLLJIJ191998<8",
"#####=###&#822fssvsdshvddsvsvdsvhshshihhsjsyjsjshsMBMFBMsjssajzuzsuzuzzzzzzussszjsjsjzMBZZFFAZZAFGGFFUJUIKI<99<8999",
"##*##%&#&##222zvdsvvsvsddvjhssdddhshjhhshsshhyjhjjFMMMMMsssjujjutzsszzztsszsszzsjjsjsjVBMZVVZAFFMFVMBUUJIJK11199899",
"###=%###&&&888fsvVVVddsvsvdddvvshshshsshshhszzyhssjzzuzusjsVFMMFNZZNMMnZZZJJJJJJjsjjjssjzzjzZZGFGFFGBGMMKIKKKK99<<<",
"#########@#226sdsVnVddfdddddddrhdhsshsshhshsshssjsijssuzzuzMMMMMNNNNNNNZnZJJJJHHsjsjjsjjjjszBFDBDBGMBDMBKKKKKK19911",
"#####$#####816dsjVAVvsffhddddshsdsdssdrhsssszssjssidsszutzunMMMMNZNNNnZZZnJJJJHJjjjsjjsjszzsBMMGBFMDBBGMKKIIII19<9<",
"#####&#####@$*sssVVVVVVsdssdsssssdsddsjhsdssuzuzssssijujuzuzszjjzssssssztzstsJHHKKLjjsjsjjjsjjjjjjjjjBBMBMBDMMMBM9<",
"#oo#####+2##=#sssVVVVVVdddddddszdsdssdsrsssssssussssjijutzzusuzutsstsssszsszsJHJKKKusjjszjshjjxujhjhkFMFMBMMVMVnM<<",
"##@&$@#####&##ussVVVVNVszsissssusdjijijssssssssszuuzuzsuzuuzuzuzsssuzssszzsssJJJKJJtzzzsjuzjjujjjjsjzFZZZFFMVVVVM9<",
"o##@###+#@#@##zsssssnVnVVVVVNVVVVVnssdidzusszusuussuzusszuxuzuzutsuzsssssuzzssssKKJJJJ*=%%**ww971w9188>81<1zssnVM<1",
"+##o#######&##sssdssVnVNnVnVVnnNnVnijijstztzusuzssuzusususuuuzuzsssssssssszszsszJJJJJJ*%%%%%9888<891w<1<881zsrVVn<<",
"##+2#o#o#o&@#$ssdsssnVnVVnVnnVZnVnVsssisztztzuzusussusssztztstzussssssssssuzssssJJJJKJ%%%%%%8<8<8988<8<8211zssnVn1<",
"#++##@##&o#o#$sssVVnVnVnnnnMnnnnnNnnVnsisZnnussussusssuusus<1>jus>>2>888<8<88>888<8zuzuzj%%%%%%8<9zzuuztshssisssu12",
"######o###@#@#ssrVnnnVNnMMnMnNMMNnnMnVistNnNsussususussssss<18zus282>22<8>8<>88<88<uzzzzz*%%%%%88<ujzzztsysjssjut22",
"+#++oo##@@####tusVVVAMnnVMMMNnnMnNMMMMjujnMMuuuzszsussususs><8sts2>8828>888><888<89zssjju*&&%%#><<xauzzjsrhsrjiua<;",
"+######o###@#@><;:;6;;11;1<1222;>>1;<11;<<><>8<>>>8<<><8<><<>><>28<22222>>>888<<uzzuzzzujjjt%%%#&&%%*<>>2111;<atttu",
"X#O#O###O####%<<;22828<<<<<><><><<>8>><<,<,<<<<<<<8><<8>8>><<<8>222222228282<88<zszuzszuszuz=########1;291<;<;aautu",
"###+##O+##++#&<<122>2>8<>>8<><8<8<8>><>8,,<<8<<<<<><>>>><<<>8><>2222222222228>>8zssszszzszzs###=#####112;;1<;;ettut",
"X#&+#X###O####<<1<<<2;<<<<,,<88><<<<<<<<<,<>usu>><juu8<>ssssssssspspspssssssssszsssztzsstzss###suzuzsizsajuuaaarute",
"XXX#&O+&O#&OXX,<<<<<;2,,<>,<><<<><><>><>><><uss$<>usu><>suustssupspsssssssssssssszsszztzzssz###tsuzuaiusattutarruet",
"&&%###XX##oXO#;;><><><>><><<<<<<<><><<<<><<>uuu<><ptt$>>sssssssuspspsszussssssssszsszsssjtzzX##tuuzuiauuuutuarertee",
";;,$,&#X#X##O#&X%><<suujsusuuusussusuuuuusssssutusppttpptsttstsspspspsusssssssssssssuzsszzuu####=@22<<11jtutatareyy",
",,$,;&OOO#XXOO###<><suuuusuuuutsuuuusususuuuusttsstpussssszsstssspspspsssssssstsuzuzuzuzuuaa#O####;;;1;2tutstr9iyyy",
",,<,;O##OOX&#OX#@><>uussuuusuttsussuuusuuussuutsusspzususuuussstpspspssssssssssssszuzuzujaui##o#X&<11;;$stueataryye",
"#+XX-#++,,,,,,att2,,uuuuttauuzsuuusuttuuu<><usp$>>tsu>><>>>><>>>><<8>>>>>88<<8<<1<<<<<8<>sts####O#<<11;<$$;;;;rryye",
"X+#X@XX#,$<,,,ttu>,,uuuujtuuuuuususutsuus><>ssp$>$sss>8><>>8>8<<<88><>8><<<<<><8<><8><><<ztso#ooOX;<<;;;2$;;;,res8e",
"#O###O+O;,;;,;aau2,;suuuatuuujtauuustuutu,,,uuu,>,sus$<><8><<>8><>8<<<>88><>8><><><8<,<>>tuso##o##;;;;;;$$$$,$tawty",
"XXXOXX&X&X&X#+++#@@@@#*<,$,,<<>,><>>,,,,<,,,<><<,,><>>>><>>$<<>>>>><>8<<>8<>8<<><<<>8><,<uss#oooXOoX%XX%@ $oXXeejty",
"X#XX##X##XO##XX&OXX#@@#,,,,,;<<;>><,,$,$>,,,,$$>,><$>><>8$>>8><>8>>>8>>>><>8<8>>8>>><<,,>ztp@@o#X#X#XOXOo o   eyu1y",
"XX##XXXXOX#XX#OXO&XX@@#$;$,,<<<;><;$,,,,,,$,>><>$<><><>82<>8>>>8<<><<<<>><><<>8>8<>8>8,2>ust@@oo#ooX+XOX o o $eytyy",
"#X#XX@OOO##X$##XX&O#O#XXX@,,<#XO<,,@#@,,,,,,,,,<$,<>>>28>>$<><>><>>>><>8><<<8<<>><>>>,@##ustXXooXX@XXOXO  $ o yytyy",
"X#XX#$X#O+X@XXX#OXX#O+X##+,;$@#O,$,#@@$,$,$,,$,$>,,,>2$$<>>>8>><<>8>8<8<<8><><<<>><<>,@@#tst#Xo#&XXX$XOX   o otyyyy",
"X#XX#XX#XX#XX#XX#X$X#XXO#X;;;#XX$,,@#@,>,>,,,,;;>,<$,,,<<><<>>8>;<1>><<><>><1211<1;2;;O#Xsss@oooXOXOXXXXXX.oo eeetr",
"$XX#X#$XX#X#$XX#X##X#X&XX#X&#XX&X@#,,$@@@<$,$,<2$,<>,,,$<<>><>>>2jju<<>szuuuususuuujiiXO#;;;ooooOXOX  XXXX.. $eet$$",
"X##XXXXX##XXX##XXXOXXX#OOXX&@@@@@@#;$,@@@,,$,,$;<><>,$,<>>>,>><$<uat>>>sttzssuttztuuaaXOX;;;oo@@XXX$  X XXX. $eee;$",
"XX#X#X##XX#XXX#X#X#&O#XX#&OX@@@XX#X$,,#=@,,,$,22,$>>,,$><8>><>>8<taa<8>usssusustuuuuttX%&;$2o@ooXXX@ $ XXX$X oeee$$",
"#XX#X##XX$#X#XX$X#XXatt,;;tta;,$tttuuuuutsstuuusuutpt$;<suu,>>#@X+&+XX#X#@#XXooo#@@@O&XOX$;,ooooOXXX$X  XX.X@o1zt#@",
"X#X#XXXX#XX#X##X#XXOtta;,;ata<,,aaututuuuutsutususpet2;$tsu<<<@@&X#X###%@@X##o#o@@@@O++X#;,$ooooXXXX.X $XXX   etwo@",
"X#XX#XX#XXXXXXXX@@@#uau;,,aau;<,ttuuttttttpttttttsppp$22tut;,2@@X&X&XOXX#@@@oo###X@#&X+O%-$,ooooOXXX.XXXXX..XXeeso ",
"$XX#X#$XX##X##X#X,$;##&;,,XX#$,,@@@#@@@@@@@+#o@#@+++@@@o##@#X@@@O&OOX##X@@@@ooooX@X@OO;-$OXXooooXXXX.XXX$X$$$2tu8o ",
"X#XX#OX##XX#XX#XX;;<+#X;;;#X#;2$@#oo##ooo#@@o#@oo@#o@oo@@@o#oo#o$@XX@XX$XX@XX#XXX#$XX+;;$oooooo o o  o o..X$$;rty@ ",
"XX@#XOXX#X$XX##X&;<<#X#;<;X#@2;2XXoooooo@ooooooo#oo@oo#o@@#oooooX##XX#X###XXXX###XX#++,,2ooooo o o o$ o ..X$$$tt8 @",
"#X@XO#X#XX#XX#XXXOXXX#XX#OXX@@@oooo#o##o#oo#@oo#oooo#o#oXXoo#oo##XXOX#XXX#X##X#XX&XOXX,$2 ooo o o      o $.$$;$$$  ",
"X#$X#XX##XX##OX#OX&XoXO#X##X#Xooo##ooo@oo@ooo#@oo@#o@oo@#Xo#o@ooOX&X#XX#XX@$X#XXXXOXOX,,$ooooo o $o   o XX $$$$$$  ",
"X#XXX#XXOOXOXX#X#XX#&X#XXXO##oo#o@#o@oo@@o#@oo@o#@o#@ooooo#oo#ooXX#X#XX#OXO#-@X#+X++O+;;$ oo o    o  $  XXX$;$$$$  ",
"#XX$@$X@XX&XX$XXX@#XXXX#X&#Xo@@o#oo@o##ooooo@#oooooooo#o@#oo@oo@#XX#X#XXO#oXXO#XO&O;;;++ @oooo     ooo  XXXtat$$$  ",
"X##X#XX#&XO&&X%XX$X#OXXXXXXXooooooooooooo##oo#o##o@oo##oo#o#o##o+#@XX#X#@XX$#XX#XO+;;;OX   o o$ o o ..X$XXXttt$;$  ",
"XX#XX#XX#OXOXX#X#OXOX&#X##X$#o@#o@#o@#o@@oo@oo@oooo#@oooooo@oo@oX#X@$XX#XX#@OOXXX#+<;;XO$ o o  o o o..XXXXXttt$$$ $",
"#X@X#@X#XOX&XOX+##XOX$XX#XX$XX#X#oo#oo#oo#oo@o#@o#@o#@o#@o#@o#oo#oo@oo@o @oo@ @ o@o$$;OOXOX X    o o $2$$$$ytt     ",
"X#$XXXXX&OOO&X-XXXX##XX##X#XX##Xo@@oo@o@@oo@ooooooooooooo@oooo@o@o@o#o@o@o@oooo@ooo$$$XXOX @ $   @o $$$$$$$tet   +$",
"XXO##OOOOOX#XXXOX##X#XX#XX#X#XX#oooo#@ooo##oo##o@oo#ooooooooo@ooo@o@o@o@o@@@@o@o@o@$$$.$XXX XX@   $  $$$$$$t1t     ",
"O##XXOOOOXXXO##XXX#XX#XX#XX#X#XX#o@#oo#ooo@o@oooo#@oo#oo@o@@oo@o@o@o@o@o@ooooo oooooX..XXXX$XXX    o   oooo@ $  o  ",
"X&XXOOOOOX&#OOOXOXXX#XX##XX#X$XXo#oo@oo@@oo@o#o@oo#o#ooooooooooX@@o o@o@oo@ooo@ooo @  XX $XXXXX$o o o  @o          ",
"+++XXOOO+XXOXX&O@-#XX#X#XX$X#XX#@oo@oo#oo#o#ooo#oo#oo#ooooooooo#@@+ @o@ooooo@@ @oo$ X@XX  $XXX . o o o   o         ",
"OXX$XOOO+#XOO&#XXX##X$XX#X#XX##X#oo##o#oo#ooo#oo#o@oooooooooooXX @ $o@ooXo   $oooooo X X  XXXX  o   o   o    $     ",
"OOOXOX#OXX$XOXOX#XXX#XX##XX#XX#Xo@oo@oo@@oo@@oo@oooooooooooooooX @@o@o@oX@@@  ooooo X XX@ XXXXX  o   $     $    $  ",
"OXOXOXO#XOXOO&XOoo@oo@o@X##X##X#@o#@o#@o@o@o@o@oooooooooooooX@X#oo@ o@ @oo@ @oooXXXX $ X     XXX@  $    ........   ",
"XOOOO+OXXX$XOXOX@#o@@o@oXXXXXXXXo@ooooo@o@o@o@o@ooooooooooooXXXXo@o@ooooooooo  oXXXX  X    $ XXX  @   $ ........   ",
"X$XOXXXOOXXXXOX+o@@oo@o@#XX$oX#X@o@o@o#o@o@o@ooooooooooooooo$@XOo@@ oooooooo oo X$XX   XX XXXXXX @      ........   ",
"XXOXXX$XX+X+OXOX@ooo@o@oX##XX#Xoo@o@o@ooo@o@ooooooooooooooooXXOXooooooooo@oooo o..XXX @  XXXXXXX        ........   ",
"XXOX$XXOOXX+XOXXo@ooo@ @oooo-@X@@o@oo@o@@o@o@ooooooooooo@@XXXXXXoo   @oo  o o   .o@   @ XX  $... @ $.   @   ....$  ",
"X+XOXXOXXOXXOX$Xoo @o @o@o#o@@#X @o@@o@oo@ooooooooooooooXXX$X$OXoo $ @oo o o o  .. X    XX ...o. @  .  $  $ ....   ",
"OXOXXOXOOXOXXOXO@ $ Xo@@o@XoX@X@@o@ ooo@@oooooooooooooooXXXXXXXO  o X@ooo   o o XXX.$ XXXX$.X.@   ....      ....   ",
"XOXO+XOXXOX$OXOX@@@ @ @@@o@@oX@X @o@oo @o@ooooooooooooooXXXXXXXXoooooooo $   o $XXXX $XXXXXXXX X@.....      ....   ",
"oooooooooooooooo @ @#.o$@ XXX#X$oo@o@ @ oooooooooooooooo  o @...  $      o o   o$.  ...o@      X...................",
"oooooooooooooooo@@XXOXXX@@#XOX..ooooo@oooooooooooo ooooo $ @ ..$   oo@  $ o   $ ..XX$X. X     .X...................",
"ooooooooooooooooXOXXXOXOXX@XXOXX@ oo@o@oooooooo  oo oo o +. . @.o o  o$    o o oXXXXXXXX XX   $ ...................",
"ooooooooooooooooOXOXOXOXXXXX$XXXoo@@ oooooooooooo  o o     @ @ . oo o  o  o o o XXXXXXXXX..$    ...................",
"ooooooooooooooooXOOXOXXXXOXXXX+Xoooo$ oo $o ooo      o  o o  @  o o o o   o @  oXX X XXX       $................  .",
"oooooooooooooooo$XXOXOX#OX+XXXXXoooo ooo  o  o  $ @ o $  o o . @ o o o o@  o  o  $  X X         ................  .",
"oo ooooooooooooo@XXXOX$XXO$XOXOXoooo  o  o oo $ o    o    o   >   o o   $ o   o $   X     $     ................  .",
"o o ooooooooooooXXXOXXXXOXXXXXXO o o@  o  o  o   o oo o@   $       $ o   o o $ o   @ $  $       ..............     ",
" oooooooXXXXOXooXXXXXXXXXO@  XXXoo o oo @   o o o o o o        @@    o oo o $ o     ....        ..............     ",
"o oo oo X XXXO.X$XX.XXXXXX  X XX oo $  o   $ o   o o o o    $  .o $   o  o o   o   $....   $    ..............     ",
"   o o o X@ XXOX XXXXO@ X$X XXXXo        oo o   $   @ $ $        o o o o      o   ......    .. ............        ",
"$   o o     XXX$X $XXX  XX $XXXX o    @ o  o o $   o            o o o o @    o o  ......    ...............        ",
"   $    XX$ $XXX XXX    XX..$X..o o  o o o oo o  o o o o      $.          @ ....    .......................        ",
"@   $ o XX $.XXXXX$X  @ X...XXXo o $$ o o $  o oo o o o $.     .    $   o  $....$   .....................          ",
"   o o oXXXX..X @o   $XXXXX$XX.Xo  @   o o  o    $ o   o..    ..     o@ o ....  $   ....................           ",
" oo o o XXXX   X    $XXXXXXXXXXX o    o o     @       $ ...   .. $$   o  @o...      ....................           ",
"o o  o o oo o o     o      o  o o o   @o o o o o.        $  ....     $          ............... ......             ",
" o oo o $  o o $ $ o o $ @o    o o o    o   o o .. . .      ....            + $ .... ........   .....              ",
"o $  o      o   o o o o  o o$ o   o $ o  o   $ o$.          ....          $     .............   .....              ",
"    o     @  o   o @ o o$ o  o o   $ o oo $   o ...  $      ....  $             ..........     ....                ",
"o      $ o oo o  @         o oo @     o  o o @  ... ....$     ..   $ $$       $ .. .......     ....                ",
" o $ @o o o  o o   .@     o $  oo $ o  oo o    o... ....    ....                ..........                         ",
"o o  o o $ o  o   .@.@   o o     o o        $   ........    ....                ........                           ",
" o oo o    @   $$ @...> o o   @ o o o @o o   o o........    ....         $$     ........                           ",
"  $  @     o    .....$         $         o  $   ....................  ..        ........                           ",
"   o    o o $ @ .... .  .      .        $       ......... .......... $..        .....                              ",
"o o o  $ o oo   ....    ...$   . $           $  ......... .........   ..   $.   .....                              ",
" o o oo o o  o o....  . ..         $  $         ......... ........    ..    . .......                              ",
"oo o o o@   o$  ............         $          .......   .. ........................                              ",
"  o o o         ............              $     ....      .........................                                ",
"   $ o   o      ............$                   ....      .........................                                ",
"    o   $  $    ............       $           $....      .........................                                ",
"          $       $                     .........         ........................                                 ",
"      $       $          $              .........         ......................                                   ",
"  $                          $     $.............         ......................                                   "
};
