/* XPM */
static char *_33c0d44bb26419edd36900beb0bb9ecVcSqj692KM4GpzUP[] = {
/* columns rows colors chars-per-pixel */
"91 91 81 1 ",
"  c #1C0C19",
". c #1D0C19",
"X c #1C0C1A",
"o c #1C0C1B",
"O c #1E0C1B",
"+ c #1D0C1C",
"@ c #1E0C1C",
"# c #1E0D1C",
"$ c #1C0E1C",
"% c #1D0E1C",
"& c #1F0D1E",
"* c #1C0E1E",
"= c #1D0F1E",
"- c #1F0E1F",
"; c #1F0F1F",
": c #1E0F21",
"> c #1F0F21",
", c #1E1021",
"< c #1F1021",
"1 c #200F20",
"2 c #200F22",
"3 c #290B20",
"4 c #290B21",
"5 c #2A0B21",
"6 c #290B22",
"7 c #290D22",
"8 c #290C23",
"9 c #280D23",
"0 c #280D24",
"q c #2B0C24",
"w c #290E24",
"e c #290E25",
"r c #2B0D26",
"t c #2A0F27",
"y c #2C0E29",
"u c #2C0F29",
"i c #2B1027",
"p c #2C1027",
"a c #2B1028",
"s c #2C1029",
"d c #271235",
"f c #271236",
"g c #271336",
"h c #281033",
"j c #281034",
"k c #291034",
"l c #2A1135",
"z c #281234",
"x c #291136",
"c c #2A1136",
"v c #281337",
"b c #2A1337",
"n c #281338",
"m c #2B133B",
"M c #291439",
"N c #29153B",
"B c #2B153A",
"V c #2B163B",
"C c #2C143B",
"Z c #2A153C",
"A c #2B153C",
"S c #2C153C",
"D c #132743",
"F c #132744",
"G c #152948",
"H c #152949",
"J c #162848",
"K c #172848",
"L c #162A48",
"P c #172A48",
"I c #162A49",
"U c #16294A",
"Y c #172A4A",
"T c #182949",
"R c #1A3554",
"E c #1B3554",
"W c #1A3555",
"Q c #1C3554",
"! c #1C3654",
"~ c #1C3655",
"^ c #1C3656",
/* pixels */
"uuuuuJJJJJJKKKmMANANANAANANANANANAAAAAAAAGGGWWWWRRHHGGTGGTYGGGYYGTPTYYGPTYTGGTTY!^!!^^YYPYP",
"uuuuuJJJJJTJKKCSNANAAAAAANANANANANNAAAAAAIGGWWWWRWHHGGGGGGGYYGYUGTTGTYTTGTYYTTYY!!!!!!YYYPT",
"mmmmmCSMCSCCCCMSAAAMNANANANANAAnANANAMAANANVAANHHHRRWWWWSAAAAAmAAVSSSCSSSC^^^GGKYYYYPYYYPYT",
"mmmmmmmmmMAmCCCSAMAAANANANANANAANANANNAAVAMAAAAHGHRRWWWRSAAAAAAACVCVSSSSSC!^^TGKYYYYYPYYYYG",
"mmmmmdmMCCMmMCMSAmMAANnANNNAnAANNAMNANAANAAMNVMIGGWWWWWWAMAMAAAASMVSCVCVSS!!!TGKYPYPPYPYPPP",
"mmdmmmmmMMCCCSCCAMAMnAANAMmNNAAnMAAAAMNMVANNAAAAAgNVMGGGWWWRWWAmSVSSVCVCCC!!!PPKPIIGPPPPPPP",
"mmmmmMMmCCxSMmCmNnAAAANmnAAAAANAAANMMAAANMNNAMMMANNMNIGGWWRRWWNAMNMVCVCVVC!!^PPPPPGGGPIYIPI",
"xmmmmxmmmmmCCCCMmmNnANAmAAnAnAmNMNAANANMVAMAANAAVVNAMIGGRWRWWWMNSSVCVCVCCV!!^GPKPPPPTPPPPPI",
">>>><211111112uuursaauuaurAAAAnAAAnASAmAAAAAMAAMVAVAMAAANMMGIGGGGGGGMSSCASGJGPPPPGGSSVVVVVS",
">>>><22;11>112rurusrurausunnnNAANMAMMMMMMMMMASMANMNAMMNAVMNIGGGGGGPPAMVSCSTKPPPPPTTMSMMVSSV",
">>=>>>;;11>>11uruuuaaauruaNNnAnnmAMMMCMCmAAmSMMMANAMAMmgMMAIIGGGIGGGASSVMMGGGGGGGGGMSMSMCCS",
"xmmmmmxmuur>211121<<raauarururuaMMMAMCMMMMMMMMCCNNgNAAAAVVAANAMNAMSSMVMMSSMSMpssrssssssssss",
"MmxMmxMmarr>>>12111<raaaaraaaautMMMAmMSMMMSMMCMMgAMMMMMMMMMSMNMAMMSSMCCMCbVVCpspssspspspspp",
"MmmMMmMmrrr>>>>1111<aarrruaraaramAMMMMMMmAMMMMbCMMMANAAMASMVAVNAVMMMMMCCCNVCMspssspspspspss",
"xmxxAxxmMMnmmxuur1>><<,2,,rurrrariiiraMSMCMxCMCMSMMMAMMMMMMMMNNMCMMMppprprpppaaisaaaaaaasis",
"mmxmxxmxxmmxmmrrr>=>><2::,rtrururararsMMMMMCbMbMMMMMMMAAMMVMMMbNMMCMpsprppppppssspaaaaaapsi",
"xxxxCxxCxmxxxCrrp;;;<1>><>rrrrrrrrurrrNnMMMMCMMMMMMMMMMMMMMMMNmbVMMMppaprrpprppspaiiiiiiaai",
"rrmxxmmxxCmCxxCxb;;<>=>><<<><<>><2::,<><2psrbxmMSxMMMMMMMMMMAmMNMCVMpprisisrippriiiiiiiiiii",
"rrmCxxxxxxCxCCbMb;;;11>=#<=<;$<<<>::,:>><rpiMMmMSMMMMMMMMMMMMCMMSbSMrraaisprprirraiiirriiii",
"rrxxCmxCxCxxxbbbb;;;>=>>2;2><>>$<$::::><<urrbCMMxMMMMMMMMMMMMMMCMMxMpiirrrppiriiriariaiiiii",
"rrxCxxxCSxCCClxxx@@>=11;=>>1>>$<>$<>$<<$;;<>>>>rsrMbMmMMMMMMCMMCMMMxirriiiiiirriaairiirrrra",
"rqxbxCxxlbxxxbbCm111=1;;=>==$><<>>::<<::<;>=>=>rprMMMdMMMMMMxMMbMMMSiirrrrrriiiiiriariiiaii",
"rrxxbbxbblxxCxblx;@1==;;==>$<=;=:,$<;$<;>=>=><=irrbgxgAdMMgNbbMCNndNwarirrii7prrriririiiirr",
"qrCxbbbblbbCxxlbx;;;;=;;>$irrri7wrwrwrwrr>=><$><;2<;<<=>rrrrprrpraaiirriirrrrrpiririip7riii",
"qqxbxxxxxxklxxxbx;;O=;O;;;r7rp7rrt7rii9ri;$$<;;$<$;<<<;;rirriiwrariirirrprrrpq7priprppprrii",
"qqlbxmxmCxxCmxMbx;;;1@1=#;7p7r7awrir7r9i9;;;<$<$$><;<$<;rwriwrrirrririarr7pp7pqqp7srp7ipii7",
";;llxxxxllkqqqqqq;;O@1;=;;;#;7r7ti97r7riirr7i9iirrbgdNMxdxgbgxdNxMMMNbgrri7rpqrprrp7ri7pira",
"@;llxxxxllxqqqqqq1@;;;@;##;;;r7r999iii7977iirr9rrrgxmdgbNdMbMNxdMMxxdgMrr7pr7p7pp77r7ir77i7",
"@;xxxxxhllc6qqqqrO#=#;;O;;$;$w667r9r97r9r7r9w7i7w9bggNdbMdMdgbgbMbMdxMMri7ri7prqriirrri7i9r",
"@@1@@=>@;;=6qq1@;O#;=OOO$$$;<$=====777===7i9=1=7i9gbbbbgxMdMgMMggbbNMMgxbbr7rp7p7777i7irrbg",
"@;@1@@1>@@;qqq1;;;##=O@;;;$$$>;====rr7$>>779=$=i7aMbdxbgbbMdgbxbMxbbxMdMdMi777p7i77i7i7r7gb",
"@=@@1@@@;@@qq6;@##;#O;=;#$;#;$=====799>$=9rr$>;777ggNgbdNgddNgMgdMgMxMMdMgi7p777s77ir77iibb",
"O=@;=klkxxxkxx1@@==O=@@==$$X=O$O@===oo===#$#>XOX>$w07gMxgMgggxbgdAdxgbxNddDDDr7r7r7rii77rmx",
"O@@@;lkkxxxkxx+@@@@@@@=oO$>=O====@X===@====@>$>=$>00rddgMddbMddNxdxmMgggdNGDD7r7r7r9777i6xg",
"=O=O@kckkxckkc1@>O=O@@=X#X#$$=X==#=====@===$$>$=o>qw9ddNdxghbddgddNdbgbggdDDD7777r7r9r7iqdx",
";O666xkckxkkck@@@==OO=X=#=#$#====O=XO#==$#=#$$$=$:$$;dxxDDGDDDDDDDDDDDGDGDDDGxxg;$;$;$;;===",
"O@qq6xxkxkxxck@@@=OOX=XXXX=#=@XOO====$====#====#$$=@$dxdDDDDDDDDDDDFFFFFDDDDDdgx==#=;;=====",
"X@666xkkkkhkkk@O@@O=O==O=#=X$X==@oo=O=XO$#$=#$#=@>===ddxDDDGDDDDDDDDFFFFDDDFGgxg=#===###===",
"kkXX=@@oO=OO++++@$OOOOX#=X#XX>=$O=@XX=OX#777hdx766ddxxddddhghNdbgw9rdmdddmdMxdgx#=$==#=#X=$",
"kxoXo@@@OXO@++++@OO==X=X##X#@$XXX#X@$O==#777ddh7w0ddddxxhdbdgdgdd9r9dddmdddddxxg=##=#=#====",
"kko@X@O@@@@@@@++o@@o@o@o=O@###X$$$o$#X==#967hhd777hddxxddxgxghggd000djdxbxgxxgxg##$#@=OX===",
"33oo@Xoooo@oo@++oo@oooo@X@OXX#$X$O@==Xhdhhdhxdh677hgxkddxggbxg$;$>$$dnndggxggggd=#$#=X=OO$#",
"36OXOO@@o>o@@o>+oo>o@X@o@X@X##X$@=$XX#hhhxhhhhd777hhdhjxhhghxg=$$$$$jjndxggxxggx=X$#X==O=XX",
"33XXO@@@@@@o@@++ooXoX@X@X@X@XXXXXXX@##dhhhhdxdh677bhhhdxgxMdgd$$O>$=nnddgxxgggdd##=XO=XO#O=",
"66@XOOOXo@o@@o@@@X@X@X@X@X@XXOO=XXX@X=677767676777hhdhhjjhxxxh;$=$$@r77gxxgxxgdd$=X=XX=OX=#",
"36OOOX@o@o@o@@@@X@X@X@X@XOX@XXOOX$XOO=766776767677ddhhxdddkdgx===$$=97rdggxgggxg$#=XX=OOX#=",
"63OXOX@@@O@@@OOO@X@X@X@XOXXXXoOO$X$=OX677677677777kxxkdhxxkddd#$O$==977dgggxdddd$$=#oo>===#",
"OXXOX@oX@o@o@oOO=@X@X@X@XXOXXOXOX$ooXO#X=##X#X#X=X##=oX$O==$=O====$X==#==$r79999$=$#=oX@#XX",
"OOXO OXOXOo@ooo@@X@X@X@X@OOX O OO=#O@XOX@X@XOOO=#X=##X=Xo===@o====Xo==O==O66r6wr=$=X=XX#OO@",
"OXOXO OXOX@o@@@oX@X@X@X@XXOXO O  XXXoOXOX@X@X=O@X#=X=XX==oXX=O$@=====o====77q069=$XO##=X#O=",
"XOXO OXOXOXXo@o@@X@X@X@XOXOX O OX XO@XOX@X@XXX=OO=#XX###@=O@o@wq7779677dxdddd$>$====X==##XO",
"OXOXO O OX@O@X@oX@X@X@X@O O O O OXXXOOX X@X@ooX@OXXX#=X#@@O=$@60676766rdxddxj@=$=@$$X#X#X#=",
"XO O O OoXX@@@X@@X@X@X@X X O O OXOX  O O@XOXX@XXXo#XX=##X=X#@oqqr696666dkddxd=@@$=$$X=OX#X#",
"OXO O O @O@oXoX@X@X@X@XOO O O O  XOXXOXOO336@X@666363676677606006769=oX=@=6w6====@$O=$X#X#X",
"XO O O OXOOXoXo@@X@X@XOXOXOX O OO X  XXXX663X@X363636367676769667676O@=XOX666=@$=$=$X$X#O##",
"O O O O OX@X@@@XX@X@X@XOO O O O  XOXXOOOO336@XO666363663667696666766O=OO==6q6=$@@@o@XX#X#XX",
"O O O O XOXOXOX@X@X@X@OXO O O O O O O 333OXX633XXO636X@X676=O=O@=Xoo=oX=$@60q$@@@@o$$o$oOXX",
" O O O OOXOXOXXO@X@XOXXOOO O O O O O O333O O633OOX366@X@66qoXoO=X==o>o=O@@060@$$o$@>@$o>@OX",
"O O O O XOXOoXo@X@X@OOOO XO O O O O O 333  O333XX@663X@X666X@X@@@O@=XOOO$@0q0@@@$@$$oo@XOOX",
" O O O OOXOX@O@X@X@XXX XOO O O O O O O OO O OOXO@XXOXOXOXXXXoO=O@=@o@==O$o$@$@==>$@o==o==X@",
"O O O O OXOXXXo@XOX@ O O O OO O O O O O  O O O OXXOXX@OXX@X@ooooXo@@=XOO>=o=XOOXo==Xooo>OXo",
" O O O OXOXO@O@XOXOXO O X O  O O O O O OO O O O @OXO@XXO@X@Xoo@@>o@oO=X=oXoo=OX=oXX=o=@XOX@",
"O O O O OXOXOXOXXOXO O O O OO XOO O O O  O O O X OOOXOOOX@X@o@oo@o=oO=@@>o=oO=@@=o=XOO@=OOO",
" O O O OXOXOXOXO OOOO O O O  O X O O O OO O O OOXOXXOXXX@X@X@o@ooooX=X@@Xo=oO=@X>oOX==@OOOO",
" O O O OO O O O O O OO O O O O O O  O O O O O O O O O O  OOOOOXOXO@=o@o@@oo@=o@=XX@=O=O=XXo",
"  O O O  O O O O O O OO O O O O OO O O O O O O O O O O OO  OOOOXOOo@o@@o@X=o=@X=@=@XX==X@@@",
"OO O O OO O O O O O O O  O O O OOO..O O O O O OOO O O O  O OOOOOXX@X>o@o@=@@XX@@=@=XOO=@=XX",
"  O O O  O O O O O O O OO O O O .... O O O O O O O O O OO O O O X@o@o@o@o@oo@==XXX=@=@O@X=X",
"  O  O OO O  O OO O O O O O  O O    ....O ....OOO O O O  O O O OO@oXo>OX@@o@o@@o@==O=X>oX=O",
" O OO O  O OO O  O O O O O OO O OO  ....  ....OO O O O OO O O O XX@Ooo@oX@ooooo@@XOOX=oo=O@",
"O O O  OO O  O OO O O O O O O O ..  .... ......OO O O O  O O O OOXX@oXo@@X@oooo@@=@=Xo=@Xo=",
"   O O      O O  O O O O O O O O..  .... ......O O O O OO O O O XOOX@@@Xo@ooooXO@o@@=Xoo@=@",
"    O O OO O O OO O O O O O O O     ............O O O O O O  O OOXOXXOO@XXo@OXo@X@=oo@=@X@o",
"  O  O O  O OOO  O O O O O O O O................ O O O O O OO O XOXOOXXo@O@X@X@X@X@@oXOXoo@",
"O OOO OOO   OOO.O O O O O O O O ................O O O OOO O  O OO OXOXOXO@OXo@XOX@@oo@X@oo@",
"O OO O O O  OOO. O O O O O O O  ...     ........ O O O O O OO O  O OXOXOXX@oXO@X@Xoo@@@Xooo",
"  ....OO  ......O O O O O O O O ....    O ......  ....OOO  O O OO O O OXo@X@OXXOX@X@@@@@@X@",
"  ....OO........ O O O O O O O O....      ......  ....OO OO O O  O O O O@X@oXOOX@X@XX@ooX@X",
" ...............O O O O O O O   ..        ......  ......OO O  OOO O O OXO@XXO@XOXXOX@X@X@XX",
"................ O O O O O O O O....        ....  ......  O O    O O O OXo@OXoOXOOXOX@X@X@@",
"................O O  O O O O O O....        ............O  O..   O O O O OOO O OXXXOOXOXOXX",
"................ O OO O O O     ..           ...........  O ... O O O O XOXXO O OO OOXXOXO@",
"................O O  O O O O..  ...          ...........  OO..     O O O OXOXO OO XO OXO@X@",
"................ O OO O O O ... ...           ..........  OOOOO  OO O O O  OOXO  X OXOOOX@X",
".........OOO....  OOOO OO OO.......           ...............OOO  .O O O O O O OO O O O X@X",
".........O  ....  O.OOO  O O........            ..............OO    O O O O OOO  O O O O@XO",
"..........  .... ... O OO OO........           ....................O O O O OO O O O O O XOX",
"................ ...O O  OOO........            O...................O O O O  O O O O O OXO@",
"................  O OO..O O O   .....           O  ..................O OO O O O O O O OOXOX",
"................   OOOO. O O O  .....               ..................O  O O O O O O X X O ",
"........... .. .  O OO..O O ..  .....               ..................  O  OO O O O O O XOO"
};
