/* XPM */
static char *_253_16f0774231b51588acd5fa067822c2be7582bbb31e2e8ccebe9e0401035f4c8a[] = {
/* columns rows colors chars-per-pixel */
"64 64 207 2 ",
"   c #010404",
".  c #030A06",
"X  c #080B05",
"o  c #020609",
"O  c #040A0C",
"+  c #090C0E",
"@  c #06110E",
"#  c #09140F",
"$  c #050D11",
"%  c #0B0E13",
"&  c #0F0E19",
"*  c #061212",
"=  c #0A1414",
"-  c #061814",
";  c #0C1916",
":  c #071519",
">  c #0C1619",
",  c #07191B",
"<  c #0D1A1B",
"1  c #101517",
"2  c #12151C",
"3  c #111B1D",
"4  c #181F1F",
"5  c #0B211E",
"6  c #14201C",
"7  c #0D1C22",
"8  c #0A1B24",
"9  c #0F1E2A",
"0  c #131622",
"q  c #131D23",
"w  c #1B1D25",
"e  c #141E2A",
"r  c #1C1E29",
"t  c #201E29",
"y  c #0D2324",
"u  c #0E2C27",
"i  c #07272C",
"p  c #0A262B",
"a  c #072D2E",
"s  c #0C2B2C",
"d  c #132225",
"f  c #1B2126",
"g  c #122B25",
"h  c #14232A",
"j  c #1B232C",
"k  c #132B2C",
"l  c #1A2A2D",
"z  c #0D332C",
"x  c #0C392E",
"c  c #12332E",
"v  c #19352D",
"b  c #153A2E",
"n  c #1A3A2E",
"m  c #0B2C32",
"M  c #162431",
"N  c #1B2532",
"B  c #152C32",
"V  c #1C2B34",
"C  c #1E2738",
"Z  c #1E2B39",
"A  c #0E3533",
"S  c #0E3932",
"D  c #0F373A",
"F  c #0D393D",
"G  c #143433",
"H  c #1B3335",
"J  c #143932",
"K  c #1C3B33",
"L  c #14333B",
"P  c #1E343A",
"I  c #133B3D",
"U  c #1D393A",
"Y  c #222326",
"T  c #22242C",
"R  c #28232F",
"E  c #212A2D",
"W  c #232532",
"Q  c #2A2534",
"!  c #232A35",
"~  c #2B2B36",
"^  c #232C3B",
"/  c #2A2C3B",
"(  c #322D3D",
")  c #233434",
"_  c #293037",
"`  c #233D35",
"'  c #2B3D35",
"]  c #23333D",
"[  c #2A333D",
"{  c #243A3C",
"}  c #2A3B3C",
"|  c #3A3E36",
" . c #32333E",
".. c #303D3E",
"X. c #274132",
"o. c #2C4035",
"O. c #2B443D",
"+. c #354434",
"@. c #3B4B34",
"#. c #3C4A3C",
"$. c #404C32",
"%. c #41483B",
"&. c #485238",
"*. c #5B5D3A",
"=. c #1E3641",
"-. c #153F45",
";. c #183A41",
":. c #252F41",
">. c #2C2D41",
",. c #322F44",
"<. c #253241",
"1. c #2A3343",
"2. c #233B41",
"3. c #2D3B42",
"4. c #243348",
"5. c #2C354B",
"6. c #283F48",
"7. c #333544",
"8. c #3A3646",
"9. c #333A44",
"0. c #393946",
"q. c #36344A",
"w. c #3A364A",
"e. c #333A49",
"r. c #3C3B4C",
"t. c #3E3750",
"y. c #3E3D53",
"u. c #40364C",
"i. c #413D4E",
"p. c #443D53",
"a. c #4A3E56",
"s. c #473D5A",
"d. c #4B3F5A",
"f. c #533F5E",
"g. c #533E60",
"h. c #1E4344",
"j. c #1C464A",
"k. c #1D4A4D",
"l. c #1C4C51",
"z. c #1B5156",
"x. c #165358",
"c. c #224444",
"v. c #2E4542",
"b. c #204847",
"n. c #2F4D45",
"m. c #23434C",
"M. c #2E434E",
"N. c #224A4A",
"B. c #324345",
"V. c #324D44",
"C. c #33434A",
"Z. c #3B424E",
"A. c #344E48",
"S. c #3B4B4C",
"D. c #2F5142",
"F. c #345144",
"G. c #355449",
"H. c #3B544F",
"J. c #244E53",
"K. c #2C4D54",
"L. c #374756",
"P. c #3C4251",
"I. c #3C4851",
"U. c #2C5156",
"Y. c #3D5353",
"T. c #3F6253",
"R. c #41444F",
"E. c #444354",
"W. c #4A4256",
"Q. c #444D55",
"!. c #464558",
"~. c #4C445B",
"^. c #454B58",
"/. c #4B4B5C",
"(. c #51445E",
"). c #53485E",
"_. c #405055",
"`. c #48565B",
"'. c #435D5A",
"]. c #4A5C5D",
"[. c #50555F",
"{. c #416056",
"}. c #4D4561",
"|. c #4D4A61",
" X c #544662",
".X c #5A4767",
"XX c #544B63",
"oX c #5A4B66",
"OX c #5A476A",
"+X c #564F68",
"@X c #5C4D6B",
"#X c #4E5960",
"$X c #555166",
"%X c #595167",
"&X c #515864",
"*X c #555368",
"=X c #5B536B",
"-X c #5E596A",
";X c #5E5771",
":X c #624E6D",
">X c #60546E",
",X c #634E72",
"<X c #635572",
"1X c #685475",
"2X c #645873",
"3X c #695976",
"4X c #6C5B7A",
/* pixels */
"h h j j j M Z < q y. .  X = % j 6 ; * * ; T T o * > j < - # + = E w   0 M q +XE.M w.r.+ .   T / O ! y.q . = ; ; o % = = . $ [ ] ",
"^ _ / [ / ~ _ f j e.(   . ; = % C h d d V q   * 3 O * Z h 3 d V 2   O 1 M ! %XE.9 8.r.+   o q C : = j = o = ; =   # ; = O % 3 7 ",
"i.r.R.E.i.E.E.E.W.W.~.7.o ; 3 O . > 3 3 + . # ; ; ; . . > > > O X = = ; M j %XE.9 8.r.+ . o W ] e 3 > < ; = 1 = o * = ; * < = = ",
"T ~ ! ~ ~ T / / W ! / 5.~ o * @ . .     . # = * . X * O   O %     X . + M f *XE.q r.r.+     w ] e q 3 3 ; > ; = . # ; ; ; : < > ",
"3./ W  .7.0.7.7.3.q M >.( o O $ = h q < N C d h q * d h 2 d < * O X . > B r *XE.N w.r.%   . O V h = = = ; > ; ; + = 1 * = > * * ",
"[ ^ 1.1.] <.<.^ <.q C 1.N o $ > C N q 2 h q > < q w 2 w f q 1 q 3 3 = 2 M d *X!.N w.r.% . . > Z * W 7.3 = 6 < ; ; ; ; 0 > * l ^ ",
"[ ^ Z Z :.:.=.4.<.e ! :.N o $ Z h * W w.).). X|.~.a.(.W.a.~.W.W.W.W.w.q N q =X!.N q.r.#     h _ . w 0.1 ; y < = ; = ; 3 ; * E ^ ",
"^ ^ <.=.^ ^ <.:.<.q ! ^ N   < h O R >X2X3X>XOX+Xd.a.p.a.W.s.a.a.s.E.w.e V w =X!.M r.u.O   . / / < $ > = = < ; = = ; > > ; # = + ",
"^ Z =.=.V Z <.<.4.w C :.N   d > & :X<X>Xa.a.p.>.N N C C Z ! ! ! C ! M q N h >X!.l r.R.%   % y.N e > = ; ; ; ; 3 1 < > 1 = = # * ",
":.:.Z :.Z ^ ] 4.4.q ! 1.j o j = 8.3X>Xa.a.W.W.p.p.p.p.p.p.p.p.p.p.p.w.q N f >X!.j i.i.%   2 E./ 3 2 3 = * = = ; ; > ; 1 * = > ; ",
"<.:.:.:.<.<.<.:.4.q V 1.j o j + d.4Xd.a.(. X XOX@X+X@X@X@X@X@X+X+X@X(.r V f =X!.M r.p.%   % r.<.$ ( p.3 = > = = ; ; = = * : ^  .",
"Z Z :.=./ C N ! [ q ! 1.f + j O a.3Xd.d. X.Xu.t r j T W T j j Y Y T q q C f >X~.N r.p.% $ . W 8.$ q W > < > ; ; = 1 ; = = * q q ",
"d h Z C ^ j j N N N / 5.N o j # f.3X8.u..Xp.%     o o o               0 V ! ;X}.e r.i.% o o t 0.f $ * > ; = ; ; ; = ; = ; * * O ",
"] Z ] ] Z / :.:./ 1.] 5.W O l - a.3X/ w.:X7.o O       o               0 M N =X}.e r.p.% O   R 1.M q q > ; < > % = = = ; = = ; = ",
"j ! j ^ W T ! ~ j j N / ( O W @ a.4X>.q.OX7.* q 0 > 2 0 0 0 0 0 2 0 = q > T @X!.C p.p.% O o q ^ N h q 7 ; 1 2 ; O * > > = = 2 = ",
"9.[ ! 7.7.r.8.q.q.q j / R X l X a.4Xw.p.OXa.= $ N Z Z C ! C C ! ! N M * $ q.+X~./  Xs.% o o % C w 1 > > < < < 2 * 1 > 1 > = > = ",
"/ P [ >.:./ :.:.:.q ! 1.N o ! * d.4Xf.d.OX:Xu.w t ,.W r t N r j r r r w ( (.;XW.i.XXs.+ o o q Z $ / r.0 = q < > 1 < > q 1 = ^ [ ",
"1.^ ] <.<.:.1.<.1.e ! 1.j o h O ~.4X Xa. X:X:X,X,X,X,X,X:X:X,XOXOX+XXX.X+X=XOXs.W.=X(.% o o W / O 0 7.> = q ; ; ; ; = q > = E E ",
"<.] <.] ] ] :.:.:.r ^ :.r + j X u.4X<X.Xg.g.g.s.s.d.d.s.s.d.a.s.p.s.p.p.).).~.W.XX>Xu.$ o $ 7.^ q % * : > > ; > > > > > ; = = O ",
"U P <.1.C ^ :.:.:.q ! 1.N o N O 2 :X3X1XOXg.s.,.N N ! ~ ^ ^ ^ W ! ! ^ ^ w.a.~.+X=X+Xr o O & E.! y ; # = > = * 3 ; > = * * > * * ",
"U U ] <.^ ] <.<.:.q ! 5.N   j d   Q 1X4X4X1X,X:Xf.a.f.f.d.d.d.s.s.d.s. XOXoX>X>X%X~ O O . > s.<.7 q j < > ; ; * > = = * = % 3 3 ",
"<.<.{ <.1.1.<.:.5.q N 5.N O N 6 = X W u..XOX:X:X.X(.(.(. X X(. X X~.~. X(.(.+Xr.W O o % O % q.1.$  .L.0 > > > ; ; = * ; > = ] C.",
"B Z P Z ^ j N C ^ e ^ 5.N O ; ; h f . # 1 ; 1 1 1 + % % & & & & & % % & % & & & o o + O O O Q 8.% > r > > < 1 > > = > * ; * > > ",
"h B Z H Z V V Z N ^ >.5.W o O 2 = < ; O X . . .           . o o O o . . O o o o + + + O O   R r.M * * < ; 1 > ; > 1 1 > = = % $ ",
"P P P ^ P Z :.Z Z / ^ 5./ o + * X . X . . O . . . .     . .   o O o O O O O O $ X O O O O o T >.h e < > < 1 1 * = % ; ; = = 1 2 ",
"l ~ h [ ~ W / / ! d j ^ ( O w j ; # - @   X O .   O 1 1 . * 2 . o o o . . O O O O O O + O   0 ^ j q < < ; > > = O = 2 = > = > > ",
"3.{ [ e.3.r.7.9.e.q W / Q o q j ; ; # . = % 1 % 3 ; < d 7 < ; @ O O @ @       o O O o O + o & C q 3 3 = ; > = 2 > 1 > > 2 ; > < ",
"} ] [ <.<.] <.<.<.d C 4.j O f q ; = 1 ~ a. X.Xg.( W W W ! W T R E W N T Y t r 2   o X O O o e :.O ~ r.3 * q ; # = = ; q > * 2.M.",
"2.] ] ] ] [ <.1.1.d E <.j O ^ M ; 2 p.<X3X1X~.>.f.). X.X(.(.}.~.~.}.~.@X+X+X=XW.8.%   o     T / O > / = * q ; = > * * 3 = + j l ",
"U P { <.] ] 1.<.1.q V ^ e O ^ h 2 p.;X1X}.1.N / ,.,.q.w.w.w.q.q.q.,.8.t.a.~.XX%X%Xw.+ o o . 7.V 8 $ O ; = > = 1 ; > > * * * O O ",
"<.] ] ] Z H ] 1.1.q C ] r o ^ ; E <X2Xy.e C t.d.>.N ! ! Z ! ! C ! C C :.q.t.p.~.%X+XQ o o = Z.C 8 = * * ; = > 1 * > = % = # O * ",
"U U U <.] ^ ] ] 1.q Z 5.j . ] 7 ~.3X~.h ^ y.}.~. X X X}. X}.}.~.~.~.~.~.}.+X!.s.~.%Xp.%   & r.^ > d j ; * * * * = * = = * = h h ",
"2.] ] ] <.{ ] P 1.q V 5.f . M d ~.;X>.j u.(.a.u.E.~.~.~.}.~.~.!.!.s.W.i.W.XX%Xp.p.%XE.%   O [ [ $ / y.9 = > = = * * * * = * <.K.",
"l B H H H h h N Z q ) 5.M   q f s.;XV / (.a.R o * * * % : = = = * * = = T E.%XE.q.~.E.% o o j  .$ $ 0 * = ; = = = = * % + O * * ",
"l V H Z P N / ^ V ] <.<.M   d w W.;Xj  .~.i.+ .     o o o o o   o   . < @ ^ %XE.! !.p.% o o r 7.h * + # > = ; * = ; = = * % + . ",
"B P P H V B B B C B ! [ W   d h W.;XV / ~.t   o $ $ $ o o   o o O O @ ; 7 M $X!.d 8.r.% o o W / j d 2 ; = * = % % + * = * * = ; ",
") ) h [ [ _ _ _ ! 3 h / ~   ! < ~.;XN 1.}.r   o , < O 0 ( ~ W 0 O - @ % h h %XE.9 8.r.% o o ; C M 7 > < : = = 1 o $ = * = = = % ",
"} { { 3.} 9.3.<.} q l ] T . ! 3 ~.-X! 7.(.r   o = $ r *X!.0.8.:.e O @ 0 h w $XE.M 8.e.% O . + l q q j > > < ; 1 & > = = = % < w ",
"{ P ] ] P P ] P ] 7 l ] d . Z 2 E.;XC 7.~.r o O * 0 =X|.j h j M ] e O 9 V w XXP.h 7.0.%     d ] o / L.q = e > ; 2 > = q > % m.J.",
"{ U U P P P { P ] 7 l Z d . H ; E.@X! 1.~.r   O = p./.M j < q j j 7.0 > M q XXE.e 7.8.%   o W ] $ = ! > ; q ; * > = = 7 > * h h ",
") U U P Z Z P P ] q B Z d O Z < !.=XN [ !.f   . $ !.>.y j Z.9.f q / r = l d +XE.M 7.8.$ o O 8.! q % % ; * > = q > 3 > = * = % o ",
"U U U P B B P P U 3 N ] h o Z 7 ~.*XC 1.~.t   . & y.] > j -Xr.< > _ Y & j q /.E.j 3.w.$   % y.B 7 @ # * = * % > * > = = = = % + ",
"U H U U P P P Z ] d l 4.d . Z > E.*XV 1.~.r o o $ y.d - 4 j d < * 1.w * l w $XE.h 7.w.%   % Z.] * h ] 0 * ; = * = % * = = = H U ",
"U { { U P ] B P ] 3 j U M o B 3 E.&XV 1.!.w   O * e h @ - . O = f W   > j d /.R.h 7.7.+   o ] ] . ^ M.> * * = * = = = * = $ ;.K.",
"y g Z H B d d h k y V <.h . V g E.*XM _ E.w   . ; O q l < < < h r o O > j j /.Z.d 7.8.+     j 9.: . : * = * ; = # = = = * % % $ ",
"l H H P H H H H H P P P h . j f Q.*Xj ^ E.r   O < *   < d 7 q 8 O $ * = h M |.P.7 [ 8.%     f 3.h > * : = * = = = + # * * * $ O ",
"h c H B h f l M h N V Z !   f 3 R.%Xj [ E.w   . > 5 =     . O o * < * * h d /.P.7 7.9.+     r C : : % = = = * + = X % * * $ + X ",
") ) d ) +.) ) [ H 7 h ! E   h q E.&XM [ E.w o O ; < O j 7./ Z h $ > - = d q /.Z.e [ 9.X .   q B O ^ M.q O ; = O % O = * * $ h.k.",
"X.H H +.%.V.H P =.7 h P f o B q Z.#XV { R.w   o : O j &Xr._ [ Z h $ * > d q /.Z.9 1.q.$ o o d B O e 6.2 @ = = O o o * # + O U L ",
"K J +.+.G +.| L U 6 l P d o C < E.#XV [ R.w   O * w &Xy.q 7 d h P d @ 7 h q /.C.9 1.3.+ o $ U B * * $ * - = = * $ $ * * # # O $ ",
"K G o.o.*.o.%.H P < l P d o B < R.[.l [ E.w   o : C.Z.d g 8 3 h h ] < > p q !.r.q 1.1.+ o $ ] h O > * = = = * * * * + = * @ O * ",
"J J G K +.H ` $.L 7 k B d . l < I.].N { S.f   o O Z.] 7 l I.9.q < ! q * h q Q.Z.e } 3.+   & 2.>   ; > @ O * < , * > < * + + * > ",
"J P G K o.J c &.O., k P q . l ; Z.].l [ S.4   + $ C.Z , g `.} < - / f O k q ^.Z.y } 3.O   + ] =   f c.< $ o P U.O 2.J.$ O @ I h.",
"J G X.&.$.@.@.&.&.< k I d   l < S.].k ) R.4     $ M.h - > 3 > ; - { 2 * y d _.C.9 [ 9.%   % ] 7 O O 3 O * O % < X : = . +   , = ",
"K J J K ` K c v U < h K d o H 2 S.].l ` S.6     * > h ; - O @ - f f   = u q Q.C.y [ 3.O   % 3.B 7 : O O h p O O * O X > m :   + ",
"5 y k s k 8 y d u d G K d o v d S.'.l ) R.6   o * X = l 5 < < k 3   O ; h h _.B.< { B.+ o o l c.] P P P I P l B D B s L -.-.I I ",
"J b J b G J G H J H G P y o h d A.].l ) S.3   o = = . % < 2 < * . % : ; d d Q.B.> { ..O o o o d l N M 9 $ O o O O O O O   > s G ",
"5 g k c g d g k y h k H v   h 5 A.#Xh K A.6   X X % O O O o o . % * O O 5 4 _.B.< ) O.O o o o o     o o o o o o o     o .       ",
"` n u K ` ` ` n K < u l E   v 2 A.{.k K V.6   X d k k c B c k k h s 7 * y 3 Y.B.y ` O.$   $ h m s s m p i m a i p p i a i m a a ",
"n c K K J K J G J 5 u G g O c > F.'.k K F.6     < k 5 < 2 < < < > < ; ; y 5 H.B.y { { O   O 8 7 > , = 8 : = = , : 8 , : : : * : ",
"b b b b b S A J S < k J 5 . l > D.T.z K V.4     O.n.n.v.O.v.V.v.O.O.' < g 3 H.O.y K X.O   * O.h.h.h.h.c.c.h.j.j.j.j.l.j.j.l.l.k.",
"x x S S J x x c G < u c 5 . G > D.T.z U F.4     v.G.V.G.F.n.V.V.n.n.O.< y < G.v.5 K { O   # N.k.k.N.b.k.N.k.k.k.l.J.l.l.z.z.x.x.",
"x x x J z z S x J 7 u m 5 . c - D.T.z K #.6     7 g k s k u u u g u y > y 3 G.O.5 K ` O   o y y p p p y i i p p p 8 y i i p i i ",
"x x x x a z S S S < u b y   G > #.T.u b #.5   . g v b K J b J b n n c > y 3 G.O.5 n K O   + k z A z G A A D A A A s m D F F F F "
};
