/* XPM */
static char *_588_540b16cd474f0627fabf77960eba291925e6b8cf9731443d44e811f8c2ae9359[] = {
/* columns rows colors chars-per-pixel */
"64 64 249 2 ",
"   c #010403",
".  c #010B04",
"X  c #01060C",
"o  c #030B0B",
"O  c #0A0A0A",
"+  c #07150B",
"@  c #04120C",
"#  c #12190B",
"$  c #010711",
"%  c #030C12",
"&  c #070D17",
"*  c #051213",
"=  c #0A1313",
"-  c #061B12",
";  c #0B1B13",
":  c #06131A",
">  c #0B141B",
",  c #061B1C",
"<  c #0C1B1C",
"1  c #11161A",
"2  c #131B1D",
"3  c #09221B",
"4  c #11241C",
"5  c #071722",
"6  c #0C1C24",
"7  c #141A27",
"8  c #131C24",
"9  c #1B1D25",
"0  c #1C1E2B",
"q  c #131E31",
"w  c #211F31",
"e  c #0C2323",
"r  c #0B2826",
"t  c #122525",
"y  c #142B25",
"u  c #1A2826",
"i  c #13252B",
"p  c #1B242C",
"a  c #142B2C",
"s  c #1A2D2D",
"d  c #15332D",
"f  c #183428",
"g  c #1B322D",
"h  c #162734",
"j  c #132C33",
"k  c #1B2D33",
"l  c #1D2E3B",
"z  c #0D3031",
"x  c #133334",
"c  c #1C3234",
"v  c #1E343A",
"b  c #173938",
"n  c #1C3B3C",
"m  c #22252D",
"M  c #252A36",
"N  c #233335",
"B  c #23353C",
"V  c #2B353B",
"C  c #223A3C",
"Z  c #1B433D",
"A  c #28413C",
"S  c #33403E",
"D  c #1F2E44",
"F  c #193A44",
"G  c #1D3C44",
"H  c #262F43",
"J  c #233543",
"K  c #2A3445",
"L  c #253C44",
"P  c #2C3C45",
"I  c #243E4C",
"U  c #2C3C4B",
"Y  c #363A47",
"T  c #343C4B",
"R  c #38394F",
"E  c #3B3C4D",
"W  c #293D54",
"Q  c #413C4F",
"!  c #1C4545",
"~  c #1D444B",
"^  c #184849",
"/  c #19514E",
"(  c #134D54",
")  c #174C56",
"_  c #195659",
"`  c #254346",
"'  c #2C4145",
"]  c #274942",
"[  c #25434D",
"{  c #2C434C",
"}  c #244B4C",
"|  c #2C4A4D",
" . c #334346",
".. c #34434E",
"X. c #3B434D",
"o. c #25544C",
"O. c #2C4553",
"+. c #254C54",
"@. c #2C4B54",
"#. c #294558",
"$. c #2E4B5B",
"%. c #344453",
"&. c #3C4354",
"*. c #334C55",
"=. c #3C4B56",
"-. c #35465C",
";. c #3B465A",
":. c #344B5B",
">. c #3B4C5C",
",. c #245454",
"<. c #2C535B",
"1. c #295A59",
"2. c #345354",
"3. c #34535C",
"4. c #3B535E",
"5. c #355A5B",
"6. c #1C695A",
"7. c #2A655D",
"8. c #26695D",
"9. c #37685B",
"0. c #297056",
"q. c #1D5A63",
"w. c #364B63",
"e. c #3C4E63",
"r. c #295D64",
"t. c #355462",
"y. c #3C5364",
"u. c #355A63",
"i. c #3B5B65",
"p. c #3D5369",
"a. c #3C5C6A",
"s. c #1E6668",
"d. c #1F6970",
"f. c #286764",
"g. c #346565",
"h. c #386866",
"j. c #3C636B",
"k. c #326A74",
"l. c #3C777A",
"z. c #464750",
"x. c #434554",
"c. c #43465A",
"v. c #434C5B",
"b. c #484959",
"n. c #44575D",
"m. c #456C5F",
"M. c #61775F",
"N. c #434D64",
"B. c #4B4C63",
"V. c #444F6A",
"C. c #544C66",
"Z. c #425365",
"A. c #4A5665",
"S. c #43526A",
"D. c #4C546C",
"F. c #445B6D",
"G. c #4C5B6C",
"H. c #58576A",
"J. c #535B6C",
"K. c #455C72",
"L. c #4B5C73",
"P. c #4D5A75",
"I. c #535D73",
"U. c #585A75",
"Y. c #635D76",
"T. c #486965",
"R. c #42636D",
"E. c #4C646D",
"W. c #416A6C",
"Q. c #54656D",
"!. c #497167",
"~. c #577468",
"^. c #456471",
"/. c #4D6373",
"(. c #4A6676",
"). c #536373",
"_. c #5B6273",
"`. c #5B6B74",
"'. c #53637B",
"]. c #5D637A",
"[. c #596A78",
"{. c #44797A",
"}. c #597875",
"|. c #657764",
" X c #737D68",
".X c #63657B",
"XX c #6A657C",
"oX c #646878",
"OX c #6B6A7D",
"+X c #71697F",
"@X c #67777C",
"#X c #73825F",
"$X c #47827F",
"%X c #5C8876",
"&X c #5D847A",
"*X c #758568",
"=X c #65877C",
"-X c #8B9068",
";X c #3B7E83",
":X c #576482",
">X c #457B82",
",X c #5B7885",
"<X c #6A6382",
"1X c #6D6A82",
"2X c #756684",
"3X c #726D84",
"4X c #766D8A",
"5X c #7A6E8C",
"6X c #6C7484",
"7X c #6B7986",
"8X c #737384",
"9X c #75728A",
"0X c #7C748D",
"qX c #737A88",
"wX c #7B798D",
"eX c #757791",
"rX c #7E7291",
"tX c #7E7A91",
"yX c #826E8F",
"uX c #82738E",
"iX c #837492",
"pX c #897495",
"aX c #837A94",
"sX c #897B96",
"dX c #887999",
"fX c #8C7C9A",
"gX c #917D9D",
"hX c #937EA1",
"jX c #2E8A8F",
"kX c #398489",
"lX c #478389",
"zX c #56888D",
"xX c #6B8683",
"cX c #78848D",
"vX c #73978C",
"bX c #7D9093",
"nX c #848796",
"mX c #8C849C",
"MX c #8C8A9D",
"NX c #91849E",
"BX c #829295",
"VX c #8F89A0",
"CX c #9484A2",
"ZX c #9A87A6",
"AX c #948BA3",
"SX c #9D8DA9",
"DX c #9C90A9",
"FX c #A28FAD",
"GX c #A191AC",
/* pixels */
"*.*.:.*.:.:.y.C J 6XH.. 1 y i ;.C g y y d v.c.* y h *.v f 4 t g n.Y   H w.U VXrX-.<XOX9 @ o &.F.> B.7XU o a c g o y d s * q E.G.",
"A.G.G.J.H.H.J...;..XY.% # g y t e.*.{ { 4.P . r n 2 i p.[ A L v.M . 3 N $.e.mXwXI 1X1X9 @ * T t.j k &.s : y c g = e d d : 8 L G ",
"+X+X8X9X5X8X0X0X0X0XaX.X* s C 3 * v J v 2 + y f g g + = c l l < = f a m :.>.MXwXJ .X3X8 * o b.L.I G c B s s N s = y d g t c d i ",
"v.D.B.H.n.b.H.J.Z.B.D..XH.: t 6 - + . @ = 4 k a = ; i ; o > 6 X # = . t -.U MXwXU XX8X2 o o ..L.O.P V B c c g s o 4 c g s s n c ",
"`.J.B._._.OX.X].].L :.D.H.% 5 5 h %.J N :.y.[ @.L a I *.C [ A e 3 - @ l $.%.VXwX-.<X3X8 @ + 3 w.O.c u g c c c s 4 u g k k j i y ",
"J.G.I.'.K.I.K.P.(.{ Z.I.c.& , F y.e.U B %.P c J  .P V Y T P N K V V g B $.{ VXeX-.<X3X8 @ . c y.e B._.B s ` N s g N s J v r 2.A.",
").D.F.K.K.L.K.(.(.W Z./.:.& 5 S.O.e v.XXsXsXsXsXiXuXiXuXiXiXuXuX0X0X3XK :.T VXwXw.XX3X4 o . &.G.* T oXN a ` c d s s g J c r Z.A.",
"F.F.K.a.F.K.L.L.L.U V.P.;.o B *.t b.ZXSXSXZXCXfXiX5X0X5XrX0X0X5X9X0XXXU w...VXtX-.1X1X2 @ * J.S.b 8 M s g b g d s g c c k y a < ",
"F.K.K.K.t.S.K.(.(.U Z.K.;.. { B M NXSXSXuXyX4XU.-.-.p.S.S.V.V.Z.Z.S.>.J e...AXwX:.1X8X9 o p 9XN.O.c a g c d g C c v c s u f t e ",
"K.K.K.K.p.K./.P.'.P N.'.;.% =.p XXGXNXyX5XuX9X4X4X4X4X4X4X8X5X4X5X4XXXY t...NXaX:.8X4Xp X M 9XG.B M K s d s s s g c N s a s k c ",
"L.P.K.K.L.(.L.K.P.U y.'.%.> %.< iXDXpX2XsXfXgXCXCXCXCXNXCXCXNXmXmXCXsXR 4.X.AXtX>.3X3Xp o t <XP.6 U.9XP a c g s s s g s y j F.`.",
"Z.p.K.G.K.S.N.S.L.P Z.'.%.1 ;.; yXGXyXiXpXgX2XE &.&.c.x.x.v.v.x.x.x.{ K p.X.AXtXw.3X8X7 , - B.XX8 K v.j c k g k g s s s p i J U ",
"| O.y.p.S.&.=.>.v.y.L.U.;.1 =.y uXFX<X2XhX9X0   o $ % % o . o . o @ X D p.Z.AXdXW 2X8X9 > % x.+X%.i t c g s j c c s s s j a t : ",
"F.K.F.F.F.F.K.P.F.L.P.'.N.= 2.y uXFXU.Y.ZXU.* @ o o o % o o . X o .   l w.;.AXtXW <X5Xp = % b.U.-.I G c g N c t s y s a g a g s ",
";.Z.;.G.v.c.B.B.c.%.>.J.H.= 4.4 yXGXD.<XCXY.i U H l V H H H H H V V p L l ;.AXrXe.4X4X7 : % T G.;.{ J J c c B k - i c k s s c k ",
"oXJ.A._..X3XXX.X<XU >.J.C.# v.; yXFX2X4XhX5Xk e ;.p.p.p.p.V.p.N.e.e.-.h 6 XXVXtXU.iX0X8 * * 6 y...N v v c v C v y k N c g s h a ",
").F.).I.K.P.L.G.P.{ Z.U.;.> N.t yXGXpXyXhXhX5XQ b.U.B.Q c.;.c.&.&.&.&.R H.aXAXrX3XmXiX1 % $ K S.5 H.1XK d L B c N c k L N k A.).",
").R.F.L.I.L.P.P.I.U S.I.;.= :.< iXGXfXyXpXhXhXhXhXZXhXZXZXZXCXhXCXfXmXsXCXCXCXrX0XAXaX9 : $ B.L., K ].M i ` c s c s h P c y v.v.",
"K.^././.L.F.I.P.I.U Z.L.&.: *.- +XFXSXgXpXpXpXiXrXyXrXrXrXyXrXrX4X4X4XrXaXmXiXtXmXAX4X6 * 6 .XA.L t i s c k h v k c k x d s a < ",
"R.R.K.).p.F.P.P./.U Z.P.-.= y.; M ZXFXSXhXpX5X:X;.;.V.D.V.V.V.V.S.V.V.D.XXyXiXVXMXmXR % & M 0XS.[ b 4 z j s s B c c s a h k a 3 ",
"j.a.^./.F.F.).P.P.{ Z.:X;.o =.' o C.SXGXFXhXFXhXpXyXpXpXyXiXyXiXiX5X5XfXgXNXAXAXAXC.7 > * M 9XK.G P ..v j s s y d a a a y p B C ",
"^.(.^.^./.).L.P.'.{ Z.].w.5 >.` f # b.2XhXhXhXhXfXfXpXpXfXdXdXdXpXpXiXfXsXfXfX3Xb.> = 6 , 8 <X'.6 U.eXI c N c s c p i a k i G.,X",
"u.y.a.K.K.:.t.y.S.U V.:Xe.& g c ..| ; 4 m N V M p 9 0 m w w p w w w p 0 0 0 w 7 X 1 1 8 1 = C.OXi l T j c c c c k s s s s i v B ",
"$.3.i.p.i.>.y.S.B.S.P.:XN.& ; N s N f 4 ; ; = = . . . o o o * % * * = * * = & 1 1 7 > > > = z.+X=.i i b c N g c c c N s s a i > ",
"a.R.j.F.i.a.K.S.Z.G.D.U.B.- 8 p # + ; + @ ; - = = = . . = + . & : : , > : < > > > > 1 < 8   b.I.O.O.v v k N c i a i k s s s c N ",
"4.A.*.J.J.Z.J.H.Z.{ >.P.Y.>  .%.g 4 f r @ + ; o * ; N g * y V & : : : : = > < > ; : > > > o K S.-.L v c g N c k * p c k k s N h ",
"}.Q.G.[.].OXoX].].U >.P.C.X K &.g u 4 @ m p m 0 V x c { F n x 3 3 3 3 3 @ . . @ > > 1 > > > q p.P v B d g k s g M c c c s s c B ",
").R.).).^.L./.L./. .Z.L.;.> *.U g f N H.uXfXgXdXH.b.B.B.N.B.b.b.x.v.>.x.z.Q E V . @ > * 6 & T K.: J.9XC t L s u s s s P c i (.,X",
"^.^./.R.R.).L.).'.' n.I.%.5 F.>.k V 5XSXSXSXiXC.pXfXfXfXpXsXdXaXiXdXiXCXmXmXAX0XXX9   * * % b.G., M J.a a C c y j i i J x e :.:.",
"R.j.E.^.F.G./.'.'.P y.S.%.> F.{ B 4XAXSXdXI.w.P.Y.U.XX<X<XXXY..X<XU.<X2X0XiXmXAXAXXX9 % % = U.v.F e e s s k a B s v d y y t 2 > ",
"^.W.^.E.y.a.E.L./.W y.K.O.= F.g v.AXDX4X#.p.<XiXP.e.S.V.S.Z.V.S.p.p.p.D.].1X4XiXNXMXC.$ * p 8XZ.! r 5 r a a a x a c a a i t 3 2 ",
"W.j.R.(.F.R./.R.I.O.Z.'.%.* F.L aXGXaX#.p.4XdXiXpXgXdXdXdXsXaXaXtXrXtXaXdXCXtX4XiXNX9X7 X m 3XF.j U 4.c t i a a a t i i y t *.*.",
"(.W.R.R.^.(.F.F.).L t.:XO.@ >.{ aXAXD.-.2XpX0XXX0XtXaXtXwXaXtXwXeX9X0X8X0XmXMX4X4XMX0X7 X > J.I.5 H.6XD s h a d i y i e t e ^.,X",
"2.<.a.i.i.O.*.3.Z.{ Z.:X:.. ' ..0XDXw.U.aXuXb.> t t t h p h h h p p u y b.0XNX0XoXaXwX8 * % x._.i 7 H h s s s a y i a t y < h j ",
"5.5.i.i.j.4.Z.A.i.F.(./.>.. ' { aXAXt.H.iX+X8 X o X % & * * % * * * @ C e G.MXwXS.uX8X7 * & Q oX:.i 4 y s s c p s a s a t t < o ",
"u.a.j.a.t.3.u.t.w.i.Z.L.B.. { { aXAXw.H.pXz.  = e e e % % X X % ; ; 3 c G >.mXqX[ XX3X0 : & c.L.[ [ C g a a k t t 8 y a i y s x ",
"n.E.@.Q.Q.J.J.Q.A.A O.G.H.@ 4.L wXAXp.U.dXE o = z b 5 K U.H.C.J > f 4 p @.X.mX9X#.XX1X0 : * m p.w.G k B c s s p & i s t p u y i ",
"}.R.R.`.(.oXQ.E./.P 4.F.z.@ A.C aXAXe..XaXQ X > c 5 E VX0XoX.XJ.W , 3 J $.U MX9X#..XOX7 & ; e 4.J  .%.c s b g c m h i j a i F { ",
"T.W.R.E.R.j.R.j.R.` 2.F.{ = Z.N wXAXN.U.aXE X 5 i H VXnX-.@.&.:.L.U , J $.Y mX9XO..XOX9 @ o  .R.: G.eXL u [ c f c k p I l q >XzX",
"W.h.R.j.R.R.R.R.F.L 3.a.O.+ t.N 0XVXS..XtXE X : h 9XaX;.%.C I :.>._.P D $.T mX9XW .XoX8 o X v.G.6 h Z.h k I c p k k u n c t { W ",
"R.W.j.j.g.a.R.j.R.L 3.a.O.: i.n wXMX3.I.aXE X # 6 eXU.I >.8XoX%.P J.R h :...mX9X$..XoX7 $ 7 .XN.I i t u i h s B k B s y a a t 1 ",
"h.h.j.j.<.u.R.a.^.P y.F.{ : i.F wXVXe.).wXE $ * q 4XK.b x.NXOXN b J.x.p 2.Y nX9X#..X1X7 X p 6Xt.F y e i s a a x h k s j a p 8 8 ",
"T.h.W.^.a.j.j.a.R.C >.(.O.: i.B wXVXu._.tXE $ : q 6X{ f A =.` n a _.Y h $. .MX9X%..XoX8   p 6X^.t *.F.B i a s i s i y p p h u.j.",
"j.W.W.j.j.R.i.a./.C @.^.O.= t.N 9XMXt.].tXE X - t [ } r d - 3 y X.v.  M :.Y nX8XO..XoX8 . * K.^.* A.,Xb r d a a u y i a d i k.lX",
"] } u.t.3.[ [ @.$.~ u.R...= 4.' 0XMX>.J.wXE . @ g < J 2.C d n O.%.% + k :.;.tX7X[ _.oX2 O X =.[.j * h i a a s a y p y t i t e < ",
"5.5.j.j.g.a.j.5.u.j.j.^.{ + 4.*.wXMX>.A.wXY . > c a & v ' I I F * e s h @.:.nX8XG _.OX1 O X X.[.+.x t s y h a i i t y t t y t > ",
"+.<.u.5.| *.2.:.@.3.t.a.v.o | V 8XMX:.G.0XY o : x A y o * * : $ h Z y t O.' nX7XF _.oX2 . X X.y.z c i a a a u 1 u < t i i t 2 1 ",
"m.T.{ T.|.n.T.Q.A.G +.Z.n.% 3.L qXMX4.).qXT $ 5 c n , &._.J.F.W 5 x r h [ ' tX6XW _.oX1 % o P t.6 a.,XJ ; g d > i > t a t < l.;X",
"T.9.9.|. X@Xh.R.^.F 3.F.%.= 4.B 8XnX4.).7XY $ > d : ;.BXOXJ.G.a.+.e r v +.U wX6X[ ).].6 & $ } <.> W {.B 4 s z 5 % & i t 4 < k.k.",
"T.7.|.|.r.|.|.r.j.A *.j.` > u.v qXnXy.Q.qXY $ = t T MX9X[ ` { @.a.[ 3 D #.U cX6XI ).].8 $ 6 j.u.t i 6 8 a d a e 8 6 e y 4 4 > , ",
"g.f.~.~.-X~.*X9.h.G 3.i.' = t.n 7XBX4.E.cXY o * h 7X6X[ | G L @.@.G.n k +.L cX1XW /.[.8 $ p W.#.: c a i r i r i a t 4 y t t 2 t ",
"7.7.7.h.|.9.W. Xg.F <.r.' O <.b qXBX3.E.qXS % & , 7XR.F @.qX`.` F n.P e +.{ wX@XO.Q.).7 X 0 ).c o k c e e 7 b b t x v i > < i g ",
"g.g.f.h.M.9.1.*X~.F ,.g.` O 2.c qXbX5.E.=X .  = q }.i.x @.bX`.c x A.z., +.{ cX6X[ Q.`.6   9 ^.j   X.{.v 8 % j.zX4 W.lX5 = e k.l.",
"h.8.~.*X#X#XM.-X*Xb <.h.] = 5.v qXBX2.T.cXV . = q }.O.z b C c f d E.N t +.` cX@X~ ).`.8   p R.F > < B > e 6 t v # k j = t o x y ",
"f.f.0.9.h.h.9.9.h.! +.h.{ = a.c =XBX3.T.@XS   = e c | x d 3 3 z *.X.  s / P cX@X~ Q.`.t   9 (.i.G j > 6 +.~ 3 < i 6 > x q.z . 2 ",
"A ! 1._ ,.F ! / } ` 7.h.' * 5.| @XbX*.T.xXS o = i ; a 2.n b n @.C X , s } @.cX}.G Q.`.< X > 3.W.W.j.a.h.h.k.<.<.q.1.,.d.k.l.d.f.",
"8.7.9.7.f.h.f.g.g.h.u.h.` = @.` xXbX+.n.xXA   : u s o 8 B c c i = t z i ] | cX@Xb Q.~.< X $ : | 2.t.<.I 5 = = 5 5 > , = O b _ f.",
"A o.o.7.] ] } o.} ,.,.9.5.O +.Z =XbX+.m.=XS   # 2 t 2 > : = * = 8 p < 4 Z ' cX}.b !.`.6 $ > = & % $ $ $ & & % % o X % % o o X   ",
"h.9.o.!.!.!.T.m.9.F ~ 5.n.o 5.C =XbX9.9.=XA   = } +.1.1.<.1.2.,.+.,.F j ~ L xX}.` T.!.8 $ 7 ) ) ,._ q.) ) _ _ ( ) ( ( ( _ ( _ ( ",
"9.0.9.9.7.f.f.7.8.Z ,.7.| = 1.c =XvX1.9.=XA   = n ,.n C C C n n c c p c ~ C vX}.^ W.Q.< X > F ~ x x j z F j z z x F F z z z j z ",
"0.6.0.8.8.6.8.8.f.Z / 8.Z O 1.b =XvX7.m.=X]   O ~.&X%X}.}.%X}.}.}.~.!.c ~ C =X}.^ h.!.#   4 {.l.{.l.{.{.l.l.l.l.;X;X;X;X;X;X;X;X",
"0.6.f.f.7.7.6.7.f.b ,.7.! @ 7.b %XvXo.h.=XA   O }.xXzX%X=X%X&X&X%X&X}.v ] b =X}.Z h.!.3   u $X$X>X;X{.{.$X;XkX;X;XkX;X;XjXkXjXjX",
"6.6.6.8.6.6.6.6.8.n / 1.Z @ 1.x %X=Xo.9.=XA   O ! } o.1.,./ / o.o./ ! c ^ n =X%XZ 0.!.>   1 ! ^ ( ( ( ( ( ( ( ( ) F ( ( ( ( ( ( ",
"6.6.6.6./ 6.6.6.s.n ,.7.] @ 1.x %XvXo.0.%XA   O o.9.9.9.0.7.9.0.9.9.1.c ^ A =X}.^ 9.m.>   8 1._ _ f.1.6.q.f.s.s.q.q.q.d.d.d.d.d."
};
