/* XPM */
static char *_6068_7cae3df907cf7fd744c1fc398b48777fb2c8da429c21e0b910cbbd1ef4e93b6b[] = {
/* columns rows colors chars-per-pixel */
"64 64 192 2 ",
"   c #150015",
".  c #180014",
"X  c #26001F",
"o  c #1E0024",
"O  c #1D0737",
"+  c #1E003A",
"@  c #230024",
"#  c #280025",
"$  c #240029",
"%  c #29012A",
"&  c #240232",
"*  c #2A0130",
"=  c #270039",
"-  c #2C023D",
";  c #200938",
":  c #350F3B",
">  c #27113F",
",  c #2D153F",
"<  c #1F1F56",
"1  c #2E1545",
"2  c #2D1945",
"3  c #2D164B",
"4  c #241B49",
"5  c #2E1A4B",
"6  c #241848",
"7  c #321545",
"8  c #311947",
"9  c #341549",
"0  c #30194B",
"q  c #3B1B4F",
"w  c #231F57",
"e  c #2A1C56",
"r  c #241D5B",
"t  c #2B1D5C",
"y  c #341750",
"u  c #3E1952",
"i  c #3D165B",
"p  c #1E2556",
"a  c #1D2A57",
"s  c #1E255A",
"d  c #1E2B5B",
"f  c #21224F",
"g  c #39264F",
"h  c #262555",
"j  c #292655",
"k  c #232A56",
"l  c #2A2956",
"z  c #24255C",
"x  c #2A255C",
"c  c #232A5B",
"v  c #2A295B",
"b  c #3A2551",
"n  c #32245C",
"m  c #3B2459",
"M  c #342A56",
"N  c #25325E",
"B  c #2E385F",
"V  c #2B365F",
"C  c #2B1F62",
"Z  c #341E60",
"A  c #3A1D63",
"S  c #1E2C60",
"D  c #252661",
"F  c #2C2462",
"G  c #242A60",
"H  c #2C2A63",
"J  c #2E2E69",
"K  c #312565",
"L  c #322A66",
"P  c #35256A",
"I  c #39256B",
"U  c #342B6A",
"Y  c #3A2D6D",
"T  c #392A66",
"R  c #263261",
"E  c #2B3363",
"W  c #2D3866",
"Q  c #2E346A",
"!  c #303762",
"~  c #353E67",
"^  c #3F3F66",
"/  c #34326B",
"(  c #3B316E",
")  c #343C6B",
"_  c #3F3D6B",
"`  c #3C2771",
"'  c #362F72",
"]  c #3E2D72",
"[  c #373170",
"{  c #3C3272",
"}  c #3C3E73",
"|  c #3F3678",
" . c #3F387C",
".. c #44174C",
"X. c #49184D",
"o. c #431B56",
"O. c #461E59",
"+. c #521F5F",
"@. c #46225B",
"#. c #4D225C",
"$. c #4A285E",
"%. c #51215E",
"&. c #451B63",
"*. c #531F63",
"=. c #412766",
"-. c #4F2362",
";. c #4D2964",
":. c #412669",
">. c #4E2A6E",
",. c #532363",
"<. c #592065",
"1. c #532469",
"2. c #522C6E",
"3. c #522965",
"4. c #443E6D",
"5. c #423468",
"6. c #432E74",
"7. c #492B73",
"8. c #522979",
"9. c #5D2974",
"0. c #413374",
"q. c #473E77",
"w. c #45347A",
"e. c #4B357C",
"r. c #443A7B",
"t. c #4C3A7E",
"y. c #55347D",
"u. c #5A307C",
"i. c #533D7C",
"p. c #5A3C7F",
"a. c #543375",
"s. c #602A79",
"d. c #3F4267",
"f. c #34446D",
"g. c #3B426C",
"h. c #374271",
"j. c #3A4273",
"k. c #44416B",
"l. c #694C66",
"z. c #744F6E",
"x. c #73516D",
"c. c #754F72",
"v. c #784F71",
"b. c #6E5374",
"n. c #735171",
"m. c #735A75",
"M. c #7B5B77",
"N. c #765E7B",
"B. c #7B5C7B",
"V. c #76607D",
"C. c #79607B",
"Z. c #4D3681",
"A. c #4D3B82",
"S. c #543684",
"D. c #5F3280",
"F. c #533B85",
"G. c #5A3A86",
"H. c #563C8A",
"J. c #5C3D8C",
"K. c #5C368B",
"L. c #5F3D91",
"P. c #633C8D",
"I. c #6A3D8D",
"U. c #643484",
"Y. c #713A8F",
"T. c #633791",
"R. c #653C94",
"E. c #693B95",
"W. c #663C98",
"Q. c #6A3B99",
"!. c #6A3592",
"~. c #703E91",
"^. c #4E4586",
"/. c #534285",
"(. c #56428A",
"). c #5B428D",
"_. c #5E4292",
"`. c #5E4A95",
"'. c #63438C",
"]. c #6A418C",
"[. c #634B89",
"{. c #74458C",
"}. c #7B5C81",
"|. c #775A82",
" X c #624293",
".X c #694193",
"XX c #604992",
"oX c #654398",
"OX c #8B7989",
"+X c #968397",
"@X c #9A839A",
"#X c #9E88A4",
/* pixels */
"+Xl.c.b.b.b.n.b.x.n.n.x.x.x.z.z.z.x.x.z.z.v.x.n.x.x.x.b.x.n.n.n.v.v.v.n.v.v.c.v.c.c.c.n.x.n.n.z.z.n.z.z.v.x.c.z.z.z.c.n.b.n.l.OX",
"m.  $ o o o $ $ @ o $ . o $ @ @ @ @ o o @ @ @ o o o o @ @ $ @ $ $ # @ $ $ % % $ % % @ @ @ o X o o o o X . X @ o . @ o $ $ $ . l.",
"}.$ X.3.,.<.*.*.<.3.#.$.q 7 2 7 7 1 1 1 1 1 2 2 2 7 1 9 $.3.-.-.1.,.,.3.,.-.1.1.-.-.;.@.1 1 1 1 2 2 2 1 2 2 2 2 5 2 1 o.%.X.$ x.",
"|.@ +.{.I.~.~.I..X].].[._ h l h v v j z j j h j j x t m G.'..XI.E.].E.]..X'..XR..X].'./.n j k h j l k h h h k j l j t >.{.,.@ b.",
"|.$ *.I.P.E.T.R.J.P.e.] H c c a c d S z d c d k k x { e.J.R.R.P.R.R.W.E.R.R.T.K.R.J.6.Y k k c c d s c c c s G c s Q e.e.{.<.$ b.",
"|.o ,.I.E.E.R.R.L.XX] z z c d c z c c S k c k z z C H._.R.R.R.I.R.E.T.W.W.E.E.R._./.F D c c c c c c c d z d d z S [ _.I..X<.O b.",
"|.o ;.].R.R.R.J.e.{ H G d c c c k c D c c k z j 0.e.J.R.W.R.R.E.P.T.E.E.W.T.R.G.{ [ z c c k c d G d c d d c s J 6.S.oXR.E.<.$ z.",
"V.o ,.].R.R.R.).6.z a d d d d c c c d c c v z z F._.L.W.E.R.E.E.E.E.E.E.T.I.'.F.F z c c c H c c c G c z c c s ' _.W.E.E..X1.$ c.",
"N.o +.I.R.R.Z.Y / ) W W R d d S d a N c s c | w.H.oXW.Q.R.R.R.E.E.T.R.T.R.(.] Y F c c c d G c c G c d N Q Q Q  ._.W.Q.E..X1.$ x.",
"N.@ *.I._._.] z E g.h.} J S d c c d a a z C F._.L.L.W.Q.R.R.R.W.E.E.P.I.)./.F z c c c c d d d c G c a N f.h.j.A.R.T.Q.T.R.1.% n.",
"N.$ <.'.Z.' H a E g.) h.E s G d c c s z | t.J.W.W.W.W.R.R.R.W.R.E.R.P.S.6./ G N c c c S d d c c S G a k g.f.} /._.R.T.E..X1.$ n.",
"V.$ ,.'.{ r z k B d.g.k.E d c s c c z z A.XXL.E.W.W.R.Q.R.R.R.R.R.P.'.i.F s a S d c d d d c c c G z f l d.^ q.k.'.R.E.T.].1.$ n.",
"|.o u ( J z k v h 4 2 4 f c z G d z 0.Z.H.L.E.E.W.R.Q.R.E.R.R.R.R.G.6.U v G c d c c c c c d c D s U r.5.2 5 1 =.P.R.E.R..X1.$ x.",
"V.o 9 x S c c j 6 O & ; 4 k j z D C S.oXR.E.W.E.Q.R.R.E.Q.E.R.J.).).n z v c k c c c k c c c z D D P [.2.- - = i P.E.T.R..X1.% x.",
"N.@ 8 H d G c x e 5 8 5 j k x x  .Z.L.W.R.E.E.E.Q.R.R.R.R.R.P.J.6.T x v c k c c v v c d G c z L Z.F.R.U.s.9.9.U.P.E.E.E..X1.# c.",
"B.$ 8 v d G D c H v l l k z t t Z._.R.R.E.E.E.R.oXR.W.W.R.R.'.H.K z z z c c c a k k d d G z t ` _._.R.R.!.I.E.I.E.T.W.R..X<.% c.",
"M.@ 9 x G S G c G c c k k z | A.J.W.R.R.W.E.E.W.R.R.R.R.J._.] P F z c d c c c c c c d S s U A.S.).R.R.R.R.R.R.E.E.R.W.L..X,.$ z.",
"N.o 8 v c c c d c c d k x t t._.R.R.W.R.R.E.E.E.R.oXR.R.J.H.P z c G c c c c c k k z G z z I  X XR.R.R.R.R.E.E.E.W.R.K.L.'.3.# z.",
"C.o 5 v c c c d k D z D 0.A.H.L.W.W.R.R.E.E.E.E.E.R.R.).{ U D D d d d c c c c c c z z H e.F. XR.oXR.R.R.E.E.Q.W.E.W.L.Z.=.u $ x.",
"M.o 5 j c N a c c c z t e. XW.R.W.R.R.R.W.W.W.Q.E.J.).F.L z G d d d c d c c c c G z r P  XE.R.E.R.R.E.E.W.Q.E.W.R._.`. .t 1 $ c.",
"N.o 5 j c c d c z h 0./.J.L.W.W.E.W.E.E.E.W.L.L.L.).] P H G G d d d c d c G c D z L A.H.R.R.E.R.R.R.E.E.R.E.L.L._.Z.P F n 8 @ n.",
"N.@ 1 v c c a z F t A. XR.R.E.E.E.R.E.E.E.W.L.W.H./.L z c c d c c d d c d c z z F P _.R.P.E.E.R.R.I.E.E.E.R.R.J.).Z.D v v 8 o n.",
"M.@ 8 v c z z z 0.F.L.L.R.R.W.T.E.E.R.W.E.W.R.J.6.U D c d c v d d d d c G c D K Z.H.R.R.E.E.E.E.E.I.R.E.R.R._.e.Y H c c l 2 @ c.",
"M.o 5 v c c v t w._.L.R.E.W.W.E.E.R.R.R.R.R.J.(.U z G d c c v k d N d S z D D L J.R.L.R.R.R.E.E.E.E.R.R.L.).).r.D z a c v 2 o c.",
"C.o 2 v z z { /.L.L._.W.E.W.W.R.R.R.L.R.L.).] U H D c c c c k c k a G G z F A.H.L.L.W.R.R.R.P.E.R.R.P.R.XXt.L J z k N k k 8 @ n.",
"m.o 5 j x K w. XR.R.R.E.E.E.E.W.R.R.J.P.J.^.U z z c c c k c k k c d c D F P J.oXR.R.W.R.R.R.R.E.E.R.L.J.).w.x v c c a c v 0 $ n.",
"N.o 9 x ] /.H._.W.Q.R.R.E.W.E.R.R.R.R.J.] K H c c c G d k c c z d G s F t.H.R.R.R.E.R.E.R.R.R.R.I.R. XS.P F c c k c N c v 3 $ n.",
"}.o 0 i w._.L.W.Q.R.E.R.R.W.R.R.L.R.J./.U z z c c d S d d c c d c G F P )._.R.R.R.R.E.E.R.E.E.R.R.J.J.e.t x c a c c d c v 5 @ b.",
"C.o %.U._.L.W.W.W.R.oXE.R.W.R.R.P.).0.F H c c c N d d d c c G d p F t.J.I.R.R.R.W.E.W.E.W.R.E.R.L.F.K L x c c k c G c k v 3 $ n.",
"N.@ ,.].L.R.W.E.R.Q.E.W.W.W.R.P.).H.Y z H c c c d c d d c c D D F K ).R.R.E.R.R._.R.E.R.E.W.R.L.(.r.x v c k k k d D c k c 3 o n.",
"B.@ ,.].L.R.E.W.Q.W.W.Q.Q.R.R.).] F H c z c c c c c c c c G C F A.H.L.E.E.E.R.W.R.R.L.W.R.L.J.A.U F z H c c k k c c c k v 5 O z.",
"B.# %.Y.R.oXE.E.Q.R.W.E.!.R.J.A./ z c c c c c c c d c c z D F P H..XR.E.E.E.R.R.E.W.W.W.L.L.H.r.D c c c k c c c c c c k v 3 o z.",
"B.# %.I.R.R.E.R.R.W.E.T.I.E.6.D H c c c v k c c d d c z z F F.).L.R.R.R.R.R.R.E.E.E.T.R._.H.K H z c c d c k c c z c k c x 3 @ c.",
"B.# +.].R.R.R.E.E.Q.T.R.J.H.' z c c k c c k c c c d D z K I H..XR.R.R..X XR.I.E.!.!.E.J.F.r.H c v d c c k c c c G c z F K 9 o n.",
"B.$ *.Y.R.R.E.E.R.Q.R.).6.F G c c v c c v c c c S D z F y.J.J.R.R.R.R.R.E.R.R.E.E.R..XF.K F c c c d N c c c d d c z z ' (.;.o x.",
"B.@ ,.I.oXE.!.R.R..XJ./.[ z d v G c c v k k z d S D F P G. XR.R..XP.R.R.E.E.R.E.R.J.H.t.D c G c d c c c c c d G c x K 0.).;.X x.",
"}.@ ,.E.R.E.E.R.P.).6.F D G v d d d d c N d c c z F A.).J.R.R.E.E.R.E.E.E.E.E.L. X(.P F v c d d d c c G c d G c h ( ).). X;.$ x.",
"V.$ <.I.E.E.P.I.F././ c c c G d d c d c c c d s F P G.oXR.R.R.R.R.E.E.R.E.E.L.J.F.r.x z k c k c v k c d S d s D F 6._.L..X1.X x.",
"N.@ *..XR.R.P.].6.H z d d c c S d S c G G G z r t.).I.R.R.R.R.P.E.E.W.oXR.R.oXH.L D D v k c c c c k c c S D s ' (.J.I.R..X3.X v.",
"N.$ *..XR.P.H.F.( z d d S c c d d c d c D F F P F.R.R.E.E.R.E.R.R.R.R.W.L.L.F.r.H z v v c k c c v d c c G H C 6.)..XR.E..X<.X x.",
"B.# *.P. X X6.F k v d d c c c c d c z c D C F. XJ.R.E.E.R.R.R.R.E.W.T.L._.(.F F H z k c c c c c k k k z r ' )._.R.R.R.T.E.1.@ x.",
"N.$ -.].F.F.Y x c c c c k k v c d v z z P ` G.oXR.R.R.E.E.E.R.R.W.R.L.L.H.r.F D c c k c k v k c c c z z U 6.'.R.R.R.E.R..X1.X x.",
"B.# %.].w.F x z c c c c v v d d c G z x t.).R.R.R.L.R.R.R.R.R.R.E.E.R.J.I z c c c c k v k c c d c d h U ).P.E.R.R.Q.E.R.oX3.X x.",
"B.@ #.k.Y x D c d c c c c v c d S D Y I S.'.R.R.R.R.R.E.R.oXI.R.L.L.S.e.H c R S c c c c k c c c c F L 6.J.P.E.E.E.R.E.R..X3.@ x.",
"B.@ 9 n x c c c d c c c c c c c z r Z._.R.R.R.E.R.R.R.E.E.R.J.R.R.).K F j D c d c c c c D c c z z U _.).R.Q.E.E.E.E.R.R..X1.@ n.",
"M.# 9 M v k v c S c c c z z z z L Y H. XR.R.E.E.R.E.E.E.R.E.P.J.A.Z.F z c c k c c c G c G d z x U 6. XR.W.!.E.E.E.E.R.L.oX<.$ n.",
"M.$ 9 v c d c d S c v c c G s x t.)._.R.R.R..XR.E.E.R.R.R.R.R.H.L z c d N c c v c D G S G S r K (._.R.W.Q.Q.W.R.R.R.E.R..X1.$ x.",
"M.@ 8 v c v G c c c c k c z Q I y.R.R.R.R.I.R.R.W.W.L.W.L.L.S.w.U s c d d a c k c c d d G G U 6.L.R.W.R.T.E.R.R.E.W.E.R.E.1.$ x.",
"M.o 9 v c c c c c G d c x r Z.'.P.E.E.E.R.R. XR.W.E.K.W._.).L D c c c d c c c c c c G s z U )._.R.R.W.R.R.E.R.W.W.E.R.J. X;.@ n.",
"B.@ 7 v c c k k v c z k K ` H._.E.W.Q.E.R.R.R.R.W.E.R.L.A.e.K D c v c c c k c v k c d D ' 6.J.R.R.E.W.L.R.R.L.W.E.R.R.H.y.@.o n.",
"B.@ 8 v d c k c d d d z w._._.R.R.L.W.R.R.R.R.R.W.W._._.K z D c c k v k c k c c c c s F (.L.R.E.Q.Q.E.R. XR.R.R.R.W._.w.t 7 @ n.",
"B.@ 7 v d d d d R R E H t._.L.R.W.L.W.R.R.I.R.R.L.L.Z.r.L D c c v c c k v c d c c D Y { J.R.E.E.!.W.E.L.H.H.G.G. XF.Z.[ n 2 @ b.",
"B.@ 8 k c d d p E f.h.} /.P.oXR.R.W.W.R.R.R.T.R._._.U z x c c c c k c c c c G s z F )._.R.R.E.E.W.W.oXF. .j.} t.`.r.D D l 8 @ x.",
"N.@ 8 v c z z k ! g.g._ /.R.R.R.R.W.R.R.R.R.R.L.Z.r.H z c c c c c d c H z c z z { | J. XR.E.E.R.E.E.).^.h.h.f.g. .[ D G v 8 o n.",
"B.X 7 l c c x k / k.k.4.i.I.R.R.R.W.E.R.R.P. X_.P C z c c v c c d d c c D v z F (._.R.R.E.R.R.R.E.E.L./.j.j.k.~ s c G G k 5 @ n.",
"B.$ 7 j c z L { T m b b a.R. XR.R.R.E.R.R.J.Z.w.J z c c c c c c S S S D x x Y { ).L.R.R.E.R.E.R.W.W.R.y.m M M M c d d c v 5 o n.",
"N.@ 7 v p r w.XXA + & & 2.E.R.R.E.R.R.R._._.Y x v k c k k c k k d d s D < K ).).R.R.R.R.E.E.R.R.R.R.].2.- % % > k S d d k 2 @ c.",
"m.@ 7 j J { A.P.8.&.O.O.u.E.!.I.R.R.J.J.e.r.L z c c k a a k c k c c z z [ w.).R.W.E.E.E.R.E.R.R.R.R.I.2.7 7 , f c d d c v 5 @ c.",
"M.@ 9 t ] _.J.P.E..X].I.P.W.W.Q.P.R.'.(.U z z c v c c N d c c c G G s F /.'.R.R.T.Q.R.E.E.E.R.T.W.R. Xt.j k k v k d v c v 8 @ n.",
"M.@ o.7.S.P.P.!.!.E.I.I.T.W.E.E.R.R.e.0.L z c c c c c k c c c c d D ' w.G.J.R.R.W.W.R.E.R.R.R.W.Q.K.6./ s d d c a z d d v 8 o n.",
"N.X ;.].I.I.I.I.I.E.E.P.E.E.E.I.].I.T e x l h h k h j j j j j z h F b.'.].I.E.E.E.E.P.I.I.E.E.R.E.y.Z x z j x z j z j j M , @ n.",
"C.@ ..#.*.*.,.*.*.*.+.*.%.%.%.%.#.#...7 7 7 2 7 1 1 1 1 7 7 1 1 1 9 i %.#.%.%.%.+.,.%.#.#.#.*.*.-.O.7 1 1 1 7 1 1 9 1 1 7 : $ n.",
"m.  @ o $ $ $ @ $ $ @ @ # # $ # X @ # # # @ # # # # @ # @ X X X X X # # # # # # $ $ $ @ @ $ $ # @ @ @ @ @ X # # # $ @ o @ @ . l.",
"#Xm.C.N.B.B.N.OXB.B.OXB.M.B.B.B.B.M.B.B.B.M.M.M.M.M.M.M.M.M.N.M.M.M.B.B.B.M.v.OXB.}.}.B.}.}.}.B.B.M.M.M.M.M.M.M.M.M.N.N.M.M.m.@X"
};
