/* XPM */
static char *_632_7b39d599ecdb92bc92a7907568e6e0b7ee9c20bf532f92742887e5aa72ae4e80[] = {
/* columns rows colors chars-per-pixel */
"32 32 121 2 ",
"   c #010001",
".  c #090007",
"X  c #05010A",
"o  c #09010D",
"O  c #020C0B",
"+  c #00130B",
"@  c #0B0213",
"#  c #050B12",
"$  c #0E031A",
"%  c #0D0D1E",
"&  c #110115",
"*  c #13021B",
"=  c #19021F",
"-  c #140423",
";  c #1A0223",
":  c #110A24",
">  c #170529",
",  c #1A052C",
"<  c #170D2F",
"1  c #0E1222",
"2  c #11162F",
"3  c #1D0634",
"4  c #1F0739",
"5  c #1E083A",
"6  c #1B123A",
"7  c #230026",
"8  c #23022C",
"9  c #240332",
"0  c #290234",
"q  c #22073C",
"w  c #2C033C",
"e  c #22083E",
"r  c #31013B",
"t  c #142036",
"y  c #053C35",
"u  c #083835",
"i  c #10303F",
"p  c #260742",
"a  c #2C0643",
"s  c #250843",
"d  c #270948",
"f  c #2A094C",
"g  c #330344",
"h  c #390145",
"j  c #3B034B",
"k  c #33084B",
"l  c #211C47",
"z  c #24154C",
"x  c #221A4B",
"c  c #2E0B54",
"v  c #370751",
"b  c #3B0451",
"n  c #310A56",
"m  c #3E0658",
"M  c #330B5C",
"N  c #39095E",
"B  c #221F50",
"V  c #301E54",
"C  c #3C1158",
"Z  c #1E324F",
"A  c #34255F",
"S  c #360C62",
"D  c #3B0B64",
"F  c #3C0D6B",
"G  c #391C73",
"H  c #430355",
"J  c #46055C",
"K  c #4A035D",
"L  c #4D0363",
"P  c #420963",
"I  c #4D0669",
"U  c #430B6C",
"Y  c #4A086C",
"T  c #500265",
"R  c #55036C",
"E  c #58036F",
"W  c #4E106F",
"Q  c #411D69",
"!  c #420E73",
"~  c #460D78",
"^  c #540671",
"/  c #5B0474",
"(  c #560E76",
")  c #5F0479",
"_  c #57097C",
"`  c #63047C",
"'  c #43216F",
"]  c #154B5C",
"[  c #295B7F",
"{  c #4D0E81",
"}  c #5A0881",
"|  c #481082",
" . c #4D118B",
".. c #5A0F92",
"X. c #521191",
"o. c #650482",
"O. c #6A0587",
"+. c #6D058B",
"@. c #69088F",
"#. c #70058F",
"$. c #640E9F",
"%. c #6F099C",
"&. c #730594",
"*. c #76069A",
"=. c #7A059C",
"-. c #5D13A4",
";. c #5E15A8",
":. c #7D05A1",
">. c #7C08A9",
",. c #6015AC",
"<. c #394D91",
"1. c #26708E",
"2. c #296E9A",
"3. c #35709F",
"4. c #3F67A4",
"5. c #8106A5",
"6. c #8506A9",
"7. c #8905AD",
"8. c #128C8B",
"9. c #1C8A97",
"0. c #18959B",
/* pixels */
"$ @     w * -     h     R g   j H H L w         w 7.&.=.6.O.#.n ",
"        0 &       R 8   Y h   0 +.` R j X X @ o 7 #.&.&.&.` =.N ",
"        ; o       / O.H I j   0 :.%.$.} g 3 0 ; w T K T *.7.=.M ",
"        .       @ 0 : Y ^ 8   9 -.S S > @ * * X w ) R L K ` =.~ ",
"                o =     D 9   3 M   f 3 o * * * w L / E K H H U ",
"                = ;     F P e e s > o $   o $ v T / K E R R T 8 ",
"            X o & 9 o   D P f - : f s 4 > 3 @ @ 7 a b =.&.) E b ",
"              . & p c   N ,       o $ @   @ X       @ , J +.o.L ",
"                @ ; f   S -         X   o $                 j / ",
"                  ; M X F -   @     X o >                       ",
"                  ; s   M -   o @   @ >             $ o         ",
"              - 9 & s   S 3         $         X     X o     @   ",
"        * e - N 5.` a   D 3       X         @             - >   ",
"  @ 3 M f > X * = K ` 8 5 ,   o o   o ] x o @             * e o ",
"  3 e -       g j   & ; > 3 e ,     # u i %         o -   p X.T ",
"              * @ , o   @ : s         < ] O         : z   3 ..` ",
"              @ 7 L & @   $ =         $ , X         O 2 # 3 { R ",
"                  7 0 0 @ * X           X             O + - ! T ",
"      X       X @ o & & H j & o                       2 1 @ _ ` ",
"      X   $ $ -     X   r h ; * * &               - ; 0 o - @.&.",
"    - @   * 4 @ @           &         o $ @ - $   e a / 7.O.` H ",
"*   d @ o   o 3 S M s 4               X $ $ $ - o $ - & j ) &.:.",
"p X : $ @     7 h 8 v f o                 o                   * ",
"> X X * o   o K H R r o $ X     @ > n e           X &   & @     ",
"J o X       & ( V Q g @ m &       < M X.-   X     7 o         X ",
"C       o   o ' 1.3.P X L ; : X o   f | >     - & @   > f 3 @ e ",
"v       - =   A 8.4.H   R * @   o X ! ,.,     @ o & ;   ; a e r ",
"3       q &   Z 0.[ r O / * @     @  .-.$   X     &     @ 0 8 * ",
"@   X @ F v & t 9.y 7 o J * @     o  .;.@   X         B <.l h H ",
"8   o   F >.O.R R W J o E *         f ;.* X X         6 G p 9 <.",
"J     $ ! =.5.=.6.7.:.9 j *         3 ;.,   X   X       o * p 2.",
"k     * F &.` ` L w J > K w S N >   5 M X     - f $     o $ ; % "
};
