/* XPM */
static char *_399_6e06b6b0d9e7f39498cd0987af1fd828ba88df8c5fff6660622b97ce199a52f8[] = {
/* columns rows colors chars-per-pixel */
"64 64 185 2 ",
"   c #000001",
".  c #080000",
"X  c #06010A",
"o  c #09010E",
"O  c #030C0D",
"+  c #0B0213",
"@  c #0A0816",
"#  c #0E031A",
"$  c #110116",
"%  c #13021C",
"&  c #19011E",
"*  c #051114",
"=  c #05191A",
"-  c #140424",
";  c #1C0224",
":  c #17052A",
">  c #1A052C",
",  c #1C0633",
"<  c #1E0A36",
"1  c #1F0738",
"2  c #1F0839",
"3  c #151E33",
"4  c #210025",
"5  c #22022B",
"6  c #250332",
"7  c #290235",
"8  c #220A33",
"9  c #23063C",
"0  c #2D033B",
"q  c #22083D",
"w  c #31023E",
"e  c #052323",
"r  c #0A252C",
"t  c #0B2830",
"y  c #063A36",
"u  c #250742",
"i  c #2C0744",
"p  c #250843",
"a  c #2A0946",
"s  c #2D054B",
"d  c #270949",
"f  c #2A094C",
"g  c #340243",
"h  c #3A0146",
"j  c #320C47",
"k  c #34054B",
"l  c #3B034D",
"z  c #30084D",
"x  c #24144B",
"c  c #2D0A53",
"v  c #2F0B58",
"b  c #350753",
"n  c #3E0451",
"m  c #320A55",
"M  c #380856",
"N  c #3E0659",
"B  c #330B5B",
"V  c #3A0A5C",
"C  c #2B1C53",
"Z  c #32125E",
"A  c #1D2A47",
"S  c #143447",
"D  c #2B2A58",
"F  c #243A5E",
"G  c #3A0562",
"H  c #360C63",
"J  c #3B0B65",
"K  c #3B0D6B",
"L  c #371568",
"P  c #3E0E71",
"I  c #302067",
"U  c #293B66",
"Y  c #342F75",
"T  c #43004C",
"R  c #420354",
"E  c #4A0055",
"W  c #46035A",
"Q  c #4A025D",
"!  c #470561",
"~  c #4C0362",
"^  c #470668",
"/  c #4D066D",
"(  c #450A6C",
")  c #510366",
"_  c #54036B",
"`  c #58036E",
"'  c #49116A",
"]  c #420D74",
"[  c #4C0974",
"{  c #440E7B",
"}  c #4A0C7A",
"|  c #560574",
" . c #5B0374",
".. c #530A75",
"X. c #5E047A",
"o. c #5A087B",
"O. c #45107C",
"+. c #620076",
"@. c #62047C",
"#. c #48277A",
"$. c #42317B",
"%. c #0C4346",
"&. c #10404A",
"*. c #164559",
"=. c #21405F",
"-. c #1E4B64",
";. c #125961",
":. c #175A68",
">. c #1D5E78",
",. c #274876",
"<. c #334378",
"1. c #275D7E",
"2. c #0F6466",
"3. c #176572",
"4. c #147479",
"5. c #117C7D",
"6. c #3F2685",
"7. c #4E0E82",
"8. c #580987",
"9. c #5B0A8A",
"0. c #471082",
"q. c #4A1085",
"w. c #4D118B",
"e. c #5D1182",
"r. c #590797",
"t. c #540B93",
"y. c #5B0E93",
"u. c #4F1290",
"i. c #4D1B94",
"p. c #521294",
"a. c #581196",
"s. c #56139A",
"d. c #5A139F",
"f. c #650482",
"g. c #690485",
"h. c #65078C",
"j. c #6D048B",
"k. c #63098C",
"l. c #71038D",
"z. c #6F0691",
"x. c #620A90",
"c. c #6E0896",
"v. c #730593",
"b. c #780497",
"n. c #76069A",
"m. c #7A059B",
"M. c #70089A",
"N. c #452D88",
"B. c #5B14A3",
"V. c #5E15AA",
"C. c #650FA0",
"Z. c #7E05A2",
"A. c #7F07A8",
"S. c #7A09AA",
"D. c #6115AD",
"F. c #6315B2",
"G. c #6033A4",
"H. c #3C4988",
"J. c #394694",
"K. c #395C9C",
"L. c #2E618B",
"P. c #266B8A",
"I. c #287895",
"U. c #287B9A",
"Y. c #3C5DAB",
"T. c #3168A1",
"R. c #2A7EA4",
"E. c #5A53B5",
"W. c #6046B0",
"Q. c #4367BD",
"!. c #8205A5",
"~. c #8506AA",
"^. c #8905AD",
"/. c #8B06B2",
"(. c #8109B1",
"). c #14888A",
"_. c #1D8190",
"`. c #139693",
"'. c #119994",
"]. c #1A929C",
"[. c #2E89AB",
"{. c #289CB4",
"}. c #17A8A9",
"|. c #1CB0B6",
" X c #20B1BB",
/* pixels */
", # # X       # + _ &   q #   #     R W         ; M.@.    X 6 ) W 5 ; ` ` ` W ,                   f.!.g.~.n.!.!.!.!.z.X.Z.@.m f ",
"X # o         + X _ &   f %         l g   .     5 n.@.    + 0 w @.` _ ) _ W l 7                   ) ^.Z.~.` v.~.Z./.f.f./.g.f B ",
"X X X         o X | %               Q !         ; A.X.      5 6 f. .R W l 7 w 0                   g /.!.~.l. .~.~.m.) f.^.m.[ d ",
"              X   Q $               ~ b.~ o     @ S. .  .   $ w m./.f.!.m. .! R       o o $ ; ; ; 0 R @.b.m.@.m.g.@.~ !.~.v.J v ",
"              X X l $               f.b.!.b.h   # (. .  X . % w b.~.g.v.!.y.8.b.~ n ! k k / l 0 w g _ ~ R g.) l.j.!.!.!.~.l.z c ",
"              X X w +               +.! n o./.f.> !.` X 6 ; 5 0 m.~.8.7.V.q.x.| 9 > d     9 %     _ ~ ` l l g W l.~.~.!.!.b.H H ",
"                  o               X i , - 2 } ~.^ ^ T   X   % 0 C.D.p.{ s.B f -   + g     g ;     @.@.@.R g.Q W ! @.b.~./.m.( H ",
"                  .               ; ~ o - : > J V | W       # 8 B.w.c , B 9 , >   + k     g &     | ` ~ l !.` R _ R l ) h.m.7.O.",
"                  X               X W X   X X   + S.W       + 2 D.]   X P f > :   o l     g &     X. .W l ~._ R _ g l Q ~ ` K u.",
"                                  X ;         # # d.b       # q ] >     q J B :   o k     g ;   > Q R X.W m._ _  .W  .g 7 ` R f ",
"                                o 4 g         - u B.M   # # % : X   % @ + # q :     o X   > m h @.Q W W 6 h w @.l.W X.Q @.l 6 0 ",
"                          +   + ; & W X         # V.| [ q.q q f K u.H   X X         X - X # H l W ) g.b.`  .X._ Q W j.Q j.` ; & ",
"                          - $ o $ o 0 $         , D...[ p.p.B d - : c c , : -     X X # + + - - 7 g k f.n ` /.Z.f.~ ~ W X. .W k ",
"                          . . X ; . w i :       # F.k   X         o d d c J ] J m f f c <     X & - + # # 7 g.!./.!.f._ @. .V / ",
"                              X & & ; p f #     # D.9                 , , # o o X     X                 - 1 - N f.m././.) l 9 W ",
"                              . ; X & J q.c X   # D.9                                 % o                 X % + X ; R j.~.A.! R ",
"                                ;   w 0 f 1 +   % V.>                   @           : #                       X X X X o g Z.!.j.",
"                                ; X & X p 8 X   : V.>       +           X %       , q                         X X X X     % 0 ~ ",
"                                X   % o H 0.  o H V.>       # +           + X   - d                                             ",
"                                    w l v ] X   % V.>     X   : +       X     + c                                               ",
"                                    & % : ,     % V.>       X   % @       1 , - o                       o #                     ",
"                                    & $ d v     # V.,       X X   +       X u #                           d -                   ",
"                                o . 5 ; H H X   % D.9         X         o < X                             X q                 $ ",
"                          X X V f.% o X - : X   # F.z                 X : X                 - X                         + o   X ",
"                  X   # o X d a.!.b.@.6 m B X   # F.m                 ; X               X                             H w.X   X ",
"                # d B K m , > a.b.m.^.g.i ; o   % F.f                 X     X           > # X                         2 #     + ",
"            # f H ] f q #     $ 5 5  .!.m.~ $   # ] p             @         Z G % X o   : X X   X                     X 0 +   + ",
"    + - u K s.p.u #           1 +   5 g n b.v.> + c f   + + - X % +         3.R.J.Z -   + X                   X       h 9.d . - ",
"    H u.{ c p X             & M.[   % o   & n q   c B   c > : % @           4.y y ,.<                   X   : -     & K V.f ` k ",
"            X X             $ l @.! % X           q f   d d q #             %.    e =                   + # a %   o . m F.H j.| ",
"                            $ +   5 6 % X       X > - + c H +               @   ).;.*                     X 9 #   -   K V.| ~.~ ",
"                            ; ;     o ) & .       # # @ B +                 < L >.%.*                     I 6.:       H D.i l./ ",
"                            $ 7 n ; & `     o o     - # q # X               X a V , -                     * &.,.x     H D.M g.W ",
"                                & Q +.f.+   4 4   X $ + - + % X                   @ +                         O t     f D.9 j.X.",
"                                    6 ) T w 0 ;     %       X .                   X X                           e     q F., +.f.",
"          X o                             5 ) w 6 ; 5 & %                       # +                       O e O r     < D.>  .Q ",
"          X 5                     o % ; ; % o X ; l R 0 &                                                   @ S *..   % 7._ j.^ ",
"                          + X   X 4 % o   X $ & 7 @.+.o $ 6 5 X       X                                   + 9 9 < ; + X / z.l.9.",
"              +       # - - : - X         % ; . $ g.) g $ & & o   % ; ;                             ; X   X         & B a.l.!.h.",
"            X #     - > #   - - +             X ; g 6 7 w X X & ; 5 &                               - a R & ` g ; o   ; k.!.^.h.",
"          # X   #   - - f -   # o             X o       ; 7 % X               X X + @ + % ; -     X - f N   _ /.!.n...R _ ~ w 6 ",
"X       > f + X -     X H , # % # +     X X             X                 X + # > % - # # : > + # X @ f d 0 6 l.^.~.^.v.m. .R ~ ",
"  X     2 c X   -         % a p d 0.H > X + - o                               X - X # # X - > # @ X # p u z w ; @.n.!./././.^.m.",
"2 2     d v o   -           % ; ..f P s.O.v K c                                 @ - - : X # # # X X               % 7 h ~ z.!./.",
"q d     d c X X -         X & & ` 0 $ X a ( ] u                                   X o +                     X             X % 7 ",
"q c     # +   2 -         . 7 & 0 5 7 l T ; 6 9 o # X                   +                                 X       X X           ",
"> -         X > 5           ~ ~ _ w l n w $ 5 X o #             X - , 2 > H #                           X X     $ ; % .         ",
"g     X # - % # X         % o.) R l g.f.) % %   # <             + + # - + s.u.-                       + g         $ $           ",
"j.i % - #                 &  .+.h w E +.@.5 q X > ( @               f K 2 s.s.s.,                     R $                       ",
"e.~                       ; +.N.=.D F A j & <   n A.o   X # X       + : - P v s.c         X #       h ;                     X   ",
"U ~               +       $ ` <.P.P.[.U.#.4 %   w v.% - # , #   X X   o - J K 0.1           f %   5 7         p 1 #     X   f m ",
"M Q               # +       _ $.K.L.{.W.^.h :   h j.o   : >     X -   + : w.q.{ f #         # 5 X %     X + + f P q.0.1 X   # 7.",
"~ R             X > 0 o     E -.`.:.).H.) 8 X   l /.$   : :     o #   + > B.V.B.f +           5 7   o 5 & & +   + % B u.a.f 6 $ ",
"a.-             - > ; .     Q -.}._.|.G.E 0 X   l ^.$     -     o -   - f B.B.B.p             + X   $ & 4 X     % 5   X , 7 W _ ",
"0.X             , q ; X     T ;.).3.}.E.T 7 #   l ^.$     -       X   > { B.B.D.:         X o       $ % $ X       % W ;   .   $ ",
"> +             c d % X   . 4 2.{.1.5.A 4 0 #   l /.$   - -           # O.B.B.V.-         X         X &   .   + - . ; ` g R & X ",
"# +   X         f K 4 $ .   . 3. X].5.  5 6 X   h v.+   d #           # { B.B.B.:                             { i.x Y > W Q Q 5 ",
"# #     o # - , B B.8.R 0 ; 5 3 3.5.I.* w R +   g f.+                 # P V.B.B.-     X #                   o T.[.S K.# X R l.+.",
"% +     # + X + u D.c.b.!.~ W  .T R 0 3 8 w o   l /.$                 # % 0.D.B.-     - #               # + X N.i.u t.+   - C U ",
"+.+             : V.k.b.!.v.f.j.X.~.b.v.o.) 5   n /.$                 # % H D.B.u   X +                 X     9 d q B.+ + r.Y.'.",
"!.5         X @ q V.c.g.!.m.v.@.l.!.!.!.^./.W   w Z.$                 #   u D.B.f 1 X   o - X               + -   X m o X t.Q.`.",
"X.w       + - d c q.S.b.m.!.m.j.~.^./.Z.| M./   ; R +   .             #   u V.V.:   X                               #   @ s ,.].",
"' 0       + % X P w.v.v.g./.^.Z.b.g.Q W ~ _ K   l m.& o K H u #     X   @ c q.q.#           X 2 K v :           X # # - ; > @ r ",
"} 0       X # X B K Z.v.R _ l n 0 + X ; w M 9   l /.& B O.B D.s.] ,   o c u < -             X - P + - -           @ : + 6 0 :   "
};
