/* XPM */
static char *_0981_82695c2a8c4e6121fbce7d9c7daa4af00c0b8a1a668d5fb96a877ddb4fb155c5[] = {
/* columns rows colors chars-per-pixel */
"64 64 135 2 ",
"   c #000006",
".  c #0F0005",
"X  c #000009",
"o  c #0E000D",
"O  c #130007",
"+  c #120009",
"@  c #000013",
"#  c #0A0112",
"$  c #000018",
"%  c #1C051E",
"&  c #22041B",
"*  c #28041C",
"=  c #160624",
"-  c #1E0621",
";  c #150E2E",
":  c #180828",
">  c #0F1329",
",  c #121125",
"<  c #181D25",
"1  c #12142D",
"2  c #18102F",
"3  c #1E0B34",
"4  c #131430",
"5  c #151C36",
"6  c #1F163E",
"7  c #1C1E3B",
"8  c #2B042E",
"9  c #27092E",
"0  c #28092F",
"q  c #34042D",
"w  c #230531",
"e  c #2A0330",
"r  c #210E37",
"t  c #2A0D37",
"y  c #2C0E3D",
"u  c #28133F",
"i  c #211F3A",
"p  c #1B203C",
"a  c #232934",
"s  c #23203D",
"d  c #2C1746",
"f  c #241A44",
"g  c #2B1847",
"h  c #2D1849",
"j  c #1B2543",
"k  c #1B2947",
"l  c #15244E",
"z  c #18254C",
"x  c #1B284F",
"c  c #152551",
"v  c #1B2751",
"b  c #1C2955",
"n  c #1E2A59",
"m  c #29224E",
"M  c #252A4E",
"N  c #2E2C4F",
"B  c #2F3843",
"V  c #2F374C",
"C  c #323B45",
"Z  c #272455",
"A  c #282555",
"S  c #232C56",
"D  c #292D55",
"F  c #25275B",
"G  c #2A275C",
"H  c #212B5B",
"J  c #282B58",
"K  c #322658",
"L  c #30285C",
"P  c #23325C",
"I  c #2B355F",
"U  c #2B385F",
"Y  c #303051",
"T  c #212B60",
"R  c #273362",
"E  c #2D3663",
"W  c #2D3863",
"Q  c #2F3D69",
"!  c #303964",
"~  c #303F6A",
"^  c #384450",
"/  c #3E4A56",
"(  c #324167",
")  c #3D4C63",
"_  c #37446E",
"`  c #39456E",
"'  c #3B496E",
"]  c #374470",
"[  c #394571",
"{  c #3D4C73",
"}  c #4A5765",
"|  c #495864",
" . c #4F5B69",
".. c #404E76",
"X. c #425276",
"o. c #45547A",
"O. c #48577D",
"+. c #4C5A7E",
"@. c #51677F",
"#. c #495581",
"$. c #4B5B81",
"%. c #515E83",
"&. c #4F6385",
"*. c #536385",
"=. c #536A87",
"-. c #566589",
";. c #59678C",
":. c #546A88",
">. c #5B6A8D",
",. c #5D6C91",
"<. c #5D7597",
"1. c #637381",
"2. c #6B7788",
"3. c #617294",
"4. c #6E86A3",
"5. c #6E8DA5",
"6. c #718EA3",
"7. c #758CAA",
"8. c #7F94A5",
"9. c #7693AF",
"0. c #7897AB",
"q. c #7D99B0",
"w. c #8B9BAF",
"e. c #89A7BB",
"r. c #87A9B8",
"t. c #8AABBD",
"y. c #96B0BE",
"u. c #99B1BF",
"i. c #8CACC1",
"p. c #99AFC2",
"a. c #92AEC8",
"s. c #96B0C2",
"d. c #9AB4C3",
"f. c #92B1C8",
"g. c #A3B6CA",
/* pixels */
"          X X                               X X                     X                             X                     X       ",
"X a C /  .} } } } | } } } } } } | | | | } } } } } } } } | | } } } } } } } } } } | | } } } } } } | | | | | } | } | | | | ^ B <   ",
"  } 2.w.g.d.u.u.y.u.y.d.s.d.y.y.y.y.s.d.s.s.s.s.s.s.s.s.f.f.s.s.s.s.s.s.s.s.s.s.f.f.d.d.s.s.s.s.y.s.s.s.p.s.d.p.d.y.d.d.w.1.C X ",
"@ V | 3.4.q.t.r.r.r.r.r.r.r.r.r.t.t.t.t.t.t.e.t.t.e.t.t.t.t.t.t.r.t.t.t.i.e.t.t.t.t.r.t.t.e.t.t.t.t.t.r.t.e.e.e.e.e.0.6.@.) a X ",
"@ 5 k { :.0.f.i.i.i.t.t.t.t.t.i.t.i.t.t.t.t.t.t.i.t.t.t.t.i.t.t.t.t.t.t.t.t.t.t.t.t.t.t.t.t.t.t.i.i.i.i.i.i.i.i.i.a.4.&.( j > X ",
"@ 7 S ( { <.9.5.6.6.5.5.6.6.6.6.5.5.6.6.6.6.5.5.6.5.6.6.6.6.6.6.0.6.5.6.5.5.6.5.5.5.6.6.6.6.6.5.5.5.6.6.5.5.5.6.5.7.;.{ W M 1 X ",
"@ 7 S b c { <.&.>.:.>.:.:.:.:.:.=.=.=.=.:.:.=.=.:.:.:.:.:.=.=.&.:.:.=.:.=.=.:.:.=.=.=.=.:.:.=.=.:.=.=.:.:.:.:.=.=.;.] l n D 4 X ",
"@ 7 J n T ] o.+.*.+.$.$.$.$.&.$.$.$.$.&.+.&.+.$.$.$.$.+.&.+.+.&.+.+.$.$.+.+.&.$.&.O.+.&.+.&.&.&.$.+.+.+.$.$.+.+.O.{ Q n n J 4 X ",
"@ 7 P n T n b R _ _ _ _ _ ( ] ] _ _ _ _ ( _ _ _ ( _ _ _ ( _ _ _ _ _ ( _ ( _ ( ] ( ] ( ] ( _ ( ( ( _ _ ( _ _ _ _ P b b H H D 4 X ",
"@ 7 D n T H n W _ _ ] _ _ ( _ _ _ ] _ _ _ ] _ _ ] _ _ _ _ _ _ _ ` ] _ ] _ _ ` ] ] ] _ ' _ _ ' ] _ _ ] ' _ _ _ ] R n n H S D 4 X ",
"@ 7 D n n n n R _ _ ] _ ' ' ( _ _ ( _ ` ] ] _ _ _ _ _ _ _ _ _ _ _ _ _ _ _ _ _ ( _ ] ] ] _ _ ( ' ( ( _ _ _ _ _ _ R n n n H J 4 X ",
"@ 7 D n T T n W _ _ ] _ ( { { { X.' _ ` _ ( _ _ _ _ _ _ _ _ _ _ _ _ _ _ _ _ _ ' _ _ ] _ _ ' { X.{ { _ ] ( _ _ ] R b b n H J 4 X ",
"@ 7 D n P n n W _ _ _ ` _ +.>.>.,.+._ _ ] ( _ _ _ _ _ _ _ _ _ [ _ _ ] _ ' ( _ _ _ _ ( ] _ _ &.:.<.<.{ _ ` ` _ ] R b n S H J 1 X ",
"@ p D n T T n W _ _ _ _ ( { ,.:.,.$._ _ ] _ _ _ _ _ ] _ ` ] _ _ _ ] _ _ ` ` _ _ _ _ _ _ ( ( &.:.:.>.X.( ( ` _ _ R n n n S J 4 X ",
"@ p D n n n n R _ _ ] _ ( O.<.<.,.$._ _ ] _ _ _ _ _ _ _ _ _ _ ] _ _ ] _ ] ( ` ` _ _ _ _ ' ' =.<.>.<.{ ( _ _ _ ] R n n S H J 4 X ",
"@ p D n T n n W _ _ ] _ ] { $.o.$.{ ( _ _ _ _ _ _ _ _ _ _ _ ` _ _ _ _ _ ] _ _ _ _ _ _ _ _ ( { +.+.o.{ _ ( _ _ _ R b b S F J 1 X ",
"@ p D n n n n W ( _ ] _ ] R b n c U _ _ ] ] _ _ _ _ _ _ _ _ _ _ _ ] ` _ ` _ _ _ ] ( _ _ ] ` S b b z ( _ ] _ _ ] P b n n S J 4 X ",
"@ p S S P n n W _ _ _ ] ' W P P P W ] _ _ _ _ _ _ _ _ ] _ _ ` _ _ _ _ _ _ _ _ ( ] _ ] _ ] ` P H P P ( ] ] _ _ ] R n n n S J 4 X ",
"@ p S n T n n W _ _ _ _ _ _ ( _ ] ] ] _ _ _ _ _ _ _ _ _ ] _ _ _ _ ` _ _ _ _ ] ' ] ] ] ' ] _ _ _ ( ] ] ] ] _ ( ' R b n b H J 4 X ",
"@ 7 D n T n n R _ _ _ _ _ _ ] _ _ _ _ _ _ _ _ _ _ _ ` _ _ _ _ ] _ _ ` ] _ _ _ _ _ _ ] ] ( _ _ _ ] _ _ _ ] ] _ _ R b n P H D 4 X ",
"X p D n T P n R _ ~ ] _ _ _ _ _ _ _ _ _ _ _ _ _ _ _ _ _ [ _ _ ` ] ` _ _ ( ` ` ] _ ] _ _ _ _ _ ` ] ] _ _ _ ] _ _ R n n S S J 1 X ",
"@ p D n T n n W _ _ _ _ _ _ _ _ _ _ _ _ _ _ _ _ _ ` _ ] _ _ _ _ _ _ ] _ ' ] ] ] _ _ _ _ ` _ _ _ _ ] _ _ ] ] ( _ R n n b H J 1 X ",
"@ p D n T n n W _ _ _ _ _ _ _ _ _ _ _ ] ] _ _ _ _ _ _ _ _ _ _ ] ] _ _ ` _ _ _ _ _ ] _ _ _ _ _ _ ] _ _ ( _ ] ( _ R n H S H J 4 X ",
"@ p P n T n n W _ _ _ _ _ _ _ _ _ _ _ _ _ _ _ _ _ _ [ _ _ ` _ _ _ _ _ _ _ _ ] _ ' _ _ _ _ _ _ _ _ ] _ _ ] ] _ ] T n b S H J 4 X ",
"@ 7 D b T n n R ] _ _ _ _ [ _ ` ] _ _ ] _ ] _ _ _ ` _ _ _ [ _ ` ` _ ] _ _ _ _ _ _ _ ` _ ] _ _ ` _ _ _ _ _ ] _ ( R n n S H J 1 X ",
"@ p S H P n n Q ] _ _ _ _ _ _ _ _ _ _ _ _ ` _ ` _ ] _ _ _ _ _ _ _ _ _ ` _ ` _ ] ] _ _ _ ` _ _ _ ` _ _ _ ] ' ( ' R n n b H J 4 X ",
"@ 7 D S T n n W ] ( _ _ ] _ _ _ _ _ _ _ _ _ ] _ ` _ ` _ ` _ _ _ _ ` _ _ _ [ ` _ ` _ _ _ _ ] _ _ _ _ _ _ _ ] ( _ R n n n H J 4 X ",
"@ p D b T n n W ] _ _ _ _ _ _ ] ` _ ] _ _ ` _ _ _ _ ] _ _ _ ] ` _ ] _ _ _ _ _ _ _ _ _ [ _ _ ` _ ` _ _ _ ] ] _ ' R T n n H J 1 X ",
"@ 7 D n n n n R ( ] ( ] ] ] _ _ _ _ _ ` _ _ ` _ _ _ _ _ _ _ _ _ _ _ [ _ _ _ _ _ _ ` _ _ ` _ _ _ _ _ _ _ ] ] _ ( R n b H S J 1 X ",
"@ 7 D n T n n Q ( ] _ _ _ _ _ _ _ ] _ _ _ ] _ _ _ [ ` _ _ [ _ _ ` _ _ _ _ ` ` ] _ _ _ _ _ _ ` _ _ _ _ _ _ ] _ _ R n H b F J 1 X ",
"@ 7 D n P n n R ] ( ] _ _ _ _ _ _ _ _ _ ` _ _ _ _ ` _ ] _ _ _ [ _ _ ` _ ] _ _ _ _ _ _ _ _ _ _ _ _ _ ` _ _ ] _ _ R n H S H J 4 X ",
"@ 7 D n T n n W ] ] ] ] ] _ _ ] ` _ ] ` _ _ [ _ _ _ _ _ _ ` _ _ _ ] _ _ _ ` _ _ ` _ _ _ ` _ _ _ _ _ _ _ _ _ _ _ T n b S H J 4 X ",
"@ p D b T T n W ` ` [ ~ ` [ ` [ ` ` ..~ ` ` ~ ` ` ` ~ ` ` ` ~ ` _ ` ] _ ` _ _ ` _ _ _ _ _ ` _ _ ` [ ` ` _ ] _ ` I n n S S J 1 X ",
"@ p D n n n n W ~ ~ ` ` ` ~ ` [ ~ ` ~ ` ~ ` [ ` ~ ` [ ` ~ ` [ ` _ _ _ _ _ _ ] _ _ ` [ _ _ _ _ _ _ ~ _ _ _ ` ~ ` T n n n H J 1 X ",
"@ 7 S P T n n W [ ` ~ ` ` ~ ` ~ [ ` ` ` [ ` [ ` ..~ [ [ [ ` [ ` _ _ _ ` ] _ _ _ ` ` ] _ _ ~ [ ` ` ~ _ _ _ _ ( ` R n n S H J 4 X ",
"@ 7 D n T n n W ~ ` ` ` ~ ..` ` ` ` [ ~ ` ` [ ~ ` ` ~ ` ` ` ~ ` ] ` _ _ _ _ ` _ [ ~ ` _ _ [ ` ` ` _ _ _ ` ` ` ! R F n n H J 4 X ",
"@ 7 D n T n n W [ [ ` ~ [ ` ` [ ~ ` ` ~ ` ~ [ ` ` ` ` ` ` ~ ..` ` _ _ ` ` _ _ ` _ ] _ _ ` _ _ ` ` ` ..! ..~ ! ..R n n S S J 1 X ",
"@ 7 S n T n n R ` ~ ` [ ~ ` ` ~ [ [ ` [ ` ` ` ` ~ [ [ ~ ` ` ~ ` _ _ ] _ _ _ ] _ _ ` _ ` ~ _ _ _ [ ~ ~ ` ~ ` ..~ R n n n H J 1 X ",
"@ 7 D S T n F E [ ` ~ [ ` ` ` [ ` ` ` ` ..~ ` [ ` ` ` ` ~ [ [ ~ _ _ _ _ ] _ _ _ _ _ _ _ [ ` _ _ ` ..~ ~ ..[ ~ ` R n b S H J 4 X ",
"@ p D b T n F ! ~ [ ~ ` ` [ ~ ~ ~ ` [ ~ ~ ` ` ~ ` [ ~ ` ` ` ` ` [ _ _ ` _ _ _ ` _ _ ` _ ` ` _ ` ` ~ ~ ..~ [ ` ` R n H b J J 4 X ",
"@ 7 D n n n n W [ ~ [ ~ [ ` ` ` ` ` [ ` ` ` ` ~ ` ~ ..` ` ~ [ ` _ _ ` _ _ _ ` ] _ _ _ _ _ _ ` ` _ _ _ _ _ _ _ ( T n n S H J 1 X ",
"@ 7 D n T n n W [ ~ ` [ ~ ` ` ` [ ~ ~ ` ~ [ ` [ ` ` ~ ` ` [ [ ~ _ _ ] _ _ _ _ _ _ ` _ _ ` ` ~ [ _ _ _ _ _ _ _ ' R n n b H J 1 X ",
"@ 7 D n T T n W [ [ ` ~ ` ~ ` ~ ` ~ ..` ~ ` ` ` ~ [ [ ~ ` ~ [ ` [ _ _ ` ] ` ` _ _ _ _ _ ~ [ _ [ _ _ _ _ _ ] _ _ R n n n H J 4 X ",
"X 7 D n n n n W ~ ` ` ..` ` [ ` ..! ~ ` ` ` [ ~ ` ` ` ` ` ` ` ` _ _ _ _ _ _ _ _ _ _ _ _ _ _ [ [ _ _ ` _ _ ] ( _ R T n n H J 4 X ",
"@ p D b T T b Q [ ~ [ ~ ~ ` ..~ ~ [ ! ` ` ` ` ~ ` ` ~ ` ` [ ` ` _ _ _ _ ] _ _ _ _ _ _ _ _ _ ] ~ _ _ _ _ ] ] _ ' R n n S S J 1 X ",
"@ p S P P n b R [ ~ [ ` [ [ ~ ~ ~ ! ..` ~ ` ` [ ` ` [ ` ` ~ ` [ ` _ ` _ ` _ ` _ _ _ _ _ _ ~ [ ~ _ _ _ ( _ ] ( _ R n n n H J 1 X ",
"X 7 D b T n n Q ` [ ` ~ ` ..%.#.%.....~ ~ ` ` ` ~ [ ` ` ` ~ ` ~ _ ] ` _ _ ] ` _ _ _ _ _ _ _ o.%.$.$.[ _ ] ] _ ( R n n S H J 4 X ",
"@ 7 P n T n n R [ ~ ` ..! O.,.;.,.%.~ ` ` ` [ ~ ` [ ~ ` ~ ..` [ _ _ _ _ _ _ _ _ _ ] _ _ _ _ %.,.,.,.{ ( _ _ _ _ R n b S F J 4 X ",
"@ 7 D S n n n R ] ] ] _ ( o.;.:.;.+.~ ~ ` ` ` ` ` ` ` ~ [ ` ` [ ~ ..` [ ` ` ` [ ] [ _ _ ( _ %.>.-.,.[ _ ' ( _ _ P n n S S D 4 X ",
"@ 7 D b T T n Q ] ] _ _ _ O.,.;.,.+.` ` ` ` ~ ` ~ ` ` [ ~ ` ` ~ ` ~ ` ~ ~ [ ~ [ ] [ ~ _ _ _ *.>.;.,.X.( ( ' _ ] R b n n S P 1 X ",
"X p D n T n n W _ ] ] _ ` ` ' ` ..` _ ` _ _ ` ` ~ _ ` ` ~ [ [ [ ` ` ` ` [ ` ` ~ ] ~ ` ` _ ` ` ' ' ' ' _ _ _ _ ] R n b n H J 4 X ",
"@ p D n T n n W ] _ ] _ _ U x b z E ~ _ _ _ _ ~ [ _ _ _ ` ` ` ~ [ ~ [ ~ ` ` ` ` [ [ ` ` ( ` D k x x W _ _ _ _ ] R n n n S J 4 X ",
"@ p D S n n n W _ _ _ _ ` ! U W L ~ _ _ ` [ ~ _ ` ` ` ` ~ ..` ` [ [ ` ~ ~ [ ` ` ` ` ` ~ ` _ ! U U R _ _ _ _ _ ] R n b n H J 1 X ",
"@ 7 S H T n n W ] _ _ _ ` ) ' ' [ ` _ _ _ ~ ` _ [ ~ ~ ..` ~ ~ ` ` ~ ` [ ` ` ` ~ ~ [ ` ` ` ~ _ _ ` _ ] ] _ _ _ _ R b S n F J 1 X ",
"X 7 D S T T n R _ _ _ _ _ _ _ _ [ [ ~ ~ ~ ` ~ ` ` ~ ` ~ ~ ` ` ` ` ~ ` ~ ! ` ~ ` ..~ ~ [ ` ` ` ~ _ _ _ _ _ ( _ ] R b n S F J 4 X ",
"@ 7 D H H n n Q ] ] ` ` ` ` ` [ [ [ [ ..~ ..` ` ` ` ..~ [ ` ` ` ` ` ` ..` ` ..` ~ ~ ..` ` [ ` ` ` ] ] _ ` ' _ ] R n n S H J 4 X ",
"@ 7 S F H H H R E W E ! E ! E ! ! E ! E ! E ! E ! ! E ! W ! ! W ! L ! ! ! E ! E E ! I U ! ! ! E ! E E E ! I E E H n n H H D 4 X ",
"@ 7 D T G F A A A A Z G A A A A A A G A A A A A A A A A A A A Z A K A A A A A A A A A A A Z A A Z F A A A Z A A Z S J J H D 4 X ",
"$ p J G G h d d h h h h h h h h h h h h h h h h h h h h h h g h h h h h h h h h h h h g d h h h h g g d d h d d g f m J H J 4 @ ",
"@ j D A K f : 9 e e e e e e e 8 e e e e e e e e e 8 e e e 8 e e e e e e e e e e e e 8 9 8 e e e e e e 8 8 q 8 8 e w h L J J 4 X ",
"@ 7 D m g t 8 q q q q q q q q q q q q q q q q q q q q q q q q q q q q q q q q q q q q q q q q q q q q q q q q q q 8 y h Z D 1 X ",
"@ 7 N u 3 9 q q q q q q q q q q q q q q q q q q q q q q q q q q q q q q q q q q q q q q q q q q q q q q q q q q q 8 9 r f N 1 X ",
"o 1 s ; : 9 & * * * & & & & & & & & & & & & & & & & & & & & & & & & & & & & * & & & & * & & & % & % & & % & & * * & % = 1 s ,   ",
"X X @ @ # o + O O O . . . . . O . . . . . . . . . . . . . O . . . . . . . . . O . . . . . . . . . . . . . . . . O o o # @ @ o   "
};
