/* XPM */
static char *_3160_627bd067b7fdf93ff1834ca00ddd7f912290eaf710739a1044c54596b5910e81[] = {
/* columns rows colors chars-per-pixel */
"64 64 226 2 ",
"   c #0F0F0F",
".  c #12100F",
"X  c #0A0C14",
"o  c #0D1214",
"O  c #0E121C",
"+  c #141415",
"@  c #171817",
"#  c #14161B",
"$  c #1B1B1C",
"%  c #2D051E",
"&  c #241E1C",
"*  c #341B1B",
"=  c #29211E",
"-  c #32271E",
";  c #131725",
":  c #161A23",
">  c #1C1E21",
",  c #13152B",
"<  c #1A1E2C",
"1  c #1E0F34",
"2  c #1E1434",
"3  c #161A35",
"4  c #181D31",
"5  c #1C1E3E",
"6  c #3E0824",
"7  c #201D27",
"8  c #210D34",
"9  c #201033",
"0  c #231B3E",
"q  c #1E2124",
"w  c #1E222B",
"e  c #1B2032",
"r  c #16203C",
"t  c #1B233D",
"y  c #232324",
"u  c #2B2723",
"i  c #242429",
"p  c #252A2A",
"a  c #2C2C2C",
"s  c #3B2927",
"d  c #232433",
"f  c #22293C",
"g  c #292938",
"h  c #34283A",
"j  c #303036",
"k  c #343434",
"l  c #393737",
"z  c #3D3D3D",
"x  c #44131B",
"c  c #59281C",
"v  c #550A2E",
"b  c #6A0F2E",
"n  c #7A1426",
"m  c #4B2B28",
"M  c #572C25",
"N  c #592F29",
"B  c #57362A",
"V  c #5D322A",
"C  c #4A3237",
"Z  c #64362B",
"A  c #693B2C",
"S  c #673B32",
"D  c #6E450B",
"F  c #44423E",
"G  c #5E4639",
"H  c #6E402D",
"J  c #73412D",
"K  c #6B4634",
"L  c #754B37",
"P  c #7B4B34",
"I  c #7A513A",
"U  c #171F43",
"Y  c #251A40",
"T  c #172144",
"R  c #1A2243",
"E  c #1E2843",
"W  c #232B42",
"Q  c #292B45",
"!  c #262F4C",
"~  c #322F42",
"^  c #273047",
"/  c #26304B",
"(  c #2A344E",
")  c #2D394F",
"_  c #393947",
"`  c #31364E",
"'  c #39354E",
"]  c #2F2F57",
"[  c #2B3450",
"{  c #2E3951",
"}  c #323C54",
"|  c #393A57",
" . c #3C3A55",
".. c #50314E",
"X. c #423E5C",
"o. c #443F60",
"O. c #3A404C",
"+. c #364156",
"@. c #3E4355",
"#. c #364158",
"$. c #3A445B",
"%. c #3E495E",
"&. c #3F4961",
"*. c #414141",
"=. c #484748",
"-. c #53474B",
";. c #57564B",
":. c #45425E",
">. c #414B5E",
",. c #484A59",
"<. c #564E59",
"1. c #4D525A",
"2. c #545758",
"3. c #655648",
"4. c #725648",
"5. c #665C5E",
"6. c #786D55",
"7. c #464261",
"8. c #494564",
"9. c #424D61",
"0. c #4C4B64",
"q. c #47466A",
"w. c #4D4B6A",
"e. c #514F6A",
"r. c #455164",
"t. c #4F5165",
"y. c #53546C",
"u. c #56586B",
"i. c #4F5171",
"p. c #5A5E71",
"a. c #54587F",
"s. c #5D6162",
"d. c #5D6274",
"f. c #6B6A67",
"g. c #797566",
"h. c #626876",
"j. c #646D79",
"k. c #67707C",
"l. c #69727D",
"z. c #9A3A1D",
"x. c #995706",
"c. c #814F36",
"v. c #865538",
"b. c #925E3D",
"n. c #8A693A",
"m. c #9C643E",
"M. c #8F7D3F",
"N. c #A3693E",
"B. c #E27700",
"V. c #885D49",
"C. c #8A6248",
"Z. c #976645",
"A. c #8C6858",
"S. c #907459",
"D. c #A46C43",
"F. c #A36F4A",
"G. c #AB7245",
"H. c #AB764D",
"J. c #B47A4B",
"K. c #B57A4B",
"L. c #A87956",
"P. c #AA7C5A",
"I. c #B27E53",
"U. c #877067",
"Y. c #B2940A",
"T. c #F59100",
"R. c #F7B70B",
"E. c #FED10E",
"W. c #AF805F",
"Q. c #B88458",
"!. c #88826D",
"~. c #968366",
"^. c #8A8573",
"/. c #8E8B75",
"(. c #938C79",
"). c #9A927C",
"_. c #A58568",
"`. c #B68B66",
"'. c #BC8C64",
"]. c #BA916A",
"[. c #AA8F72",
"{. c #C68A58",
"}. c #C28C5D",
"|. c #CC915F",
" X c #C69263",
".X c #C99464",
"XX c #C3936A",
"oX c #CC996B",
"OX c #D19D6B",
"+X c #C09773",
"@X c #CB9D71",
"#X c #D5A373",
"$X c #D6A779",
"%X c #DCAC7B",
"&X c #DFB07F",
"*X c #E2AE7B",
"=X c #E2B17D",
"-X c #6A7481",
";X c #707481",
":X c #908883",
">X c #989486",
",X c #9C9B8A",
"<X c #A2968A",
"1X c #A49F95",
"2X c #A7A597",
"3X c #ABA894",
"4X c #AEA9A6",
"5X c #AEB0A6",
"6X c #B8B3A6",
"7X c #B5B5AC",
"8X c #BCBBB4",
"9X c #BCBDBB",
"0X c #DCB286",
"qX c #D1B290",
"wX c #E5B582",
"eX c #EAB884",
"rX c #F2BE88",
"tX c #C1BFB6",
"yX c #F6C089",
"uX c #CBC4BB",
"iX c #C3C3C2",
"pX c #CAC9C8",
"aX c #CBCCCD",
"sX c #CDCED1",
"dX c #CFD2D3",
"fX c #D6D6D7",
/* pixels */
"! 9.%.%.>.>.>.>.>.r.%.r.%.&.&.r.&.&.%.%.>.>.%.%.>.>.>.>.>.>.>.>.>.>.>.>.>.>.>.>.>.>.>.>.>.>.>.>.>.>.>.>.9.>.>.>.>.>.9.9.%.%.9.9.",
"! &.&.%.%.%.%.%.%.%.%.%.%.%.%.%.%.%.%.%.%.%.%.%.%.>.>.>.>.>.>.>.:.>.:.>.>.>.>.>.>.7.>.>.>.>.>.>.>.%.%.&.&.%.%.%.%.%.%.%.%.%.%.$.",
"R R t ( ) ) ) { ) ) ) ) ) ) { { ) ) ( { +.) ) ) ` ` ) ` ' ( ( ' ( ` ` ` ` ` ( ` [ ` ` ` [ ` [ ( [ ( [ { [ { ( ) ) ) ) { ) ( E R ",
"U T 5 ! / ( ( ( ( ( ^ ( ( ( ( ( ( ( ( [ ( ( ( ) ( ( ( ( ` / [ [ ( ` ( ( ( ` ( ( ~ [ [ [ ( ( ( ( ( ( ( ( ( [ ( ( [ ( ( ( / ( R r ",
"T T R ! ( ( [ [ ( ( ) ( ) ) ( ( [ [ ( ( [ [ ( ( ` ( [ [ [ [ [ [ [ [ [ [ ( ( [ [ [ [ [ [ ( ` / ( [ ( ) ( ( ( ) ( [ [ [ [ [ [ T T ",
"T R R ! ( ( ( [ ( ) / / / / ( ( ( ( ( ( ( ( [ ( ( ( ` ( [ [ [ ` [ [ [ ( ( ` [ [ ( ( ` [ ( ( ( ( ( ( ^ ( ( ( ( ( ( ( ( [ ( ! T T ",
"U R R ! ( ( ( ( ( / ) ) { ) +.( ( ( ( ( ( [ ) ( ( ( ( ( [ ( ( / ~ [ ( ( ( ( [ ( ( ( ( ( ( ( ( ( ( ( } ` ) } ) ( ( ( [ [ [ [ R T ",
"T T R ( ( ( ( ( ) / +.&.&.&.&.+.( ( ( ( ( ) ( ( ( ( ( ( [ / [ [ [ [ [ ( ( ( / [ ( ( ( [ ( ( ( ( ( ) >.%.%.r.+.( ( ( [ [ [ [ R R ",
"T T T ! ( ( ( [ / ) +.%.%.%.r.+./ ( ( ( ( ( ( ( ( ( ( ( ( > @ $ z z z z F k + > t ) ) ( ( ( ( ( ^ +.%.%.%.r.+.( ( ( ( ( ( [ T U ",
"T T T ! ( ( [ ( ( / +.&.%.%.&.+.( ( [ ( ( ( ( ( ( ( ( ^ f $ > a z ..z z z k = @ q f ( ( ( ( ( ( ^ +.%.%.%.%.%./ ( ( ( ( [ [ R U ",
"T T T ! ( ( ( ( ) / +.&.r.%.r.+.[ ( [ ( ( ) [ [ ( ( ( g & @ j *.F z z z F O.z q $ @ ^ ( ( [ [ ( ^ +.r.r.>.r.#.( ( ( ( ( [ [ R R ",
"T T T ! ( ( ( ( ( ( +.+.+.+.#.+.( ( [ ( ( ( [ ( ( ( ( f $ @ a *.z z z z z z F z p o o w ! ( ( [ / ) +.+.+.+.+.( ( ( ( ( [ ] R T ",
"T T T [ ! ( ( [ / ( E T t t r E ( ( ( ( ( ( ( ( ( ( ( f $ @ a *.z z O.z F l a k y + + : 4 f [ ( / / r R R r E ( ( ( ( ( [ ! T T ",
"T T T ( ( ( { ( ( ) / r t r t E ( ( ( ( ( [ ( ( ( [ ( d $ @ a z z z l z z k @ @ $ $ $ < w e W [ ) / r r r T R { ( ( ( ( ! [ T T ",
"R T R / ( ( ( ( ( ( / ! / / ( ( ( ( ( [ ( ( [ ( ( ( [ f $ $ $ $ @ @ @ @ l F F z *.l @ @ # e f ( ( ( / / E ( ! ( ( ( [ ( [ [ T T ",
"R T T ( ( ( ( ( ( ( ( ( ( / ( ( [ ( ( ( ( [ ( [ ( ) [ d $ @ @ @ @ a k k p q q q y p k l i # < W ( ( ( ( ( ( ( ( [ ( [ [ [ [ T T ",
"R R R / [ / [ [ ( ( ( ! [ [ / [ [ ( ( ( ( [ ( ( ( ( ) f w = = @ @ a l k = - s m = = k a q o w ( ( ( ( ( ( ( ( ( ( ( ( ( ( ( T T ",
"T R T / [ ( [ [ ( ( [ [ [ ( ( [ ( ( ( ( ( ( ( [ ( ( ( ( ( S s @ # @ @ + c c.Q.N.v.m     o e ^ ( ( ( ( ( ( { ( ( ( ( ( ( ( ( T T ",
"T R R ! ( ( ( ( [ ( [ [ [ ( ( / [ ( ( ( ( ) [ [ ) ( ) ) ( b.W._.m L n.m.M.N.N.Q.K.v.w w e ^ ( ( ( ( ( ( [ ( ( ( ( ( ( ( ( ( T T ",
"t T R ^ ( ( ( [ ! ( [ ( ( ( ( ( ( ( ( ( ( [ ) t f e 1.h.;XQ..X}.V H.Q.L K n.'.I K B e e t ( [ ( ( ( ( ( ( ( ( [ ( ( ( ( ( [ T T ",
"R R T ! ( / [ ( ( ( [ ( ( ( ( [ ( ( ( [ [ } +.p p $ g.7XfX0X}.m.N '.].# o 3.=Xu # o e e t ) ) ( ( ( ( ( ( ( ( ( ( ( ( ( [ ( T T ",
"R T T ( ( ( ( ( ( ( [ ( ( [ ( ( [ [ ( ( 2.,XiX,X;.o . f.fXI..X@XM W.&X@X@X#X$XD.Q.S.e e t [ ( [ [ ( ( ) ( ( [ ( ( [ ( ( ( ( T T ",
"T R T / ( ( ( ( ( ( [ ( ( ( ( ( ( ( [ s.>XtXsXiX:Xq   ;.tXc.F.}.v.'.&X%X=X=X%XN.'.&Xl.s.1.[ ( ( ( [ ( ( ( [ ( ( ( ( ( ( [ [ T T ",
"T R T ! ( ( ( ( [ ( ( ( ( ( ( ( ( ( ' /.9XdXpXfX5X=.$ C g.N P N.G.oX&X$X@X]. XQ. X0XfXuX^.@.{ ( ( ( ( [ ( ) ( [ ( ( ( ( ( [ T T ",
"R T R ! ! [ ( ! [ [ ( ( ( [ ( ( ( h S ^.7XdXaXsX8X^.a + @ N N A N.OX=X%XL m V oX&X0XpXaX9X).@.( ( ( ( [ ( [ [ ( ( ( ( ( ( ! T T ",
"T R T ! [ [ ( [ [ ( ( ( ( [ X.n._.].`.K [.0XqXuXaX8X=.$ @ g.4.V H F. X&X].'.'.wXW.C.aXaXiXtX(.s.( [ ( ( ( ( ( ( ( ( ( ( ( ( T T ",
"U R T ( [ ( ( ( [ ( ( [ ) =.4.|.*XwX$XA L.*X$XqX9XdXg.l $ 2XA.M B P D.oX#XOXOX'.L m 7XiXsXdX5Xf.[ ( ( ( [ ( ( ) ( ( [ ( [ [ T T ",
"U T T ! [ ( ( ( [ [ ( ( ) J.Q.&X%X%X#XJ.XX%X%X[.,XdX3X;.# pX:Xc Z N S G.D.D.D.A = q !.7XsXpX3Xf.[ ( ) { [ [ ( ( ( ( ( ( [ [ T T ",
"R R R ! [ [ ! ( [ [ ( [ ( #X@X&X%X%X%X#X}.J.G.~.2XdX1X;.$ 9XsX4Xc N V A c A.pX>XF $ ^.9XaX,X,Xf.[ ( f.$X#X5.) ( ( ( ( ( [ ! T T ",
"U R U ! [ [ ( ( ( [ ( [ ( %X&X%X XoX*X=XL.c.G.C.U.7X,X;.# 2X7X5X(.C.c.c.U.<X6X<X;.& /.3X2X4.S.S.3.C A.rXyX5.( ( ( ( ( ( ( ( T T ",
"U R R ! [ ( ( ( ( ( [ ( ( @X#X#XD.I.$X%XV.V D.J K !.<X6.u g.!.(.dX[.N.G.uX8X/.(.=.& U.^.6.Z m.K.K.A A.%X&Xg.+.+.! / ( ( [ [ T T ",
"R R R [ ] ( ( ( [ ( ( ( ( Q.J.G.V L G.J.I N N b.C.N XX%X@X= ;.).:X4.A G.S.2XpX<.p $ S N A D.oXwX=XS P J.G..X$X].< r ! ( [ [ T T ",
"T T T ! [ ( ( ( ( ( ( [ [ -.4.Q.P.`..XK.P V v.Q.}.v.#X=X$X@ ;.,X/.<X<X~.2XiXaXk p l M V.'..X*XXXI b.Z.G.H Q.=X`.e e f ) ( ( T T ",
"T T T ! [ ( ( ( [ [ [ ( ) [ _ Z.$XwX%XZ.P P Q.#X#XG..X#X.X= F ^./.7X8X/.iXsX7Xu p _ M `.eX%X#XP.L D.D.b.H W.#XW.e < E ( ( ( T T ",
"T T T [ [ ( ( ( ( ( ( ( ( ( [ ( +XeX#XV v.Q.%X%XoXN.G.G.N.= p -.(.(.(.(.iX8X!.p w e p _.=X%XJ.Q.wXI.P Z N.N.N.v.e < f ( ( ( T T ",
"R T T ! [ ! ( ( ( [ [ ( ( [ ( ( ,.<.<.m.{.$X%XwX.XA <.=.- @ h :.w.w.q.q.a.1.u 7 w e t I |.{.G.Q.%X#XQ.b.H W.#XW.e e f ( ( ( T T ",
"T T R [ ( ( ( ( ( ( [ ( ( ( ( [ ( ( ( v.Q.#X*XXXA.C ..h o + h ..P n.M.~.v.B + $ w < e k G 4.c.H.%XwX XD.M L.=X].e e / ( ( ( T T ",
"R T T ! ( ( ( ( [ ( [ ( ( ( ( ( ( ( ( m I H.$XP m q.v x @ @ 6 n B.R.E.E.T.x.O & : e e e 4 t s V.%X%X XD.V L.$XW.e e E ( ( ( T T ",
"T T R ! [ ( ( ( ( ( ( ( ( ( ( ( ( ( ( ` ` '  .7 g o.9 . + v b n T.z.b b R.Y.X ` d 4 f f 4 e 7 J K.%X0X#XG.K.Z.P e e E ( ( [ T T ",
"U T T ! [ ( ( ( ( ( ( ( ( ( ( ( ( ( ( ( ( ( ( : a p.,.=.,...6 * D * % % n.6.@.p. .^ ^ ( W f i m v.Q..X{.L C s l e t ( ( ( [ T T ",
"R R T [ ] ( [ ( [ ( ( ( [ / ( ( ( ( ( ( ( ( [ i _ l.l.-X-Xi.` $ ; q w p ] i.-Xl.p.7.{ [ [ ^ e 7 s K I K = w e e e f ) ( ( ! T T ",
"U R T ! [ ( [ ( ( [ [ ( ( [ ( ( ( ( ( ( [ ( [ | y.j.j.j.j.j.y.X.:.d.k.k.0.e.k.j.l.h.q.| ( ( f e w e e e e e e t f / ( ( ( ! T T ",
"U R R ! [ [ ( ( ( ( ( [ ( ( ( ( ( ( ( [ ( / < ,.j.j.j.j.j.j.u.7.8.d.l.k.,.e.j.j.j.j.j.| / ( ( W t W t W f W E / ) ( ( / ( ( T T ",
"R R T ] [ ( ( [ / ( ( ( [ ( ( [ ( ( ( ( ( ^ @ 1.l.j.h.j.j.j.y.X._ r.d.d.X.:.l.j.j.j.-X:.e f ( ( ( ) ( ( ( ) ( ( ( ( ( ) ( [ E T ",
"T T T ! [ [ ( ( ( ( ( ( ( ( ( ( ( ( ( ( ( ^ @ 2.l.j.j.j.j.k.y. .+ j X. .$ k -Xj.j.j.j.,.g 4 f [ ( ( ( ( ( ( ! ( ( ( ( ( ( ( T T ",
"T T T ! [ ! ( [ ( ( ! ( ( ( ( ( ( ( ( ( ( (  .d.l.j.j.j.j.l.u.X.# + # @ + g e.j.j.j.j.j.O.e 4 W ( ( ( ( ( ( ( [ ( ( ( ( ( ( T T ",
"R R T ( [ ! [ ! [ ( ( ( ( ( ( ! ( ( ( ( ( [ 7.y.p.k.j.j.j.u.e.' # : # : + y ~ t.d.k.j.l.t.f w W ( ( ( ( ( ( [ [ ( ( ( ( [ [ T T ",
"U R T ! [ ( [ [ ( ( ( ( ( ( ( ( ( ( ( ( / ( 7.o.8.h.j.j.h.7.X.` e e e t < $ @  .y.j.j.h.,.~ e f ( ( / ( { ! ( ! ( [ ( ( [ [ T T ",
"R R R ! ! ( ( [ [ ( { #.#.#.#.[ ( ( ( ( p y 7.7.7.7.j.p.:.w.` e e w f ( ) g $ X.7.0.l.y.' ~ e e W ) +.+.#.+.+.( ( ( ( ( ( ! T T ",
"U R T ! ( ( [ ( ( / #.&.&.&.&.#.( ( ( ( w y p.8.X.7.e.0.:.h e e e t / ( ( f $ X.7.:.y.8.' j t e t +.&.&.&.r.#.( ( ( ( / ( ( T T ",
"T T E ! ( ( ( ( ( ( #.&.&.&.&.#.( ( ( ( f j -Xp.8.7.X.7.:.> : w e ( ( ( ( f > X.7.7.X.7.' d w 4 t +.&.&.%.r.+.) ( ( ( ( [ ( E T ",
"R T R ! ( ( ( ( ( ( #.&.&.&.&.#.( ( ( ( | y.j.j.d.7.7.7. .e e t / ( ) ( ( f $ X.7.:.o.8.g   < e f { %.r.&.&.#./ ( ( [ ( ( [ T T ",
"U R R [ ( [ ( ( ) / +.%.r.&.r.+.( ( ( { | y.k.k.d.X.7.' $ < 4 W ( ( [ ( w $ @ | y.h.h.8.g < < e f +.%.%.>.r.+./ [ [ ( ! ( ! T T ",
"U R R ! ( ( [ [ ( ( ) +.) ) { ( ( { / ( | w.u.d.u.y.w.' : < d / ) ( [ ( > y h t.h.j.d._ < e e 4 t ( ) ) +.) +.( ! ( ( ( [ ( T T ",
"R R R ! ( ( ( [ ( ( E t t t r ^ ( ( ( ( | 8.:. .0.j.w./ 4 < W ( ( ) ( ( $ g 0.d.h.d.o.7 o e w t ) ^ t t r r f ( [ ( ( ( [ ! T T ",
"T R R ] ( ( [ ! ( ( ^ t t t r / / ( ( # k *.O.z =.w.i # e f / ( ( ( ( ( y $ > y $ > $ @ o e e t ) W t t t t E / ( ( [ [ [ [ E T ",
"R R T ! [ / [ [ ( ( ( ( { ( ! ( ( W d @ y a F C l g < : 4 f ( ( ( ( ( ( q $ $ @ y a a k q # w e f ( ( ( [ / ( [ ( ( ( ( ( / T T ",
"U R R ! ( [ [ ( ( ( ( ( ( ( ( / ( w @ @ @ & l O.a   < e g / ( ( ( ( ( ) q # @ @ p z z C z @ ; w f ( ( ( [ / ( ( ( ( ( ( ( ( T T ",
"T R R ! [ ( [ ( ( ) ( ( / ( ) ( ^ :   + + +   a y + < < f ( [ / ( ( ( ( q @ @ @ @ @ + i k k @ # f ( ( ( ( ( ( ( ) ( ( [ ( [ R T ",
"R R T ! [ ( [ ( ( ( ( ( { { ( ( ( t ; # o O O ; w 4 4 t ( [ [ [ ( ( [ ( [ ! e 4 e e 4 < e e e e Q [ ( ` ( ( ` ( [ [ ( ( [ [ T T ",
"R T R W ! ! ! / ! ! / ! ! / / / Q ! e ; O O # ; , < r ! ! ! ! ! ! ! ! [ / W < 4 < 4 4 4 4 4 4 e W / ! ! ! ^ ! ! ! / ! ! / ! R 5 ",
"t 5 U W d t R t t t 0 U T T R T U U U 2 3 3 2 3 3 3 5 5 R Y W U R U Y U R R 3 5 , , , , 4 3 3 5 R R R R R R R R Y U t t R U 5 5 ",
"0 0 0 0 0 0 0 0 0 0 Y Y Y Y Y Y Y Y Y Y Y Y Y Y Y Y 0 Y Y Y Y Y 0 Y Y Y Y Y Y Y 0 2 2 2 0 0 Y Y 0 0 0 0 Y Y Y Y 0 0 0 0 0 5 5 0 ",
"0 1 1 8 8 8 8 1 8 1 8 8 8 8 8 8 8 8 8 8 8 8 8 8 8 8 8 8 8 8 8 8 8 8 8 8 8 8 8 8 8 8 8 8 8 8 8 8 8 8 8 8 8 8 9 8 8 9 1 1 1 1 1 1 "
};
