/* XPM */
static char *_7061_b9d850a4569e9469515f658b45bac0f16ce4338b5b932ce10b634d8a8f954512[] = {
/* columns rows colors chars-per-pixel */
"32 32 147 2 ",
"   c #000000",
".  c #090702",
"X  c #080909",
"o  c #0A0909",
"O  c #140B06",
"+  c #1E110D",
"@  c #0F0E16",
"#  c #141414",
"$  c #1D1510",
"%  c #191917",
"&  c #15141C",
"*  c #19191A",
"=  c #24170F",
"-  c #271A11",
";  c #341B17",
":  c #28211F",
">  c #392218",
",  c #191722",
"<  c #1D1C22",
"1  c #1D1A29",
"2  c #301229",
"3  c #3B1C35",
"4  c #1F2121",
"5  c #242424",
"6  c #232529",
"7  c #26292B",
"8  c #2A2B2B",
"9  c #382C20",
"0  c #362C2A",
"q  c #393026",
"w  c #3C302C",
"e  c #232130",
"r  c #2A2833",
"t  c #2E2A3F",
"y  c #363534",
"u  c #3C3B3C",
"i  c #762217",
"p  c #4A2F29",
"a  c #433425",
"s  c #513520",
"d  c #5E3E26",
"f  c #572D3C",
"g  c #653B30",
"h  c #584437",
"j  c #65422D",
"k  c #7C492F",
"l  c #6C4930",
"z  c #63493F",
"x  c #7E4D36",
"c  c #79573D",
"v  c #766324",
"b  c #222441",
"n  c #2D3244",
"m  c #313042",
"M  c #37344A",
"N  c #3C3C4B",
"B  c #383851",
"V  c #3E3D51",
"C  c #423D5C",
"Z  c #3E404F",
"A  c #434343",
"S  c #454E4F",
"D  c #5C594E",
"F  c #43405B",
"G  c #494B5B",
"H  c #5E5B50",
"J  c #5A5E5D",
"K  c #785A4A",
"L  c #646459",
"P  c #464360",
"I  c #4A4664",
"U  c #4A4A61",
"Y  c #4F4D69",
"T  c #525466",
"R  c #53536D",
"E  c #575B6E",
"W  c #565770",
"Q  c #575970",
"!  c #595D72",
"~  c #5D6274",
"^  c #777568",
"/  c #636B77",
"(  c #666D7C",
")  c #67707D",
"_  c #68717E",
"`  c #787973",
"'  c #767978",
"]  c #964B09",
"[  c #9A6112",
"{  c #865438",
"}  c #8D5638",
"|  c #8E613F",
" . c #9A7737",
".. c #8A5B41",
"X. c #886443",
"o. c #8A6748",
"O. c #9A6643",
"+. c #9B6946",
"@. c #926848",
"#. c #9C6C4B",
"$. c #9F734C",
"%. c #886951",
"&. c #A46D45",
"*. c #A5724D",
"=. c #A17657",
"-. c #AB7A54",
";. c #A67759",
":. c #A77959",
">. c #AC7D5A",
",. c #B27F58",
"<. c #8B796B",
"1. c #977C77",
"2. c #A7825B",
"3. c #BB855A",
"4. c #A18260",
"5. c #AA8E6E",
"6. c #B98C67",
"7. c #B89269",
"8. c #A28E7A",
"9. c #C2895C",
"0. c #C79364",
"q. c #C2966A",
"w. c #CB9A6A",
"e. c #D49964",
"r. c #D29E6D",
"t. c #D5A272",
"y. c #DEAA77",
"u. c #DCAB7B",
"i. c #E2AF7C",
"p. c #687580",
"a. c #898780",
"s. c #888887",
"d. c #929285",
"f. c #898F9C",
"g. c #9B9D9D",
"h. c #A89A93",
"j. c #A9A9A3",
"k. c #AFB1A7",
"l. c #BBBDB5",
"z. c #E4B380",
"x. c #F0BB85",
"c. c #D9BDA2",
"v. c #D9C5AF",
"b. c #C2C2BD",
"n. c #D3D4CF",
"m. c #D8DBDA",
"M. c #E2E5E9",
/* pixels */
"                                                                ",
"                                                                ",
"                                                                ",
"                                                                ",
"                                                                ",
"                          X # 6 5 * o                           ",
"                        . * y A A u 5 o                         ",
"                          * u u u y 8 %                         ",
"                        X * * 6 8 7 6 8 *                       ",
"                          = : - w j l 0 5                       ",
"                      . 8 %.=.x l +.| =                         ",
"                  7 8.y J c.&.;.4.7.o.q                         ",
"                $ j.M.a.: z } w.u.:.e.v.` .   .                 ",
"            O X.=.:.c.b.u h g O.w.>.-.h.m.^                     ",
"            #.x.z.9.6.l.^ ' 1.p { 6.h J n.d.  a 9               ",
"            7.0.7.>.k <.^ D k.%...j.L H <.@.l 6.2.o             ",
"            j *.3.x x O.t.K ^ 8.5.b.u p +.r.#.} ,.6.            ",
"              c q.{ r.0.-.h S s.f.g.% 0 i.0.,.{ +.$.            ",
"                O *.y.K 3 # f  . .a X . s { z.&.#.q.            ",
"                  + - t y 2 i ] [ v b     ; 6.r.+.c             ",
"                      G p.! m n V ! ) n     > d +               ",
"                    4 ( / ( P ! ~ T _ ~ @                       ",
"                    m ) ~ ( V 6 6 N ( ) Z                       ",
"                    B W / W m   . , U ( Q &                     ",
"                  o G F Y M .     o C U I ,                     ",
"                  1 ) R C <       # C R B .                     ",
"                  e W Q C       . r E E ,                       ",
"                . 5 N A %       . 5 7 r *                       ",
"                # # 5 5         X # % 6 y *                     ",
"                                                                ",
"                                                                ",
"                                                                "
};
