/* XPM */
static char *_898_d5309da7024b02f745329b6ec7eef9fe58eb377510f21e016467e18d2a98b87b[] = {
/* columns rows colors chars-per-pixel */
"64 64 222 2 ",
"   c #000000",
".  c #090503",
"X  c #0A0806",
"o  c #060608",
"O  c #08070C",
"+  c #0B0B0B",
"@  c #120C07",
"#  c #170808",
"$  c #140D0A",
"%  c #0B0C11",
"&  c #101013",
"*  c #141414",
"=  c #181616",
"-  c #191917",
";  c #14141A",
":  c #151A19",
">  c #1B1B1B",
",  c #24120F",
"<  c #2A1211",
"1  c #251C16",
"2  c #2B1E1B",
"3  c #1D221C",
"4  c #26251E",
"5  c #37271A",
"6  c #1E1F20",
"7  c #1A1A26",
"8  c #34082A",
"9  c #281F23",
"0  c #242424",
"q  c #2A2322",
"w  c #2E2B24",
"e  c #23232C",
"r  c #24292B",
"t  c #2D2C2C",
"y  c #342A21",
"u  c #332A26",
"i  c #32302D",
"p  c #3A332A",
"a  c #292835",
"s  c #2B2F38",
"d  c #2C2A3C",
"f  c #343434",
"g  c #3A3934",
"h  c #34313C",
"j  c #353839",
"k  c #3C3C3C",
"l  c #4B1519",
"z  c #412A19",
"x  c #512C1C",
"c  c #6B331A",
"v  c #470A2B",
"b  c #500C33",
"n  c #4A2924",
"m  c #562C25",
"M  c #582D27",
"N  c #4A3828",
"B  c #58362B",
"V  c #483A38",
"C  c #573932",
"Z  c #623327",
"A  c #62362C",
"S  c #65382D",
"D  c #6B3D2E",
"F  c #643A31",
"G  c #6A3E32",
"H  c #5B412A",
"J  c #454239",
"K  c #5A4437",
"L  c #684328",
"P  c #77492F",
"I  c #6A4835",
"U  c #734234",
"Y  c #7A4A34",
"T  c #764A38",
"R  c #7A5438",
"E  c #2D2B40",
"W  c #332F45",
"Q  c #2F324A",
"!  c #373748",
"~  c #3C3A4C",
"^  c #3A3652",
"/  c #3D3955",
"(  c #5F1D45",
")  c #403F45",
"_  c #413D56",
"`  c #4C3D54",
"'  c #423D5C",
"]  c #453F62",
"[  c #424242",
"{  c #4E4D46",
"}  c #4F504D",
"|  c #575345",
" . c #464458",
".. c #45425E",
"X. c #58585A",
"o. c #654A4A",
"O. c #6B5644",
"+. c #795445",
"@. c #786956",
"#. c #786A5C",
"$. c #464261",
"%. c #494464",
"&. c #464A67",
"*. c #4C4C64",
"=. c #4E4B69",
"-. c #524E6E",
";. c #53536D",
":. c #575A6E",
">. c #585C6F",
",. c #494670",
"<. c #555370",
"1. c #5A5E72",
"2. c #5E6374",
"3. c #5F6972",
"4. c #717068",
"5. c #787568",
"6. c #626A76",
"7. c #606578",
"8. c #646C79",
"9. c #66707A",
"0. c #69727E",
"q. c #8E3623",
"w. c #954E0D",
"e. c #AD501A",
"r. c #845239",
"t. c #895639",
"y. c #8B593B",
"u. c #925D3A",
"i. c #A15922",
"p. c #896128",
"a. c #94613C",
"s. c #9C643D",
"d. c #A86B3C",
"f. c #8A5B44",
"g. c #815D53",
"h. c #8C6042",
"j. c #8B684B",
"k. c #9D6742",
"l. c #9E6943",
"z. c #966B4C",
"x. c #906D51",
"c. c #957756",
"v. c #A46D43",
"b. c #AA7146",
"n. c #AA744A",
"m. c #AD754A",
"M. c #B17748",
"N. c #B47A4B",
"B. c #BA7D4E",
"V. c #A67A57",
"C. c #B47E52",
"Z. c #896B64",
"A. c #817965",
"S. c #847E6C",
"D. c #807B75",
"F. c #7F8171",
"G. c #A69C2C",
"H. c #D2930A",
"J. c #EC9108",
"K. c #E9CA19",
"L. c #A7825D",
"P. c #AD825F",
"I. c #BC8353",
"U. c #B88459",
"Y. c #BE895B",
"T. c #898573",
"R. c #938673",
"E. c #918C7A",
"W. c #96957E",
"Q. c #9C957E",
"!. c #B68B64",
"~. c #BA8A63",
"^. c #B38D6C",
"/. c #C48B59",
"(. c #C59265",
"). c #CB9665",
"_. c #C5956B",
"`. c #C99769",
"'. c #C5996E",
"]. c #CD9B6C",
"[. c #D69C69",
"{. c #C89F75",
"}. c #D09F72",
"|. c #D4A16F",
" X c #D4A474",
".X c #D9A673",
"XX c #D8A877",
"oX c #D7A879",
"OX c #DBAB7B",
"+X c #E2A973",
"@X c #E1AD7A",
"#X c #E3B27E",
"$X c #6C7781",
"%X c #978887",
"&X c #9B9986",
"*X c #999995",
"=X c #A19C88",
"-X c #A59C98",
";X c #A1A28D",
":X c #A9A896",
">X c #A9AAA3",
",X c #B2AFAA",
"<X c #B5B4A8",
"1X c #BBBBB5",
"2X c #B9B8B7",
"3X c #CDAE8F",
"4X c #E2B381",
"5X c #EBB985",
"6X c #E8BF91",
"7X c #C5B6A9",
"8X c #BEC1B7",
"9X c #F6C28C",
"0X c #FEC991",
"qX c #C4C2BC",
"wX c #CBC2BA",
"eX c #C5C6C5",
"rX c #C7C8CB",
"tX c #CACACB",
"yX c #CBCED2",
"uX c #CED0D2",
"iX c #D6D6D6",
"pX c #E0DAD7",
/* pixels */
"                                                                                                                                ",
"                                                                                                                                ",
"                                                                                                                                ",
"                                                                                                                                ",
"                                                                                                                                ",
"                                                                                                                                ",
"                                                                                                                                ",
"                                                                                                                                ",
"                                                                                                                                ",
"                                                                                                                                ",
"                                                      o o X + + + + X o o                                                       ",
"                                                      > = t [ [ [ [ j : 6 +                                                     ",
"                                                  X = : t k k k V ! k i : * +                                                   ",
"                                                  X > : j [ k k k k [ [ t 0 : X                                                 ",
"                                                  O > - f [ k k [ [ k f k 0 > >                                                 ",
"                                                  + > - f [ k [ k J f : : > > =                                                 ",
"                                                  X > > 9 6 9 > > i [ j k k t * & o                                             ",
"                                                  + > : : = > t t t r r r r t t i > X                                           ",
"                                                  X = 2 > = 6 j k t 1 y y 2 0 k k 0 +                                           ",
"                                                    X A q = > - ; 5 Y b.M.r.n = : X                                             ",
"                                                    . u.'.x.M u.k.n.b.v.M.B.R   o                                               ",
"                                            o + J 4.D.(.).f.U `.I 5 I (.K N 5                                                   ",
"                                      4 k J g > { >XpX}./.r.U 4XO.u O.#XN p u                                                   ",
"                                    $ T.eXeXR.0   X.wXs. XV.G OX#X4X@XOXM.+XL.X X .                                             ",
"                              .   - T.8XtXtX1X[ : { =XS v.b.n. X XOX4X4Xv./.3X2XT.w                                             ",
"                                # C ;XrXtXtXwX5.w 3 V M D u.I.OX4XV.U f.~..X6XuX8XT.w                                           ",
"                          . z N R j.#.7XwXwXrX<X} % > O.C D k.).#XP.R f.4X_.^.yXtXqXT.p .                                       ",
"                        . 5 I.#X9X~.Z ].+X3XeXuX5.q t &X+.m F s.`.@X@XOX XT o.yXrXtX1XT.X                                       ",
"                    .   L N. X XOX`.v. X#X{.W.eX>X| r eX+.x I B l.N.m.v.U 2 j =XeXyX1X5.X                                       ",
"                        j.@XoXOXOX X`./.C.L.&XtX<X| t rXqXZ.l M G c +.7XR.i u Q.tX<X&XD.    N L.V.1                             ",
"                        c.5XXX).}.4XOXf.s.z.#.>X;X{ > <X1X-XZ.t.Y g.%X,X:XJ i &X<XS.g.c.N , +.0X5Xy   .                         ",
"                    .   j.#X}.s.C.OX].B r.u.S Z.Q.@.p 5.A.>XwXv.d.3XeXE.E.g t R.S.I r.B./.P h.XX|.H 1 -                         ",
"                        P B.v.S r.M.v.D M Y b.B P.5X~.> #.&XZ.M u.c.*XrXX.6 2 S B t.Y.OX#XR D M.b.`.5Xx.                        ",
"                        @ z N.~.`.(.b.B U N.}.a.(.5X{.* 4.Q.%X2XE.=XrXrXf 0 V A !.]..X XT t.b.v.A _.0Xc.  .                     ",
"                          X H XX0X].Y Y m. XoXM.Y.).U.3 { F.%X7XQ.<XiX>Xt = t K OX5X|.U.x.b.u.r.r.n./.t.  .                     ",
"                              j.!.x.D N.}.4X Xk.h.a.P - r X.D.4.5.*X>X@.0   O k ~..XY.b.4X(.h.G k.n.I.R                         ",
"                              .   1 N..XOXOX}.S ` Q * - ) ` ' ] %.%.! : > +   X s.b.v.m. X4X).d.B !.9Xx.  .                     ",
"                                  # Y m.@X'.G  .( v : 3 v q.H.K.K.H.w.: > +     $ # 2 Y  X@X(.u.M !.9Xc.  .                     ",
"                                  . < 5 H N q &.8 , * l b e.J.i.i.J.H.+ W :         , G U. XXX~.u.U.[.h.  .                     ",
"                                            : *.) s h b v c w.8 8 p.G.a ;.W %       # m t.~..X`.k.Y P x                         ",
"                                          X e 6.0.$X8.=.r ; 7 3 3 s ,.$X9.1.W o         n y.v.u.M $                             ",
"                                          ; %.6.8.8.8.7.%./ ..2.3.*.&.3.8.8.:.^ o       . X @ @ .                               ",
"                                        . a 7.6.8.6.8.8.*.$.;.9.$X:.=.8.8.8.8.:.o                                               ",
"                                        X j 0.8.6.8.8.8.=.^ ! 1.2. .^ 9.8.6.9.6.e +                                             ",
"                                        & ! 9.8.6.8.8.8.;.a > _ $.e 0 8.8.8.8.8.<.7                                             ",
"                                        a <.9.6.8.8.8.8.;.d : > > : e %.6.8.6.8.8.a                                             ",
"                                        d -.*.8.8.8.8.*.-.d   o o $ 6 e  .2.9.8.$X*.7                                           ",
"                                      o W %.' :.8.7.;.] W ;       o & : / =.2.8.;.<.E                                           ",
"                                      * ~ =...' >.:./ ' *           o > _ ..%.2.] %.d                                           ",
"                                      * } 7.' $.$.$.' > o           . > / %.$.$...=.d                                           ",
"                                    o W 1.8.1.$...%./ o             o >  .$.] ' ] h *                                           ",
"                                    o / 1.$X8.$.' _ a             o + : ^ =.:.:.=.e                                             ",
"                                    o / :.2.2.*.=.W X             & 3 r ..3.$X2./ :                                             ",
"                                    o / %.' ..6.;.a               + e %.2.8.:./ 6 o                                             ",
"                                    : V ) k ) =.h &               + > 9 0 0 6 > = o                                             ",
"                                o * > 0 j [ k a &                 + > = * 0 f t f > o                                           ",
"                                * > > = 0 k k > o                 & > > > t j j [ f > X                                         ",
"                                + = = : * 6 f > o                 X : = = * & * t k t *                                         ",
"                                                                                                                                ",
"                                                                                                                                ",
"                                                                                                                                ",
"                                                                                                                                ",
"                                                                                                                                ",
"                                                                                                                                "
};
