/* XPM */
static char *_0545_adbe82b1130a2db03a984cd61070dde8b0f477c4b86c0f514abca10e36480743[] = {
/* columns rows colors chars-per-pixel */
"32 32 200 2 ",
"   c black",
".  c #040303",
"X  c #070606",
"o  c #060606",
"O  c #010101",
"+  c #0E0D0D",
"@  c #0E0E0F",
"#  c #121416",
"$  c #272323",
"%  c #262323",
"&  c #171616",
"*  c #0D0C0C",
"=  c #272424",
"-  c #302A27",
";  c #503A2D",
":  c #1D1C1D",
">  c #242223",
",  c #1E1B1B",
"<  c #100E0E",
"1  c #1D1E21",
"2  c #4E3629",
"3  c #AF754E",
"4  c #825E44",
"5  c #1B1818",
"6  c gray1",
"7  c #13100F",
"8  c #47352C",
"9  c #635143",
"0  c #A77D5C",
"q  c #85644C",
"w  c #17110D",
"e  c #020101",
"r  c #010100",
"t  c #141110",
"y  c #84573D",
"u  c #C1956F",
"i  c #D7A57B",
"p  c #BB8E69",
"a  c #2D2118",
"s  c #030201",
"d  c #020202",
"f  c #4F2F23",
"g  c #A77254",
"h  c #D5B7A2",
"j  c #865D46",
"k  c #523E2D",
"l  c #735139",
"z  c #1D140E",
"x  c #100F0E",
"c  c #111010",
"v  c #171613",
"b  c #5B3725",
"n  c #5D382F",
"m  c #341D10",
"M  c #0B0301",
"N  c #2B1E16",
"B  c #CE9166",
"V  c #9B7353",
"C  c #111011",
"Z  c #060504",
"A  c #494743",
"S  c #AAA8A5",
"D  c #9A9999",
"F  c #6E6A64",
"G  c #BE977C",
"H  c #957D6E",
"J  c #43494C",
"K  c #403F3C",
"L  c #291C13",
"P  c #7B5F4F",
"I  c #826F5C",
"U  c #121010",
"Y  c #5A544C",
"T  c #CCCAC7",
"R  c #D8DADB",
"E  c #C8C6C1",
"W  c #5E5852",
"Q  c #9C9C9B",
"!  c #BEB8B1",
"~  c #777370",
"^  c #A9A59F",
"/  c #868076",
"(  c #444444",
")  c #A5A8A7",
"_  c #CCCECF",
"`  c #3A3A3A",
"'  c #211F1D",
"]  c #9F988F",
"[  c #AAA398",
"{  c #736F68",
"}  c #716D66",
"|  c #A6A29B",
" . c #727070",
".. c #B3AFAA",
"X. c #837F7A",
"o. c #4B453D",
"O. c #817B72",
"+. c #BDBAB5",
"@. c #D2CFCB",
"#. c #252220",
"$. c #020000",
"%. c #535252",
"&. c #D0D0CF",
"*. c #7B756C",
"=. c #020100",
"-. c #23211E",
";. c #B5B1AC",
":. c #6C6966",
">. c #827D75",
",. c #726E67",
"<. c #32302F",
"1. c #1F1D19",
"2. c #484643",
"3. c #262421",
"4. c #7B7A77",
"5. c #8F8C87",
"6. c #696359",
"7. c #726B62",
"8. c #898786",
"9. c #C9C5BE",
"0. c #8A8887",
"q. c #976F54",
"w. c #6D5D51",
"e. c #030302",
"r. c #090807",
"t. c #242221",
"y. c #605B57",
"u. c #67625D",
"i. c #4F4A47",
"p. c #7F583D",
"a. c #C38B64",
"s. c #351E15",
"d. c #010000",
"f. c #191717",
"g. c #211D1C",
"h. c #6D6A66",
"j. c #5C5A5B",
"k. c #161414",
"l. c #684C35",
"z. c #645141",
"x. c #353333",
"c. c #343333",
"v. c #343232",
"b. c #3C3C3B",
"n. c #211F1F",
"m. c #181514",
"M. c #131212",
"N. c gray27",
"B. c #383737",
"V. c #292626",
"C. c #3D3C3C",
"Z. c #0A0909",
"A. c #141313",
"S. c #090808",
"D. c gray18",
"F. c #464646",
"G. c #161515",
"H. c #2D2B2B",
"J. c #434343",
"K. c #100F0F",
"L. c #171515",
"P. c #1B1919",
"I. c #333232",
"U. c #151414",
"Y. c #444343",
"T. c #181818",
"R. c #0D0B0B",
"E. c #302D2D",
"W. c gray5",
"Q. c #050404",
"!. c #232020",
"~. c #1C1A1A",
"^. c #080707",
"/. c #222020",
"(. c #1F1D1D",
"). c #0C0C0B",
"_. c #272423",
"`. c #1D1B1A",
"'. c #242020",
"]. c #1C1B1B",
"[. c #282627",
"{. c #161412",
"}. c #827F7E",
"|. c #505050",
" X c #5A5751",
".X c #6F6D6B",
"XX c #080809",
"oX c #605E5B",
"OX c #CCC9C4",
"+X c #2E2B28",
"@X c #5B554C",
"#X c #BCB7AF",
"$X c #ABA9A6",
"%X c #32302B",
"&X c #22211F",
"*X c #151413",
"=X c #181613",
"-X c #2E2E2D",
";X c #1C1B19",
":X c white",
/* pixels */
"                                                                ",
"                                                                ",
"                                                                ",
"                                . X o O                         ",
"                            + @ # $ % &                         ",
"                          * = - ; : > ,                         ",
"                          < 1 2 3 4 5 6                         ",
"                          7 8 9 0 q w   e r                     ",
"                      O   t y u i p a r s                       ",
"                    d   r   f g h j   k l z                     ",
"                6 d   x c v b n m M   N B V   r                 ",
"                C Z A S D F G H J K   L P I                     ",
"                U Y T R E W Q ! ~ ^ / ( ) _ `   d               ",
"                ' ] [ { } |  ...X.o.O.+.@.+.#.  O               ",
"              $.%.&.*.=.-.;.:.>.,.<.  1.2.3.                    ",
"            r   4.5.Z     6.7.8.9.0.                            ",
"                q.w.  e.  r.t.y.u.i.* r d O                     ",
"          r   p.a.s.  d.  d f.g.h.j.k.O                         ",
"          O   l.z.  e     + x.c.v.b.n.                          ",
"                m.6       M.N.B.V.x.C.Z.                        ",
"                A.S.      D.F.G.d.H.J.K.                        ",
"                L.P.    c F.I.O   U.Y.T.                        ",
"                  f.c   & x.M.    R.E.W.                        ",
"                  e 6 Q.!.~.d     ^./.(.O                       ",
"                      )._.U.        `.'.e                       ",
"                      ].H.Z.        : [.                        ",
"                r   {.}.|.  O        X.XXX                      ",
"                O   oXOX+X  e       @X#X$X%X  O                 ",
"                    &X*X            d =X-X;X                    ",
"                                                                ",
"                    O r               O O                       ",
"                                                                "
};
