/* XPM */
static char *_6777_463eb6b021c2b233003f4ad97fdd151555856e622626707f3e4fac71296ecb4c[] = {
/* columns rows colors chars-per-pixel */
"64 64 169 2 ",
"   c #000000",
".  c #080606",
"X  c #080807",
"o  c #0B0A0A",
"O  c #140B07",
"+  c #110E0D",
"@  c #1F140C",
"#  c #151313",
"$  c #191716",
"%  c #1B1916",
"&  c #141518",
"*  c #1C1A1B",
"=  c #24150D",
"-  c #221C16",
";  c #211E1E",
":  c #24211D",
">  c #3B2416",
",  c #38201E",
"<  c #33291E",
"1  c #1D1E20",
"2  c #221F20",
"3  c #1F2122",
"4  c #252222",
"5  c #292524",
"6  c #2D2926",
"7  c #2C2A29",
"8  c #312825",
"9  c #322E2C",
"0  c #3A2E28",
"q  c #36312F",
"w  c #353333",
"e  c #393634",
"r  c #3C3936",
"t  c #3C3B3B",
"y  c #42261F",
"u  c #4D2F26",
"i  c #552E2C",
"p  c #453224",
"a  c #44342B",
"s  c #573627",
"d  c #543429",
"f  c #4F3C31",
"g  c #413E3C",
"h  c #6A3E22",
"j  c #41403F",
"k  c #4B453F",
"l  c #554333",
"z  c #5C4835",
"x  c #57493E",
"c  c #66442C",
"v  c #6C442A",
"b  c #654532",
"n  c #6E4735",
"m  c #79523A",
"M  c #434343",
"N  c #494644",
"B  c #4E4943",
"V  c #4A4A4A",
"C  c #504A45",
"Z  c #524E4B",
"A  c #55514A",
"S  c #5B574D",
"D  c #555353",
"F  c #5A5755",
"G  c #5D5955",
"H  c #5D5B5C",
"J  c #7B5D44",
"K  c #615C54",
"L  c #615F5F",
"P  c #676157",
"I  c #6A655B",
"U  c #666463",
"Y  c #6F6A64",
"T  c #6D6C6F",
"R  c #746D63",
"E  c #786F62",
"W  c #767067",
"Q  c #787166",
"!  c #77726B",
"~  c #7D766C",
"^  c #7E786F",
"/  c #777779",
"(  c #7F7E7F",
")  c #834F38",
"_  c #895036",
"`  c #83563A",
"'  c #835D43",
"]  c #8A5E41",
"[  c #935F49",
"{  c #89674C",
"}  c #9F6445",
"|  c #936148",
" . c #AE6E47",
".. c #A86A48",
"X. c #AC724C",
"o. c #B4744C",
"O. c #BC7C4E",
"+. c #A57957",
"@. c #80776B",
"#. c #81796D",
"$. c #877F73",
"%. c #817E7D",
"&. c #C37E50",
"*. c #8A837A",
"=. c #8E887E",
"-. c #928A7D",
";. c #AC8365",
":. c #A58268",
">. c #B68E6C",
",. c #B99471",
"<. c #B69078",
"1. c #C48C62",
"2. c #CA9167",
"3. c #C5926B",
"4. c #D3966A",
"5. c #C29772",
"6. c #C99B74",
"7. c #D19C72",
"8. c #DD9D70",
"9. c #D5A275",
"0. c #D5A47A",
"q. c #E3A375",
"w. c #878786",
"e. c #8D8C8D",
"r. c #948D82",
"t. c #9B9385",
"y. c #97948D",
"u. c #9D968B",
"i. c #959494",
"p. c #9D9D9C",
"a. c #A3998C",
"s. c #A39C93",
"d. c #A89F90",
"f. c #A09F9E",
"g. c #AAA49A",
"h. c #AAA49B",
"j. c #A1A2A3",
"k. c #A8A6A1",
"l. c #ADA9A4",
"z. c #ABACAB",
"x. c #B4ADA3",
"c. c #B1AEA8",
"v. c #B7B2AA",
"b. c #B9B4AD",
"n. c #B3B3B2",
"m. c #BAB6B0",
"M. c #BDBDBC",
"N. c #DBAD83",
"B. c #C6A591",
"V. c #E5B386",
"C. c #E7B588",
"Z. c #EAB789",
"A. c #C3BDB5",
"S. c #C2BFBB",
"D. c #C3C1BF",
"F. c #CCC6BE",
"G. c #D2C9BE",
"H. c #C5C4C3",
"J. c #C8C7C5",
"K. c #CAC8C6",
"L. c #C6C6C8",
"P. c #CBCBCB",
"I. c #D0CFCD",
"U. c #D5D2CD",
"Y. c #CFD0D0",
"T. c #D4D4D4",
"R. c #D6D7D9",
"E. c #DADAD9",
"W. c #E4E4E4",
/* pixels */
"                                                                                                                                ",
"                                                                                                                                ",
"                                                                                                                                ",
"                                                                                                                                ",
"                                                                                                                                ",
"                                                                                                                                ",
"                                                                                                                                ",
"                                                                  X o X X X X                                                   ",
"                                                          . .   X 4 5 4 4 8 *                                                   ",
"                                                        # 2 * ; 2 2 4 4 2 4 4 *                                                 ",
"                                                      # 2 4 4 4 1 * 4 4 4 4 4 4                                                 ",
"                                                      ; 4 4 1 5 m m 4 1 4 4 ; o                                                 ",
"                                                      * 4 2 0 ] &.o.n ; ; ; o                                                   ",
"                                                      * 1 1 a ` J O.4.' 5 +                                                     ",
"                                                      * 0 8 7 0 g 6.,.+.>                                                       ",
"                                                      # ] b x C.7.X.a 9 #                                                       ",
"                                                      & ] b C Z.0.X.3.N.l                                                       ",
"                                                      * ' ..+.N.9.7.N.8.d                                                       ",
"                                                      X d ..O.5.F.G.3.c o   < ;.n                                               ",
"                                                        . d ) [ B.B.| =     : { o.J c =                                         ",
"                                                        = u i i h v y O         X.V.9.u                                         ",
"                                  X         o 7 7 . 5 4 _ } n f             # s } 3.Z.l                                         ",
"                                o 4     + + A b.n.g @.t.:. .;.%.4 * # .     p >.s } 0.l                                         ",
"                                o ;   . I c.P.K.Y.m.e E A.d.5.j.w n.u.9     . o # @.a.e                                         ",
"                                o *   I n.P.P.H.J.P.*.e i.x.s.H.Q N z.M.y.k   # z.D.M.D.H                                       ",
"                                X 7 I -.H.Y.P.T.Y.s.r.: e.E.k.h.l.* r.x.d.#.Y i.g.L.P.W./   .                                   ",
"                                  w -.-.s.g.x.y.G =.x.W S j.b.u.P.Y N #.a.h.T.T.c.S.P.F.H                                       ",
"                              X o q s.l.-.t.#.6 % u.I.S.g T D.=.i.t.9 g S K e.m.D.T.K.^ 5                                       ",
"                              + 5 V L.R.g.$.7   # I v.R.D U A.R t $.9       * K P w.! %                                         ",
"                              X w e.L.J.r.6   .   X #.D.L B r.*.F y.V #     .                                                   ",
"                                V P.H.t.:         o ~ -.u.C G L.t.H.P.G X                                                       ",
"                              X g a.-.4             # Q d.C D R.M.u.L.H                                                         ",
"                                - +.n.4               % w 7 C x.a.G u.Z .                                                       ",
"                              = ` 7.<.-                 + 2 9 g w * 9 6 * o                                                     ",
"                            @ ' 7.2._ O                 $ 5 1 7 K %.( t ; *                                                     ",
"                            h q.3.n , X               o * 2 & w ~ p.j.N * $                                                     ",
"                            > 1.>.&                   ; 5 7 7 4 * * * 4 5 #                                                     ",
"                              z :.* .                 * t M M t 4 j j M w #                                                     ",
"                              X # *                   * t j M t 5 j 7 t M w #                                                   ",
"                                X 4                   9 j M t 5 4 7 2 t N r *                                                   ",
"                                o ;                 & t M M 9 X o o 1 r M t &                                                   ",
"                                X 4 #               9 M M j 4       1 t M t 4                                                   ",
"                                X 5 4 X           & t M M 7 X       + 7 t N w                                                   ",
"                                X * 4 o         . 4 M M M *           # t M 7                                                   ",
"                                    * 4 +       . 4 t j 6 X           & r w #                                                   ",
"                                    X * 4 +     X 4 4 4 +             $ 5 4 $ .                                                 ",
"                                      X X     o 3 4 4 4 +             $ 5 4 4 &                                                 ",
"                                              o 4 4 4 + .             X & 4 4 2                                                 ",
"                                              X 4 4 4 .                 # 4 4 1                                                 ",
"                                            X # 4 4 4 X                 # 4 1 *                                                 ",
"                                            % w 7 2 $ X                 # 7 9 7                                                 ",
"                                            * t t 7                     & w M 9 X                                               ",
"                                          % 7 w V t X                   5 V j 4                                                 ",
"                                          k h.L.p.o                     A -.s.h.o                                               ",
"                                          U E.K.*.X                     K t.s.P.f.R *                                           ",
"                                        B n.U.*.4                       % K g.v.W.I.r.:                                         ",
"                                        4 e 7 $                           X 5 : w t w #                                         ",
"                                                                                                                                ",
"                                            .                               .     X                                             ",
"                                                                                                                                ",
"                                                                                                                                ",
"                                                                                                                                ",
"                                                                                                                                ",
"                                                                                                                                "
};
