/* XPM */
static char *_8262_7e0ffd3bedbdd2479960a5a0461054b9fe028809fe1d795f263e452759090aea[] = {
/* columns rows colors chars-per-pixel */
"64 64 207 2 ",
"   c #0D0C10",
".  c #151314",
"X  c #181515",
"o  c #13161D",
"O  c #181719",
"+  c #1C1B1C",
"@  c #211E1E",
"#  c #141721",
"$  c #1A1C23",
"%  c #161B2A",
"&  c #1A1E2D",
"*  c #1E0F34",
"=  c #1C1033",
"-  c #161B35",
";  c #181C32",
":  c #1C1F3E",
">  c #211F21",
",  c #201F28",
"<  c #210D34",
"1  c #201033",
"2  c #231B3E",
"3  c #1F2026",
"4  c #1E222C",
"5  c #1B2132",
"6  c #16203C",
"7  c #1C243C",
"8  c #252222",
"9  c #292525",
"0  c #25252B",
"q  c #28272A",
"w  c #2D2B2B",
"e  c #352B2B",
"r  c #3A312C",
"t  c #222532",
"y  c #2C2730",
"u  c #262833",
"i  c #292A35",
"p  c #20273B",
"a  c #22293D",
"s  c #292D3C",
"d  c #312F36",
"f  c #2E323C",
"g  c #343333",
"h  c #393535",
"j  c #3E3A36",
"k  c #32353D",
"l  c #3B353B",
"z  c #3C3B3B",
"x  c #402A2C",
"c  c #49362B",
"v  c #59362E",
"b  c #473437",
"n  c #413D3A",
"m  c #523932",
"M  c #653A31",
"N  c #47413C",
"B  c #574038",
"V  c #6D4033",
"C  c #6D4A38",
"Z  c #734837",
"A  c #7A5138",
"S  c #7B543C",
"D  c #171F43",
"F  c #251A40",
"G  c #172144",
"H  c #1A2243",
"J  c #1E2843",
"K  c #222B42",
"L  c #292F42",
"P  c #262A48",
"I  c #262F4C",
"U  c #273047",
"Y  c #2A3146",
"T  c #26304B",
"R  c #2A344E",
"E  c #2D394F",
"W  c #333745",
"Q  c #30374F",
"!  c #33394B",
"~  c #2B3450",
"^  c #2E3951",
"/  c #323C54",
"(  c #353F58",
")  c #364156",
"_  c #3B4156",
"`  c #364158",
"'  c #3A445B",
"]  c #3E495E",
"[  c #3F4961",
"{  c #444444",
"}  c #474747",
"|  c #494A4B",
" . c #574B47",
".. c #544C4B",
"X. c #56524B",
"o. c #5B554D",
"O. c #414B5E",
"+. c #494D58",
"@. c #5A5754",
"#. c #5D5853",
"$. c #51515D",
"%. c #57565D",
"&. c #6C4D47",
"*. c #6E564B",
"=. c #765847",
"-. c #635D55",
";. c #625D5F",
":. c #65625D",
">. c #6B665D",
",. c #7D6353",
"<. c #414D61",
"1. c #455164",
"2. c #4D5160",
"3. c #505462",
"4. c #585B65",
"5. c #635E61",
"6. c #5F626A",
"7. c #666566",
"8. c #756C64",
"9. c #716F6D",
"0. c #74716E",
"q. c #7C776C",
"w. c #646B7A",
"e. c #777575",
"r. c #7D7A77",
"t. c #8F5C3C",
"y. c #A6653C",
"u. c #8D5D47",
"i. c #945F49",
"p. c #8C6049",
"a. c #986444",
"s. c #856954",
"d. c #8E745D",
"f. c #AB6C44",
"g. c #A56B48",
"h. c #B16E44",
"j. c #A4714F",
"k. c #AE714B",
"l. c #B4744C",
"z. c #BC7A4F",
"x. c #A67A5B",
"c. c #B77C54",
"v. c #877668",
"b. c #837C71",
"n. c #C27E52",
"m. c #8B8376",
"M. c #8C8579",
"N. c #9E8873",
"B. c #938A7D",
"V. c #B2896A",
"C. c #A88D72",
"Z. c #BB9478",
"A. c #C2865D",
"S. c #C48D64",
"D. c #CD8F63",
"F. c #CA946A",
"G. c #D2986C",
"H. c #C99B75",
"J. c #D19F77",
"K. c #D8A67B",
"L. c #6E788C",
"P. c #868585",
"I. c #8E8982",
"U. c #968E83",
"Y. c #948E86",
"T. c #9A9284",
"R. c #98948B",
"E. c #9D9689",
"W. c #8C8F95",
"Q. c #999896",
"!. c #A79886",
"~. c #A39B8D",
"^. c #A39D92",
"/. c #A9A297",
"(. c #A5A29C",
"). c #A9A49B",
"_. c #B4A79C",
"`. c #9196A1",
"'. c #A4A4A5",
"]. c #AEAAA3",
"[. c #AAA9A9",
"{. c #B3ADA3",
"}. c #B4B0AA",
"|. c #B9B4AB",
" X c #ACAFB1",
".X c #B4B4B5",
"XX c #BBB8B4",
"oX c #BCBCBB",
"OX c #DDAE83",
"+X c #D7B99D",
"@X c #E2AE80",
"#X c #E7B588",
"$X c #F3BE8D",
"%X c #D0B9AA",
"&X c #C1BEBB",
"*X c #C3C1BD",
"=X c #BEBFC5",
"-X c #C5C4C3",
";X c #CAC7C4",
":X c #CBCBCB",
">X c #D1D0CF",
",X c #CFCFD0",
"<X c #CDD0D3",
"1X c #D2D3D4",
"2X c #D6D7D8",
"3X c #DADBDB",
"4X c #E0DFDF",
/* pixels */
"P <.[ ] ] O.O.O.<.O.] <.1.[ [ [ <.<.O.O.O.O.O.O.O.O.O.O.O.O.O.O.O.O.O.O.O.O.O.O.O.O.O.O.O.O.O.O.O.O.O.O.<.] O.O.O.<.<.O.<.] <.<.",
"I [ [ ] ] ' ] ] [ ] ] ] ] ] ] ] ] O.] ] ] ] ] O.O.O.O.O.O.O.O.O.O.O.O.O.O.O.O.O.O.O.O.O.O.O.O.O.] ] ] ] [ [ [ ] ] ] ] ] ] ] ] ' ",
"G J 7 R E E ^ ~ E E E E E E ^ ^ R E R ~ ^ E E R Q Q Q Q Q Q Q Q ~ ~ Q Q > 9 > > 8 9 8 Q R ~ Q R Q R ~ ~ ~ ^ ~ E E E E ~ E R J 7 ",
"D G 6 I R R E R E R T T R R R R R E R R E R R R R Q P ~ ~ Q L i y y i y > 9 > > 8 8 8 i L ~ R ~ R R ~ R I R E R E R R R P R H D ",
"D G H P ~ ~ R ~ R T T R R R R R ~ ~ R ~ ~ ~ R R ~ ~ ~ ~ ~ ~ 9 9 9 9 9 8 9 > 8 8 8 8 8 9 u ~ R R ~ R R R R R ~ ~ ~ ~ ~ ~ R ~ G D ",
"G H H I E ~ R ~ R ) R T R R R R R R I ~ R R ~ R ~ R R Q W > 9 > 8 8 @ + @ > 8 8 8 8 8 8 $ K R R R R E E R R R E R R ~ ~ R R G G ",
"D H J I E R R R R T R ) R ) ) R R R E I R ~ R R R R R P ~ 9 > 9 8 O r S S x + 8 8 9 8 8 % a R E R E Q E ^ ^ R E R R ~ R ~ ~ G G ",
"D G G I R R R R R T ) ] ] ] ] ) R ~ R R E R R R R ~ ~ ~ P > 9 > 8 e A n.n.C e > 8 8 + ; ; K R U T Q O.] ' 1.' U R E ~ ~ ~ ~ H G ",
"G G G I R R R ~ T E ) ] ] 1.1.) T E R R R E E R R R R R Y 8 8 8 @ a.z.k.y.A.t.@ 9 @ 5 5 t P R R Y E <.] ] 1.' R T T R R ~ ~ G D ",
"G G G I R R ~ ~ R U ) ] ] ] ] ' R I R R I R R R R R R R U 8 3 o 8 9 9 r F.K.F.a.j 3 5 5 P ~ E R Y ) ] ] O.] ' T E ~ R R ~ I H D ",
"G G G I ~ ~ R R R T ) ] ] ] ] ' ~ R ~ ~ R ~ ~ ~ ~ ~ R ~ R @ c B 3 C =.=.F.N.,.A k 5 7 U ~ ~ ~ R R ) 1.1.<.1.' R R R R R ~ ~ H H ",
"G G G I R R ~ R R R ) ) ) ) ) ) R ~ ~ R R ~ E R ~ I R R E + t.g.$ H.$XK.l.B 8 w 3 5 a R ~ ~ ~ ~ U R ) ) ) ) ^ ~ R R ~ R ~ ~ H D ",
"G H J T I R R ~ R R J 6 a 6 6 T I ~ R R R R R R R R R R R + S a.o C.#XK.j.V.K.V.z 5 T R E R R ~ R T 6 7 G 6 J ~ R ~ ~ ~ ~ I G G ",
"G H G I R R ~ R R R I 6 7 6 6 J R R R R R R R R R ~ R R I + S l.S H.OXK.G.K.K.j.g J ~ ~ R R R R R T 6 6 6 G 7 ^ R R ~ ~ ~ ~ G G ",
"G H H R R R R R R R T T T T T R R R R E R ~ R ~ R ~ R R P > Z f.A.S.K.+X+XK.F.A y a / v.,. .~ R R R T T J ~ I I R R ~ I ~ ~ G G ",
"G G G T R R R R R R R R R R R R ~ R R ~ R R R ~ R R R ~ ~ ~ b Z y.y.C.<X<XZ.t.s 5 K $.@XG.g.~ ~ R R R R R R ~ R ~ R ~ ~ ~ ~ G G ",
"G H G T R R E R R R R R ~ R I ~ R R R R R R R R R R R R ~ R R W M M u.S.A.i.M a 5 a Q $.g.A.K.z.=.U R R R R R R R ~ R R ~ I G G ",
"G H G R R R R R R R ~ ~ ~ R R R R R R R R R ~ R R R ~ R ~ R *.u.v M M p.S m y ; 5 K ~ R a.D.#XK.s.5 K E R ~ R R R R R R R R G G ",
"H H H T R R R R ~ R R R ~ R R R P U R R R R R ` 4.w.! W 3.2.j.l.M =.B 7 ; ; ; 5 7 T / 5.a.c.K.$Xv.4 J E R R R R R ~ R R R R J G ",
"6 H H R R R R R R R I R R R R R 0 8 R E R R E 0./.1X{ n ~.Y.x.f.k.C.X.  4 7 a K T R $.#Xp.V z.K.d.5 7 R R ~ R R R R R R R ~ G G ",
"H H G I R I R R R R R R R R R ~ q 8 Y R +.U.oX=X*X:X.Xe.e B.|._.f._.| . W./.8.R R ~ / 8.W  .N.!.-.& 5 K E R R ~ R R R R I ~ G G ",
"H G G I R R R R R R R R R ~ R R 0 > ~ 4.I.|.:X1X:X-X3X'.n -.'.;Xj.;Xb.h P.{.].`.r.3.R ~ L. X].].(.4.5 K R R R ~ R ~ R R ~ I G G ",
"H H G R R R R R ~ R R R R R ~ R q 8 ` m.|.<X:X:X:X:X:X|.B.X b.:XY.oXoXI.. P.3X1X{.b._ <.oX4X,X:X4X'.5 K R R ~ R R R ~ R ~ ~ G G ",
"H H G I I R R R ~ R R E R R R E , g B.B./.1X:X:X>X3X/.B.m.X P.4X-XE.].oX+ >.~.U.U.B.U.:X^.E.:X:X1XQ.; K R R R ~ R R ~ ~ I ~ J G ",
"G G H I I ~ ~ R ~ ~ R R ~ R E ~ , g B.B.T.)./.{.(.W.B./.}.8.@.e.1XT.].,X8. .#.E.B.].;X<X&XXX:X,X).:.5 J R R R ~ R R R R R R G G ",
"G G G I ~ R R R R R R R R R ~ a , g ~.^.E.M.B.m.:.5 b.{.1X|.{ g 1XE.R.[.^.N 9 m.q.R..X}.&X-X:X*Xe.} 7 R ~ ~ R R R R R R R I G G ",
"D H H I ~ R ~ ~ R R R ~ R R R 8 @ l :X1XXXM.~.@.# & q.].:X3X7.j ,X/.>.z B. .. 5 5 5 4 o.>.Y.oXm.N 5 R R R R ~ R R R R R ~ ~ G G ",
"D G G R R R R I ~ ~ R R R R R @ l 9.:X1X*XT.| 4 & 4 f e./.3X%.9 /.T.:.z B.N   5 5 5 5 f f k ) d a E ~ R R ~ R R R R R R R ~ G G ",
"H H H I ~ ~ R R R ~ R R ~ R R O ;. X,X*X/.:.% % - 5 7 7.~.}.q.X.X./.Y.>.}.R.4.O 5 5 7 7 7 7 7 7 U R R E R R ~ ~ R R R R R R G G ",
"D H D I ~ ~ R ~ ~ ~ ~ R ~ R R . e.1X-X).>.% o 5 7 R R 6.T.m.E.b..  X*XQ.*X3X[.+ 3 5 7 E R R E R E R R R ~ R R R R R R R R I G G ",
"D H H I ~ ~ ~ R ~ ~ R R R R R O -.R.T.%.% # % 7 T R R E ) B.~.b.O [.2X;XB.*X'.+ 4 5 7 R R E R R R R R R ~ ~ ~ R R R ~ R I ~ G G ",
"H H H ~ ~ I R ~ ~ ~ R ~ R ~ R 7 S V.;Xw.% # 5 T E R R R E 4...j + B.{./.#.Y.I.@ a 5 a R R R R E R R R R ~ ~ ~ R R R ~ R ~ ~ J G ",
"H G G I ~ ~ R R R R ~ ~ ~ ~ ~ *.c.F.%X4.5 5 R R R R R R E T $ > 8 o.>.:.w X.o.@ 4 3 p E R R R R R R ) T ~ ~ ~ R R R R R R R G G ",
"H G G I ~ I R R R E ~ ~ R ~ ! g.G.K.h.m 5 R R R E R R R R E q 9 8 + @ 8 9 9 8 8 8 O a T R R R R R R R R ~ ~ R ~ R R R R R R G G ",
"H H G I ~ I R R R R ~ ~ ~  .l.J.F.k.A r 7 E R ~ R R R R R R q q 8 O ..E.-X<XQ.+ @ + a T E R R R R R R R R ~ ~ R R R ~ R R R G G ",
"G H G I ~ ~ R R ~ R ~ ~ ~ &.n.OXx.c x 5 7 R R ~ R R R E R 4 > > 8 + h o.7.0.#.@ + O 5 p R R R R R R R R ~ R R R R R R R R ~ G G ",
"G H H ~ ~ R R R R R ~ ~ R ..k.@X,.  5 7 R R R R R R R R Y > w w w w 8 O @ + @ w 9 + 5 5 J E R R R R R R ~ R R ~ R ~ ~ R R I G G ",
"D H D I R I ~ R R ~ R ~ R R ~ #Xd.o 4 7 R R R R R R ~ E R > h } { { h 8 { { { { w 8 a 5 J R R E R R ~ R ~ E R ~ R R R ~ R R G G ",
"D G H ~ R R R R R R ~ R ~ R E %.j @ 5 7 E ~ R ~ R ~ R R Y @ g N { { j 8 { g w { N g # 5 7 E R R R R R R R R R R R R ~ ~ ~ ~ G G ",
"H D D I R R R R R R R R R R ~ R $ 8 4 K R ~ R R R R R ~ Y g n _ _ z w @ g 9 w { _ g + 5 a R R R E R R R R R ~ R R R ~ R R ~ G G ",
"D G D I ~ ~ ~ I R R ~ ~ R R R R 0 @ 4 7 ~ R ~ R R R ~ T Y { } { N q + . . + w _ N h + 4 a R R R R R R R R R R R R R R R R I G G ",
"G G D ~ ~ ~ ~ ~ ~ ~ R R R R R R 8 8 5 a ~ E ~ R ~ R R u 8 { { { N f 5 4 5 + w N N h O 5 a R R R R R R R R R R R R R R R R R G G ",
"G H H ~ ~ ~ ~ I T R R ~ R R R R 0 8 8 5 R ~ R R R R R k z _ N z q 3 5 5 5 3 r _ { { w 5 a R R R R R R R R R R R R R R R ~ ~ G G ",
"G H H ~ ~ ~ ~ ~ R R R ~ R R ~ R 0 9 0 u R R R ~ R E a z } { N n + 3 5 7 U q w z z } z 5 a R R R R R R R R R R R R R R R ~ ~ G G ",
"D H G ~ I ~ ~ ~ R T ~ T R ~ R R u 8 9 i R R R R R R > g _ N N _ 7 5 K E R R s 8 z _ g 5 a ) R R R R R R R R R R R ~ ~ R R R G G ",
"H G G I ~ ~ R ~ ~ R R R R T R R T s 9 q 0 R R R R E 3 g N } j + 5 5 7 R R R s 8 N j + 4 & 7 R T R R R R R R R R R ~ ~ R R R G G ",
"D H H I I ~ I ~ ~ ~ R R R R R R E T 0 8 8 0 U R R R 8 w g g 0 O 5 7 U E R E a 8 g w @ p 5 a E E R R R ~ ~ R R R R R R R R R G G ",
"D H H I ~ ~ ~ I R T R R R R T R E R R 0 9 8 U R R s 8 8 @ 9 $ 5 5 R R R R R s q @ 8 8 u & a R T R R I R R T R R R R R R R ~ G G ",
"D H H I I R R ~ ~ R ^ ( ) ` ( ~ R R E R R R R R L 8 8 8 8 8 O 5 K R R R ~ ~ a 9 8 8 8 @ $ K R R ~ ^ ) ) ) ) ^ R R ~ R T R R G G ",
"H H H I R R ~ R R R ` [ [ <.[ ( T E R R R R R R L 8 8 8 @ # 4 7 T R ~ ~ ~ ~ Y a 8 8 8 @ # 7 R R R ^ [ [ [ 1.' E R R R R R R G G ",
"H H G ~ R R R R R R ) [ [ <.[ ) T R R E R R R R L 8 8 8 + 4 7 P R E R R E E R R 8 9 8 @ $ a R R R ^ [ [ ] 1.) E R ~ R R ~ R G G ",
"D H H I R R R R R R ) [ <.[ [ ) R R R R R R R T s 8 8 > . 5 a R R R ~ R R R R R 8 8 8 @ # K R R R ) [ [ ] ] ) T ~ R R R R ~ G G ",
"D H H I ~ ~ R R R R ' [ <.[ 1.( R R T ~ I ~ R 0 8 8 8 + O 4 T E R ~ R R R R R E 8 8 @ @ # K ~ R R ) ] ] 1.1.' E ~ R R R R I G G ",
"H H H I ~ ~ ~ ~ R R E E E E ^ R R E R R R E R k z h 9 . $ 7 R R R R R ~ ~ R ~ R @ w j g 3 J E R E T E ) E E E T I R R R R R G G ",
"G G H I R R I ~ R R U 6 6 7 6 T R R R R R R a h { { w O 7 E E R R R ~ R ~ R R R 9 z { g 0 a ~ R E T 6 6 6 5 J E R R R R ~ R G G ",
"G G H ~ R ~ ~ ~ R R U 7 7 7 6 I I R R E R T 8 8 9 { z 0 a U R R R R E R R R R E { } z + # a R ~ T T 6 6 7 6 J E R R E R R ~ G G ",
"G H G I R R ~ R R R R R E R R R R ~ R R R R 8.E..X X} 5 a R R R R R R R R R R R b.m.M..X3.R R R R R T R ~ T R ~ R ~ R R R I G G ",
"H H H I R ~ ~ ~ R R R R R R R R R ~ R R R R ].:X,X'.} t T R R R R R R R R R R R U.!.E.2X=XQ.9./ E R R R ~ T R R R ~ R R R I G G ",
"D H G I R R R R R E R R R R T R R Y R R ! 2.:X,X(.>.k p R R R R R R R ~ R R R R M.U.E.&X2X:X^.4.W T R R T R R R R R R R I ~ G G ",
"G H G I R R ~ E R R R R R E R R ~ R ~ ~ 7.E..XI.X.5 5 a R R ~ ~ R R R R R ~ ~ ~ ~ e.b.8.R.'.'.q.} K ~ Q R Q ~ ~ R E R R ~ ) G G ",
"H G H K T T T P T P I U R T I T I U I P I P ; 5 - 5 K P I I I U I R I R T P R I I K ; ; ; ; & ; & a I I U I I P I I I U I I G G ",
"7 : D K 2 7 7 H 7 H F D G 7 D H H F D K D 7 - 1 - : D D H F H D H F D F H D D H F D - - - - - - - D p D H H H K : D p H G G 6 6 ",
"2 2 2 2 2 2 2 2 2 2 2 F F F F F F F F F 2 2 F F F F 2 2 F F F F 2 2 F F F F 2 2 2 F F F F F F F F 2 F F F F F F 2 2 2 2 F 2 2 2 ",
"2 * * < < 1 < * < * < < < < < < < < < < < < < < < < < < < < < < < < < < < < < < < < < < < < < < * < < < < < < < < < = = = = = = "
};
