/* XPM */
static char *_6602_a781113afe44c482f612f4d8bc8afeabaf0d0ebdb82ac8f423afd60dc5e54fa3[] = {
/* columns rows colors chars-per-pixel */
"32 32 111 2 ",
"   c #000000",
".  c #090706",
"X  c #0A0807",
"o  c #07070B",
"O  c #07080A",
"+  c #0C0B0B",
"@  c #100E0E",
"#  c #1B100E",
"$  c #0D0D10",
"%  c #141313",
"&  c #1A1614",
"*  c #161719",
"=  c #191719",
"-  c #1D1A1A",
";  c #201B16",
":  c #211D1D",
">  c #321D1A",
",  c #27201F",
"<  c #332115",
"1  c #3D2617",
"2  c #31231A",
"3  c #392619",
"4  c #242223",
"5  c #292625",
"6  c #2E2A27",
"7  c #2C2B2B",
"8  c #362524",
"9  c #3A2D27",
"0  c #322E2D",
"q  c #3E312A",
"w  c #2D2D30",
"e  c #353434",
"r  c #383737",
"t  c #3A3A3A",
"y  c #442C1D",
"u  c #412B20",
"i  c #512F29",
"p  c #443127",
"a  c #4B3227",
"s  c #423228",
"d  c #4D392D",
"f  c #5B3D2D",
"g  c #493632",
"h  c #423834",
"j  c #4C3E35",
"k  c #64372D",
"l  c #6E3E2F",
"z  c #44403D",
"x  c #49413B",
"c  c #614635",
"v  c #6F4F3A",
"b  c #734634",
"n  c #71543F",
"m  c #393E40",
"M  c #3F4141",
"N  c #434343",
"B  c #4B4743",
"V  c #4D4B4B",
"C  c #5D5852",
"Z  c #765943",
"A  c #715C4C",
"S  c #665B50",
"D  c #6A5E54",
"F  c #63615E",
"G  c #656565",
"H  c #6A6867",
"J  c #6C6B6B",
"K  c #7A6C60",
"L  c #757475",
"P  c #7D7B77",
"I  c #777A7D",
"U  c #7E7D7E",
"Y  c #81563B",
"T  c #8C5D3E",
"R  c #92563B",
"E  c #875C40",
"W  c #8A5F42",
"Q  c #8D6347",
"!  c #936443",
"~  c #9C6946",
"^  c #91674B",
"/  c #936A4D",
"(  c #A26642",
")  c #AB6E46",
"_  c #AD7049",
"`  c #B2754B",
"'  c #BD7B4E",
"]  c #B67A51",
"[  c #82766B",
"{  c #A9805F",
"}  c #BA8057",
"|  c #B7855D",
" . c #BD8359",
".. c #868078",
"X. c #88837C",
"o. c #918474",
"O. c #B58460",
"+. c #BE8961",
"@. c #C68A5C",
"#. c #D39161",
"$. c #D2996D",
"%. c #CB9C75",
"&. c #D39E72",
"*. c #D1A179",
"=. c #E2AC7D",
"-. c #848789",
";. c #9E9B97",
":. c #9F9E9B",
">. c #A6A5A3",
",. c #DEAF84",
"<. c #E1AE81",
/* pixels */
"                                                                ",
"                                                                ",
"                                                                ",
"                                                                ",
"                                                                ",
"                      % 5 w e 4                                 ",
"                    + 5 N N N >.0                               ",
"                    + * 7 t z V e %                             ",
"                    # f > 5 w 4 7 e *                           ",
"                  O g R b ~ f 9 c 7 %                           ",
"                  4 V > k (  .$.n % X                           ",
"              . D H 4 4 i l ` =.Z +         .                   ",
"              4 -.I M 7 t 8 a v j = +                           ",
"            % x D S 0 * 7 : $ o + % X     + t F F t 7           ",
"            2 *.,.,.~ h z B C L H J U P 0 : G P ;.:.X.X         ",
"          ; | ] +.%.,.%.O.A o.[ K [ P ..7 q s q 5 e 7 .         ",
"          ; } ) ( &.<.,.=.,.<.@.` { w O a ] #.{ * : 5 .         ",
"            1 ` ' ! E W ^ / Q E c p d T ` _ Y 9 5 5 : .         ",
"              < f : $ : t e - 7 m ~ ` ` ` u . O                 ",
"                o : : - : 7 , : - ( ' ` 1                       ",
"                = : = 7 : e t , - 3 y <                         ",
"              . : : 5 r 0 4 r N e O                             ",
"              . - 0 N r : t e r r 7 .                           ",
"              % - , e 0 - : - 6 e N -                           ",
"              & : - & & - = : : 5 t %                           ",
"              + : - : X     X : - : +                           ",
"              . - : %         + : : +                           ",
"                + 4 @           & : +                           ",
"                  .               .                             ",
"                                                                ",
"                                                                ",
"                                                                "
};
