/* XPM */
static char *_2560_17f672d286647e1f47b6553663ed789d6ca35b4d4d82064912419f866a307822[] = {
/* columns rows colors chars-per-pixel */
"64 64 180 2 ",
"   c #000000",
".  c #080707",
"X  c #04070B",
"o  c #0C0B0B",
"O  c #100E0E",
"+  c #1E130C",
"@  c #050B12",
"#  c #0C0E12",
"$  c #120F11",
"%  c #0E1217",
"&  c #151313",
"*  c #1A1616",
"=  c #1C1817",
"-  c #151619",
";  c #181619",
":  c #17181B",
">  c #1E1A1A",
",  c #2B1C12",
"<  c #211D1D",
"1  c #321B18",
"2  c #26201F",
"3  c #29211E",
"4  c #3A2518",
"5  c #1D1F22",
"6  c #221F20",
"7  c #1F2022",
"8  c #252222",
"9  c #292625",
"0  c #272728",
"q  c #272B2E",
"w  c #2D2B2B",
"e  c #322421",
"r  c #372A21",
"t  c #3C2C23",
"y  c #312E2D",
"u  c #34302E",
"i  c #2C2E31",
"p  c #2E3234",
"a  c #343333",
"s  c #393635",
"d  c #3C3933",
"f  c #363A3C",
"g  c #3C3C3C",
"h  c #422A1B",
"j  c #472724",
"k  c #442A25",
"l  c #512B26",
"z  c #552E29",
"x  c #4B3326",
"c  c #4A3529",
"v  c #563029",
"b  c #5D322B",
"n  c #553A2B",
"m  c #5C3D2C",
"M  c #4E3C31",
"N  c #403F3F",
"B  c #563D32",
"V  c #63362C",
"C  c #6E3E31",
"Z  c #5F402E",
"A  c #45413C",
"S  c #5E4537",
"D  c #62422F",
"F  c #634532",
"G  c #674833",
"H  c #6D4933",
"J  c #684E3B",
"K  c #764E33",
"L  c #7B4B35",
"P  c #6D513E",
"I  c #393E41",
"U  c #3F4142",
"Y  c #434343",
"T  c #484745",
"R  c #4F4A45",
"E  c #45494C",
"W  c #4A4A4A",
"Q  c #564E45",
"!  c #534F4B",
"~  c #52504C",
"^  c #5B544B",
"/  c #4F5152",
"(  c #585859",
")  c #5B5A5B",
"_  c #6E5342",
"`  c #6E5947",
"'  c #775B46",
"]  c #6C5E51",
"[  c #7B634F",
"{  c #68635D",
"}  c #7B6755",
"|  c #595D60",
" . c #5D6062",
".. c #646363",
"X. c #696561",
"o. c #6D6B67",
"O. c #716C65",
"+. c #7B7366",
"@. c #737070",
"#. c #845435",
"$. c #87573A",
"%. c #8A563C",
"&. c #86593C",
"*. c #8C5A3B",
"=. c #935E3E",
"-. c #99613C",
";. c #A3663F",
":. c #845E44",
">. c #975E40",
",. c #946241",
"<. c #9A6441",
"1. c #9B6847",
"2. c #836A56",
"3. c #846F5C",
"4. c #946E52",
"5. c #8A725C",
"6. c #92755B",
"7. c #A46A45",
"8. c #A96E46",
"9. c #AA6F48",
"0. c #B06F44",
"q. c #AF7047",
"w. c #AC7149",
"e. c #B4754B",
"r. c #B8774B",
"t. c #B6794E",
"y. c #BA794E",
"u. c #AA7753",
"i. c #B57E56",
"p. c #BB7D52",
"a. c #837A6E",
"s. c #C47D4E",
"d. c #C27F51",
"f. c #BF8156",
"g. c #BD845A",
"h. c #8C8579",
"j. c #91887A",
"k. c #A68566",
"l. c #B98A66",
"z. c #BC9777",
"x. c #C48153",
"c. c #C38C62",
"v. c #C49067",
"b. c #CB9368",
"n. c #D3986B",
"m. c #C79D77",
"M. c #D09E75",
"N. c #D6A277",
"B. c #D4A67D",
"V. c #DAA67A",
"C. c #D7A97F",
"Z. c #8A8886",
"A. c #958F82",
"S. c #988F81",
"D. c #979185",
"F. c #989186",
"G. c #959595",
"H. c #9E9D9D",
"J. c #A19889",
"K. c #B59A80",
"L. c #A29B90",
"P. c #A7A298",
"I. c #AAA9A7",
"U. c #B8B3AA",
"Y. c #B1B1B1",
"T. c #BBB7B2",
"R. c #D7A980",
"E. c #DBAC82",
"W. c #DDB086",
"Q. c #E4B285",
"!. c #E7B689",
"~. c #EAB98B",
"^. c #F1B685",
"/. c #F7C08E",
"(. c #C4C4C4",
"). c #C9C7C5",
"_. c #CCCCCD",
"`. c #D3D1CE",
"'. c #D2D2D2",
"]. c #D6D7D9",
/* pixels */
"                                                                                                                                ",
"                                                                                                                                ",
"                                                                                                                                ",
"                                                                                                                                ",
"                                                                                                                                ",
"                                                                                                                                ",
"                                                                                                                                ",
"                                                                                                                                ",
"                                                                                                                                ",
"                                                                                                                                ",
"                                            . O o > 6 > 6 8 o   O                                                               ",
"                                          . & 8 w T E Y T E T a O                                                               ",
"                                          * > 8 U N g N N a I.H.o                                                               ",
"                                          > < 0 Y I g N I s I.`.+.O                                                             ",
"                                          > < 8 w A T Y N g ) X.Q & o .                                                         ",
"                                          * > : > a s f Y Y 8 & > 9 w > .                                                       ",
"                                          = < < < > > 9 Y g Y Y Y N Y a >                                                       ",
"                                        . j $.=.z * q p ; 8 8 6 > < > w g                                                       ",
"                                          l 7.7.b L :.:.H > @ r K s a a 9                                                       ",
"                                      & ! k L %.b >.8.y.e.n t K e.g f y *                                                       ",
"                                      g _.p 1 V V l %.e.8.y.t.y.7.< * < :                                                       ",
"                                    o 6 w < < e V v =.r.9.B.B.E.m.9 > &                                                         ",
"                                  Z. .6 y < ; e V V C %.p.i.B.B.u.3 > &                                                         ",
"                              - ( G.G.o.Y y < 6 B j l C =.8.c.n.i.3 > $                                                         ",
"                              g '.W Z.Y.s Y w 8 Y 5 k v v <.=.i.z.3 > &                                                         ",
"                            2 Y N (.Z.f Y Y w 6 Y N w < < < 1 8 2 > > < *                                                       ",
"                          w 0 5 p | E p I w < 6 w Y w * < > > < > < < 2 < .               . : R Q                               ",
"                          p Q ' a.} } 2.J < - * & y 6 & * * & & & * & $ O             : ~ @.{ F.I...( ..) d                     ",
"                          u k./.Q.Q.~.V.p.x 5 0 y 6 9 y y y s d s y s f s w w 8 = . . A L.(.D.P._.(.`.'.T.F..                   ",
"                          #.b.E.B.V.R.E.B.p.S / F.N O.J.j.j.T.].).S.T.'._.(._.Y.a.> s a < U s o.j.g h.{ T j.                    ",
"                      3 k.t.q.l.E.g.v.E.R.N.m.l.u.1.B i ~ A.( I | W / ) o.P.U.j.W 6 > - # : - 8 d g ~ Y Y ~                     ",
"                      r ~.g.;.e.v.8.c.W.V.E.W.V.g.b.4.` 5.K.5.J J 3.5.] T ~ ^ A 8 - x ' [ D [ M & a w w y 0                     ",
"                  .   3 M.p.8.w.8.7.v.W.C.R.C.R.W.W.!.~.Q.E.Q.n.y.V.^.z.) * & * > r -.n.V.e.^.6.# < = = > 2                     ",
"                      , 8.e.8.w.q.8.v.E.C.C.R.C.C.C.B.B.B.E.i.7.9.8.0.4.) 6 < * e w.w.9.8.7.V.2.$ < < = 9 g                     ",
"                      . + <.p.7.w.8.t.f.f.f.f.f.p.p.f.p.p.x.p.y.8.t 3 8 5 % K <.,.w.w.w.r.y.S 2 < Y N y 8 Y                     ",
"                          4 %.d.e.y.&.n Z Z m F _ _ P _ ` V n G _ w M H G G 7.y.e.q.y.,.m G < ; < 5 > & & >                     ",
"                            4 =.&.-.c @ & - & 7 I g I f a : : q I I 1.s.t.t.q.9.w.e.-.c X # & = O                               ",
"                              . = : : 2 < < > 9 Y g U s * > s Y I I :.e.8.9.q.9.w.w.,                                           ",
"                                . : < < < < < < 2 8 8 > > < < 6 6 > &.e.9.q.9.t.7.+ .                                           ",
"                                  = < > > < > : > = 0 a y < * < > - %.d.t.t.d.*.4                                               ",
"                                . > < > < < 8 8 < * s E Y w < > < ; m #.K L &.h                                                 ",
"                              . < < < < > = a g < * y N g Y w < < < .                                                           ",
"                              . < < < > > * a T g 6 * > 6 g N g g < .                                                           ",
"                              . > < * < s s 9 w Y < w s a Y Y N N f < .                                                         ",
"                              . < < 8 a Y T y w a < a W Y s f Y N s a =                                                         ",
"                              o < > w Y g I Y s = * y g f > y Y s > f y .                                                       ",
"                            o < > < > 9 Y Y T s > < < < < = s s > g N Y s                                                       ",
"                            O < < > > > 0 8 w 8 < < * < * < 8 w f Y N Y g                                                       ",
"                            o < > < < > = = > < < < < < < < = 8 a u g g w                                                       ",
"                            O 8 > < > < < < > * * * * * * < < > : = a u *                                                       ",
"                            O < > < > < > < o             > < > < < < < :                                                       ",
"                              O > < < > < < O             . * 8 < > < < >                                                       ",
"                              . < < > < < & .               . * < < > < >                                                       ",
"                              . * > > < >                     . < > > < :                                                       ",
"                                  * < < > .                   o < > > < >                                                       ",
"                                  > 8 < <                       . < < 8 >                                                       ",
"                                  . . . .                         . . . .                                                       ",
"                                                                                                                                ",
"                                                                                                                                ",
"                                                                                                                                ",
"                                                                                                                                ",
"                                                                                                                                ",
"                                                                                                                                ",
"                                                                                                                                "
};
