/* XPM */
static char *_9845_3424dd4b9b7760457a23cc76bf2065b5b7d37a48b8c4abdafaf3dd99d47627f0[] = {
/* columns rows colors chars-per-pixel */
"64 64 196 2 ",
"   c #0C0A0C",
".  c #120D0D",
"X  c #0A0E14",
"o  c #0E1117",
"O  c #151214",
"+  c #1A1616",
"@  c #1D1817",
"#  c #15161B",
"$  c #1A1719",
"%  c #16181E",
"&  c #1D1A1A",
"*  c #211D1C",
"=  c #291F1E",
"-  c #2B221E",
";  c #0E1022",
":  c #121523",
">  c #171921",
",  c #1A1B22",
"<  c #12152A",
"1  c #161C2C",
"2  c #191E2E",
"3  c #1E0F34",
"4  c #1E1434",
"5  c #151B35",
"6  c #191F31",
"7  c #161E39",
"8  c #1C1F3E",
"9  c #221F21",
"0  c #210D34",
"q  c #201033",
"w  c #231B3E",
"e  c #1A202F",
"r  c #1A2031",
"t  c #16203B",
"y  c #1B233C",
"u  c #252122",
"i  c #2B2524",
"p  c #23242C",
"a  c #282728",
"s  c #2C2B2B",
"d  c #342521",
"f  c #3B2B24",
"g  c #312E2E",
"h  c #3A2F2D",
"j  c #232532",
"k  c #2D2D32",
"l  c #242739",
"z  c #22293D",
"x  c #2B2E3A",
"c  c #2E323A",
"v  c #353130",
"b  c #343333",
"n  c #3A3735",
"m  c #36393C",
"M  c #3C3C3C",
"N  c #4A2B26",
"B  c #562E29",
"V  c #47352C",
"C  c #4A362C",
"Z  c #5C322A",
"A  c #573C2B",
"S  c #48393A",
"D  c #513D37",
"F  c #63362D",
"G  c #67392E",
"H  c #5D412F",
"J  c #46413E",
"K  c #5F4838",
"L  c #66442F",
"P  c #644532",
"I  c #6B4C38",
"U  c #754334",
"Y  c #734C33",
"T  c #7B4A36",
"R  c #7C533A",
"E  c #171F43",
"W  c #251A40",
"Q  c #172144",
"!  c #1A2243",
"~  c #1E2843",
"^  c #222B42",
"/  c #252847",
"(  c #292F44",
")  c #262F4C",
"_  c #2A3145",
"`  c #26304B",
"'  c #2A344E",
"]  c #2D394F",
"[  c #363946",
"{  c #3A3D42",
"}  c #30374F",
"|  c #34394C",
" . c #2B3450",
".. c #2E3951",
"X. c #323C54",
"o. c #363C55",
"O. c #413E41",
"+. c #3E4041",
"@. c #364156",
"#. c #3A4355",
"$. c #364158",
"%. c #3A445B",
"&. c #3E495E",
"*. c #3F4961",
"=. c #424242",
"-. c #4A4643",
";. c #4C4946",
":. c #46464B",
">. c #4B4A4A",
",. c #534B4A",
"<. c #5A544C",
"1. c #4A4B55",
"2. c #414B5E",
"3. c #514E5A",
"4. c #525153",
"5. c #5C5854",
"6. c #765847",
"7. c #625C55",
"8. c #7B624E",
"9. c #6A655B",
"0. c #424D61",
"q. c #455164",
"w. c #505666",
"e. c #6A6763",
"r. c #6D6A65",
"t. c #686669",
"y. c #6E6D6E",
"u. c #7A736A",
"i. c #787572",
"p. c #7C7B7B",
"a. c #84523A",
"s. c #89593C",
"d. c #93613F",
"f. c #9D643E",
"g. c #895D41",
"h. c #866249",
"j. c #9A6441",
"k. c #966749",
"l. c #886B52",
"z. c #8A725D",
"x. c #9A7457",
"c. c #A36A44",
"v. c #AA6D46",
"b. c #A86E48",
"n. c #AD7149",
"m. c #B57347",
"M. c #B2744A",
"N. c #B6784D",
"B. c #BB794E",
"V. c #B37850",
"C. c #BC7C51",
"Z. c #887867",
"A. c #837E77",
"S. c #C37E50",
"D. c #BB845C",
"F. c #8C8578",
"G. c #948B7D",
"H. c #AA8668",
"J. c #AE9379",
"K. c #C58659",
"L. c #C38C63",
"P. c #C69066",
"I. c #CC9267",
"U. c #CA956B",
"Y. c #C9966D",
"T. c #CD9C73",
"R. c #D7A072",
"E. c #D4A67D",
"W. c #D7A87E",
"Q. c #DAA97E",
"!. c #747886",
"~. c #7F8082",
"^. c #8C8C8B",
"/. c #9B9284",
"(. c #9B9487",
"). c #8A8C92",
"_. c #989899",
"`. c #A39B8E",
"'. c #A8A094",
"]. c #B1A89A",
"[. c #989BA1",
"{. c #ABA9A6",
"}. c #B7B3AA",
"|. c #BCBBBB",
" X c #D5A980",
".X c #DCAD83",
"XX c #DEB187",
"oX c #E1AE82",
"OX c #E4B286",
"+X c #E9B688",
"@X c #C5C5C5",
"#X c #CCCCCC",
"$X c #CECFD0",
"%X c #D3D3D4",
"&X c #DDDDDD",
"*X c #E3E4E4",
/* pixels */
") q.*.&.2.2.2.2.0.2.2.0.*.*.q.&.0.0.2.2.2.2.2.2.2.2.2.2.2.2.2.2.2.2.q.0.0.0.0.0.0.0.0.0.2.2.2.2.0.0.0.2.0.2.2.2.0.0.0.2.0.&.0.0.",
"/ *.&.&.&.&.&.&.&.2.&.&.&.&.&.&.&.&.&.&.&.&.&.2.2.2.2.2.2.2.2.2.O.2.O.0.0.*.0.o.q.O.*.*.0.O.%.*.2.%.%.0.*.&.*.&.&.&.&.&.&.&.&.&.",
"Q ~ ! ` ] ] ] ..] ] ] ] ..] .... .] ] ] ..] ] ] } } ] } } } } } o.} } } } } } } } }  .} o. . . . .]  ... ... .] ] ] ] ]  . .! y ",
"E ! t ` ` ' ' ' ' ' ` ' ' ' ' '  .' ` ' ' ' ' '  .' ' '  . . .'  . . . . . . . .) } } }  . . . .' ' '  .'  .' ' ` ' ' ' ` ' ! t ",
"Q Q ! ) '  . . .' ' ' ` ....' '  . .'  . . .'  . . . . . . . . . . . . . . .}  . . . .}  . .' '  .'  . .'  ... . . . . .' ' Q Q ",
"Q ! ! )  .'  . .' ' ' ` ` ` ` ' ' ' '  .] '  .'  . . .' } }  . . .) }  .} ) ) } _  . . . .' ' ' ' ' ' ` ' ' ` ' ' '  . . .' Q Q ",
"E ! ! ) ' ' ' ' ' ` ' @.....@...' ' ' ' '  .] ' _  . .' /  .'  .} )  .' ' )  .) ' ' ' ' '  .' ' ' ' X.| ..X.] ] ' '  .'  . .! Q ",
"E Q ~ ) ' ' ' ' @.` @.&.&.*.*.@.' ' ' ' ' ' ' ' p u p [ O.[ { { [ , 9 p ) }  . .' ' ' ' ' ' ' ' _ ..2.&.%.q.$.` ' '  . . . .! Q ",
"Q Q Q ) ' ' '  .` ` @.&.&.q.&.#.' ' ' ' ' ' _ z * i s =.=.-.=.=.O.,.b w )  . .'  .' ' ' ' ' ' ] z @.q.&.&.*.$.` ` ] ' '  .' Q E ",
"Q Q Q ) ' '  . .] ` @.&.&.&.&.%. .`  .' ' ' j u & b =.+.+.+.=.M ,.%Xi.  (  . .' ' ' ' ' ' ' ' ' _ @.&.&.&.&.&.' ' ' ' '  .' ! E ",
"Q Q Q ) ' ' ' ' ] ` @.&.&.&.*.%. .`  . .'  .j & & b -.M =.+.+.M >.%X{.9.}  .' '  . . . . . . .' ` @.&.q.q.q.%.' ' ' ' '  . .! ! ",
"Q Q Q ) ' '  .' ` ' @.@.%.@.@.@.' '  . .' ] p - & s M +.+.J J M >.{.(.u.| ( ( ' ' ' ' '  .)  . .` ] @.$.$.$...' ' ' '  . . .! E ",
"Q Q ~ ' ` '  . .' ` ~ Q y t t ` )  .' ' ) ' j 9 * & * =.=.=.J =.M & + @ & * & ' ' ' ' ' ' ' ' ' ' ` t t y t ~  . . . . . . .Q Q ",
"Q Q Q ) ' '  . .' ..` t y t t ~ ' ' ' ' ' ' j * $ & & s a a +.=.=.b b b b n b p j ' '  .' ' ' ' ] ` t t t Q ~  .' )  .)  .) Q Q ",
"! Q ! ' ' ' ' ' ' ' ' ` ` ` ` @.' ' ' ] '  .j d f d - & & a n m m M M M M M b & > ^ ' ' '  .' '  .' ` ` ) ` ` ' ' '  . . . .Q Q ",
"! Q Q ) ` ' ' ' ' ' ` ' ` ` ` `  .' '  .' ' S U M.a.B O k M # $ * * $ # & & @ s j ^ ' ' ' ' ' ' ' ' ' '  .) ' '  .'  . . . .Q Q ",
"! ! ! `  .'  . .' ' ' '  .' ' ' ' '  .' '  .S U N.a.Z R s.h.s.V o O C R n b s 9 e ^ ' ' ' ' '  .' ' ' ' ' ' ' ' ' ' ' ' ' ' Q Q ",
"Q ! ! ` ' ' '  . .`  .'  . .' ' ' ' ' ' ..0.O.F c.T G v.n.m.S.Y i - R C.J +.b O + y ' ' '  .' ' ' ' ' ' '  .' ' ' ' ' ..' ' Q Q ",
"Q ! ! ` ' ' ' '  . .)  .' ' ' ' ' ' '  .2.*Xe.+ G F F B s.M.n.n.v.v.n.c.- & & O % e ^ ] ' ' ' ' ' ' ' ' ' ' ' ' ' ' ' '  . .Q Q ",
"t ! ! ` ' ' '  .`  . .' ' ' ' ' ' ' ' y x t.h * d N F Z s.N.v.D.T.U.T.D.i & $ > e r ~ '  .' '  .' ' ' ' '  .' ' ' ' ' ' '  .Q Q ",
"Q ! Q ) ' ' ' ' ' ]  . .' ' '  . ...0.c = + & * # V F Z a.v.v.L.Q.XX.XT.d & & e e e ~ ]  .' '  .' ' '  .' .. .' ' ' ' ' ' ) Q Q ",
"! Q ! ) ' ' ' ` ' ' ' ' '  .' '  .%.*Xy.s O.a + $ N F F Z G M.n.M.XXP.f.- & & e e e y ' ' '  .' ' ' '  .' ' ' ' ' '  .' ' ' Q Q ",
"Q ! Q ' ' ' ' '  .' '  .' ' ' ' !.[.i.^.^.=.n g & h D d N G T j.N.K.U.U.i & $ e r r ^ ] '  .'  ...' ' ' ' '  . .' ' ' '  . .Q Q ",
"Q ! Q ) ' ' ' ' ' '  .' ' ' ' ] [.|.m _.|.O.=.M & g M e N Z N Y c.f.D.J.i & & 1 e r ^  .' ' ] ' ' '  .' ' ' ' ' ' '  .'  . .Q Q ",
"Q Q ! `  . .)  .' ' ' '  .' ] =.{ 5.*Xp.m J =.+.& v -.+.s * * - - 9 - 9 & * $ O % r z ' ' '  .' ' ' ' ..' ' ' ] ' ' ' ' ' ` Q Q ",
"! Q Q )  .)  .' '  . .'  .| [ a k :.~.4.b +.b a & i g -.g @ * & & $ & & & * @ O % y ' '  .' ' ' ' ( e _ :.y.] ' '  .' ..' ' Q Q ",
"E Q Q '  .' '  .'  .' ' ' +.-.- J >.M -.;.;.s + & @ 9 +.s @ * * * 9 & * & * * + % ^  . .' ' '  .X.[ b =.r.].w.%.$.%.$.@.' ' Q Q ",
"! ! Q )  .' ' ' ' ' '  .' _ <.E.E.E.E.W.T.m.C X & + O & $ O O O O . . . O O . . o ~ '  .]  . .' A.}.%X(.'.%X$X$X#X%X|.~.) ' ~ Q ",
"E ! ! )  . .'  . .' ' ' ' ,.x.OX.X.XQ..XQ.U.k.A s ;.5.g -.7.5.5.7.~.~.~.7.r.F.t.4.y.).!.t.c x [ ;.e.^.9.A.}.^.^.}.^.F.F.t ~ Q Q ",
"E ! E )  . .' )  .' ' ] | k.K.E.Q.Q.E.W..XOXI.n.;.u.G.-.r.(./.(.`.@X#X#XG.{.%X#X{.#X&X|.G.s s -.@ & b k <.F.M >.G.J -.u.e e t Q ",
"! ! ! )  . .'  .'  . .q..XD.b.n.T.W.v.Y..XW.W.E.W.D.c.m.H o b t.F.9 k +.{ { +.{ r.'.'.i.M u @ # O O # O & u M >.>.+.J m t e 5 Q ",
"E ! !  . . .' '  . . .3.+XD.v.v.D.L.v.U..X.X.X.XXXT.D.U.x.8.z.H.'.8.6.R z.z.z.4.<.<.<.J s % f I 8.8.P 8.K O a g s g s e e e 5 Q ",
"! Q Q )  .' '  . . . .3..XD.v.n.v.v.v.U..X XQ.Q.Q..XXX.XOX+X+XQ.Q.+XI.M.Q.Q.Q.Z.=.  O + & & P S.Q.R.m.+XH.O & & & & & + e e 7 Q ",
"! ! Q )  .' ' ' '  . .:.K.N.n.n.n.n.v.T.OXXX.XoXXX.XXX.X.XXX.XXXQ.D.n.n.D.D.B.Z.-.+ # O $ g.n.n.M.M.n.+XH.O & & & & u b r e 7 Q ",
"E ! Q ) )  .' '  .'  .| 6.k.N.n.n.n.v.D.U.P.P.P.P.P.P.P.P.P.P.P.K.M.m.b.I L L J s & H L P b.M.n.n.m.m.l.K $ s v v - - M e 6 5 Q ",
"E ! E )  . .' '  .'  . . .6.V.n.n.n.n.c.c.c.c.c.c.c.c.c.c.c.c.c.c.v.b.c.- # & & * - b.D.B.n.n.n.v.v.v.- o & M M M e 9 s e e 7 Q ",
"! ! !  .)  . . .' '  .'  ...1.C.B.N.S.H * - i i - n ;.J -.J ;.n - - v -.b I b.k.c.j.n.n.n.n.M.B.f * = & @ $ y e e e e r r e 7 Q ",
"E ! E )  .' ' '  .'  .' ' ' | 6.I Y Y f # & & & @ g =.+.+.+.b u $ a n +.+.6.N.V.M.M.n.n.f.d.R H , % % % > > 2 r r r r r y y Q Q ",
"E ! ! )  .' ' '  .' ' ' ' ' ' ' 1 # % % * * * * $ b =.M +.M & & * +.+.+.M 6.N.n.n.n.n.j.L Y J e r r r e r r r r y z ~ ' ' ' Q Q ",
"! ! ! )  .' ' ' ' ' ' ' ' ' ' ' _ ( * * & * * * & * u - - & & & & - - 9 # L N.n.n.n.n.d.Y s r r r r y z z z ^ z ' ' ' ' ' ' ! Q ",
"E ! E  . . . .) ' ' ' ' ' ' ' ' ' _ * * * * * * & & & & i s g u & * & * o K B.M.M.n.f.H V r r r y ~ '  .' ' ' ' ' ' ' ' ' ` Q Q ",
"Q Q E )  . . . .' ' ' ' ' ' ' ' ' ` * & * & & * - & & & b -.-.k & & * * o H d.s.s.s.Y V r r y z ` ' ' ' ' ' ' ' ' ' ' ' ' ' ! Q ",
"Q Q !  .) '  . .' ' ' ' ' ' '  .j u * * * * * 9 M s @ & b =.=.J M * $ @ & * j k r k j e r ^ ' ' ] ' ' '  .' ` ' ' ' ' '  .) ! Q ",
"Q Q !  . . . . .' ` ' ' ' '  .' p * * * * * & u =.n a & a b b m +.s s s & > e r y z z z ' ' ' ' ' ' ' '  .' ' ' ' ' ' '  .' ~ Q ",
"Q Q Q )  .)  . .' ' ' ' ' ' ' ' e 9 9 & * * * - =.=.+.* & @ @ g J +.=.+.- % e r ] ]  .' '  .' ' ' ' ' ' ' ' ' ' '  .' ' ' ) Q Q ",
"! Q Q )  . . . .' ' ' ' ' ' ' ' a - & & * m M b & b =.& s M m +.=.+.J +.M e O y ' ' ' ' ' ' ' ' ' ' ' ' ' ' ' ' ' '  .' ' ) Q Q ",
"E ! Q )  . . .' ' ' ' ' ' ' ' ` p 9 9 u k +.=.M s g b & b -.=.M n +.J +.n a @ y ' ' ' ' ' ' ' ' '  .' ' ' '  . . . . .'  . .~ Q ",
"E ! Q ) ' '  .) ` ' ' ' ' ' ' ' p 9 & b -.S =.=.-.s O $ v =.+.s & M =.+.@ i s z ' ] ' ' ' ' ' ' ' ' ` '  .' ` ' ` '  .)  . .Q Q ",
"! ! !  .' ' ' '  .' ..@.@.$.] u & * * - u =.=.=.-.g @ * - u u - e -.g - n +.+.+.| ' '  .' ' ' ' ] ] @.@.&.@.@.` ..' ' ' ' ' Q Q ",
"E ! ! ) ' `  .' ' ` $.*.*.0.o.9 * * * @ - b b b n p & & & & & & * b s a +.=.M >.{  .' ' ' ' ' ' ' ..*.*.*.*.@...` ' ' ' ' ` Q Q ",
"! ! ! ) ' '  . .' ' $.0.*.0.#.* * * * * & @ & @ & & * * * * * * * + s :.+.m a b [ '  .'  .` `  .` @.&.&.*.*.@.] ' ' ' ' ' ' Q Q ",
"E ! ! ) '  . .) ' ' $.*.0.*.#.* & * * * & 9 & 9 - * * & * & & & @ @ 9 - - g s & , y '  .'  .' ' ` @.*.*.*.*.@.` '  .' ' ' ' ~ Q ",
"! ! !  .)  .' ' ' ' $.*.0.&.#.- & & - e - & & u e O % # # # # O O . @ * @ a a O % r ^ ' ' '  .' ] @.&.&.&.*.@.`  .' ' '  . .Q Q ",
"E ! E )  . .' ' ' ] ] ] ] ] ] & & & & & & * * & e e r r r r e , O O & * * * @ O % r ~ ] ' ' ' ' ` ` ] @.@.@.@.] ' ' ' ' ' ) Q Q ",
"E Q !  . .' '  .' ' ~ y y t r ^ p - & u & & & O e r r r y y y e e @ * * & & @ O , r z ' ' ' ' ] ] ^ y t 6 t ^ ` ' ' ' '  . .Q Q ",
"Q Q !  .' ' ' ' ' ' ` y y ~ t ` r - * & & u , > e r y _ ] ` ] ] ] a e * 9 & + O , r z ' ' ' ' ' ' ` y y t t ^ ' ' ' ' ' '  .Q Q ",
"! ! Q ) ' ' ' ' ' ]  .'  .` ' ` p 9 & * * & , r 6 l ' ' ' ' ' ' ' ' l - & * $ O , 6 z ' ' ' ` ] ' ' ' '  .) ' ] ' ' ' ' ' ' Q Q ",
"! ! ! ) '  .' ' ' ' ' ' ] ' ' ' ( x & * * & > r r ' ' ' ' ' ' ' ' ] r - * * + O , 6 ^ ' ' ' ' ' ' ' ' '  ._ ' ' ' '  .' ' ) Q Q ",
"E Q Q )  .' ' ' ' '  .' ' ' ' ' ' _ * & * & > r z ] ' ' ' ' ' ' ' ' x p * & O O % 6 z ] ' ' ' ' ' ' ' ' ' ' ' ' '  .' '  . .Q Q ",
"! Q Q )  .'  . .' ' ' ' '  .]  . ._ $ + $ + > y ) '  .' ' '  .' ' ' ' ' & + . O % 6 ^  .'  . .} ' }  .'  .'  .} '  .' '  ...Q Q ",
"! y ! ^ ) ` ( ) ) ) ' ` ` ` ` ` ` ^ 6 1 6 2 5 l ) / ) ) ) ) ) ` ) / ) / e 1 ; 1 6 y ( ) ) ) ) ` ` ) ) ) ) ) ) ` ) ` ) ) ~ ) Q Q ",
"! 8 E / 8 l 8 y 8 8 w E Q ! ! ! W E 5 < < < < 8 E / w ! ! W / E E z ! E 1 < ; : < 4 ! 8 E ! ! ! 8 y W E y ! ! ! E 8 y y ! ! 8 E ",
"w w w w w w w w w w W W W W w w W W w 4 4 4 w W W W W W W W W W W W W W w 4 5 4 q w W W w w W W W W w w W W W W w w w w w w w w ",
"w 3 3 3 q q 0 3 3 0 0 0 0 0 0 0 0 0 0 0 0 0 0 0 0 0 0 0 0 0 0 0 0 0 0 0 0 0 0 0 0 0 0 0 0 0 0 0 3 0 q 0 0 0 0 0 0 0 3 3 3 3 3 4 "
};
