/* XPM */
static char *_616_57c5c0c243eace7466838c4522e14512e2c98e219837a80937588769f1fdf48e[] = {
/* columns rows colors chars-per-pixel */
"32 32 110 2 ",
"   c #000000",
".  c #080706",
"X  c #080807",
"o  c #060609",
"O  c #0D0C0B",
"+  c #110E0D",
"@  c #180E0A",
"#  c #12100D",
"$  c #0F0E11",
"%  c #100E12",
"&  c #141312",
"*  c #181716",
"=  c #17151B",
"-  c #1A171A",
";  c #1E1D1D",
":  c #211E1E",
">  c #24221E",
",  c #1A1924",
"<  c #201E2D",
"1  c #252424",
"2  c #282624",
"3  c #2A2927",
"4  c #252229",
"5  c #29262A",
"6  c #2C2B2C",
"7  c #3C2924",
"8  c #35322F",
"9  c #3C3028",
"0  c #272534",
"q  c #2A2635",
"w  c #2E2C33",
"e  c #332F34",
"r  c #332E3A",
"t  c #333232",
"y  c #3A3634",
"u  c #3A3937",
"i  c #34333C",
"p  c #38353E",
"a  c #3B3A3B",
"s  c #433128",
"d  c #4E382C",
"f  c #5C3D2C",
"g  c #483836",
"h  c #40353E",
"j  c #4C3E39",
"k  c #564236",
"l  c #54463F",
"z  c #5B493B",
"x  c #644837",
"c  c #774936",
"v  c #72523C",
"b  c #332F4B",
"n  c #343344",
"m  c #383642",
"M  c #3A354C",
"N  c #3B3B4A",
"B  c #3D3A52",
"V  c #413C55",
"C  c #443E5B",
"Z  c #414243",
"A  c #42414C",
"S  c #4B484A",
"D  c #59444B",
"F  c #514E4A",
"G  c #424356",
"H  c #44465E",
"J  c #46495B",
"K  c #515150",
"L  c #575857",
"P  c #715F50",
"I  c #6B675E",
"U  c #464163",
"Y  c #4B4664",
"T  c #494C64",
"R  c #4C4E6C",
"E  c #50496E",
"W  c #4A5066",
"Q  c #50546E",
"!  c #5C5C69",
"~  c #525073",
"^  c #535C76",
"/  c #555C7A",
"(  c #8B573D",
")  c #876146",
"_  c #876056",
"`  c #8E6251",
"'  c #8F6E55",
"]  c #986D53",
"[  c #A67553",
"{  c #8A847B",
"}  c #BD8B63",
"|  c #D79361",
" . c #DB9A67",
".. c #C39870",
"X. c #D69F73",
"o. c #595981",
"O. c #5B6585",
"+. c #5C6988",
"@. c #7C778B",
"#. c #646F95",
"$. c #68739D",
"%. c #97958E",
"&. c #86869D",
"*. c #8D9092",
"=. c #A59F95",
"-. c #ABA59F",
";. c #979EB6",
":. c #B4B2AF",
">. c #D6AB81",
",. c #C5C3C1",
/* pixels */
"                                                                ",
"                                                                ",
"                                                                ",
"                                                                ",
"                                                                ",
"                        X 2 3 1 ; .                             ",
"                      . w { ,.=.-.:.;                           ",
"                      8 F I %.*.S :.6                           ",
"                    + Z 8 j x f 7 * .                           ",
"                % n B 3 g ( v [ k .                             ",
"                b &.;.n : c } >....                             ",
"                b @.! N : 2 y y x X                             ",
"                M U W N : 6 Z t w t ; ; O X   X                 ",
"                = R R G Q N 5 6 1 u t t 6 t 6 u O . -           ",
"                * N C ~ #.H p l 9 3 t 3 w 6 6 t t e u O         ",
"                < 2 e V V b _  .X.z 0 1 s ) P 6 t t u ;         ",
"                & : > 1 S Z d ] ' e C n ` | [ # O ; , *         ",
"                $ N i 2 L K , Z t q Y M r D @                   ",
"              X t m U i 6 8 w 3 i T r 1                         ",
"              O 2 1 m J T B T e Q W A t .                       ",
"              , M E #.T t q 1 1 u G +.+.4                       ",
"              < E J ^ $.n     . w o./ h 6                       ",
"            o n 6 u t G q       X 5 r t u X                     ",
"            . V n 2 a r         o n B q ; .                     ",
"              4 ~ O.T ,           n o.C &                       ",
"              X r N O             * i -                         ",
"              ; t O               6 3 .                         ",
"            O t 3 O               > t 3 O                       ",
"                                                                ",
"                                                                ",
"                                                                ",
"                                                                "
};
