/* XPM */
static char *_499_dcb34844591cd6804dbf34c4937e59734f6864b373dc5e078ce5382a8cde6069[] = {
/* columns rows colors chars-per-pixel */
"64 64 196 2 ",
"   c #0F1319",
".  c #151414",
"X  c #1A1715",
"o  c #15161B",
"O  c #1B1719",
"+  c #15181E",
"@  c #1D1B1B",
"#  c #211E1D",
"$  c #23201E",
"%  c #32251F",
"&  c #171A21",
"*  c #1B1C23",
"=  c #191E2C",
"-  c #1E0F34",
";  c #1A1B33",
":  c #1C1F3E",
">  c #211F20",
",  c #210D34",
"<  c #201033",
"1  c #231B3E",
"2  c #1F2125",
"3  c #1B202F",
"4  c #1B2132",
"5  c #16203C",
"6  c #1B233D",
"7  c #1F283C",
"8  c #252223",
"9  c #292625",
"0  c #24242C",
"q  c #29262A",
"w  c #292828",
"e  c #2C2A2B",
"r  c #392824",
"t  c #312E2E",
"y  c #32312F",
"u  c #242633",
"i  c #2A2734",
"p  c #252834",
"a  c #2D2B34",
"s  c #22263B",
"d  c #22293D",
"f  c #2B2C3C",
"g  c #312D35",
"h  c #322F3A",
"j  c #2C313C",
"k  c #343333",
"l  c #383737",
"z  c #34333B",
"x  c #3A373C",
"c  c #36393D",
"v  c #3C3B3B",
"b  c #49362B",
"n  c #5A392D",
"m  c #443632",
"M  c #523D31",
"N  c #5D3D31",
"B  c #623A31",
"V  c #40403E",
"C  c #5D4231",
"Z  c #69452F",
"A  c #6A4537",
"S  c #724837",
"D  c #795237",
"F  c #7B543B",
"G  c #171F43",
"H  c #251A40",
"J  c #172144",
"K  c #1A2243",
"L  c #1E2843",
"P  c #232B43",
"I  c #252847",
"U  c #2C2D41",
"Y  c #262F4C",
"T  c #312E44",
"R  c #273045",
"E  c #2C3246",
"W  c #26304B",
"Q  c #2A344E",
"!  c #2E394F",
"~  c #353343",
"^  c #393545",
"/  c #353943",
"(  c #3A3D43",
")  c #30374F",
"_  c #3B364B",
"`  c #353B4B",
"'  c #3B3A4B",
"]  c #2B3450",
"[  c #2E3951",
"{  c #323C54",
"}  c #3E3951",
"|  c #353B58",
" . c #3B3C5B",
".. c #423E4B",
"X. c #413C55",
"o. c #433F5A",
"O. c #433D61",
"+. c #3E4247",
"@. c #364156",
"#. c #364158",
"$. c #3A455B",
"%. c #3E495E",
"&. c #3F4961",
"*. c #444444",
"=. c #4A4442",
"-. c #434449",
";. c #4E414C",
":. c #46484A",
">. c #4A4A49",
",. c #54514E",
"<. c #434454",
"1. c #45415C",
"2. c #49435D",
"3. c #414B5E",
"4. c #4E505B",
"5. c #545252",
"6. c #5B5A59",
"7. c #6A5445",
"8. c #755648",
"9. c #725E59",
"0. c #676059",
"q. c #6A655E",
"w. c #464361",
"e. c #4A4464",
"r. c #424D61",
"t. c #4B4B66",
"y. c #474568",
"u. c #4C4768",
"i. c #4E4A6C",
"p. c #524C6E",
"a. c #455164",
"s. c #4C5165",
"d. c #4D536C",
"f. c #56556A",
"g. c #514D71",
"h. c #525374",
"j. c #515973",
"k. c #555B7B",
"l. c #57617C",
"z. c #646567",
"x. c #726C64",
"c. c #7C766C",
"v. c #636770",
"b. c #8D5E40",
"n. c #9B6545",
"m. c #996848",
"M. c #8D6D59",
"N. c #A86B46",
"B. c #A56C49",
"V. c #AA714B",
"C. c #B5744B",
"Z. c #A67A5A",
"A. c #B77A51",
"S. c #805F61",
"D. c #837666",
"F. c #8B8377",
"G. c #908778",
"H. c #938B7D",
"J. c #A98367",
"K. c #B88E6B",
"L. c #B9916D",
"P. c #BD9572",
"I. c #C4885B",
"U. c #D0986D",
"Y. c #CB9E76",
"T. c #CCA17A",
"R. c #D7A67B",
"E. c #545D81",
"W. c #5B5E83",
"Q. c #5B6587",
"!. c #5C6586",
"~. c #5E668A",
"^. c #5E6A8B",
"/. c #616C8F",
"(. c #77728A",
"). c #626F92",
"_. c #647295",
"`. c #667399",
"'. c #68769D",
"]. c #9B9284",
"[. c #949089",
"{. c #A29B90",
"}. c #8E94A8",
"|. c #A9A7A4",
" X c #B4AFA9",
".X c #A3A7B4",
"XX c #BBB9B7",
"oX c #DDAC81",
"OX c #E3AF81",
"+X c #E4B386",
"@X c #E4B488",
"#X c #CFBAAD",
"$X c #F4C090",
"%X c #C3C3C1",
"&X c #CCCBCA",
"*X c #D3D3D4",
/* pixels */
"Y a.&.%.3.3.3.3.a.3.3.a.&.&.&.&.r.r.3.3.3.3.3.3.3.3.3.3.3.3.3.3.3.3.3.3.3.3.3.3.3.r.3.3.3.3.3.3.3.3.3.r.r.%.3.3.3.3.r.%.r.%.r.r.",
"I &.%.%.%.%.%.%.%.%.%.%.%.%.%.&.%.3.%.%.%.%.%.3.3.3.%.3.%.1.3.3.%.3.%.1.3.3.3.%.3.1.3.3.3.%.%.3.%.%.%.%.&.%.&.%.%.%.%.%.%.%.%.%.",
"J L K W ! ! ! [ ! ! ! ! Q @.@.! ! Q ! Q [ ! ! ! ) ) ) ) ) ) ) ) ) ) ) ) ) ) ) ) ) ) ) ) ) ) ] Q ] Q ] [ ] [ [ ! ! [ ! [ ] Q K 6 ",
"G K 5 W W Q Q Q Q Q W W Q Q W W Q Q Q Q Q Q Q Q ) Q Q Q ] ) Q Q Q Q Q ) Q Q Q Q ] T ] ] Q Q Q Q Q Q Q Q Q ] Q Q Q Q Q Q Q Q K 5 ",
"J J K Y Q ] ] ] Q Q W W Q Q Q Q ] ] Q ] ] ] Q Q Q ] ] ] ] ] ] ] ] ) ] ] ) ] ] ] ] ] ] ] ) ] Q Q ] Q ! ] Q ] Q ] ] ] ] ] Q Y J J ",
"J K J Y Q Q ] ] Q W @.W Q Q Q Q Q Q Q ] Q Q ] Q ] ] ) ] ] ] Q Q ] Q ] Q Q ] ] ] Q Q ] ] ] ] Q Q Q Q W Q Q Q Q Q Q Q ] ] Q Q J J ",
"G K K Y Q Q Q Q Q W Q @.Q @.@.Q Q Q Q Q Q ] ! Q ] W Q Q ] Q Q Q Q Q ] Q Q Q E ] Q Q Q Q Q Q Q W Q Q { ! ! [ ! ! Q Q ] ] ] ] L G ",
"G J L Y Q Q Q Q Q W @.%.%.%.%.@.Q Q Q Q Q ! Q Q ] ] W > h x z l c ^ ^ > * Q W I ] Q Q Q Q Q W ! W ` 3.%.%.a.#.W Q Q ] ] ] ] K G ",
"J J J Y Q Q Q ] W @.@.%.%.%.a.@.W Q Q Q Q Q Q Q Q R f w >.0.z.z.6.,.6.,.4.j.c 7 d Q Q Q Q Q Q Q R @.3.&.&.&.$.! W Q Q Q ] Q J J ",
"J J J Y Q ] Q ] Q P @.%.%.%.%.%.Q Q Q Q Q Q Q Q Q 0 w ( c.|.*X*X|.G.H.%X*X%Xx.V 7 ! Q Q Q Q Q Q R @.%.&.%.%.$.W Q Q Q Q ] Q J J ",
"J J J Y Q Q Q Q Q W @.%.%.%.&.%.] Q ] Q Q [ Q ] 8 e l *.c.].{.&X&X XH.{. X*X|.4.; P Q Q ] ] ] Q R @.&.a.3.a.$.W Q Q Q ] ] ] K J ",
"J J J Y Q Q ] Q Q Q @.@.@.@.@.@.Q Q ] Q Q Q Q Q X >.q.t c.].[. X&X%Xx.q.[.#X*Xv.4 P Q Q Q Q ] ] W @.@.@.@.$.[ ] Q Q Q Q ] ] K J ",
"J J J ] Q Q Q ] Q W L 5 7 5 5 W Q Q Q Q Q Q W R 8 0.F.@ x.[.D.D.|.|.l k 5.H.%Xv.4 d Q Q Q Q Q Q W W 5 5 5 5 L ] Q ] ] Y ] Y J J ",
"J J K Q Q Q Q Q Q Q Y 5 5 5 5 L Q Q Q Q Q Q f 8 G.0.@ # x -.-.0 8 > * > 9 8 8 & 4 d Q ] Q Q Q Q Q W 5 5 5 J L ] Q ] ] ] ] Y K J ",
"J J K Q Q Q Q Q Q Q Q W W W W Q Q Q Q Q Q 0 9 8 =.k # l m 7.b.b.D D b.n r . o = 4 W Q Q Q Q Q Q ] W W W Y Y Y Q Q Q ] Y ] ] K J ",
"5 K J Y Q Q Q Q Q Q Q Q Q Q Q W Q Q P f | z a 8 9 w e =.B F b.b.B.C.b.N r   4 P Q Q ] Q Q Q Q Q Q Q Q Q Q Q Q Q ] Q ] ] ] Y I J ",
"K K K Q Q W Q ] Q Y Q Q ] ] Q Q Q Q q e u.i. .$ ..*.V n N.b.& o D n.2 9 2 4 7 Q Q ] ] Q Q Q Q Q ] Q Q Q Q Q Q Q Q Q Q Q Q Q J J ",
"J K J Y Q Q Q Q Q Q Q Q ] ] Q ] Q &.e.e.E.Q.h.X.e 9 r n N.B.n.L.Y.Y.P.T.M.4 7 ] Q Q Q ! Q ] Q Q Q Q Q Q Q Q Q Q Q Q Q Q Q Q J J ",
"K K 6 W Q Q Q Q Q Q Q ] ] Y ] Q Q r.i.p.}..X}.h.q # # b A N.A.OX@X+X@X$XJ.4 7 ] ] Q Q ] Q Q Q Q Q Q Q Q Q Q Q Q Q Q Q Q Q Q J J ",
"J K K Q Q Q Q Q Q Q Q Q Q ] Q Q Q y.y.g.&X&X.X/.z 8 > * r B B.L.P.P.P.oXM.4 7 Q ] Q Q ] Q Q ] Q Q Q Q Q Q Q Q Q Q Q Q Q ] ] J J ",
"K J J Q Q Q Q Q Q W Q ] ] Q Q Q Q e.u.f.*X(.i.`.g.~ $ 8 8 9 $ 9 8 8 > n.A 3 7 Q Q ! Q Q Q Q Q Q Q Q Q Q Q Q Q Q Q Q Q Q Q Y J J ",
"K J J Y Q Q Q Q ! Q ] Q Q Q ] ] Q e.u.u.(.' 9 z a q 8 8 @ w l l l v l m r @ W Q Q ] Q Q Q Q Q Q Q Q Q Q Q Q Q @.Q Q Q Q Q Q J J ",
"K K J Y Q Q Q Q Q Q Q ] Q ] Q Q Q e.i.e.O.' / / h q $ 8 w l *.*.v l l e e t ( j p p p R Q Q Q Q Q Q Q Q Q Q Q Q Q Q ] Q ] ] J J ",
"J J J Y Q Q W Q Q ] Q Q Q Q Q Q Q w.u.e.w.!.`._.h.~ $ 8 v *.V *.y > 2 v *.*.>.y 8 w e 0 ! Q ! Q Q Q @.W Q Q ] Q Q Q Q Q ] ] J J ",
"K J K Y ] Q Q Q Q Q Q Q Q ! Q Q Q 8 ^ u.e.!.~.i.9 h o.# $ $ 9 *.*.V *.w 8 9 *.e w *.*.k 8 *.>.+.Q @ c *.Q ] ] Q Q Q Q W Q Q J J ",
"J J J Y ] ] Q Q ] Q ] Q ] Q Q Q Q p ' p.e.h.u.g $.d.k.2.s.' # e y k y 9 w l *.e 8 y k e 8 k k k -.k *.*.-.! Q ] 3 +.+.Q Q Q J J ",
"G K K Q Q Y Q Q Q ] Q Q ] Q ] W Q W } 2.e.e.} q !.`._.`.`.i.# i 8 $ $ # e *.*.k q 9 # 8 w 9 9 a *.v v v *./ ` / 0 V V d Q Q J J ",
"J J J Y Q Q Q Q Q Q Q ] Q ] ] ] Q 8 8 9 e.u.e.e./.)./.).g.^ # y.E @ @ 8 8 9 *.*.*.*.9 k >.=.*.l # $ $ 8 8 v >.*.+.:.v 7 W Q L J ",
"G K J ] ] ] Q Q ] Q Q ] Q Q ] Q Q 8 k v e o.p.i.t.p.p.g.z a 2.m.J.L.L.B.n   9 9 9 e 8 9 w 2 2 0 z v v V v e w w 9 9 t c = L K J ",
"G K J Y ] ] Q ] ] Q Q ] Q ] ] ] Q 8 e l # h ' ^ 2.u.e.u.^ _ p.B.I.R.@XU.Z.7.8 a g # 8 # $ C C S D.l k l l k e y t t k w = L K J ",
"K K K Y ] ] Y ] Q Q Q Q Q Q ] ] Q 9 8 # 8 # # # X.w.1.1.y.y.2.B.N.C.R.R.oXY.% | o.# 9 % b C.A.U.oXm $ # @ l *.*.*.*.v @ 3 7 K J ",
"G K K ] Y ] ] ] Q ] ] Q ] Q ] ] Q 8 9 8 8 8 8 $ 9 9 > O > > 9 N.A.C.N.A.F $ $ ' X.#  .9.C.V.Y.K.m.R.M.= 3 . @ 8 8 $ w e 3 P J J ",
"G J J Y ] Q Q Q Q ] ] Q ] Q Q Q Q f 9 $ $ # e ( 9 w +.{.5.t l M b 7.#X7.r 2 ` 2.e._ a ;.S.C.V.D A 7.l ; 4 * & & + & 2 0 7 I J J ",
"J J J ] ] Q Q Q Q Q Q Q Q Q ] ] Q ] f z g 9 e m $ p 6.XXz.v v * @ +.|.c + 9 e.i.u.i.g U X.8.N B Z 4 4 4 4 6 6 3 4 4 4 4 W Q J J ",
"J J J Y ] Q Q Q ] Q Q ] Q ] Q Q Q Q O.g.i.h # > $ k *.v *.l 8 8 l V . 8 8 q w.e.e.e.i.i . U T s 4 7 7 W ! Q Q 7 4 7 7 W Q Q L J ",
"G K J Y Y Q Q Q [ Q ! ] Q Q Q Q Q -.x q u.e.o.o.9 y :.*.*.*.m 8 l *.V V ..X.q 8 t :.) 4 * s P s W Q Q ] Q Q Q ] Q ] Q Q Q ] J J ",
"J K K ] Q Q Q Q Q ] Q Q Q Q ] W 0 *.V k z o.g.e.9 9 y y t g y $ e k k e <.k.^ ~ z y c 0 4 d ] Q Q ] ] Q Q ] Q Q Q Q Q Q Q Q J G ",
"G K G Y Q Q Q Q Q Q Q ] ] Q Q f 9 l +.v # ^ e.e.z e u q q e e g 9 # 0 9 <.`.u.u.} # =.p 4 d Q Q Q Q Q Q Q Q ] Q Q Q Q Q Q Q J J ",
"G K J ] Q Q Q Q Q Q Q ] Q Q Q d 9 $ $ 9 > # 9 *.!.`.~.e.e.h._.'.+.q e.~.`./.>.V l # 9 8 4 d Q Q ] ] Q ! ] Q Q ] Q Q Q Q ] ] J J ",
"G J G Y ] Q Q Q Q Q Q Q Q Q Q f $ $ @ $ _ s.d.<.z -.4.i.z ' h.' q i i.4.4.:.$ 4.l.d.1.f 4 4 Q Q Q Q Q ] Q Q Q Q Q Q Q Q Q ] J J ",
"K K G ] ] ] ] ] ] Q Q Q ] Q ] W z h h z g.^./.g.` k k ..9 q _ 8 # e } k v -.~ k.`.`.W.i.s ; d Q Q Q Q Q Q Q Q Q Q Q Q Q Q Q J J ",
"G K G Y ] ] ] ] Q Q ] Q Q Q Y | i.i.u.g.).).).).'.3.# # > # # # # # # @ h p.).)./.~.).W.} 4 d Q Q Q Q Q Q Y Q Q Q Q Q Q ] Q J J ",
"J J K ] ] Q ] Y Q Y Q Q Q Q Q | e.e.e.g.).`._.^./.k.~ O o = = = ; * X i  .u.).`.j.8 *.c * 4 4 Q ] ] Q Q ] Q Q Q Q Q Q Q Q ] J J ",
"J J K ] ] ] ] ] Q Q Q Q Q Q ] { i.i.X.z s.<.r.`.`.g.f & = ; ; 4 4 4 * > } i.h.).l.y V v e @ = P Q ] Q Q Q Q Q Q Q Q Q Q ] ] J J ",
"G K J Y Y ] ] Y Y Q Q Q Q Q {  .X.1.z 9 V w k l.~.w.f 4 4 3 4 7 7 W Q # k 1.} d.d.v -.:.+.$ & 4 Q Q W Q Q Q Q Q Q Q Q Q Q Y J J ",
"J J J Y ] ] ] ] Q Q Q Q Q Q y.e.$ # g >.V =.l # } T f ; 4 d W ] Q Q Q ] u 9 $ # $ $ m *.v 9 * 4 L Q ] ] Q Q Q Q Q Q Q Q Q Y J J ",
"K K J ] Y Q ] ] ] Q Q ] Q Q u.g.X.9 $ e *.>.l # > * s 4 W Q Q Q Q Q Q Q 0 $ @ ^ ' # 9 w w w 3 4 6 Q Q Q ] Q Q Q Q Q ] Q ] ] J J ",
"K G J Y ] ] ] Y Q Q Q W Q Q ^ X.i.` q # k k k a 0 2 4 W Q Q ] Q Q ] ] Q ~ ^ z 1.2.z 8 $ 8 8 * 4 7 Q Q Q ] W Q Q Q Q ] Q ] ] L J ",
"G J K ] Q Q Q Q ] Q { { #.#.2 e e.i.} 9 w 9 a U ) s P ] ] Q Q Q ] Q Q ] o.p.p.u.e.i.a 9 > 4 4 u Q ! @.@.$.@.@.W ] Q Q Q Q Q J J ",
"K K J Y Y Q ] Q Q W #.&.&.r.q g i.e.h.^.Q.).d.U s u W Q Q Q [ Q Q ] Q Q q g ).h.o.e.u.~ . 4 4 W Q [ &.&.&.a.#.Q Q Q Q Q Q Q J J ",
"G K K ] Q Q Q Q Q Q @.r.r.r.` j g 1.k.'.'.<.0 u 6 E Q ] Q ] Q ] Q ] Q Q P f / j.W.u.z & & 4 d Q W ! &.&.%.&.$.W Q Q ] Q Q Y J J ",
"K G J Y Q Q Q Q Q Q @.&.r.%.3.E $ ^ t.j.d.3 . 3 s ] Q Q Q ] Q ! ! Q ! Q W p # <.h.^ @ & 4 d W Q Q @.a.%.%.%.$.W Q Q Q Q Q Q L J ",
"G K K ] ] ] Q Q Q Q $.&.r.r.a./ 8 $ @ @ @ & 4 4 W Q ] Q Q ] ] Q Q Q Q Q w w 8 # @ . = 7 W Q Q Q Q @.%.%.&.a.@.W Q Q Q Q ] Q J J ",
"G K J Y Q Q Q ] Q Q ! ! W ! { P $ 8 9 8 u 4 4 d Q Q Q Q Q Q Q Q Q ] Q ] u 9 # # . = ; d Q Q Q Q Q R E @.E @.@.W Y Q Q Q Q Q J J ",
"K K K Y Q ] ] ] Q Q R 5 6 6 3 w k l t @ 4 4 4 W Q Q ] Q ] Q Q Q Q Q Q ] u w k l 9 o = 4 P Q Q ! ! R 5 5 5 5 L W ] ] Q Q ] Q J J ",
"G K K ] Q Y ] Q Q Q I 6 6 4 9 k *.*.l X 3 3 7 Q Q Q Q Q Q Q Q Q Q ! Q Q p w v *.v 8 u 3 4 P Q Q Q W 6 6 7 5 L @.Q Q Q Q Q ] J J ",
"G K J Y Q Q Q Q Q ! ] W ! # y c l 8 @ . 3 4 7 Q Q Q Q Q Q Q Q Q Q Q Q Q u 2 O e c l l 2 X = d Q Q Q W Q Q Y Q Q Q Q ! W ] Q J J ",
"J J K Y Q ] Q Q Q Q ] W ] W 3 3 = 4 ; 3 4 4 W Q Q Q Q Q Q Q Q Q Q Q ! Q R 3 4 4 = 4 = 4 4 4 d Q Q Q Q Q Q ! Q Q Q Q ] ] Q Q J J ",
"G K J ] ] Q Q Q Q ] ] ! W R 3 3 3 3 3 4 4 R Q Q Q W Q Q Q Q Q Q Q Q Q Q Q d 7 P d P P d d d W Q ! W Q Q W W Q Q Q Q Q ] Q ] J J ",
"K K J Y ] Q ] Q W Q Q ] ] Q P L P d P d Q ] ! Q Q ! ] ] Q Q Q Q Q Q Q Q ] ] ] Q ] ] Q Q ] ] ] ] Q ) ] ] ) ) Q Q ] ] Q W Q ] J J ",
"K K L P W W W W Y Y W W W W W Q W W Y Y Y W Y Y W Y Y Y Y Y Y Q Y Q Y Q Q Q Y Y Y Y Y I Y Q Y W Y W W I W W Y I Y W W Y W Y K 5 ",
"5 : s G 1 6 6 : 6 : 1 G K K K 5 H G K K H G G H K K I G K H K H G K H H K 5 G G K H K I G H G G K K I K K K K I G : 6 K K G : : ",
"1 1 H 1 1 1 1 1 1 1 H H H H H H H H H H H H H H H 1 1 1 H H H H 1 1 H H H H 1 1 H H H H 1 1 H H 1 1 1 1 H H H 1 1 1 1 1 1 : 1 1 ",
"1 - - - , < , , - , , , , , , , , , , , , , , , , , , , , , , , , , , , , , , , , , , , , , , , - , , , , , , , , , - - - - - - "
};
