/* XPM */
static char *_0077_258968f66ad34d7cb6c749ed936f81ccaf6d9ea120e3d3b74f2978b99af32c9f[] = {
/* columns rows colors chars-per-pixel */
"64 64 184 2 ",
"   c #000000",
".  c #090706",
"X  c #070709",
"o  c #0C0B0B",
"O  c #110F0E",
"+  c #18120E",
"@  c #0C0B10",
"#  c #110F17",
"$  c #0F1013",
"%  c #141313",
"&  c #181615",
"*  c #1D1917",
"=  c #141319",
"-  c #19171B",
";  c #1D1B1B",
":  c #211E1C",
">  c #23211F",
",  c #28261F",
"<  c #39261D",
"1  c #1C1C23",
"2  c #1A1925",
"3  c #221F21",
"4  c #221F28",
"5  c #1F2023",
"6  c #252222",
"7  c #292625",
"8  c #2B2926",
"9  c #252429",
"0  c #29262B",
"q  c #2D2B2B",
"w  c #352A26",
"e  c #322E2D",
"r  c #33312E",
"t  c #3B312A",
"y  c #252433",
"u  c #2D2B32",
"i  c #262538",
"p  c #2D2A3D",
"a  c #312E35",
"s  c #322D3A",
"d  c #2F3233",
"f  c #343333",
"g  c #393636",
"h  c #393837",
"j  c #35333C",
"k  c #36393A",
"l  c #3C3B3B",
"z  c #402E24",
"x  c #422B28",
"c  c #45362B",
"v  c #45352C",
"b  c #49352B",
"n  c #54352A",
"m  c #473834",
"M  c #403F3E",
"N  c #41413F",
"B  c #58493C",
"V  c #604632",
"C  c #764A36",
"Z  c #78533C",
"A  c #2F3045",
"S  c #363242",
"D  c #393545",
"F  c #373A44",
"G  c #3C3C46",
"H  c #35324B",
"J  c #3B364B",
"K  c #3C3A4C",
"L  c #343555",
"P  c #3A3651",
"I  c #3E3A52",
"U  c #403C43",
"Y  c #423E55",
"T  c #423E5A",
"R  c #3E4147",
"E  c #3E4150",
"W  c #434343",
"Q  c #494745",
"!  c #44444A",
"~  c #494949",
"^  c #544F49",
"/  c #56514C",
"(  c #424452",
")  c #46425D",
"_  c #474C59",
"`  c #4D4F5D",
"'  c #56495D",
"]  c #505051",
"[  c #635446",
"{  c #735743",
"}  c #614F5F",
"|  c #675157",
" . c #665F56",
".. c #7A5958",
"X. c #7A644F",
"o. c #6A655D",
"O. c #464263",
"+. c #494464",
"@. c #464B62",
"#. c #494C65",
"$. c #4C476A",
"%. c #4E4A6C",
"&. c #504C6F",
"*. c #4F5566",
"=. c #4D546D",
"-. c #595869",
";. c #514D71",
":. c #564F78",
">. c #4F5672",
",. c #525275",
"<. c #5A5672",
"1. c #525B75",
"2. c #585F72",
"3. c #55567A",
"4. c #555C7B",
"5. c #595B7E",
"6. c #576072",
"7. c #56607F",
"8. c #6C6964",
"9. c #666769",
"0. c #79736A",
"q. c #82543D",
"w. c #8F5A40",
"e. c #87674F",
"r. c #986545",
"t. c #9B6851",
"y. c #A56947",
"u. c #AA6B44",
"i. c #A56F4A",
"p. c #B3744B",
"a. c #B67648",
"s. c #B9774D",
"d. c #AF7953",
"f. c #B17952",
"g. c #8B6461",
"h. c #81796A",
"j. c #857E72",
"k. c #B9825B",
"l. c #8C867A",
"z. c #8C867B",
"x. c #B98B66",
"c. c #C48559",
"v. c #C38E67",
"b. c #D69D6E",
"n. c #C29871",
"m. c #D09F76",
"M. c #CFA27A",
"N. c #D4A67C",
"B. c #DFA779",
"V. c #DBAA7E",
"C. c #5A5B81",
"Z. c #5B6485",
"A. c #5D6689",
"S. c #5E698A",
"D. c #60668F",
"F. c #616B8E",
"G. c #757086",
"H. c #636D94",
"J. c #637195",
"K. c #66759A",
"L. c #69789F",
"P. c #747E99",
"I. c #7C89A1",
"U. c #8D8D8E",
"Y. c #988F81",
"T. c #9E9383",
"R. c #9B9995",
"E. c #A4978B",
"W. c #A29C93",
"Q. c #8E97AE",
"!. c #A6A5A4",
"~. c #ACABAA",
"^. c #B2AFA8",
"/. c #B8B5AE",
"(. c #B9B7B4",
"). c #BBBBBA",
"_. c #E6B689",
"`. c #ECB788",
"'. c #BEBFC1",
"]. c #CBC9C7",
"[. c #D1CFCB",
"{. c #D2D2D3",
"}. c #DBDCDC",
"|. c #E4E4E4",
/* pixels */
"                                                                                                                                ",
"                                                                                                                                ",
"                                                                                                                                ",
"                                                                                                                                ",
"                                                                                                                                ",
"                                                                                                                                ",
"                                                                                                                                ",
"                                                                                                                                ",
"                                                                                                                                ",
"                                                                                                                                ",
"                                                    X X . X . . .                                                               ",
"                                                . ; k Q W Q W ! h : o o .                                                       ",
"                                                ; f o.R.'.(.z.h.R.).~.l.,                                                       ",
"                                            . ; f l 0.E.^.{.).W.E./.{.].N                                                       ",
"                                            . 8 8.h 8.T.Y.(.}.R. .0./.|.]                                                       ",
"                                            & Q j.8 / z.0.0.!.o.9 R 0.~.N                                                       ",
"                                          . ^ l.3 : g ! l 3 : 7 6 3 6 6 o                                                       ",
"                                        & 6 8 q 3 j m C p.y.r.i.w.n 6 .                                                         ",
"                                    * p K u > h m m q.q.v b y.Z w : o                                                           ",
"                                = y K 3.3.I a h g n r.r.b [ d.e.[ B                                                             ",
"                                s ;.&.P.I.H.I * : x q.u.c.`._._.`.n.                                                            ",
"                                p O.<.].[.Q.@.: 6 : x C f.M.N.m._.x.                                                            ",
"                                p O.<.{.G.Z.A.Y 3 6 7 7 w e e 8 Z i.                                                            ",
"                                p $.$.G.s y s u 6 6 : 6 f f f d g x &                                                           ",
"                                p ;.O.T I E G j > : q l Q Q h h f q g 6 % o o o                                                 ",
"                                y O.+.+.F.K.4.I 0 6 r l l W q 6 r N l ~ a 8 e q o o & O   . O X                                 ",
"                                O a $.+.Z.3.S 0 +.u 6 6 6 N W W h ; 6 l q q Q G 9 f ~ f . ; N 8                                 ",
"                                  2 &.O.%.s j S.S.Z.S.@.: 6 8 8 6 8 M W q : 7 7 > 6 6 7 l R W ~ q     o f f                     ",
"                                o : s $.$.J #.K.J.J.D.Y : L 2 % = 5 e W N l f 7 h l h h q q q 8 q f d h ~ h                     ",
"                                & q f S +.$.,.3.1.5.Y u U ..X...{ n = u f f r 6 f f d d 9 r r q f h h f h q 6                   ",
"                                # e l : J Y T +.O.$.j A <.p.b._.B.d.B 6 6 8 > > ; w z m  .l l W l 9 9 7 9 q h X                 ",
"                                + 6 3 6 6 ; a +.O.O.+.+.' u.u.v.N.V.N.t H Y ; 9 7 q.s.k.N.c ; ; 7 M W M Q l : .                 ",
"                                % 9 6 6 6 : 3 8 9 2 6 1 t p.s.u.a.i.e : K K 6 +.r.u.x.M.p.V.c   O 8 8 0 9 e M o                 ",
"                                . + : > : f h : f R.8.r m b w E.E.< 1 F O.) D u } t.s.c.p.V O     . . . . o %                   ",
"                                  o K S 6 q e 6 W U.9.l d ; 3 9.-.$ > +.;.$.+.D A | g...n .                                     ",
"                                . 4 O.%.s 0 9 7 W h l l 9 6 W q : r q K Y Y ) I ; i L i                                         ",
"                                0 l 9 ) $.%.I 6 l W N N l > h W W W $.u : a g       .                                           ",
"                              - h ~ h 8 T ;.J * > > 7 > > : 6 8 : u S.+.O.D q l .                                               ",
"                              ; q q q : 6 k ` C.1.Y K @.1.4.0 a ) 7.J.` ! f : 8 .                                               ",
"                              ; : * 3 j E E E _ 2.,.I ) Z.@.9 J 1.6.*.e ! *.K s                                                 ",
"                              0 s q j ;.H.A.T q r Y 0 q J : : D G r U f >.L.J.,.1 X                                             ",
"                              P ;.+.$.F.F.S.K.Z.0 : > : : : > : > u $.F.J.S.Z.S.,.2                                             ",
"                              P $.O.$.F.J.F.F.S.O.q o X   . X % j +.+.A.K.@.9 ! q o                                             ",
"                              P :.Y u _ j =.L.Z.+.-             - D $.%.H.6.r l h 8 o                                           ",
"                            y s D j r N e k =.C.$.%             . % S S K R h Q ~ f %                                           ",
"                          o %.S : 7 N W ~ 8 3 I H @                 * : 6 6 > h l q %                                           ",
"                          o T &.D : 6 l M r 0 1                   . 0 6 T Y > 6 : 6 %                                           ",
"                            6 Y $.D ; 6 : D $.I                   @ O.) O.$.Y : 6 o                                             ",
"                            7 ) $.%.1.1.1.5.P =                   . a Z.,.T +.T q o                                             ",
"                            O u Y 3.L.L.>.S %                       o G 4.3.+.G & .                                             ",
"                              % j ) >.>.> .                         . + ( 1.S %                                                 ",
"                              ; > : : ;                           . 7 6 : : &                                                   ",
"                              ; 6 6 : .                             6 6 6 =                                                     ",
"                            % f l h ;                             . 6 h M q O                                                   ",
"                        . ; l Q N r 6                             . 9 r W ~ h q ; .                                             ",
"                          & 7 9 % # O                               % O ; 6 6 9 ; .                                             ",
"                                                                                                                                ",
"                                                                                                                                ",
"                                                                                                                                ",
"                                                                                                                                ",
"                                                                                                                                ",
"                                                                                                                                ",
"                                                                                                                                ",
"                                                                                                                                "
};
