/* XPM */
static char *_3465_46cb10550bb2c7422805a857f8e96cad58c06efcc85a88aaa19113add9a088d3[] = {
/* columns rows colors chars-per-pixel */
"64 64 205 2 ",
"   c #06040C",
".  c #0A070F",
"X  c #1F080E",
"o  c #0D0D14",
"O  c #080918",
"+  c #0F0F18",
"@  c #0F101A",
"#  c #11111C",
"$  c #2B0A11",
"%  c #360D14",
"&  c #0E1325",
"*  c #121522",
"=  c #151926",
"-  c #181C27",
";  c #111628",
":  c #161B2C",
">  c #191C2C",
",  c #171E30",
"<  c #181F31",
"1  c #2C1827",
"2  c #371928",
"3  c #3C1C2B",
"4  c #1A2134",
"5  c #1C2639",
"6  c #1E263B",
"7  c #242A3B",
"8  c #21293D",
"9  c #352537",
"0  c #471B29",
"q  c #571B27",
"w  c #4D222E",
"e  c #4B2537",
"r  c #502A3B",
"t  c #682637",
"y  c #782839",
"u  c #1D2642",
"i  c #1F2944",
"p  c #232C43",
"a  c #262F4A",
"s  c #3A2B42",
"d  c #253145",
"f  c #2B3345",
"g  c #27314B",
"h  c #2A344D",
"j  c #2C394E",
"k  c #363949",
"l  c #2B3651",
"z  c #2E3B56",
"x  c #2F3C58",
"c  c #313E54",
"v  c #3A3F55",
"b  c #303D59",
"n  c #542D43",
"m  c #4E374D",
"M  c #6C2D41",
"N  c #6A3548",
"B  c #753241",
"V  c #7B3142",
"C  c #71374D",
"Z  c #75394D",
"A  c #79394A",
"S  c #643F54",
"D  c #763C51",
"F  c #3D444E",
"G  c #334055",
"H  c #33425C",
"J  c #3A475B",
"K  c #364661",
"L  c #374A64",
"P  c #3A4B64",
"I  c #3B4F68",
"U  c #3F5166",
"Y  c #3D516B",
"T  c #355273",
"R  c #395370",
"E  c #454B5B",
"W  c #5A465D",
"Q  c #56555F",
"!  c #74494D",
"~  c #77594B",
"^  c #66475A",
"/  c #744452",
"(  c #665755",
")  c #544561",
"_  c #41546D",
"`  c #495669",
"'  c #525966",
"]  c #425770",
"[  c #445972",
"{  c #4A5E75",
"}  c #6F5266",
"|  c #775D70",
" . c #795E71",
".. c #4C6276",
"X. c #4E647B",
"o. c #566577",
"O. c #53667C",
"+. c #7B6173",
"@. c #68737B",
"#. c #6E787B",
"$. c #832D3D",
"%. c #993D39",
"&. c #A83F31",
"*. c #9D5C34",
"=. c #91503C",
"-. c #925B3B",
";. c #AA402F",
":. c #A74D2F",
">. c #BC5F21",
",. c #B15628",
"<. c #A84030",
"1. c #A44D30",
"2. c #C3501E",
"3. c #D45213",
"4. c #D95211",
"5. c #C8601A",
"6. c #D16114",
"7. c #843443",
"8. c #893646",
"9. c #883C46",
"0. c #8B3A4A",
"q. c #814A46",
"w. c #89404F",
"e. c #93414F",
"r. c #8B5A4D",
"t. c #8C4353",
"y. c #944351",
"u. c #994957",
"i. c #9A4B59",
"p. c #977C5B",
"a. c #AA7E4C",
"s. c #A27D52",
"d. c #897B66",
"f. c #B76770",
"g. c #C36E76",
"h. c #BA803F",
"j. c #FA880C",
"k. c #ED8617",
"l. c #E5851D",
"z. c #F48711",
"x. c #D88427",
"c. c #C58136",
"v. c #546C83",
"b. c #5C6E84",
"n. c #577086",
"m. c #5D7186",
"M. c #577189",
"N. c #5B758B",
"B. c #5E788E",
"V. c #4B7498",
"C. c #517493",
"Z. c #5E7A90",
"A. c #616F85",
"S. c #637484",
"D. c #667588",
"F. c #647B8E",
"G. c #6A7D8E",
"H. c #627C92",
"J. c #697F91",
"K. c #668196",
"L. c #6D8292",
"P. c #678498",
"I. c #6B8499",
"U. c #6F899D",
"Y. c #738494",
"T. c #78879A",
"R. c #708A9E",
"E. c #798999",
"W. c #6887A0",
"Q. c #6989A2",
"!. c #738CA0",
"~. c #7792A5",
"^. c #7B93A6",
"/. c #7C97AB",
"(. c #859299",
"). c #8B969B",
"_. c #8E989C",
"`. c #959D9E",
"'. c #999F9F",
"]. c #8995A5",
"[. c #819BAE",
"{. c #839DB0",
"}. c #9BA1A0",
"|. c #85A1B3",
" X c #8AA5B6",
".X c #8BA6B8",
"XX c #8EA9BB",
"oX c #98A9B6",
"OX c #91ADBE",
"+X c #FFAAAA",
"@X c #96B2C4",
"#X c #99B4C3",
"$X c #A1B6C4",
"%X c #A3BBCA",
"&X c #B9CDD7",
"*X c #C1D4DE",
"=X c #C3D7E0",
"-X c #C4D8E1",
";X c #CADEE7",
":X c #CBDFE8",
">X c #CDE2EA",
",X c #D8EAF1",
"<X c #E3EFF3",
"1X c #EAF5F8",
"2X c #F3FDFE",
/* pixels */
". G ] [ 7 o 4 5 8 d d 7 f f f f a f f f f f a f f f k 8 4 8 f f f k f f f f f f a s g f a f f f f f f f p p p p 6 4 o 7 _ ] c o ",
". G ] ] 4 + h { K. X.X.X&X>X-X-X=X=X=X=X=X=X=X=X,X<X1Xo.4 /.&X1X1X1X1X;X=X=X=X=X=X=X-X-X-X=X=X=X=X-X-X*XXXXX.XJ.[ l o 7 ] ] c o ",
"o G ] [ 7 o u J ..b.m.m.T.E.E.T.T.T.T.T.T.T.T.T.oX%X<Xo.4 |.#X#X].].].E.T.E.E.E.J.(.J.!.T.T.T.!.J.!.T.T.b.b.A.{ J 6 + 5 [ [ c o ",
". G R [ 5 o : 8 g a a a i i i i a i i a p p i u I G.;Xo.4  XI.{ i u u i i i i i a a a a p p p i a u p p a a a g p : o 6 [ _ z o ",
". c ] [ 7 o 4 4 < 5 5 < 5 4 4 5 5 < < 6 5 < 5 < > J >X' 5 OX..> 5 4 5 4 5 5 4 4 < u < < 6 < < u 6 4 4 6 4 4 6 < 4 < o 4 L Y z o ",
". c ] R 4 o < 4 < < < , , , < < < < < < < < , , ; k >Xo.4 OX` & , , , , 4 < < , < < < < < < < < < < < < < < < < , 4 . k ^.K.` . ",
". c _ [ 4 o 4 4 < < < 5 < 4 4 < < < < < < < , , ; F >X' 4 XX..; < 4 4 4 < 4 4 < < < < < < < < < 4 < < < < < < < 4 <   ' ,X#XD.. ",
"  S.@X=XE   > 8 g a p p p i i i i i p u p a p u L B.;X..4 .XK._ i u u i i i i i u u a p u a i i a u p u a a a a 6 : o d N.v.J o ",
"  o.[.$XF . 6 c ] { { { A.A.A.A.A.A.A.A.A.A.A.A.^.oX,Xo.4 |..X{.G.D.G.A.A.A.A.A.A.A.A.A.A.A.A.A.A.A.S.b.{ ...._ G 6 # > G H d o ",
". z Y I 4 # l ..I..XXXXX-X:X:X:X:X:X:X:X:X:X;X:X<X1X2X@.4 {.&X1X2X2X1X>X:X:X:X;X;X:X;X;X:X>X:X:X:X:X:X-X@XXX.XP...j # & 4 : ; o ",
"o 4 p p * # l I v..X@X@X#X#X#X#X#X#X#X#X@X#X#X#X&XOX/.J 4 K..X&X%X%X%X#X#X#X#X@X#X#X@X#X#X#X@X@X#X#X#X#XXX@X.XO.L j & @ 4 , ; o ",
"+ ; < < # * g z K G.G.J.I.I.I.I.I.J.I.I.J.I.I.J.K.n...f 4 Y O.K.J.J.I.J.!.J.J.J.J.!.J.J.!.J.J.J.J.I.I.I.G.G.F.L z g @ * 5 7 4 o ",
"o ; 4 4 # # < : : ; ; & a a a a a g a a g g u & * ; ; , 4 ; ; ; g g a a a a a a l a a a a a a a g a a a & & ; : , < + > b b a o ",
"o 7 h h : + : h K G I { X.O.O.{ X...X.O...X...{ j j ..f , G U ..{ v.X.{ { v.v.{ v.v.{ v.{ v.{ v.O.{ { v...I H J h : + > z c 8 o ",
"o p z b > + , G [ Y v.H.Z.Z.Z.Z.B.Z.Z.B.Z.Z.B.K.I H P.G 4 R v.K.H.H.B.H.H.H.B.H.M.N.Z.H.N.N.H.Z.Z.Z.Z.Z.Z.v.Y { c : + > x b p o ",
". a z z > + : c ] Y X.B.N.N.N.N.N.N.N.N.N.B.N.B.K G B.G 4 I X.B.N.N.M.N.M.N.M.N.M.C.C.A.N.N.N.N.N.N.N.N.N.X.Y [ z : + > z c 7 o ",
"o 7 z z > o , c ] _ v.H.N.N.N.N.N.N.N.N.N.N.Z.H.Y I Z.G , I X.B.N.N.N.N.N.N.N.N.C.a.a.C.N.N.N.N.N.N.N.N.H.X.Y ] z : o > c x p o ",
"o p z c > # : z ] I [ v.M.N.N.N.N.N.N.N.N.N.N.N...[ K.G , I X.B.N.N.N.N.N.N.N.B.S.l.x.D.N.N.N.N.N.N.N.N.v.{ I _ l : # < x z p o ",
"o d c z 8 < , p l a g l n.B.N.N.N.N.N.N.N.N.N.N.[ Y F.c 4 I X.B.N.N.N.N.N.N.V.d.j.z.j.z.#.V.N.N.N.N.Z.n.z a a l a : , 8 z b 7 o ",
". p c z 8 > : b { A.v.] N.N.N.N.N.N.N.N.N.N.N.N.v.O.Z.c , I X.K.N.N.N.N.N.C.p.c.j.a.a.j.c.p.M.B.N.N.N.n.[ O.N.X.G : 4 6 z c p o ",
". p z z 8 < , _ W.@X~.N.N.N.N.N.N.N.N.N.N.N.N.N.N.B.Z.c 4 I X.B.N.N.N.Z.N.@.l.j.l.D.#.k.j.x.S.N.N.B.N.N.N./.XXI._ , , 6 z z p o ",
"o p z z 6 < a { J.@X~.M.N.N.N.N.N.N.N.N.N.N.F.N.N.m.B.z : h [ F.N.N.N.C.p.k.z.h.V.C.C.V.c.z.k.d.C.N.N.N.n./.XXI.[ g < 8 z z 7 o ",
"o p z z 8 5 z P { b.v.v.N.N.N.N.N.N.N.N.N.N.N.N.N.B.~.J : a [ H.N.N.N.C.p.j.z.x.p.s.s.p.x.z.j.p.C.N.N.N.X.v.b.{ P l < p z z p o ",
"o p z z 6 < l l a a z ] b.B.N.N.B.N.N.N.N.N.N.N.N.H.@X_ : l [ B.N.N.N.C.p.k.l.k.j.z.z.j.k.l.z.d.V.N.N.n._ b a l l l < 8 z c p o ",
". p z z 8 4 l l z P { N.N.N.B.N.N.N.N.N.N.N.N.F.n.H.@XJ : .Xv.g N.Z.N.N.m.@.@.@.@.@.@.@.@.@.@.m.N.N.N.N.N.{ P z l z < 8 c z p o ",
". f z z u 4 l v K _ v.Z.N.N.N.N.N.N.N.N.N.N.N.N.N.H./.O.` m.O.O.[ v.B.N.H.Q.W.W.W.Q.W.W.W.W.Q.H.N.N.N.N.Z.X.I K b l < 8 z z p o ",
"o p z z 6 < l P ] P v.M.N.N.N.N.N.N.N.N.N.N.N.B.N.N.v.{.{.O o.@Xj Y Z.M.U.XX.X.X.X.X.X X.X.XOXI.M.N.N.N.Z.X.I ] P l 4 8 z z p o ",
". p z z p 4 l K _ P v.N.N.N.N.N.N.N.N.N.N.N.N.N.N.N.B.X.O.[.` 7 [.b.l M.H.K.H.H.H.H.H.H.H.H.H.F.N.N.N.N.Z.X.I _ K l 4 p z c p o ",
"o f b z 6 > l P R _ { B.M.N.N.N.N.B.N.N.N.B.N.N.N.N.B...{ /.o.b G.b._ ..O.N.M.M.N.N.v.N.N.N.n.N.N.N.N.N.N.X.I ] K l > 4 z z p o ",
". 7 z z > + l P ] P v.B.N.N.N.N.N.N.N.N.N.N.N.N.N.N.N.B.M.K I.@XO { #Xl L K.N.N.N.N.B.N.N.N.N.B.N.N.B.N.Z.X.I ] K h # > z z p o ",
"o p v z > # l K _ I v.Z.N.M.B.N.N.N.N.N.N.N.N.N.N.N.N.N.N.v.[ ` $XS.7 $X~.G v.B.N.N.N.N.N.N.N.N.N.N.N.N.N.X._ _ P l # > z z p o ",
"o p z z = # l P _ I { Z.N.B.N.N.N.N.N.N.N.N.N.N.N.N.N.N.N.Z._ K %XY.v oXY.h O.B.N.N.N.N.N.N.N.N.N.N.N.N.F.{ _ _ K l # > z c p + ",
": g z z : @ l L _ I X.B.N.N.N.N.N.N.N.N.N.N.B.M.N.N.N.N.N.N.B.m.8 Y.>X7 8 ] b.B.m.N.N.M.M.N.N.N.N.N.N.N.B.X.Y Y I z # > c l h 4 ",
"< g z b > @ 5 H ] Y X.B.N.N.N.N.N.B.N.N.N.N.m.B.N.N.M.U.^.N.B.M.b (.-Xf p _ n.N.B.M.K./.F.M.N.N.N.N.N.N.N.X.Y Y H 4 + > z z d < ",
": d z z > o : z ] Y X.Z.N.N.N.N.N.N.N.N.B.N.B.M.N.N.B./. XN.m.M.I ^.=X7 p ] n.B.N.M.I.OXU.F.N.N.N.N.N.N.B.X.Y [ z = o < z z d : ",
"o p z z > @ : G ] I ..B.N.B.N.N.N.N.N.N.N.N.N.N.M.F. X.X{.N.B.M.L ^.=Xp p [ v.N.N.n.K. X.X/.n.N.N.N.N.N.N.X.Y _ G : o , x c p o ",
". p c c > o : G ] I O.B.N.N.B.N.N.N.N.N.N.N.N.N.U./. X.X{.B.M.m.L ].;X7 d [ n.N.M.M.L. X X|.~.K.N.N.N.N.B.X.I [ c : + > z b p o ",
"o p z c > + : z ] Y X.B.N.N.N.N.N.N.N.N.N.N.N.M.~..X|. X{.N.N.M.L ^.&X7 p Y M.N.B.M.P. X|. X XI.M.N.N.N.B.X.I [ z : + > x z 7 o ",
". p z z > + : c [ Y X.B.N.N.N.N.N.N.B.N.N.N.N.N.N.K.XX.X[.B.B.m.I H..X7 d _ M.B.N.M.P..X.X[.N.N.N.N.N.N.B.X.U [ c : + > z b p o ",
"o a z b > + < g P Y X.Z.N.N.N.B.N.N.N.N.N.N.N.N.M.B.U.[.|.B.M.M.I F. X7 d _ n.B.N.n.P..X^.I.N.N.N.B.N.N.B.X.I P h : + > x c p o ",
". p z z > + , p x I X.N.N.N.N.N.N.N.N.N.N.N.N.N.N.N.n.~.[.N.B.M.I Z. X7 d [ n.N.N.N.K. XK.n.N.N.N.N.N.N.N.X.I z p : + > z l 7 + ",
"o > 5 8 * + , p l a b [ N.N.v.N.n.M.M.n.M.n.M.M.M.n.n.N.N.M.M.M.Y X.Z.4 d _ n.N.n.n.n.N.M.n.n.n.M.M.N.M.] b a l p < # * 5 4 > + ",
"o > < < * + > c [ O.X...M.H.!.R.R.R.R.R.R.R.R.R.U.U.U.U.U.R.K.M.Y X.N.4 d [ n.H.!.U.U.U.R.R.R.R.R.!.H.M.X...O.[ z : @ * 4 4 - o ",
"o > < < * + ; _ P.@X~.N.M.U.XX.X.X.X.X.X.X.X.X.X.X.X.X.X.XXXR.n.Y O.N.5 d R v.U..X.X.X.X X.X X X.X.XU.M.N.~.@XP.U : # # 4 4 : + ",
"o > < 5 * + = _ I.OX~.N.N.B.F.B.B.B.B.F.F.B.N.B.B.F.Z.B.B.B.B.N.Y X.N.5 d _ n.N.Z.Z.Z.H.H.B.B.B.Z.H.N.N.N.~.@XP.U : # # 4 4 ; + ",
"+ , < < # # > c { F.m.X.M.N.M.L.L.L.B.M.M.L.L.L.F.M.N.F.L.L.F.n.Y X.N.5 f _ n.F.L.L.F.n.m.B.L.L.L.N.N.N.O.N.F.{ G : @ * 4 4 : o ",
"o > 5 < * + < > : a G _ M.B.M._.}.'.F.M.n.).'.'.Y.M.M.E.}.}.Y.n.Y X.N.5 d [ v.Y.}.}.(.n.N.K.`.'.).N.N.M.Y G a ; : 4 # * 4 4 : o ",
"o : < < * # > l I L ..n.M.Y.).`.(.F.M.L.).`.).F.M.F.).`._.G.B.n.H [ N.5 i G v.B.F._.`.).F.N.F.(.`._.L.M.n.{ L I j : @ # 4 4 - + ",
"o : < < * # : G R Y O.Z.N.L.(.(.L.M.M.H.).(.T.M.M.F.(.(.E.N.N.m.l _ A.6 u l v.N.n.E.(.(.F.M.M.Y.(.).L.m.B.X.Y [ l = # # 4 4 > + ",
"o > 5 < # # > m ^ ^ } +.+. .| |  .+.+. .|  . . . .+.| | | +.+.| m _ Z.6 u l b.d. .| | | +. . . .| |  . .+.} ^ ^ 9 . + # 4 4 - o ",
"+ > < < * + o n 0.y.i.i.i.i.u.i.i.i.i.i.i.i.i.i.i.i.u.i.i.i.y.0.n ] D.> > z ^ y.i.i.i.i.i.i.i.i.i.i.i.i.i.u.y.0.r . o - 4 4 : + ",
"o , < 5 # # = s N t.t.t.t.t.t.t.t.t.t.t.t.t.t.t.t.t.t.t.t.t.7.t s K v.# = l n 7.e.e.e.0.e.e.e.y.e.e.e.e.e.e.e.$.r - # # 4 4 - o ",
"o > < < * = ^ w X 2 < 4 4 4 : , , , , 4 > < < < 4 : : < 1 2 2 1 , ; : + * , , > : , , , , , 4 , , , > < < , e % t ^ # @ 4 4 : + ",
"o : 6 < > < D N f # e V V V V w.t.0.t.9.t.w.w.w.w.w.t./ / ^ ^ n n s a + > g e y y 7.9.9.9.t.w.w.9.V V y q 1 > r y ` 4 : 4 4 : o ",
"o : < < < p E D S # w 7.$.f.+X+X+X+X+X+X+X+X+X+X+X+X+X+X+X+X+Xg.$.n l o > z n $.0.f.+X+X+X+X+X+X+X+X+X+Xi.o * A ` P 5 4 4 4 : o ",
"o > < < < < : v A c 9 % t V 0.7.8.8.8.8.8.7.7.9.8.8.8.8.7.8.8.8.y e , o * < r $.0.8.7.9.8.8.8.7.8.0.7.y % q y / G : , 4 4 4 : o ",
"@ # = 4 4 < : p t M < o 1 w e r r r r r r r r r r r r r r r r r w 9 < : : < 9 e r r r r r r r r r w 0 0 X q M k 8 4 4 4 4 ; # @ ",
"@ o # < < 4 4 , < t q o X % % 2 2 3 3 3 3 3 3 3 3 3 3 3 3 3 2 3 3 3 3 0 3 0 3 3 3 3 3 3 3 3 3 3 2 % $ % X 5 l < : 4 4 4 : @ + + ",
"o # + + : 4 4 < 4 5 * o e y A C C C C A A C C C Z A A C C C Z Z A A C C Z A D C C C C Z A C C C C A y t % ; 5 < 4 , 4 : o + + + ",
"# o + o # : < < < * > 9 S C A %.<.<.9.C C %.<.;.$.Z C %.;.;.9.C Z 8.&.&.%.D Z 8.;.<.%.C Z 9.<.<.%.Z C B 0 1 * , 4 , - # o + + + ",
"o @ @ + + + 4 4 < + 5 E W W W 2.3.3./ W W ,.4.3.q.) Q :.4.3.=.W W =.3.4.1.) ) q.3.4.,.W W ! 3.3.2.^ W W m 9 o , 4 4 # o # + + + ",
"o > : o 8 l h J _ P P Y T ~ 5.6.*._ R ( 5.6.,.` Y Q >.6.>.' _ U Y Y Q >.5.>.' Y ` ,.6.5.Q R _ *.6.5.~ Y Y I P Y J h l 7 o - : o ",
"o : > # p b z b P _ _ Y T ( -.-.( R Y ' -.-.~ T R ` -.-.r.R Y _ Y Y Y r.-.-.` Y R ~ -.-.Q Y T ~ -.-.Q Y _ ] R P H z b p # < : o ",
"o : 4 4 a z z l z _ _ Y Y Y T R R Y Y Y T T R _ _ Y T T T Y Y R Y Y Y T T T Y _ _ T T T Y _ _ R T T R _ _ Y _ z l l c d 4 4 > o "
};
