/* XPM */
static char *_7833_4f97020531086214d8fec191ad6c8d6b608ec66b2e56fff5b55ca1cb5377dc59[] = {
/* columns rows colors chars-per-pixel */
"32 32 143 2 ",
"   c #010101",
".  c #02020A",
"X  c #09090F",
"o  c #000013",
"O  c #080711",
"+  c #0C0C14",
"@  c #050B1E",
"#  c #0E0F1A",
"$  c #0E111C",
"%  c #11111B",
"&  c #0A0F22",
"*  c #0F1321",
"=  c #131622",
"-  c #151926",
";  c #111729",
":  c #161B2C",
">  c #181E2E",
",  c #171F31",
"<  c #181E30",
"1  c #1C2234",
"2  c #1F263A",
"3  c #1F293B",
"4  c #21252F",
"5  c #222734",
"6  c #252A37",
"7  c #222A3C",
"8  c #1E2C46",
"9  c #1B2C49",
"0  c #232D43",
"q  c #262F48",
"w  c #273145",
"e  c #283245",
"r  c #263148",
"t  c #29344B",
"y  c #2D394D",
"u  c #323A4A",
"i  c #233751",
"p  c #2B3752",
"a  c #263A54",
"s  c #2D3A52",
"d  c #2D3E59",
"f  c #303E53",
"g  c #324054",
"h  c #3D4856",
"j  c #34435B",
"k  c #39465A",
"l  c #36485E",
"z  c #3D4B5D",
"x  c #344560",
"c  c #354A65",
"v  c #3A4C63",
"b  c #374F6A",
"n  c #3E4F69",
"m  c #3E5066",
"M  c #37506B",
"N  c #3E526C",
"B  c #5F4F4C",
"V  c #564E52",
"C  c #594E50",
"Z  c #614F4B",
"A  c #6F5143",
"S  c #6C5D5E",
"D  c #424D62",
"F  c #435165",
"G  c #495565",
"H  c #42546C",
"J  c #44596F",
"K  c #565A66",
"L  c #5A5A64",
"P  c #535B69",
"I  c #5A5F6B",
"U  c #425671",
"Y  c #455971",
"T  c #4A5E76",
"R  c #4B5E78",
"E  c #55626F",
"W  c #496076",
"Q  c #4D647B",
"!  c #556373",
"~  c #5A6572",
"^  c #54677B",
"/  c #51697F",
"(  c #5A6B7E",
")  c #656E7B",
"_  c #68747C",
"`  c #6D787E",
"'  c #99603E",
"]  c #B3632E",
"[  c #B06230",
"{  c #8E5F45",
"}  c #895E48",
"|  c #965F41",
" . c #957C5B",
".. c #A97B47",
"X. c #A87D4C",
"o. c #8A7A64",
"O. c #F78407",
"+. c #F3840A",
"@. c #C48134",
"#. c #8C806D",
"$. c #968267",
"%. c #92826B",
"&. c #546C83",
"*. c #577086",
"=. c #5B7287",
"-. c #54728D",
";. c #5A748A",
":. c #5F798E",
">. c #4E7394",
",. c #5D7C95",
"<. c #667589",
"1. c #627A8D",
"2. c #6C7B8D",
"3. c #617B90",
"4. c #6C7F92",
"5. c #6F818E",
"6. c #678196",
"7. c #6A8599",
"8. c #6F899D",
"9. c #748491",
"0. c #758896",
"q. c #7E8C95",
"w. c #708598",
"e. c #768A9D",
"r. c #7D8F9B",
"t. c #6F8BA0",
"y. c #678CAB",
"u. c #6B8FAC",
"i. c #738EA2",
"p. c #7691A5",
"a. c #7893A6",
"s. c #7C97AA",
"d. c #7F9BAD",
"f. c #808E96",
"g. c #85A0B2",
"h. c #8CA5B7",
"j. c #97A7B3",
"k. c #96AFC0",
"l. c #A5B5C1",
"z. c #A5BCCA",
"x. c #ACBFCA",
"c. c #AFC6D3",
"v. c #BDCFD9",
/* pixels */
"    . . . X X X X X X X X X O O O X X X X X X X X X X . . .     ",
"      6 4 + % % % # % % % % $ % % % % % % # % % % % + 5 6       ",
"      W h . X . . . . . . . + . . . . . . . . . . O . z Y       ",
"      j 7 1 z G E E E E ~ I 7 P ) ~ E E E ! E ~ G k 1 w k       ",
"      v e 7 W &.<.<.<.<.2.c.E h.2.2.<.<.<.<.<.<.^ R 1 6 j       ",
"      x e $ - & @ @ @ @ o ) ( g o @ @ @ @ @ @ @ * ; # G ^       ",
"      4.P ; j k D D D D F j.! w.G D D D D D D D l j : D T       ",
"      y 6 t i.k.z.z.z.z.c.l.j z.v.x.z.z.z.z.z.z.k.t.t @ -       ",
"      < ; < f v H H H H j r 3 g n H H U H H F H k s > 1 0       ",
"      t < 5 U *.=.*.*.;.W F y / ;.=.*.-.-.-.=.-.&.U 1 1 t .     ",
"      t < 1 x Q :.;.=.1.&.R y / ;.:.>. ...-.;.:.Q x 1 2 t       ",
"      t 0 0 =.&.=.;.;.;.*./ r &.;.-.o.@.@.X.-.=.&.=.3 0 0       ",
"      t 0 p 1.=.;.;.;.;.;.3.7 R ,._ +...o.O. .>.=.1.y 0 t       ",
"      q 0 q d &.;.;.;.;.;.t.F R &.1.o.%.$.#.` -.^ d q 0 q       ",
"      t 0 t Y ;.;.;.;.;.;.:.=.! R *.u.y.y.u.,.=.=.U t 0 r       ",
"      t 2 t U &.;.;.;.;.;.-.&.( ^ ^ &.=.=.=.=.:.&.U r 2 t       ",
"    . y 1 r N ;.;.;.;.;.-.;.;.Q 2.<.J :.-.;.=.;.;.N w 1 t .     ",
"    X a 1 3 J ;.;.;.;.;.;.:.p.Q r.G H ;.8.6.*.;.-.N 2 1 a X     ",
"      t 1 1 N -.;.;.=.;.;.g.d.Q r.P H ;.e.h.:.;.;.N 1 1 t       ",
"      t 1 1 N ;.;.;.*.;.;.i.s.Q 3.v Y ;.p.a.;.=.;.m 1 2 t       ",
"      2 : 1 j Q :.6.;.:.:.:.7.*.&.g Y 3.7.:.:.1.Q d > > 1       ",
"    . > % 7 p.:.7.i.i.i.i.p.p.:.W y Y i.8.p.p.6.1.p.3 % > .     ",
"      < - , m Q :.q.;.5.9.=.f.=.Q s U q.5.:.q.1.^ n < - > .     ",
"    . < % 3 N *.0.9.6.r.1.9.r.*.U y N 7.r.:.0.0.&.b > = >       ",
"      > = < J / Q W ^ W Q Q R v v 7 s W Y Q Q Q &.Y - = >       ",
"    . > > g 1 g n J Y Y Y U n g 0 - 3 s m J J b 7 7 g : > .     ",
"      : , w g 1 f b v v b v m x 0 $ 2 x m v c u ; f q > :       ",
"    . % ; > < % 8 u y i u t y y u s a u t y y 8 = < : ; % .     ",
"    . # = 7 7 d S [ P ' } L ] K L ] K { | P ] S d 5 0 = % X     ",
"    . : 1 d v b Z V v A b C Z c c B V v A c C B M v s 1 :       ",
"      y 7 3 0 0 9 0 0 9 0 8 9 0 0 9 8 0 9 r 9 9 0 0 7 7 r       ",
"      + > = = = - % ; = = = = = = = = - % = = = - = % : #       "
};
