/* XPM */
static char *_698_69e565341f623bcf1b0c36cbbec63c2d4426b609d7d593fd31ac60fc3e4162e7[] = {
/* columns rows colors chars-per-pixel */
"64 64 183 2 ",
"   c #000001",
".  c #060409",
"X  c #08070C",
"o  c #09090E",
"O  c #0A0710",
"+  c #0E0D16",
"@  c #060D1F",
"#  c #0E0F19",
"$  c #100F19",
"%  c #0F101A",
"&  c #11111B",
"*  c #090E20",
"=  c #0D1122",
"-  c #121523",
";  c #151826",
":  c #161A28",
">  c #151B2B",
",  c #181F2E",
"<  c #161D32",
"1  c #181F31",
"2  c #1E212C",
"3  c #1A2134",
"4  c #1B243A",
"5  c #1E283D",
"6  c #212734",
"7  c #20273B",
"8  c #21293C",
"9  c #1D2742",
"0  c #1E2944",
"q  c #232D44",
"w  c #282F46",
"e  c #263144",
"r  c #2A3344",
"t  c #27324A",
"y  c #29344C",
"u  c #2C394E",
"i  c #323849",
"p  c #2C3651",
"a  c #273851",
"s  c #2E3A54",
"d  c #2F3C59",
"f  c #313E55",
"g  c #313D5A",
"h  c #344255",
"j  c #3B4556",
"k  c #34445C",
"l  c #38455D",
"z  c #3B4A5D",
"x  c #374661",
"c  c #384660",
"v  c #364962",
"b  c #3B4C65",
"n  c #324D6C",
"m  c #3B4E69",
"M  c #3F5167",
"N  c #37506E",
"B  c #3E526C",
"V  c #2C537A",
"C  c #345273",
"Z  c #3B5471",
"A  c #424F5F",
"S  c #54545E",
"D  c #5F565A",
"F  c #5A565C",
"G  c #78594A",
"H  c #635757",
"J  c #414F65",
"K  c #414F68",
"L  c #445365",
"P  c #4C5463",
"I  c #42546D",
"U  c #45586D",
"Y  c #4B596A",
"T  c #555762",
"R  c #425670",
"E  c #445A73",
"W  c #4A5B73",
"Q  c #475E78",
"!  c #515E75",
"~  c #4E6276",
"^  c #4C637B",
"/  c #526177",
"(  c #53647A",
")  c #56667C",
"_  c #5A6C7D",
"`  c #6E777A",
"'  c #777874",
"]  c #8D5A3D",
"[  c #945A37",
"{  c #9C5B33",
"}  c #955B39",
"|  c #A35B2E",
" . c #AB5E2D",
".. c #A35E33",
"X. c #A85F30",
"o. c #BA7D39",
"O. c #CD5F15",
"+. c #C05F1F",
"@. c #C1601F",
"#. c #835A44",
"$. c #977B58",
"%. c #A67E4E",
"&. c #B17D41",
"*. c #A27D51",
"=. c #82796C",
"-. c #FD8805",
";. c #FB8809",
":. c #EB8616",
">. c #F38611",
",. c #CE822E",
"<. c #D38326",
"1. c #DF8421",
"2. c #D3832B",
"3. c #CA8233",
"4. c #C28138",
"5. c #E08421",
"6. c #526780",
"7. c #546D84",
"8. c #536F88",
"9. c #577087",
"0. c #597187",
"q. c #56728B",
"w. c #5B758B",
"e. c #5D788E",
"r. c #487299",
"t. c #517392",
"y. c #577996",
"u. c #5F7A90",
"i. c #557A9C",
"p. c #637584",
"a. c #617489",
"s. c #647A8D",
"d. c #697E8E",
"f. c #627D92",
"g. c #6C808F",
"h. c #74818D",
"j. c #668196",
"k. c #6C8293",
"l. c #668298",
"z. c #6B859A",
"x. c #6E8A9E",
"c. c #738591",
"v. c #718A9E",
"b. c #788A99",
"n. c #7D8E9D",
"m. c #6F8EA5",
"M. c #768FA3",
"N. c #7690A4",
"B. c #7993A6",
"V. c #7493AA",
"C. c #7B96A9",
"Z. c #7E99AD",
"A. c #8A969D",
"S. c #949C9E",
"D. c #829AAB",
"F. c #8D9FAA",
"G. c #879EB1",
"H. c #93A2AD",
"J. c #87A2B4",
"K. c #8AA5B6",
"L. c #8BA6B8",
"P. c #8EAABC",
"I. c #98AAB8",
"U. c #99ABBB",
"Y. c #9EB0BC",
"T. c #A6AEB4",
"R. c #A9B1B8",
"E. c #92AFC0",
"W. c #95B0C1",
"Q. c #99B3C4",
"!. c #9DB8C9",
"~. c #A8BAC7",
"^. c #B3BDC7",
"/. c #ABC1CD",
"(. c #AEC5D2",
"). c #B0CBDA",
"_. c #BCD2DD",
"`. c #C0D5DF",
"'. c #C1D6E0",
"]. c #C9DBE4",
"[. c #D6E3E8",
"{. c #E2EEF2",
"}. c #E6F0F3",
/* pixels */
"            .   .     .     .   .   .   .     .     .     .     .   .   .   .     .     .   .   .   .   .   . .   .             ",
"          o & & & & % % & % & & # & + % & & $ # & & % & + & & & # & # & + % & & $ $ & & # & + & + % & & + & + & + & o           ",
"          o O . . + % + + + + + + + + + + + + + # + + + + + + + # + + + + + + + + + + + + + + + + + + + + + + . . + o           ",
"          . 6 L P % + + + & + % + & + $ + $ % $ $ + + & $ + & % $ + & + & + & + + $ $ $ $ # & + & + $ # $ + & Y A 6 .           ",
"            k V.C.& O $ + + + + + + + # + + + # + $ $ $ $ + + + + $ + + + + + + $ $ $ + + + + $ + + + + $ O 2 Z.m.f             ",
"            y E l & + & & # $ & # # # $ & # # % $ $ $ $ $ $ $ $ $ $ $ & $ $ $ & $ $ $ $ $ $ $ $ $ & # # $ + & b R q .           ",
"          . y E b % - > - = = * * * * % @ @ % * @ @ @ % > > = @ @ @ @ % @ @ @ @ @ @ @ * * * * * % - = - > - & m Q e             ",
"            r Q b % 4 c ^ s.s.A.H.F.F.F.F.F.F.F.F.H.T.H.8 j n.T.T.R.H.F.H.F.H.F.F.F.F.F.F.F.F.H.M.s.s./ k 3 & B E e .           ",
"          . r Q b + 4 b w.m.z.F.U.U.U.U.U.I.I.U.L.~.[.}.i ~ ).`.^.^.~.I.I.I.I.W.U.I.I.I.I.U.U.U.G.z.v.0.c 3 & M E r             ",
"            r E b & = 5 t q q q 0 0 0 9 9 9 9 0 4 a g._.8 ~ Z.B 0 9 9 9 5 q 9 9 q 9 9 9 9 q 9 9 q q q t 8 - & m E e .           ",
"            u Q M % ; 3 4 1 < 1 3 3 3 3 3 3 3 3 2 > j `.i _ v.: 3 3 < 1 1 4 4 1 3 3 < < 4 1 1 1 < 1 3 3 3 - & c B 8 .           ",
"          . e N h % > 3 , 1 < 1 > 3 > < > 3 > 3 3 @ h ].8 _ k.% 2 3 3 > 1 1 1 1 1 1 1 1 1 1 1 < 1 < , < 3 - 2 ~.!.A             ",
"            z D.A.& = 5 7 5 9 1 4 4 1 9 4 4 4 4 4 5 ~ _.8 _ Z.a 4 < 1 5 < 9 5 < 1 q 1 9 4 4 9 < 5 7 5 q 4 % : D.Z.j             ",
"            Y !.U.; - p K K I ! ( / ! ! W / / ( W w.Y.].8 ~ Y.C.7.) ) ! ! ! ! ! ! ! ! ! ! ! ! ! W K K c y > & a k 5 .           ",
"          . e I g $ q I z.L.G.(.]._.'._.'.'._.'._.].}.[.i U (.}.{.}.[.`.'.'.'.'.`.'.`.`.'.'.'.].~.J.L.f.B 7 + < < ; X           ",
"          . , 7 4 # q x 8.E.E.E.W.W.W.W.W.W.W.U.Q.!.W.v.5 M Z.!.W.Q.W.E.E.W.E.W.E.W.W.W.E.E.W.W.E.E.E.6.c 8 + > 3 ; X           ",
"          o - > > + 1 q e z j L I I I I I U I Y z h h e 3 8 u h I R I I I U I I I I I R I I I E K j j e 8 , $ w y 1 X           ",
"          . 1 q 5 # - 5 q 5 e k c c c c l c c c s 5 4 u 3 4 e a c c c c l c c c c c c c c c z c k w 5 q 5 - & p g 4 .           ",
"          . 8 g u $ - p E R e.f.f.e.u.u.e.s.f.e.l.Q k j.8 u ) j.s.e.e.e.f.s.s.e.f.s.e.e.s.e.s.e.f.w.R E y - & p g 6 .           ",
"          . 7 g y & - u I B 7.w.w.w.w.w.q.w.w.q.e.I h w.8 u ^ w.q.w.w.w.w.w.w.w.q.w.w.w.w.w.w.w.e.7.B Z y - & u g 4 .           ",
"          . 5 g y $ - p E I e.e.w.w.w.w.w.w.w.w.e.^ B w.8 y ^ w.w.w.w.w.w.a.r.=.o.t.w.a.w.w.w.w.e.w.I R u = & p g 6 .           ",
"          . 7 d y > ; t g d b 6.e.w.w.w.w.w.w.w.e.^ Z e.8 y ^ w.w.w.w.w.w.t.' 2.;.%.w.t.w.w.w.w.^ c d g q > > y d 4 .           ",
"          . 7 f u 3 > q b K g ( e.w.w.w.w.w.w.w.w.) ~ w.8 a ^ e.w.w.w.w.w.` <.:.3.;.*.a.w.w.w.e.~ k K b q > 4 a d 4 .           ",
"          . 5 g y 3 > k m.L.f.w.w.w.w.w.w.w.w.w.w.w.e.w.5 y ^ e.w.w.w.w.p.1.-.%.a.5.;.*.t.w.w.w.q.j.L.z.h ; 3 u f 6 .           ",
"          . 5 g y 1 q I m.L.f.w.w.w.w.w.e.w.w.w.w.w.e.0.8 5 I e.w.w.t.' 1.>.$.r.t.e.,.>.&.q.w.w.w.f.E.f.b q 1 p d 1 .           ",
"          . 7 f y 1 q x K U E 6.e.q.w.w.w.w.w.w.w.0.f.B.r < c f.w.0.t.' ;.-.2.4.3.4.:.-.2.t.w.e.6.R W K g w 4 p d 7 X           ",
"          . 7 d p 1 t p y d E 7.w.w.w.w.w.w.w.w.w.w.f.E.8 h 7.E e.w.q.` &.&.o.o.o.o.&.o.$.q.w.w.7.R d t s q 1 p d 6 .           ",
"          . 7 g p 1 t d g E w.a.w.w.w.w.w.w.w.w.w.8.f.G.i 7.c.g ) w.w.w.i.i.i.i.i.i.i.i.y.w.w.w.a.0.R g d w 1 y d 3 .           ",
"          . 7 g p < q x R m 8.w.w.w.e.w.w.w.w.w.w.w.w.w.L.z j K.p ^ e.f.K.K.K.K.K.K.J.L.C.0.w.w.e.7.I B x q 1 p f 6 .           ",
"          . 7 d p 1 q c R I 0.e.w.w.w.w.w.w.e.w.w.w.w.w.Q z._ r D.J B z.f.f.f.f.f.f.f.f.f.w.w.w.e.7.m I k q 1 d d 4 .           ",
"          . 5 g y - q c m B 8.w.w.w.w.w.w.e.w.w.w.w.w.w.Q 0.s./ L a.W m w.w.w.w.7.w.w.9.w.w.w.w.e.7.B B x q - p d 6 .           ",
"          . 6 d y + q c I B 0.e.w.w.w.w.w.a.w.w.w.w.w.w.f.W 6.M.j p.s.! ^ w.w.w.w.w.w.w.w.w.w.w.e.8.m I c 7 $ p g 1 .           ",
"          . 7 d y + q c B I 0.w.w.w.w.w.w.w.w.w.w.w.w.w.0.j.E h '.j p.~.t 6.e.w.w.w.w.w.w.w.w.w.e.9.M B c 5 & p g 6 .           ",
"          + w d y + q b B B 9.w.w.w.w.w.w.e.w.w.w.w.w.w.0.q.w.7.g U.c.5 R w.w.w.w.9.w.w.w.w.w.w.w.9.B B v 5 # y d q #           ",
"          % w d t $ > d I B 9.e.w.w.w.w.w.w.w.w.w.w.q.9.N.j.w.w.g (.h.= E w.w.w.e.C.w.9.w.w.w.w.e.7.B B s ; & p d t #           ",
"          O q d y $ - u R B 0.w.w.w.e.w.w.w.w.w.w.0.w.x.L.x.0.0.B ~.h.> I 0.w.9.f.L.N.e.0.w.w.w.w.9.B I y - & p d 7 +           ",
"          . 5 g y $ - p Z I 9.e.w.w.w.w.w.e.w.w.w.w.z.L.L.z.0.0.b /.d.> E 9.w.0.e.K.L.N.e.w.w.w.e.9.B I u = & p f 6 .           ",
"          . 7 f t $ - p I I 9.w.w.w.w.w.w.w.w.w.0.x.K.K.L.x.w.0.b /.h.> E 9.w.w.e.K.K.K.C.0.w.w.w.7.I Z y - & a g 4 .           ",
"          . 7 g y & - d R B q.w.w.w.w.w.w.w.w.w.w.w.z.L.L.z.0.q.m J._ > I 0.w.w.e.J.P.N.e.w.w.w.w.9.M R y & & u d 4 .           ",
"          . 8 g y & - t v I w.e.w.e.w.w.w.w.w.w.w.0.w.x.L.v.q.0.m Z.( < R 0.w.w.j.L.B.s.0.w.w.w.e.0.B v e = & d g 6 .           ",
"          . 4 y 0 % : 0 a v ^ q.w.0.w.0.q.w.w.9.9.q.0.9.N.j.9.0.m M.W < R 0.w.9.e.B.w.9.w.q.0.w.0.^ k p 5 - % t p < X           ",
"          X ; 1 > % ; e g f M ( e.e.w.w.e.w.w.e.e.w.e.e.w.w.e.9.B q.z 4 I 9.e.e.w.w.w.e.w.w.e.w.( m g g q ; % > 1 - X           ",
"          X ; 4 2 % - h j.D.e.7.z.L.K.J.J.J.J.K.K.J.J.K.J.L.C.7.B q.z 3 I 9.C.L.J.K.K.K.K.J.K.z.9.u.Z.u.s - % 3 1 ; X           ",
"          X ; 3 3 % = v V.P.j.w.f.z.j.j.j.z.z.j.j.j.z.j.j.j.j.9.B q.z 3 I 9.f.z.j.z.z.j.j.j.z.e.q.z.W.m.k % % 2 4 ; X           ",
"          X ; 4 3 + ; e I w.^ 7.q.9.g.h.s.8.8.d.c.g.9.9.g.c.g.9.I 0.z 3 R q.g.h.s.9.9.s.c.g.9.q.7.^ w.U e - % < 3 ; X           ",
"          X - 3 > + > 3 5 y M 7.w.g.S.S.c.q.s.S.S.c.q.s.A.S.b.9.b 9.b 3 B 9.b.S.A.s.q.c.S.S.s.e.( m y 4 3 ; % , 3 ; X           ",
"          X > 4 < % ; s I I 0.w.k.S.S.s.9.d.S.S.g.9.s.S.S.g.q.9.p 7.z > d 9.q.g.S.S.g.9.g.S.S.g.q.9.B R y - $ , 3 - X           ",
"          X : 1 2 + ; p I m 0.w.w.s.s.w.0.w.s.s.w.0.w.s.s.w.w.9.p 7.M > p 9.w.w.s.s.0.0.q.s.s.w.w.7.m I 8 + & 1 3 > X           ",
"          X : 1 , $ o e ^ 8.e.e.e.e.e.u.f.e.e.e.u.s.u.w.u.j.e.^ d w.z - h ^ q.j.u.y.u.u.u.w.e.u.f.e.6.^ 3 X & 3 3 ; X           ",
"          X : 4 , $ 2 8 k ~ ^ ~ ^ ^ Q ~ ^ Q ^ ~ Q ^ ^ ^ U U M a q U r # t s M U U U Q ! ^ ^ ^ ! ^ ^ ^ k 8 ; $ 2 3 ; X           ",
"          X - 4 > + c u + > y a u a a s p p d p p p p d 4 2 4 2 1 < - % 3 3 3 3 3 3 y f p p a p a y y # h k O 3 3 - X           ",
"          X : 1 1 > l E u + v R M B 9.0.0.0.0.0.w.0.9.9.9.0.^ b u d 3 - a t k E 0.7.0.7.w.9.B Z r O & h E k > < 3 ; X           ",
"          . > 4 > 3 5 v B 8 3 y B ^ ^ ^ ^ ^ ^ ^ ^ ^ ^ ^ ^ 6.~ Z g q ; & 8 p B ~ ^ ^ ^ ^ ^ ^ Q B 8 # q E k 4 < 2 3 > X           ",
"          o & > 3 < > 8 h d $ - 8 e y u y u y y y u u r u a u u q 1 - - > 5 y u u y a u u y e 6 - - g g 4 > 3 3 > & o           ",
"          o + & 2 3 3 > 3 y & & & ; 4 4 4 4 4 4 4 5 4 4 4 4 4 4 4 5 0 5 5 5 4 5 4 4 4 4 4 4 - & $ & u 1 > 3 , > % + o           ",
"          o & + % < 3 > 3 3 + 7 l I B I Z B I B B B B B B B B B B B B B B B B B M I B B B I I l 3 $ 1 1 3 3 , $ + & o           ",
"          X $ $ + + ; 1 - + 8 k C K X.+.G V Z { +.#.V C [ +.] Z B } +.] C N ] @.} C C #.+.{ N C k 5 + ; 1 ; + + + + o           ",
"          X ; & $ 3 q p d r k Z F | O.[ S P { O.{ S P [ O.| D B M H  .@.] L F | O.[ L S { O.{ T m k t f y 8 3 + - - o           ",
"          X > > ; d d k Z E R Z H  .} Y V F X...P V T ....F V I B V D ..{ P V S ..X.T V T { X.F C E E I k g d - > : X           ",
"          X > 4 3 e a y d b m b m n n b b m n n m b b n n m m m M M m n N M b b n n m b m n n m m m b p y a y , 4 > X           ",
"            i h X + , 1 2 3 3 3 1 1 4 1 1 1 4 1 1 1 1 1 1 1 1 1 1 1 3 1 3 3 3 < 1 1 4 1 1 1 1 1 , 1 1 1 3 > O o l r .           ",
"          X 4 p k w t a y t t t y y y y y y y y y y y y y p p t p y y y y t t y y y y y p y y p y y y y y y y k u , .           ",
"          O $ 3 u 8 7 8 7 8 0 8 8 7 8 7 7 7 8 7 7 q 7 7 7 8 7 q 5 7 7 8 5 q 8 8 7 8 7 q 7 7 8 7 7 q 7 7 8 8 8 s > & O           ",
"            .                             .                                                                       .             "
};
