/* XPM */
static char *_6630_dec6b68c84af59e78edaa4e9bf3546f4e6c52054bf282917c802ed0d8575d49a[] = {
/* columns rows colors chars-per-pixel */
"64 64 207 2 ",
"   c #05040B",
".  c #0A080F",
"X  c #090511",
"o  c #0D0C15",
"O  c #0F0F18",
"+  c #100E19",
"@  c #0F121A",
"#  c #0D1B1E",
"$  c #11121C",
"%  c #0D1426",
"&  c #131522",
"*  c #151925",
"=  c #181823",
"-  c #121728",
";  c #151B2B",
":  c #191D2C",
">  c #171E30",
",  c #181E30",
"<  c #0A2A28",
"1  c #122729",
"2  c #0A312B",
"3  c #1A2133",
"4  c #152C34",
"5  c #1E263C",
"6  c #1F283E",
"7  c #0D3132",
"8  c #0C3E39",
"9  c #123B31",
"0  c #153338",
"q  c #202736",
"w  c #21263A",
"e  c #22293D",
"r  c #094437",
"t  c #14483B",
"y  c #04583A",
"u  c #13523F",
"i  c #04653C",
"p  c #027C3F",
"a  c #1F2740",
"s  c #232C43",
"d  c #262D48",
"f  c #263144",
"g  c #293244",
"h  c #253B41",
"j  c #27314B",
"k  c #29344C",
"l  c #2D394C",
"z  c #343D4C",
"x  c #2B3651",
"c  c #2E3A55",
"v  c #2E3E59",
"b  c #313E55",
"n  c #313E59",
"m  c #184642",
"M  c #0B5F43",
"N  c #185244",
"B  c #1E5C54",
"V  c #25484D",
"C  c #314055",
"Z  c #394252",
"A  c #35425C",
"S  c #39465F",
"D  c #38485E",
"F  c #275759",
"G  c #0B6043",
"H  c #16624E",
"J  c #19654D",
"K  c #17684A",
"L  c #1B6B4E",
"P  c #1E714F",
"I  c #166D52",
"U  c #196A51",
"Y  c #1A7353",
"T  c #1A7A56",
"R  c #226F4E",
"E  c #28764E",
"W  c #367E4C",
"Q  c #3A7E4B",
"!  c #26675B",
"~  c #364561",
"^  c #3A4761",
"/  c #374962",
"(  c #3A4A63",
")  c #3C4F69",
"_  c #3F5165",
"`  c #3D526B",
"'  c #37596A",
"]  c #3A5271",
"[  c #287C62",
"{  c #424E5A",
"}  c #4A545D",
"|  c #555B58",
" . c #6B5850",
".. c #457F49",
"X. c #414E6A",
"o. c #465666",
"O. c #41556D",
"+. c #555966",
"@. c #425771",
"#. c #455A73",
"$. c #495F76",
"%. c #4A5D78",
"&. c #4B6177",
"*. c #4D647C",
"=. c #51657E",
"-. c #576A7B",
";. c #54697D",
":. c #61707E",
">. c #6D777D",
",. c #777874",
"<. c #B5631E",
"1. c #BB661C",
"2. c #8F5A3F",
"3. c #9C5A37",
"4. c #975B3A",
"5. c #8D643A",
"6. c #A76327",
"7. c #B46722",
"8. c #865843",
"9. c #937A5B",
"0. c #9A7C58",
"q. c #AA7E4B",
"w. c #877A68",
"e. c #028C45",
"r. c #0B904E",
"t. c #21865E",
"y. c #14AA5D",
"u. c #2F8564",
"i. c #268C64",
"p. c #4C8146",
"a. c #5A8A44",
"s. c #638E42",
"d. c #449A7C",
"f. c #BE813C",
"g. c #F8870D",
"h. c #FC880A",
"j. c #EA8619",
"k. c #F38711",
"l. c #D68428",
"z. c #C68235",
"x. c #566B81",
"c. c #546C83",
"v. c #577086",
"b. c #5C7185",
"n. c #56728A",
"m. c #5B758B",
"M. c #5E788E",
"N. c #4E7395",
"B. c #527492",
"V. c #5D7990",
"C. c #587B9A",
"Z. c #657685",
"A. c #61738E",
"S. c #647A8D",
"D. c #6B7B8C",
"F. c #627490",
"G. c #627D92",
"H. c #697F94",
"J. c #489B82",
"K. c #668196",
"L. c #6A8295",
"P. c #6A8499",
"I. c #6F899D",
"U. c #768593",
"Y. c #798794",
"T. c #778895",
"R. c #7C8B96",
"E. c #728B9E",
"W. c #4EA78C",
"Q. c #50AA91",
"!. c #748EA1",
"~. c #7A93A6",
"^. c #7A93A7",
"/. c #7E99AC",
"(. c #3AD689",
"). c #59DFA3",
"_. c #5DFAB0",
"`. c #62F9B4",
"'. c #818E98",
"]. c #869299",
"[. c #8B959C",
"{. c #8F989C",
"}. c #959C9E",
"|. c #989F9F",
" X c #8D98A3",
".X c #819CAF",
"XX c #839EB0",
"oX c #86A1B3",
"OX c #89A4B6",
"+X c #8BA6B8",
"@X c #8DA9BB",
"#X c #91A9BB",
"$X c #91ADC0",
"%X c #98B1C1",
"&X c #A8BCC8",
"*X c #ADC0CB",
"=X c #B2C3CE",
"-X c #AFC7D3",
";X c #B7CBD7",
":X c #BDD1DC",
">X c #C7D6DD",
",X c #C3D7E1",
"<X c #C6DAE3",
"1X c #D7E6EC",
"2X c #DBE7EC",
"3X c #E6F3F7",
"4X c #F5FFFF",
/* pixels */
". e #.@.l X ; : ; - ; - % % % % - % % - % % & % % % % % 3 - % % % % % % % & % % % % % & % % % - % % & % - - - ; : , o q @.@.x o ",
". e @.@.l o w c _ *.-.-.D.T.Y.Y.U.U.U.U.U.U.Y.H.'.[. X+.> o.D. X].].[.Y.U.U.U.U.'.H.D.'.'.H.U.D.H.'.'.D.x.x.-.o.n s + q @.@.b o ",
". e @.@.k o s ` M./.+XOX-X>X:X:X:X:X:X:X:X:X:X:X1X3X4X X% ^.;X3X2X2X2X>X:X:X,X:X:X:X:X:X>X>X;X>X:X:X,X;XXX+XXXG.#.k $ q @.@.l o ",
". e @.#.k o > s A A A A A ^ ^ ^ ^ ^ ^ ^ ^ ^ ^ S =.!.<XY.; ~.XXL.@.X.X.S ^ ^ ^ ~ ^ ^ ^ ~ n X.S S ^ ^ ^ S ~ ~ ^ n k > + q @.@.c O ",
". e @.#.l o ; 3 s s e s a a 6 a s 5 a w 5 s 6 e j o.:XY.- ~.P.A s 5 a a w s 5 a a a 5 s 5 s 5 s a a 5 s s 5 s s w > o q ` ] l @ ",
"o e @.@.l o > 3 > > > > > > : 3 > > > > > > > > - w ;XY.- .Xb.% > > > , > > > > , , > > > > > > , , , , > > > > > 3 o e *.#.C o ",
". q _ ` f o 1 > > > > > > > > > > > > > > > > > - q ;XR.; /.b.& > > > > , , > > , > > > > > > > , : , : , , > > > 3   } <X%X-.o ",
"  Z K.~.+.. ; 3 s e e 6 e 6 6 6 a a w 6 a w e w d ( :XY.- /.L.l s 5 a a s , s w 5 5 s 5 a w e e a a a a a w w s w > . Z @X^.o.o ",
"  D $X<XR.  ; s c n n n n { n A A A A A A n A n &.P.,XR.; ~./.S.^ n n { A A A A A n A A A A A A A A A A n n n A j 3 @ 3 ) _ k @ ",
"  f c.v.Z X s ( v.!./.~.%X&X&X&X*X*X&X*X*X*X*X&X:X1X4X{.- !.-X1X<X>X1X&X&X*X&X*X&X=X=X&X*X*X&X*X&X&X*X&X/.^.~.M.O.j $ & 5 5 ; = ",
". 3 v c 5 O d ) c.XX$X@X&X;X;X;X-X-X-X-X-X=X-X-X;X>X;XZ.- M.%X<X>X>X>X;X-X-X-X-X-X-X=X-X-X-X-X-X-X;X-X-X#X@X+XM.O.x & $ 3 3 & = ",
"o # : 3 & O g A ) !.OXXX.XXXXXXX.XoX.XoX.XOX.XXX/./.m.D 3 &.P.oX.X.X.X.XoX.XoX.XOXXX.XoXXXXXXXXX.X.XXX.XXX+X.X#.A x $ & 3 3 & = ",
"o = 3 > & O 3 3 3 f g f n ^ ^ ^ D S S ^ D ^ A g g f e 5 > 5 e f n ^ ^ ~ ^ S ^ ~ S S / S S S D S S S S S g f f 5 3 5 + : k x 5 = ",
"o = s e 3 O * 5 g s s l n ( ^ ^ ( ( ^ / ^ ( ^ l f 3 l f 3 s f l ~ ^ ^ ^ / ^ / ^ ( D ^ ^ ^ ^ ( ( ( ( ( S l f 6 g e : o : v v e $ ",
"o 3 n c e o * k #.` %.V.M.V.V.V.M.M.V.V.M.m.M.V.@.c M.o.; / c.V.F.V.M.M.M.M.M.M.M.S.M.M.m.V.V.M.M.M.S.M.S.c.O.#.A : + : b b e $ ",
"o 3 c c w o ; j O.` #.M.m.m.m.m.m.m.m.m.m.m.m.M.O.x m._ ; / *.V.m.m.m.m.m.m.m.m.b.B.B.m.m.m.m.m.m.m.m.m.M.*.` ] c : + : b n e = ",
"o : b c w o ; j O.` #.M.m.m.m.m.m.m.m.m.m.m.m.M.#.A m.o.; / *.m.m.m.m.m.m.m.m.m.m.,.,.m.m.m.m.m.m.m.m.m.m.=.` @.C ; O : c c e # ",
"o 3 c c w o = j O.` &.V.m.m.m.m.m.m.m.m.m.m.m.M.&.` m.` : / *.m.m.m.M.m.m.m.m.m.B.z.l.B.B.m.m.m.m.m.m.m.M.=.` @.C : O : c c e $ ",
". 3 b b s ; : s n c n S ;.M.m.m.m.m.M.m.m.m.m.M.&.` m._ ; / *.V.m.m.m.m.m.m.N.>.z.j.j.z.,.N.m.m.m.m.M.c.) n c A j : & 5 c n e $ ",
"o 3 b x d , : s S X.( n *.M.m.m.m.m.m.m.m.m.m.M.=.#.M._ > / &.m.m.m.m.m.m.m.>.0.g.l.l.h.q.>.m.m.m.m.M.v.A S ) ^ k 3 3 6 c b e = ",
"o 3 c c d : ; c V..X/.n.m.m.m.m.m.m.m.m.m.m.m.m.m.m.G._ : ( =.m.m.m.m.m.M.B.z.g.g.w.>.k.h.l.m.B.m.m.m.m.n.E.+XK.) ; > e c c w & ",
". 3 c c s 3 6 D G.oXXXM.M.m.m.m.m.m.m.m.m.m.m.m.m.m.V._ : x O.M.m.m.m.B.,.f.j.l.w.m.m.w.z.j.f.w.B.m.m.m.n.^.#XP.#.s , e c c w $ ",
"o 3 v c d > k ) c.I.E.v.m.m.m.m.m.m.m.m.m.m.m.m.m.m.P.O.: d X.M.m.m.m.B.9.h.g.z.>.>.,.Z.f.g.h.0.B.m.m.M.c.L.!.n.O.x , s c n s $ ",
". 3 c c s > k c c l b ` c.m.m.m.m.m.M.m.m.m.m.m.m.M.+Xc.- s ) G.m.m.M.N.w.h.k.k.k.k.k.k.k.g.h.0.B.m.m.n.O.A x c b x , e c n w $ ",
"o 3 b b s 3 k x x n ` c.m.m.m.m.m.m.m.m.m.M.m.m.m.M.@X-.- m.b.( v.M.m.m.>.9.9.9.9.9.9.9.9.9.9.>.B.m.M.b.c.@.A c x x 3 a c c s $ ",
". 3 x b d > k v v ) %.M.m.m.m.m.m.m.m.m.m.m.m.m.m.S.XXb.g T.S.n *.v.m.m.B.C.C.C.C.C.C.C.C.C.C.m.m.m.m.m.m.c.) A c c 3 6 c c e $ ",
"o : b c g > k A ` ` #.m.m.m.m.M.m.m.m.M.m.m.m.m.m.m.n.E.OXq X.$XD A G.m.P.+X+X+XOXOXOXOXOXOX+XI.n.m.n.m.m.*.` ` ^ x 3 6 c c e $ ",
"o 3 c c s 3 k A @.` #.m.m.m.m.m.m.m.m.m.m.m.m.m.m.m.m.m.S.-.&.o.S.x.) c.K.I.I.I.I.I.I.E.E.I.E.G.m.m.M.m.V.*.) O.^ x 3 s c n e $ ",
"o : n c s : j A @.` #.m.m.m.m.m.m.m.m.m.m.m.m.m.m.m.M.*.` oXZ.> T.H.b =.v.n.v.m.m.v.m.v.v.m.v.m.m.m.m.m.M.*.) O.^ x , e c c s $ ",
". q c c w + d A ` ` &.m.m.m.m.m.m.m.m.m.m.M.m.m.m.m.m.m.v.O.m.+Xe D #XA A G.m.m.m.m.m.m.m.m.m.m.m.m.m.m.M.*.) @.^ x & : c c e + ",
". : b n w o d ~ O.` &.m.m.m.m.m.m.m.m.m.m.m.m.m.m.m.m.M.m.*.=.b.D.:.#.U.D.O.c.m.m.m.m.m.m.m.m.m.m.m.m.m.M.*.) ` / x $ : c c w $ ",
"o 3 n b w + d A ` ` #.m.m.m.m.m.m.m.m.m.m.m.m.m.m.m.m.m.m.G.#.k -X X& &X#Xj *.M.m.m.m.m.m.m.A.m.m.m.m.m.M.*.` @./ x $ : c c s & ",
"; e c v 6 o j / O.` $.M.m.m.m.m.m.m.m.m.m.m.m.m.m.m.m.m.m.m.m.c.^ Z.-Xo.k X.x.M.m.m.m.v.m.m.m.m.m.m.m.m.m.=.` ` ) x $ : c c d 3 ",
": s c c 5 o 5 C O.` #.m.m.m.m.m.m.m.m.m.m.m.m.m.m.m.n.G.I.M.m.m.n A.<Xz 3 O.x.M.m.m.m.I.K.m.m.m.m.m.m.m.m.*._ @.A f $ = b c g 3 ",
": s c c w o * f O.` $.m.m.M.m.m.m.m.m.m.m.m.m.m.m.m.v.E.+XS.m.v.` U.,XZ 6 O.c.M.m.m.K.@XP.m.m.m.m.m.m.m.M.=.` @.C ; O 3 c c j 3 ",
"o 3 n c w o * k O.` $.m.m.m.m.m.m.m.m.m.m.m.m.m.n.m./.oXoXG.m.m.` L.,XZ 6 ` c.M.m.v.K.OXoX~.v.m.m.m.m.m.m.*.` @.C ; O ; c c e = ",
"X 3 b b w o * j O.` #.M.m.m.m.m.m.m.m.m.m.m.m.m.K.I.oX+XoXG.m.m.` L.>XZ 5 ` v.m.m.v.K.oX+XoXP.K.m.m.m.m.m.;._ ] c : + : c n e $ ",
"o 3 c c w O ; f O.` #.m.m.m.m.m.m.m.m.m.m.m.m.m.!.@XoX+XoXG.m.v._ P.>XZ 5 ` c.M.m.m.K.oXOXOX+XI.m.m.m.m.M.&.` @.C : + : c v e + ",
"o 3 b c w O * j @.` $.m.m.m.m.m.m.m.m.m.m.m.m.m.M.P.oX+XoXG.m.m.` m.#XC 6 @.c.M.m.v.K.OX+XoXK.m.m.m.m.m.m.*.' @.C : O : b c s o ",
"o , c c w o ; s ) ` #.M.m.M.m.m.m.m.m.m.m.m.m.m.m.m.!..XoXS.m.n.O.m.+Xl 6 ` c.M.m.v.K.+X/.E.m.m.m.m.m.m.M.*.o.) x > + : c n e o ",
"o : c n w o : s c ( $.m.m.m.m.m.m.m.m.m.m.m.m.m.m.m.v.I.+XG.m.m.` v.+Xl 6 ` v.m.m.v.K.+XP.v.m.m.m.m.m.m.M.*.) n s 3 @ : n c e o ",
"o = 6 e ; o - 6 x k A @.c.m.v.n.m.m.v.v.m.v.v.m.n.v.v.M.G.m.m.m.@.*.P.e f ` v.m.n.m.m.S.M.v.v.m.n.v.m.m.#.~ x x s > @ & 5 6 : + ",
"o & > 3 * o ; d ) O.#.#.c.V.P.P.P.P.L.P.P.K.P.P.P.P.P.K.K.L.G.m.O.#.m.e 6 ` ;.K.P.K.K.K.L.P.L.L.L.P.G.v.$.#.O.` x 3 @ $ > > ; O ",
"o * 3 3 ; o * b G.oX.Xm.n.L.+X+X+X+X+X+X+X+X+X+X+X+X+X+X+X@X^.v.O.&.K.e f ' =.K.@X+X+X+X+XOXOXOX@X#XE.n.n.!.+XP.` ; @ $ 3 3 ; O ",
"o * 3 3 * o - C K.oX/.M.m.M.K.K.K.K.K.P.L.P.K.K.P.L.L.K.K.K.G.m.#.&.m.e e ' ;.K.K.K.K.K.K.L.K.K.K.P.S.m.m.!.@XI.` ; O & 3 3 ; O ",
"o - 3 , * + ; l *.P.P.c.v.m.m.S.S.S.m.v.v.m.S.S.m.n.v.M.S.S.M.m.` &.K.e e #.;.m.S.S.S.v.v.m.L.Z.S.v.m.m.c.G.!.c.A > O $ 3 3 ; o ",
"o * 3 3 ; o : > : f n ' v.m.v.R.}.|.L.m.v.T.}.|.T.n.v.U.}.|.R.m.#.&.m.e f @.;.K.|.}.].m.v.K.{.}.].m.m.v.` A k 3 : 3 $ & 3 3 ; o ",
"o & 3 3 * o ; s A A ` ;.v.S.R.{.{.U.S.M.R.{.}.U.S.m.R.].}.T.G.v.D ` M.f 5 A =.K.L.[.}.'.L.m.L.].}.'.L.v.c.@.~ A g 3 + & 3 3 * $ ",
"o & , , * o ; g #.` #.M.m.S.[.[.'.n.n.F.[.[.'.m.m.A.'.{.].M.m.m.b ( M.s , x =.V.v.U.[.[.H.n.n.U.{.{.U.v.S.*.` #.n ; $ & 3 3 ; o ",
"o * 3 3 : o ; k @.O.%.S.V.F.F.F.F.F.A.A.F.F.F.F.V.A.F.F.A.S.V.S.n ) M.d 5 c x.G.A.A.A.A.A.A.A.V.A.F.F.V.F.=.X.%.l X o $ 3 3 ; O ",
"+ - 3 3 * o O 4 F I t.i.i.i.i.i.i.i.i.i.i.i.i.i.i.i.i.i.i.i.[ F c ` G.q : c F ! i.i.i.i.i.i.i.i.i.i.i.i.i.t.T B 0 o o & 3 3 ; o ",
"o - , 3 : o $ 1 r p e.e.e.e.e.e.e.e.e.e.e.e.e.e.e.e.e.e.e.e.i r f ^ x.: & x 8 y e.e.e.e.e.e.e.e.e.e.e.e.e.e.e.y 2 = o & 3 3 : o ",
"o * 3 3 - + D l o 3 e k j j j j j j j j j j j d j j k a - - > , 3 , 3 $ & 3 3 > > 3 : - a k j j j j j j v C c O q O.* $ 3 3 ; O ",
"o & 3 3 ; : ) ( t # e W.Q.W.W.W.W.W.W.W.W.W.W.W.W.W.Q.J.d.J.u.y r 0 d & & g 0 r M u K d.W.W.W.W.W.W.W.J.6 > 3 9 V @.3 - > 3 ; O ",
"o & , 3 > 3 ~ F P # m `._._._._._._._._._._._._.`._._._._.`.(.e.y m x $ ; c r i r.e.y._._._._._._._.`.).* . @ K ! ( e > > 3 ; + ",
"o * 3 , > , , V P u 9 1 c / M M M M M M M M M M M M M M M G M y y r , $ @ 5 r y i y y G G M M G M G F A @ < t Y N 3 3 3 3 3 ; @ ",
"$ $ * > 3 , > 4 t u 9 X - : < < 7 7 7 7 7 7 7 2 7 7 7 7 7 7 7 7 7 0 : & * > 4 7 7 7 7 7 7 7 7 7 2 < : : + 1 N m e 3 3 > 3 ; $ $ ",
"o o o ; 3 3 , > : t 9 o + + $ : 3 3 3 3 3 3 3 : 3 3 3 3 3 3 3 3 3 3 3 3 3 4 3 3 3 3 5 3 3 3 3 3 : $ @ o o 2 t , > 3 3 > > $ o o ",
"$ o o $ * 3 3 > , 3 : o w V J J H H J L J H H K J J K J H H J J U J H K J J U J H H H J J J H H H J V d o = 4 , 3 3 3 ; o $ + $ ",
"o $ + + $ - > 3 > = ; , h F I E W W E U I E u.Q E L K E Q u.E U I R u.Q E I Y R W W W I I P W W W I ! V 3 ; & : > 3 ; $ o O o $ ",
"@ + @ o + O : 3 3 $ ; n F I L p.s.a.W U L p.s.s.Q K U Q s.s...U U W a.s.p.L U E s.s.a.R U E a.s.a.R L U A 5 o 3 3 , $ + $ O o $ ",
"o & > o ; k k c _ D ^ _ ' | 6.1.6.o.' o.6.1.6.+.' o.6.<.7.| O.' ' ' o.6.1.7.| ' ' 3.1.<. .' ' 5.1.<. .' ) ( A _ ~ k l 3 o ; * $ ",
"o & 3 & 3 n c v ) ` @.@.` +.3.3.8.` ] o.4.3.8.X.] o.2.3.2.o.] X.@.] ] 8.3.4.+.) ]  .3.3.| ] ]  .3.3. .] O.@.@.) ~ c v s $ : ; + ",
"o * 3 > s c x c x ) ] ` ` ` ] ] ` O.O.` ] ] ] ] ` ` ] ] ] ` O.O.O.O.O.] ] ] ` ` @.] ] ] X.O.` ] ] ] ] ` O.` ` c x x c j 3 3 : o "
};
