/* XPM */
static char *_6200_70ea6e18f1105d5710d30804d19fe9befba45910b7a6d6b98d0d912112242c97[] = {
/* columns rows colors chars-per-pixel */
"32 32 173 2 ",
"   c #010101",
".  c #06050A",
"X  c #06080D",
"o  c #070A10",
"O  c #0B0B14",
"+  c #0F0F18",
"@  c #0F111C",
"#  c #10121C",
"$  c #1B0E26",
"%  c #0D1120",
"&  c #0C1A29",
"*  c #121624",
"=  c #131826",
"-  c #161B2C",
";  c #191D2D",
":  c #171E34",
">  c #191D33",
",  c #0E2D29",
"<  c #122C27",
"1  c #17272F",
"2  c #1A202E",
"3  c #112B29",
"4  c #072F35",
"5  c #0D2F31",
"6  c #1D2333",
"7  c #1A2B34",
"8  c #1E2539",
"9  c #1F283E",
"0  c #0A3033",
"q  c #093536",
"w  c #133234",
"e  c #18323C",
"r  c #133A3C",
"t  c #212531",
"y  c #20263C",
"u  c #222A3D",
"i  c #054D32",
"p  c #14493A",
"a  c #025C39",
"s  c #163446",
"d  c #1C3543",
"f  c #242D44",
"g  c #252F48",
"h  c #233344",
"j  c #283347",
"k  c #273B47",
"l  c #283946",
"z  c #273249",
"x  c #29334A",
"c  c #253D4B",
"v  c #2C394D",
"b  c #333E4F",
"n  c #2E3B53",
"m  c #2D3A56",
"M  c #303E53",
"N  c #145B41",
"B  c #24434B",
"V  c #3C4857",
"C  c #34425C",
"Z  c #384659",
"A  c #265C58",
"S  c #186B4A",
"D  c #157750",
"F  c #1C7854",
"G  c #296E4C",
"H  c #36714E",
"J  c #23695B",
"K  c #326853",
"L  c #277354",
"P  c #297352",
"I  c #25755F",
"U  c #28765F",
"Y  c #25785F",
"T  c #394261",
"R  c #3A4B63",
"E  c #3E4E69",
"W  c #3E536D",
"Q  c #3C5471",
"!  c #277660",
"~  c #2B7A63",
"^  c #444F5E",
"/  c #43505F",
"(  c #72574B",
")  c #72584F",
"_  c #7A584A",
"`  c #625456",
"'  c #6A5651",
"]  c #487B43",
"[  c #407F4D",
"{  c #435365",
"}  c #4A5566",
"|  c #41546C",
" . c #485468",
".. c #46586B",
"X. c #4A596C",
"o. c #525E6D",
"O. c #415671",
"+. c #455B73",
"@. c #4A5E74",
"#. c #54606F",
"$. c #4C6073",
"%. c #4C637B",
"&. c #4F687F",
"*. c #526274",
"=. c #52677D",
"-. c #566A7D",
";. c #7F786B",
":. c #606F7F",
">. c #8B593F",
",. c #B97E3C",
"<. c #815946",
"1. c #A97D4A",
"2. c #81796A",
"3. c #8B7E6C",
"4. c #2C8666",
"5. c #2E8D6A",
"6. c #34896F",
"7. c #33906F",
"8. c #358E72",
"9. c #388D72",
"0. c #46824D",
"q. c #568444",
"w. c #DF831F",
"e. c #EF8613",
"r. c #DA8323",
"t. c #C48033",
"y. c #536383",
"u. c #556E84",
"i. c #5B6F84",
"p. c #567086",
"a. c #5D7284",
"s. c #55728B",
"d. c #5A758A",
"f. c #5E798E",
"g. c #4E7292",
"h. c #557794",
"j. c #5E7A90",
"k. c #527898",
"l. c #5F7E98",
"z. c #637483",
"x. c #687786",
"c. c #64778C",
"v. c #627A8D",
"b. c #627B92",
"n. c #707E94",
"m. c #70808F",
"M. c #668095",
"N. c #6A8195",
"B. c #6A849A",
"V. c #6E899C",
"C. c #728296",
"Z. c #758A95",
"A. c #7A869A",
"S. c #748B9E",
"D. c #6F8EA4",
"F. c #6C8FAB",
"G. c #738EA2",
"H. c #6C91AE",
"J. c #7490A5",
"K. c #7A95A8",
"L. c #868D9C",
"P. c #898E9D",
"I. c #8394A5",
"U. c #8D93A0",
"Y. c #839CAF",
"T. c #8999AA",
"R. c #85A0B2",
"E. c #92A7B6",
"W. c #9FABB7",
"Q. c #97ABBB",
"!. c #99ACBC",
"~. c #9FB5C4",
"^. c #B3C2CC",
/* pixels */
"      # + + + + + + + + + + + + + O + + + + + + + + + + + .     ",
"      V / . + O O O O o O O O O O O O O O o o O O O . V {       ",
"      C M @ - 2 2 t 6 2 2 ; = ; 2 t t 2 2 t t 6 ; > # v R       ",
"      C v t u.N.I.I.I.I.T.^.} E.W.T.I.I.I.I.I.I.n.i.f f C       ",
"      v j * 9 8 8 8 8 9 2 m.:.$.6 8 8 8 8 8 8 8 8 9 * b R       ",
"      @.o.@ 8 : > > : > & v.:...- > > > > : : : : 8 % #.z.      ",
"      { ^ y b.Y.!.!.!.Q.~.^.X.^.^.!.!.!.!.!.!.!.Y.B.j = 6 .     ",
"    . * @ 8 | i.c.c.v.v.c.$.u $.v.c.v.c.c.c.c.c.i...8 - 8 .     ",
"      f 8 - C | $.@.@.%.R C h R $.$.*.%.Q @.@.@.| C ; 8 x .     ",
"      f 9 > W p.f.f.f.j.p.$.n y.l.v.h.:.3.k.f.f.d.O.6 8 x .     ",
"      f f 6 | +.d.d.s.d.p.&.v %.d.s.v.t.r.2.g.d.+.| 8 u x       ",
"      f g f V.b.s.d.d.d.d.d.f @.j.a.w.1.2.e.2.g.v.G.x f z .     ",
"      f g g C %.d.d.d.d.s.V.Z @.s.x.,.1.1.,.;.h.%.C j f f       ",
"      f g x E u.d.d.d.d.d.b.a.*.%.s.H.F.D.F.l.d.d.W x f x .     ",
"      f f j | u.d.d.d.d.d.p.p.-.*.%.d.f.c.f.d.d.u.O.x y h .     ",
"      f y f | u.d.d.d.d.d.d.p.=.x.z.$.a.s.d.d.d.u.O.x 8 x       ",
"    o x 8 9 | u.d.d.d.d.s.f.V.%.C.#.W f.b.f.s.d.p.| u 8 v X     ",
"    . g t 2 W u.d.d.d.s.d.K.K.%.S.*.W d.G.Y.f.d.p.O.2 8 x .     ",
"      f u 2 W s.d.d.d.d.d.K.Y.&.N...| d.G.R.f.a.d.O.8 8 x       ",
"      9 6 - m %.d.d.d.d.d.d.V.u.p.Z | f.N.j.p.f.&.m - 2 f       ",
"    . = * 6 b.a.N.J.J.J.G.G.G.j.$.n O.S.G.J.G.B.d.N.u # - .     ",
"    . - * ; =.p.d.Z.v.M.Z.d.Z.v.$.C O.A.N.v.Z.f.u.=.6 = ; .     ",
"      - = ; C y.A.P.v.L.C.n.U.c.O.v { G.L.v.P.A.y.T 2 * -       ",
"    . - = = J ~ U I U U I ! ! A W j c ~ U Y I U 4.J * * - .     ",
"      - - l , ~ 8.6.6.6.6.6.4.N e ; 7 i S 6.8.8.N w k - - .     ",
"    . = ; c p K 8.5.5.5.5.5.7.D q $ e a F 7.4.9.t p B > - .     ",
"    . @ - - w O & 4 5 4 5 0 4 w r r r r q 5 5 & % w - - #       ",
"      @ + 8 > h H q.P ] 0.G q.P L q.G [ ] L q.H z ; 8 + @ .     ",
"    . = > n R Q ' _ | >.} ` <.| W _ '  .>.{ ) ( Q R n 6 * .     ",
"      u y y d h d s d s h s s d e s d h s d s s h h y 8 h       ",
"    . = u > 1 < 3 3 < < < < 3 3 3 3 , 3 < < , < , 1 8 u - .     ",
"      . . . . . . . . . . . . . . . . . . . . . . .   . .       "
};
