/* XPM */
static char *_920_5c28bd14060c50d5f3ed89b563083cf1fd3d79166145fbfc8df503ad43cd3a6f[] = {
/* columns rows colors chars-per-pixel */
"64 64 214 2 ",
"   c #000000",
".  c #060509",
"X  c #08070C",
"o  c #09090E",
"O  c #0D0D16",
"+  c #0F0F19",
"@  c #100F13",
"#  c #110D1A",
"$  c #0E111B",
"%  c #0E191B",
"&  c #101115",
"*  c #11121C",
"=  c #110F26",
"-  c #0E1520",
";  c #131522",
":  c #141823",
">  c #1A1729",
",  c #161C2D",
"<  c #191D2C",
"1  c #161E30",
"2  c #181F31",
"3  c #151E39",
"4  c #201A34",
"5  c #0C2526",
"6  c #1A202E",
"7  c #13312C",
"8  c #162031",
"9  c #1B2233",
"0  c #142C31",
"q  c #1B233C",
"w  c #182838",
"e  c #1D293C",
"r  c #0E3632",
"t  c #153638",
"y  c #242836",
"u  c #21273C",
"i  c #232B3D",
"p  c #282E39",
"a  c #034333",
"s  c #0D4936",
"d  c #094939",
"f  c #104535",
"g  c #144C3C",
"h  c #09583D",
"j  c #6A7E3B",
"k  c #1D2741",
"l  c #1F2942",
"z  c #1E3646",
"x  c #1B3E45",
"c  c #232D43",
"v  c #252F49",
"b  c #253144",
"n  c #283645",
"m  c #24324C",
"M  c #2A344B",
"N  c #2C394D",
"B  c #2B3651",
"V  c #2E3A55",
"C  c #2F3B58",
"Z  c #303D55",
"A  c #313E59",
"S  c #1A4447",
"D  c #155146",
"F  c #175646",
"G  c #1B5246",
"H  c #165148",
"J  c #34425B",
"K  c #37465B",
"L  c #275859",
"P  c #39525F",
"I  c #0E6B4A",
"U  c #17694D",
"Y  c #0E7255",
"T  c #137353",
"R  c #3A6845",
"E  c #2B7D4C",
"W  c #32754F",
"Q  c #216453",
"!  c #266658",
"~  c #267E51",
"^  c #364661",
"/  c #384862",
"(  c #3A4C65",
")  c #3B4F69",
"_  c #3A5668",
"`  c #3E526C",
"'  c #2E5175",
"]  c #345271",
"[  c #3E5672",
"{  c #3D6F6B",
"}  c #444D5C",
"|  c #5A565D",
" . c #72574C",
".. c #635655",
"X. c #416F47",
"o. c #46794E",
"O. c #415265",
"+. c #42556D",
"@. c #4A5768",
"#. c #4A566A",
"$. c #5B5861",
"%. c #505E6D",
"&. c #425671",
"*. c #455A72",
"=. c #495D75",
"-. c #495F78",
";. c #4C637B",
":. c #4F687F",
">. c #52657C",
",. c #53687E",
"<. c #5D6C7D",
"1. c #49727C",
"2. c #6B757C",
"3. c #727371",
"4. c #747777",
"5. c #AF5D27",
"6. c #B95E21",
"7. c #C45F1B",
"8. c #825943",
"9. c #9C7C55",
"0. c #A97E4C",
"q. c #837562",
"w. c #8B7A64",
"e. c #6F873F",
"r. c #70823A",
"t. c #048C48",
"y. c #04964A",
"u. c #06954C",
"i. c #07984D",
"p. c #38844B",
"a. c #298051",
"s. c #3A896B",
"d. c #6A8743",
"f. c #47937B",
"g. c #F9880B",
"h. c #EB8617",
"j. c #E3851D",
"k. c #F38712",
"l. c #D78328",
"z. c #C88133",
"x. c #4F6E80",
"c. c #546C83",
"v. c #596C84",
"b. c #556C88",
"n. c #4E7982",
"m. c #567086",
"M. c #5C7284",
"N. c #517A84",
"B. c #56728A",
"V. c #5B758B",
"C. c #5E788E",
"Z. c #4E7395",
"A. c #557593",
"S. c #5F7A90",
"D. c #617484",
"F. c #64768D",
"G. c #67798A",
"H. c #627B8E",
"J. c #637691",
"K. c #637C92",
"L. c #6B7B92",
"P. c #4A9A82",
"I. c #668196",
"U. c #6B8295",
"Y. c #6B859A",
"T. c #6A869B",
"R. c #758496",
"E. c #7C8C95",
"W. c #778698",
"Q. c #728B9D",
"!. c #7B8B9E",
"~. c #52A38F",
"^. c #53A992",
"/. c #698BA7",
"(. c #738DA1",
"). c #7D8CA0",
"_. c #7993A5",
"`. c #7994A7",
"'. c #7C96AA",
"]. c #3DD28B",
"[. c #49DD99",
"{. c #4CE19B",
"}. c #57DBA3",
"|. c #56E8A8",
" X c #818F97",
".X c #858D9B",
"XX c #898F9B",
"oX c #84929B",
"OX c #87929A",
"+X c #8F989B",
"@X c #959E9E",
"#X c #8593A3",
"$X c #829CAE",
"%X c #8A99AA",
"&X c #909EAD",
"*X c #839EB1",
"=X c #8BA0AF",
"-X c #85A1B3",
";X c #8BA5B7",
":X c #8EAABC",
">X c #94A7B6",
",X c #91ACBE",
"<X c #9CB5C5",
"1X c #A5B7C2",
"2X c #A7BBC7",
"3X c #B4C5CD",
"4X c #B6CBD6",
"5X c #BED4DF",
"6X c #C1CCD2",
"7X c #C4D0D5",
"8X c #C2D8E2",
"9X c #D5E4EB",
"0X c #D7E9F0",
"qX c #DBEBF0",
/* pixels */
"          o * O * O + + + * + + # # O # O # + + + + + + $ + + + + + + + + + + + # + # # O * + + + + + + + + + + + # O           ",
"          o O o X O O O O O O O O + O + O O O @ + + O @ + O O O + + + + @ O + + O O O O O O + O + @ + O + + O X X O O           ",
"          . 9 =.G.y o * + * + & + O + + * + + + + + + + & # + + + + + + + + + @ # + + + # + + + + + + + & O > D.>.p o           ",
"            p S.(.y X # O O O # # O + + O + + + + @ + + + O O O @ + + @ + O + O O + + + O & + + @ + O + & o < Y.I.N X           ",
"          . y ` ( , O * * + + + + + + + + + + + + # + + + + $ + + O + + + + + + + + + + + + + # + + + $ * + : K &.i X           ",
"            9 &.` > ; 2 , < 1 1 1 1 1 1 1 1 1 1 , , 1 1 2 3 2 1 , 1 1 , < < 1 1 , 1 1 1 1 1 1 < , < 2 , 2 ; * ) *.i .           ",
"          . 9 [ ` , < ^ c.!.Q.=X1X1X1X1X1X1X1X1X1X2X6X7X} J &X3X6X7X3X1X1X1X1X1X1X1X1X1X1X1X1X2X>X(.).v.) 9 ; ) *.b .           ",
"          . y +.` < : V =.V.V.L.).!.!.!.!.!.).).W.%X3XqX} K <X3X%X%X#X!.).!.!.).!.!.!.!.!.!.!.).L.V.V.>.J , * ) *.b X           ",
"          X 9 &.` 6 $ 9 c k k k 3 q q q 3 q q q 9 e *.5X} O.$X( k 3 3 q q 3 q q 3 q 3 q q 3 q q q k k c e ; * K [ i .           ",
"            y &._ < ; 9 1 2 9 2 9 9 2 9 9 2 9 2 9 , i 4X} O._., 2 9 9 2 2 9 2 9 9 9 9 2 2 2 9 9 2 2 2 2 9 : : +.;.n .           ",
"          . y ` ( 6 : 9 2 2 2 2 2 9 4 2 2 2 2 2 9 , i 4X} @._., 2 2 9 9 2 9 4 2 2 2 2 9 3 2 2 2 2 2 3 < 9 - y 3X2X}             ",
"            n -X1Xp O e c c c k 3 k k q k k k q q l =.4X} O.*X( k 3 q k q k q u k q k q k q k q k c c c k - : F.K.V .           ",
"            n `.>Xp = Z *.v.v.F.L.W.L.W.W.L.R.R.R._.2XqX} P <X1X%X#X.XL.W.W.L.W.W.W.L.W.W.W.L..XL.x.c.&.A 2 * c M 9 O           ",
"          . < J V ; 2 ) C.:X<X2X8X8X8X8X8X5X8X8X5X8X0X9X} K <X0XqXqX9X5X5X5X8X8X5X5X8X8X5X8X8X8X3X<X<XK.+.u O < , ; @           ",
"          X ; 9 < $ 2 A +.'.'.'.$X$X*X%X$X$X*X$X'.$X'.V.c N I.'.*X$X*X*X*X*X$X*X$X*X$X%X$X%X*X*X$X$X'.=.J u O 2 9 , &           ",
"          X ; , , * : e 9 c u m } A A A A A A ^ n i i e 9 9 e i Z A A A A A A A A A A A A A A A N u c 3 9 , * M V 9 @           ",
"          X : m v ; * i Z B K +.*.*.*.*.*.*.;.*.+.J c ` i e K ` *.*.*.*.*.*.*.*.;.*.*.*.*.*.*.*.+.( Z Z b - * B A e o           ",
"          X < A Z : * m *.&.m.I.C.S.S.C.S.S.C.C.I.;.Z S.N b ;.K.K.S.H.C.S.S.H.S.A.S.C.C.I.C.C.C.K.V.&.*.B ; ; M Z 9 O           ",
"          . < V V ; * b ` ` ,.V.V.V.V.V.V.V.V.V.C.;.J B.N c =.V.V.V.V.V.V.V.N.V.4.B.V.V.V.V.V.V.V.b.+.+.M ; ; B A y O           ",
"          X < C V : $ c [ ` c.C.V.V.V.V.V.V.V.V.C.:.` C.N i -.V.V.V.V.V.V.V.A.q.j.D.B.V.B.V.V.V.C.m.` +.M ; * M C 9 O           ",
"          . < V B 9 , u V B V *.V.V.V.V.V.V.V.V.C.:.` V.N c -.V.V.V.V.V.V.Z.w.j.g.l.2.Z.C.V.V.C.=.Z M V c , 2 B Z u O           ",
"          X < V V e , c *.v.*.;.C.V.V.V.V.V.V.V.V.m.:.C.n c ;.V.V.V.V.B.A.w.j.j.9.g.z.4.Z.V.V.V.>.&.v.;.n , 9 B V 9 o           ",
"          X < V V 9 , V U.<XQ.V.V.V.V.V.V.V.V.V.V.V.C.C.n c *.V.V.V.V.V.q.j.h.w.A.0.k.z.4.V.V.V.V.Y.,X(.K 3 9 N Z 9 O           ",
"          X < V V q i / B.`.K.m.V.V.V.V.V.V.V.V.V.V.V.J.N 3 / V.V.C.B.4.k.g.9.V.2.C.z.g.z.B.V.V.b.C.'.K.) c 9 B V u o           ",
"          X > V V q c V C A ( ;.V.V.V.V.C.V.V.V.V.V.C.-XK , K C.V.V.A.4.k.g.h.j.j.j.h.g.z.V.B.C.:.( J A A v 2 B A 9 o           ",
"          X < V V 9 c V B J -.b.V.V.V.V.V.V.V.V.V.V.C.:Xn J (.A m.H.B.D.3.q.q.q.q.q.q.q.3.C.V.V.B.;./ B B v 9 B C y O           ",
"          X < V C 9 i A ^ ` c.J.V.V.V.V.V.V.V.V.V.V.V.(.2.%.>.v.+.,.H.C././././././././.T.V.V.V.C.m.` / A v 2 B C 9 O           ",
"          . < A V 9 c J +._ c.V.V.V.V.V.V.V.V.V.V.V.V.m.'.>.J Q.+.*.c.K.$X$X$X$X$X$X$X$X_.B.V.V.V.c.` +.K v 2 B V 9 o           ",
"          X < V V 3 c J ` ` c.V.V.V.C.V.V.V.V.C.V.V.V.V._ I.Q.9 _.>./ V.V.B.V.V.V.V.m.V.V.V.V.V.C.b.+.` ^ c 2 B Z u o           ",
"          . < V V : 4 ^ ` ` c.C.V.V.V.V.V.V.V.V.V.V.V.V.m.;.v._.c D.K.B C.C.V.V.V.V.V.V.V.V.V.V.C.c.` ` ^ u ; B A 9 o           ",
"            < C V * 2 J ` ) c.V.V.V.V.V.V.C.V.V.V.V.V.V.H.m.;.>.oX%.<.$X` ,.V.V.V.V.V.V.V.V.V.V.V.m.` ` / e * M C 9 o           ",
"          O 9 V V ; 9 ^ ` ` ,.V.V.V.V.V.V.V.V.V.V.V.V.V.B.C.,.K >X<.2.oXV :.V.V.V.m.V.V.V.V.V.V.C.m.` ` / u * B Z u O           ",
"          $ l V V ; < J ` ` c.C.V.V.V.C.V.V.V.V.V.V.V.V.C.C.V.V.v >X#X- [ m.V.V.V.C.C.V.V.V.V.V.V.m.` _ ^ q * M V m ;           ",
"          $ c V V : * m ` ) c.V.V.V.V.V.V.V.V.V.V.V.V.m.'.(.V.V.( <X!., ` b.V.B.C.*XI.V.V.V.V.V.V.m.+.+.B ; * M V b ;           ",
"          o 9 V V ; $ b ` ` c.V.V.V.V.V.V.V.V.V.V.V.B._.;X(.m.V.) <X.X, ` m.C.B.C.-X-XU.m.V.V.V.V.c.` +.M ; ; B Z u O           ",
"          . > C V ; * m ` ` v.V.V.V.V.V.V.V.V.V.V.C._.;X:XQ.V.V.( 1XoX, ` m.C.m.C.*X:X$XY.V.V.V.C.b.` +.B ; # M C 9 o           ",
"          X < V V ; * b &.) c.V.V.V.V.V.V.V.V.V.V.K.'.;X;X(.V.B._ ;XR., +.m.C.m.C.*X;X-X(.V.V.V.V.m.` &.M ; * M A 9 X           ",
"          X < V V ; * b &.) c.V.V.V.V.V.V.V.V.V.V.V.V.'.:X(.m.V.) (.M.1 ` m.C.m.C.*X;XY.m.V.V.V.C.b.` ` M ; ; N A 9 X           ",
"          . < A V ; ; e A ) c.V.V.V.V.V.V.B.V.V.V.V.V.C.$X_.m.V.` `.2.1 ` m.C.m.C.-XY.V.V.V.V.V.C.m.+.J l ; * M A 9 X           ",
"          X ; e u * ; e m B ( c.V.m.m.V.m.m.V.m.m.m.m.m.C.C.m.V.+.V.*.9 ` m.V.m.V.K.V.b.m.m.B.V.,._ V M l , $ e c > X           ",
"          X ; , 1 * ; b &.>.-.>.C.Q.(.(.Q.(.(.(.(.(.(.(.Q.(.Y.V.+.c.) 2 ` c.U.(.(.Q.(.(.Q.(.(.K.c.;.c.*.n ; + , 1 : X           ",
"          X ; 9 9 * + B T.,X(.m.I.'.-X'.'.-X-X'.'.$X-X$X'.*X_.V.` m.+.9 +.c.(.-X'.-X-X'.$X$X*XU.c.I.:X(.J ; * 2 9 : o           ",
"          X ; 9 2 ; - M C.*XK.B.V.V.V.V.V.B.C.V.V.V.V.V.C.V.V.V.+.c.O.9 ` m.V.B.V.V.B.V.B.B.V.V.B.J.*XL.J - * 2 9 , X           ",
"          X ; 8 2 # : 9 i K ` ;.V.V.E.+XE.B.N.E.+XE.B.c.R.+X XV.` b.` 9 +.b.W.@XE.V.m.R.@X XV.V.:.` / v 9 : + 2 3 : X           ",
"          X ; 8 9 * ; e V A *.c.H. X@X XH.F.E.@XOXK.C.E.@X+XU.B.K c.O.2 K c.L.E.@X XH.H.E.@X XH.m.=.J V c : + 1 9 : o           ",
"          o ; 9 2 * ; b *.+.b.C.F..XXXL.m.J..X.XL.b.F..XXXL.V.V.V ;.+.2 B v.B.J..XOXL.B.J..XXXL.V.V.&.=.N * # 2 9 : X           ",
"          X ; 8 2 * $ z _ _ 1.N.n.n.n.n.N.N.n.n.N.N.n.n.n.n.n.x.V ;.+., V ;.n.f.1.n.n.N.N.n.n.n.n.1._ _ e X # 1 9 : X           ",
"          X ; 9 2 * O - h u.i.u.i.i.i.i.i.i.i.i.i.i.i.i.i.i.t.h m c.P # B D I i.i.i.i.i.i.i.i.i.i.y.t.I 5 O * 3 9 : o           ",
"          o ; 9 9 O p n % r S x S x x x x x x x x x x S r 5 5 8 9 b 9 + 9 8 7 r t 5 t x x x x S S L L % i n O , 9 : o           ",
"          X ; 1 2 - J +.7 + { ^.P.~.~.~.~.~.~.~.~.~.~.~.P.P.s.F r e < * c t s h F f.~.~.~.~.~.^.{ > > 0 ( / ; 9 2 , o           ",
"          X ; 9 2 , M L U 5 s.|.}.{.{.{.{.{.{.{.{.{.{.{.{.{.].t.h S 4 ; M d I y.i.[.{.{.{.{.[.|.s.. - U ! B 2 2 9 , X           ",
"          X ; < 2 9 , w U F $ > b a a a a a a a a a a a a a a d d t : # 2 d d d a a a a a a a z > % g U t , 9 1 1 ; o           ",
"          o + * 2 2 2 2 0 g 5 @ $ + , 1 1 < 1 1 , 1 9 , 8 1 6 1 8 1 < , 2 2 1 2 8 1 1 1 1 , $ $ + - g t 9 < 2 9 * # o           ",
"          o * O ; 2 9 2 2 e * ; n g F H H G G G D H H G G H H G H H H H G G H D G G G H H G g n > + w 9 2 9 2 ; + O O           ",
"          o $ O + * , , < * ; b L T ~ p.E T Y ~ p.E T Y ~ p.E T T E p.a.T T E p.E T T E p.~ T Q n , = , 1 , ; + O $ o           ",
"          o * # + * < e u > M L Q R j d.o.Q R j d.o.Q R j e.o.Q Q o.d.r.R ! W d.r.X.Q W d.r.X.Q L V : 9 e 2 * + * * O           ",
"          X ; , + v V A ` ` ` ] | 6.7. .' | 6.7. .' @.5.7.8.] +.` ]  .7.6.| ' ..7.7...' ..6.7...] +.) +.J B M $ : , o           ",
"          o * , 2 M A Z J &.+.&.+.$.$.#.[ +.$.$.#.[ +.$...#.` +.&.[ #.$.$.+.[ #.$.$.&.[ #.$.$.#.&.*.&.^ V A V 9 , ; o           ",
"          X 9 J * : e u u v M M m m m M v M m m v M M m m M M M M v M v m n M m m m v M M m m m M v v u e 9 > $ M i X           ",
"            9 K u : 2 u e 0 0 0 0 0 0 0 0 0 0 0 0 0 0 0 0 0 0 0 0 0 0 0 0 0 0 0 0 0 0 0 0 0 0 0 0 0 0 e c 9 > 9 K i X           ",
"          X + < K Z m M v f f f f f f f f f f f f f f f f f f f f f f f f f f f f f f f f f f f f f f n M M M ( 9 $ X           ",
"          O ; ; : ; ; ; ; ; * : : : : % % : : : ; : : : : : : % % : : : ; ; : ; : : : % % : : : ; * : : ; ; : : ; ; O           ",
"          X $ O O O O O O O + @ O O O O O O O O O O @ O O O O O O O O O O O O O O O O O O O O O O O O O O O O O O $ X           ",
"                                                                                                                                "
};
