/* XPM */
static char *_8845_8bbbc2f78b877b19459281410a7df5f55676f7b045c08f73e8e4ee7ed75a2596[] = {
/* columns rows colors chars-per-pixel */
"32 32 100 2 ",
"   c #000000",
".  c #000209",
"X  c #080A0D",
"o  c #090B10",
"O  c #100E13",
"+  c #181415",
"@  c #13121A",
"#  c #161821",
"$  c #1B1923",
"%  c #211D26",
"&  c #2C222C",
"*  c #3D2D35",
"=  c #352939",
"-  c #3A2C3C",
";  c #442E3E",
":  c #5C3B3F",
">  c #433341",
",  c #4E3544",
"<  c #4E3C44",
"1  c #553C46",
"2  c #5C3947",
"3  c #543F49",
"4  c #5C3D49",
"5  c #633C49",
"6  c #53474E",
"7  c #5C424C",
"8  c #4B465E",
"9  c #5D4354",
"0  c #574C5F",
"q  c #5E5158",
"w  c #614847",
"e  c #65414C",
"r  c #6B424D",
"t  c #654F4C",
"y  c #71434D",
"u  c #65504D",
"i  c #68504D",
"p  c #634B51",
"a  c #6A4A53",
"s  c #614959",
"d  c #694C5B",
"f  c #744750",
"g  c #794652",
"h  c #754A51",
"j  c #7B4C53",
"k  c #7B4E58",
"l  c #675652",
"z  c #6F5056",
"x  c #695A55",
"c  c #6C535F",
"v  c #625B6F",
"b  c #755764",
"n  c #775C67",
"m  c #824E55",
"M  c #884F58",
"N  c #825156",
"B  c #81555B",
"V  c #8C5459",
"C  c #80585E",
"Z  c #8E5B5D",
"A  c #92565B",
"S  c #925B5C",
"D  c #9B5D5F",
"F  c #94605F",
"G  c #99605F",
"H  c #825C64",
"J  c #965E60",
"K  c #9D5E60",
"L  c #A15F61",
"P  c #8E6363",
"I  c #866F6B",
"U  c #946463",
"Y  c #9E6261",
"T  c #916866",
"R  c #996866",
"E  c #936D68",
"W  c #97706A",
"Q  c #9B746D",
"!  c #9C7670",
"~  c #9C7B74",
"^  c #A56563",
"/  c #A96665",
"(  c #A56966",
")  c #AB6866",
"_  c #AC6E69",
"`  c #B16B68",
"'  c #AF726C",
"]  c #B4726C",
"[  c #A17C73",
"{  c #A27E79",
"}  c #B37D74",
"|  c #A5847A",
" . c #A7887F",
".. c #B78076",
"X. c #B7827A",
"o. c #BE897E",
"O. c #AE8D84",
"+. c #B18E88",
"@. c #B4948A",
"#. c #C09487",
/* pixels */
"      + o . . . . . . . . . . . . . . . . . . . . . . X         ",
"      % a E W W E ~ ! W W W W W W W W W W Q ! Q W Q P *         ",
"      @ > < 1 1 7 : 7 : 7 1 < 1 < < 4 7 1 1 1 < 1 ; 6 &         ",
"      @ p 2 5 f e 5 y j f w = = ; = 2 A r j ; y 2 ; r *         ",
"      @ [ g D D V N G / / V M h L A j ` G ^ f / A m R u         ",
"      @ Q y Y D V j D ^ / N V V ) S j ) ^ Y y ^ ^ M P u         ",
"      @ Q f K Y G h G ( ] B V ^ ^ S j ) ^ Y f ^ _ F P u         ",
"      @ ! r D ^ ) h D _ o.B A b c A j ) ^ Y f / ' S T i         ",
"      @ Q v n ^ / h D / ] M y S D r j ( ^ ^ f ^ / V P u         ",
"      @ [ s C / / h D ^ U z e F F k d P ^ Y h ^ / V P u         ",
"      @ | y L ^ ) h Y A q @.| O.~ | +.| D ( f / / V F u         ",
"      @ ~ f D ^ ) h Y A s } X.} o.#.o.~ Y ..f ^ / V P u         ",
"      @ ! f K ^ / f Y A 6 { { ~ ~  .O.I ( } f ^ / V P u         ",
"      @ Q f D ^ ) h D ^ w 1 3 7 7 3 < r / G f ^ / V U u         ",
"      @ ! f D ^ / h G ^ ) m V / / S j ) ^ ^ f ^ / V P u         ",
"      @ ! f K ^ ) h G / ) m V / / S k ) ^ Y f / ) V U i         ",
"      @ ! f D ^ ' j K ^ ( N V / ^ S g ) ^ Y h D c j U u         ",
"      @ ! f D ^ _ g J ^ ) N V ( / S k ) ^ Y h K 0 s R l         ",
"      @ ! f L ^ ) f K ^ ) N V ) / S j ) ^ Y f / d 9 R x         ",
"      @ Q f D ^ ) h J / ) N V / / S j ) ^ Y h D 8 a U u         ",
"      @ ! f G ^ ( h G ^ ) N V / / S j / / Y f ^ f m U u         ",
"      @ ! f D ^ ) f D / ) N V ( ..R h ) L Y y / a k U u         ",
"      @ ! y D ^ ) h D ^ ) N V ) ..F j ) / Y f / ) A P u         ",
"      @ Q d H / ( h D / ) N V ) ) Z j ) ^ Y f / ) V U i         ",
"      @ Q v b ^ ( h D / ) j V / / S k ) ^ Y f / ) V P t         ",
"      @ Q r A / ) h D / ) N V ( / S j ) ^ Y h / / V U u         ",
"      @ Q h K / / f K ^ ) N Z ) / S j / ^ Y f / ( V U u         ",
"      @ Q f D L ) g J ^ ) k V / / Z j / ^ Y y S / V P w         ",
"      @ T f M S ) h K ) ) N V ^ A S j ) ^ L f M ^ V Z w         ",
"      @ S j M G ` j V N L j M ^ m G g ) J K j k ^ m Z :         ",
"      @ 7 r r g J , - - > - g V e f , r 1 1 4 r g 4 a *         ",
"      O $ $ $ $ $ $ $ $ $ $ $ % $ $ # # $ # $ $ $ $ $ @         "
};
