/* XPM */
static char *_287_1c49a5e071f514a243d0c8d2c5cb28593d9eedd55adac2f7be19edd72df3bea1[] = {
/* columns rows colors chars-per-pixel */
"64 64 178 2 ",
"   c #000000",
".  c #01030D",
"X  c #07080B",
"o  c #0A090C",
"O  c #020610",
"+  c #040A12",
"@  c #100F16",
"#  c #14131B",
"$  c #19161D",
"%  c #161C2C",
"&  c #1D1D2E",
"*  c #201F2F",
"=  c #201F30",
"-  c #1A202F",
";  c #1D2131",
":  c #212028",
">  c #232433",
",  c #2B2635",
"<  c #2D2937",
"1  c #2C2A39",
"2  c #312334",
"3  c #332C3A",
"4  c #3C2D3C",
"5  c #3B303C",
"6  c #422E3D",
"7  c #49323F",
"8  c #54313F",
"9  c #26314A",
"0  c #373740",
"q  c #3D3142",
"w  c #3B3B43",
"e  c #363C59",
"r  c #433442",
"t  c #4E3341",
"y  c #4C3C43",
"u  c #533644",
"i  c #563845",
"p  c #5C3D47",
"a  c #553B4A",
"s  c #5C3D48",
"d  c #613947",
"f  c #623C49",
"g  c #6D3E4E",
"h  c #723F4E",
"j  c #3E435D",
"k  c #3B4563",
"l  c #5D4149",
"z  c #5E464B",
"x  c #574557",
"c  c #64434B",
"v  c #6B454E",
"b  c #6B494F",
"n  c #70424F",
"m  c #7D444D",
"M  c #72494F",
"N  c #6B4754",
"B  c #644D52",
"V  c #6D4C51",
"C  c #754351",
"Z  c #7B4553",
"A  c #754B51",
"S  c #7D4A54",
"D  c #69565E",
"F  c #7E5155",
"G  c #73565B",
"H  c #7B5158",
"J  c #745E5F",
"K  c #4A4C66",
"L  c #5B4E60",
"P  c #5C5262",
"I  c #57566C",
"U  c #5C5B6D",
"Y  c #4A5477",
"T  c #4C5A7C",
"R  c #595B72",
"E  c #695B66",
"W  c #735C60",
"Q  c #5C6276",
"!  c #766161",
"~  c #786766",
"^  c #796867",
"/  c #7A6C6A",
"(  c #7E7370",
")  c #81454C",
"_  c #814655",
"`  c #844C57",
"'  c #8A4E55",
"]  c #874B58",
"[  c #8B4C59",
"{  c #904E5B",
"}  c #845356",
"|  c #865658",
" . c #8D555A",
".. c #875859",
"X. c #8A585A",
"o. c #915655",
"O. c #955857",
"+. c #93565D",
"@. c #99555F",
"#. c #955A5D",
"$. c #9A5C5E",
"%. c #A05C5C",
"&. c #99605F",
"*. c #935460",
"=. c #9D5560",
"-. c #945C64",
";. c #9D5D61",
":. c #A15E61",
">. c #816763",
",. c #896765",
"<. c #9E6162",
"1. c #9D6B6C",
"2. c #84736D",
"3. c #857770",
"4. c #897B74",
"5. c #A46463",
"6. c #A96665",
"7. c #A66966",
"8. c #AC6967",
"9. c #A06568",
"0. c #A56C6A",
"q. c #AC6C69",
"w. c #B36C69",
"e. c #B56D6A",
"r. c #AD726C",
"t. c #B3756E",
"y. c #B9706C",
"u. c #A27272",
"i. c #A57C76",
"p. c #AD7972",
"a. c #AA7D78",
"s. c #B67670",
"d. c #B37B73",
"f. c #BC7B73",
"g. c #C27B73",
"h. c #9D847A",
"j. c #A78178",
"k. c #A5867B",
"l. c #A88279",
"z. c #B68075",
"x. c #BC8277",
"c. c #B68378",
"v. c #BA867A",
"b. c #BC8B7D",
"n. c #BC907F",
"m. c #C28479",
"M. c #C88C7F",
"N. c #CB907F",
"B. c #64748E",
"V. c #606F91",
"C. c #707BA3",
"Z. c #A28F82",
"A. c #AD8B81",
"S. c #B58E85",
"D. c #AB9588",
"F. c #BC9485",
"G. c #BA9288",
"H. c #B39B8D",
"J. c #BB9A8C",
"K. c #AB9B90",
"L. c #B29F96",
"P. c #BEAB97",
"I. c #B6A6A2",
"U. c #B8BABA",
"Y. c #C98F80",
"T. c #CC9383",
"R. c #C49B8B",
"E. c #CD9B8B",
"W. c #D09685",
"Q. c #D29B89",
"!. c #D6A18D",
"~. c #C3A996",
"^. c #CBAC9C",
"/. c #C7B6A0",
"(. c #C9B8A6",
"). c #D2BDA5",
"_. c #DCC7AB",
"`. c #DDCFB1",
/* pixels */
"                                                                                                                                ",
"            X y @ + . . . . . . . . . . . . . . . . O . . . . . O O . . . . . . . . . . . . . . . . . . . + $ @                 ",
"            o E 1 l G ! W ! W W J J / ( ^ ~ ! J J W W J J J J J W ! J ! J ! W W W J W ~ ^ ^ ^ ! J J W ! G z r *                 ",
"            X % A &.l.!.T.T.W.T.T.W.E.!.Q.Q.W.W.W.W.T.T.T.W.T.T.T.W.T.T.T.T.W.W.W.T.W.Q.Q.Q.Q.T.T.W.T.Q.F.&.X.@                 ",
"              , u V c c c c l c c s c c l p c f c c c c c c c c c c c c c l l l s c c c c c v c c c c c c b c $                 ",
"              < > - ; - , > , , > 3 > & 3 3 > 3 ; , < ; > > > > - > ; > ; 3 3 3 3 & , < & & - & & > > ; & % > $                 ",
"              , < b y i C 6 _ Z r [ f 6 ] ' n [ t C ] 5 > < < 3 3 3 3 , 6 ' { [ _ r Z ] 4 4 f p f t 3 6 5 M r #                 ",
"            X > V g.c C ] A 6.$.t 5.O.i [ $.6.#.} 5.6.p t Z 3 f d i _ 6 i { $.6. .M 5.6.l g *.O.@.i v ] u t.,.#                 ",
"              * >.m.p n [ F 8.#.7 7.X.i @.:.6.$.} 7.8.l Z 6.f A $. .:.` i @.:.6.#.S 6.8.l C @.5.7.c X.;.u c.l.#                 ",
"            X * >.Y.p h ;.#.6.;.M 6.X.u 5.6.5.5.6.7.8.s S w.p A w.5.w.X.i 5.6.7.<.#.7.6.p C 5.5.5.S <.+.7 t.j.#                 ",
"            X * >.T.p g 5.6.5.;.v 8.X.u :.5.5.5.5.7.8.s S 8.c F 8.<.8.| i :.7.5.7.6.5.6.l M 5.5.5.} ;. .u t.i.$                 ",
"              = >.T.p g $.5.7.$.c 6.X.i 5.7.5.5.5.5.8.f Z 8.} O.6.5.8...p 5.5.5.5.5.5.8.l ` 8.5.5.6.t.O.7 z.l.#                 ",
"            X * >.T.p h :.5.5.<.A 8.X.i 5.5.5.5.5.7.6.s S 8. .$.8.5.8...p :.6.5.5.5.5.6.l A 8.5.5.5.r.+.t d.l.#                 ",
"              = >.T.p g :.5.5.5.$.8.X.i :.5.5.7.r.b.q.s _ 6.8.<.o.5.8...i 5.6.5.5.5.7.6.p ` 8.5.8.q.c. .t z.l.#                 ",
"              * >.T.p h 5.5.5.5.5.8.X.i 5.5.5.d.b.F.t.p S 8.6.D Q O.w...i :.6.5.7.5.5.6.l S 8.<.q.p.w. .t z.j.#                 ",
"              & >.T.p 6 O.6.5.7.5.6.X.u 5.6.:.d.d.d.8.p Z e.o.x I c w.X.i :.6.5.5.5.7.6.p S 8.5.7.r.6. .t z.j.$                 ",
"              > >.Y.p T E $.7.5.5.8.X.i :.5.5.8.q.d.8.s ] <.s  .$.v A X.i 5.6.5.5.5.7.6.s F 6.5.7.7.6. .t z.l.#                 ",
"              = >.Y.s C.R o.6.5.5.8.X.i 5.7.5.q.7.7.6.l f s  .6.6.5.S r i 5.5.5.5.5.7.6.l S 8.5.5.5.8. .t z.l.$                 ",
"              > >.T.s Y x $.6.5.5.8.X.i :.5.5.5.6.8.e.s t :.w.6.8.8.w.C i :.w.5.5.7.5.6.s S 8.5.5.5.6. .t z.j.#                 ",
"              = 4.E.p 6 } 6.5.7.<.8.X.i :.7.5.7. .B N r a V c b b b b A r l b $.5.5.7.6.s S 8.5.5.5.8.+.t z.l.#                 ",
"              = 4.E.p h 5.5.5.5.5.8.X.u :.6.6.$.2 Z.I.L.K.h.Z.Z.Z.h.h.K.L.I.U.J %.5.5.6.l S 6.5.5.5.8. .t z.l.#                 ",
"              * 4.Q.p g $.7.5.5.5.8.X.u :.7.6.#.= 4.f.p.R.f.R.d.R.6.q.E.r.6.^.E $.t.r.t.p ` 8.5.5.<.8. .t z.j.#                 ",
"              = 4.Q.p g %.7.5.5.5.8.X.u :.7.6.+., 2.t.J.J.8.G.6.^.p.d._.c.q.).D $.r.r.s.p A 8.5.5.5.8. .t z.l.#                 ",
"            X = 2.T.d h ;.5.5.5.5.8.X.i :.7.6.+., 3.5.u.^.0.-.l._.1.i.`.a.9./.B 5.z.c.v.p S 8.5.5.5.6. .t z.l.#                 ",
"              * 2.W.p h :.5.5.7.5.8.X.i :.5.6.+., 4.@.1.J.*.u.<.^. .-._.i.*.(.B <.v.M.n.p S 8.5.5.5.8. .t z.j.#                 ",
"            X * >.Y.p g ;.5.5.5.5.6.X.i :.7.6.+.> 2.G.A.J.A.J.A.H.l.a.~.J.S.P.z 5.r.r.r.p S 8.5.5.5.8. .t z.l.#                 ",
"              = >.T.p g 5.5.5.6.5.8.X.i :.6.6.$.6 1 w w q w 0 w q w w 0 w w 1 l 6.r.5.6.p S 6.5.5.5.8. .t d.l.#                 ",
"            X * >.T.p g %.7.5.5.5.8.X.i :.7.5.6.+.d d 6 u d d p p d f u 6 d d -.7.5.5.8.l S 8.5.5.5.6. .u z.l.#                 ",
"              > >.T.p g :.5.5.5.5.6.X.i 5.7.5.5.7.6.w.f ` w.6.6.6.6.w.X.p 6.8.6.5.5.7.6.l S 8.5.5.5.7. .t z.l.#                 ",
"              * >.T.p g 5.5.5.5.5.8.X.i :.5.5.5.5.7.8.s S 8.5.5.6.5.6.X.i :.6.6.5.5.5.6.l S 8.5.5.5.6. .t z.l.#                 ",
"              * >.T.p g $.5.5.5.5.8.X.i :.5.5.5.5.5.6.s S 8.5.5.5.5.6.X.i :.6.5.5.5.5.6.p A 8.5.5.5.6.+.t z.j.#                 ",
"            X * >.T.p g :.5.5.5.5.t...i 5.7.5.5.5.5.8.s S 8.5.5.5.5.w.X.i :.5.5.5.5.7.6.l ` 8.5.8.8.8. .t z.j.$                 ",
"              * >.T.p g :.5.5.5.6.t.| i 5.5.5.7.7.5.8.s S 6.5.5.5.5.8.X.i 5.6.5.5.5.5.6.l S 8.6.| c 5.+.7 z.l.#                 ",
"            X * >.N.f g $.5.5.5.q.x.| i :.6.5.5.5.5.8.s S 6.5.5.5.5.8.| i :.6.5.7.5.5.6.l S e.A j B.E ' 8 z.k.$                 ",
"            X * >.T.l g :.7.5.5.7.d.| i 5.5.5.5.5.5.8.s Z 8.5.5.5.<.8.| i 5.7.5.5.5.7.8.p S w.| 6 Q P ' u z.D.#                 ",
"              * ^ T.p g :.5.5.5.7.t.X.i :.6.5.5.7.5.8.s S 8.5.5.5.5.w.| i :.5.5.5.5.5.6.l S 6.8.) K P ' 8 z.D.$                 ",
"            X * >.T.l v :.7.5.5.5.8.X.i :.6.5.5.5.6.6.l S 6.7.5.5.5.8.| i :.8.5.5.5.5.6.l S 8.8.m K P ' u z.H.#                 ",
"              * >.N.p g %.7.5.5.5.6.X.i :.7.5.5.5.5.8.p S 6.5.5.5.6.8.| i :.6.5.5.5.5.8.s S 6.w.) K L ' u z.H.#                 ",
"              > >.T.f g :.5.5.5.5.8.X.i 5.5.5.5.5.7.6.l S 6.5.5.5.5.8.X.i :.6.7.5.5.7.6.s S w.X.7 I P ' u d.A.#                 ",
"              : >.N.p g :.5.5.5.5.8.X.i 5.6.5.5.5.5.6.l S 6.5.5.5.:.8.X.i :.7.5.5.5.7.6.s S w.M e Y x ' u d.j.#                 ",
"              > >.T.p g %.7.5.5.5.6.X.i 5.5.5.5.5.5.8.p S 8.5.5.5.7.w.| i :.6.5.7.5.5.6.s S 8.5.S f #.+.t z.j.#                 ",
"              * >.T.p g %.7.5.5.5.8.X.i ;.7.5.5.5.7.8.l S 8.5.5.5.r.s.| p :.7.5.5.5.7.6.s ` 8.7. .S 7. .t z.l.#                 ",
"              > >.T.p g :.7.5.5.5.8.X.i 5.6.5.5.5.5.8.s S 8.5.7.<.p.d.| i :.5.5.5.5.5.6.p A w.5.l 9 O.+.t d.l.#                 ",
"              = >.N.p g ;.7.5.5.5.6.X.i :.6.5.5.5.7.6.s S 6.5.6.d.n.m.} i 5.6.5.5.5.7.6.p S 8.6.} B 7. .u z.l.#                 ",
"              > >.T.p g 5.5.5.5.5.8.X.i 5.5.5.5.5.5.8.p S 8.<.8.v.v.m.} p :.7.5.7.5.5.6.l S 8.5.5.6.8. .t z.l.#                 ",
"              = >.T.p g :.5.5.5.5.8.X.i :.7.5.5.7.5.8.p S 8.5.q.d.5.8.| p :.7.5.5.5.7.6.s S 8.5.5.5.8. .t z.l.#                 ",
"            X * >.T.p q | 6.5.5.5.6.| i 5.6.5.5.5.5.8.s S 6.5.7.r.5.8...i :.6.5.5.5.5.6.s S 8.5.5.5.6. .t z.j.#                 ",
"            X * >.T.i V.U O.7.5.5.8.X.i :.6.5.5.7.5.8.s S 8.:.7.r.&.8.| i :.6.5.5.5.6.6.l S 8.5.5.5.8. .t z.j.$                 ",
"              * >.N.s C.U o.6.7.5.8.X.i :.7.5.5.5.5.8.p S 6.5.5.5.5.6.| i 5.5.5.5.5.7.6.l S 6.5.5.5.6. .t z.l.#                 ",
"            X * >.N.s k x :.7.5.5.8.X.i :.7.5.5.6.5.6.l S 8.5.7.5.5.8.X.i :.6.5.5.5.7.6.s S 8.5.5.5.8. .t z.l.#                 ",
"              * >.T.p 8 O.6.5.5.5.6.X.i :.7.5.5.5.5.8.l S 6.5.5.5.5.w.| i :.6.5.5.5.7.6.s S 8.5.5.5.8. .t z.j.#                 ",
"            X = >.T.p h :.5.5.5.5.8.X.i :.6.5.5.5.7.6.p S 6.5.5.5.5.6.X.p :.7.5.5.5.7.6.l S 8.5.5.5.8. .t z.l.#                 ",
"              > >.T.p g ;.7.5.5.5.6.X.i :.7.5.7.7.5.6.l S 8.5.5.5.5.6.X.i :.6.5.5.5.5.6.s S 8.5.5.5.8. .t z.j.#                 ",
"              * >.T.p g :.5.5.5.5.8.X.i :.7.5.5.5.5.8.p S 8.5.5.5.5.8.| p :.7.5.5.5.7.6.l S q.7.5.5.8. .u c.l.#                 ",
"              * >.T.l g $.6.5.5.5.8.X.i :.6.5.5.5.5.8.p S 8.5.5.5.5.8.X.i :.6.5.5.5.5.6.s S 7.X.5.5.6. .t t.j.#                 ",
"            X * >.Y.p g :.<.5.5.5.6.X.i :.7.5.5.7.5.8.l S 6.5.5.6.6.8.| i 5.7.5.5.5.7.8.s _ $.} 7.5.6. .u r.i.#                 ",
"              > >.m.p g :.} X.6.5.8...i :.7.5.5.5.5.6.s Z 8.5.5. .#.w.| i :.6.5.5.5.5.6.s ` ' c 6.<.8. .7 c.l.#                 ",
"            X : H f.l g :.S | 8.5.8.X.i :.6.6.5.5.7.8.s S 6.5.5.} X.w.| i 5.6.5.5.6.7.6.s ` $.F 6.5.w.O.u r.1.#                 ",
"            X > b w.c g :.A } 8.<.8.| i 5.5.X.5.6.7.8.l C 6.5.6.b | w.| i $.5.5.7.X.5.8.a `  .b 8.<.X.' i 5.X.#                 ",
"              > A y.l g :.} X.8.5.w.X.a =._ u O.C @.;.u C =.5.8.i A y.X.i ] <.6.<.S ;.6.p ` ` a q.;.| ..i 6.<.#                 ",
"            X > l w.c g :.d M :.;.:. .< p t 3 l 4 g u 1 Z *.;.:.p Z 8.| t ] [ Z ] u _ ] r [ ] p 6.+.c ] p 8.H #                 ",
"              , > u q u _ 4 d _ Z Z t , > , < , , > > , p _ Z _ i r _ t > 7 6 3 r , 4 6 > s C 3 C d 4 p 3 a 3 #                 ",
"            . 1 3 , 1 1 3 1 q 3 3 3 1 1 3 1 1 3 3 3 3 1 < 3 3 3 3 < 3 < 1 < 1 < 1 1 1 1 3 < 3 1 3 1 3 3 1 > 3 $                 ",
"              o o o o o X o X X X o o o o o o o o o o o o X o . o o o o o o o o o o o o o o X o o X o X o o o X                 "
};
