/* XPM */
static char *_4759_269ee7007bb1504a3f9359c069ad437bdc0677f1161b5869c4b57c47e6e3c256[] = {
/* columns rows colors chars-per-pixel */
"32 32 113 2 ",
"   c #000000",
".  c #070609",
"X  c #0C090D",
"o  c #10080E",
"O  c #1A0C12",
"+  c #131012",
"@  c #1D1215",
"#  c #1C1917",
"$  c #1F1D1B",
"%  c #211015",
"&  c #211618",
"*  c #231D1B",
"=  c #2A1E1A",
"-  c #2D221C",
";  c #241C2E",
":  c #2E2621",
">  c #2F2923",
",  c #2D2132",
"<  c #342435",
"1  c #442D3D",
"2  c #4C2C3D",
"3  c #463642",
"4  c #4C3342",
"5  c #413D46",
"6  c #4D3B46",
"7  c #523645",
"8  c #5C3545",
"9  c #573B47",
"0  c #543D4A",
"q  c #5D3B49",
"w  c #683C4B",
"e  c #57434C",
"r  c #59464E",
"t  c #574F4A",
"y  c #554555",
"u  c #5E565A",
"i  c #67444F",
"p  c #6A424E",
"a  c #614650",
"s  c #6A4450",
"d  c #6D4B55",
"f  c #634F59",
"g  c #714652",
"h  c #724C56",
"j  c #794955",
"k  c #6C5057",
"l  c #60555B",
"z  c #6B555A",
"x  c #6D5A5D",
"c  c #74545B",
"v  c #79575E",
"b  c #745B5E",
"n  c #795B5F",
"m  c #4A4560",
"M  c #534D63",
"N  c #505976",
"B  c #765E61",
"V  c #7A5E62",
"C  c #6D6060",
"Z  c #64646D",
"A  c #6D666A",
"S  c #726262",
"D  c #7B6164",
"F  c #776967",
"G  c #7B6867",
"H  c #776968",
"J  c #796B69",
"K  c #7E716D",
"L  c #756D70",
"P  c #7C7373",
"I  c #7F7879",
"U  c #87675A",
"Y  c #88675A",
"T  c #89695C",
"R  c #8A5A61",
"E  c #836566",
"W  c #826C6A",
"Q  c #8B6E6C",
"!  c #8E7464",
"~  c #83736F",
"^  c #8E716C",
"/  c #91736D",
"(  c #907969",
")  c #837671",
"_  c #8B7671",
"`  c #847A74",
"'  c #8C7B75",
"]  c #957672",
"[  c #907C76",
"{  c #9F7976",
"}  c #977F79",
"|  c #A27D78",
" . c #8F837B",
".. c #92847B",
"X. c #9A837B",
"o. c #95897F",
"O. c #998A7E",
"+. c #A78476",
"@. c #A38478",
"#. c #A78D7F",
"$. c #AA897D",
"%. c #978C81",
"&. c #9B8C81",
"*. c #A28D80",
"=. c #AA8C80",
"-. c #B18E85",
";. c #AC9184",
":. c #A69788",
">. c #AB9C8C",
",. c #B69284",
"<. c #BC9C8E",
"1. c #AFA696",
"2. c #B4A493",
/* pixels */
"      . t T U U T ( ! T T T T T U T U U U Y ! ! T Y U u X       ",
"      + u C S b x B S C S x S S S S S S S x S C C S C u +       ",
"      . 5 1 1 7 4 1 8 q 4 7 ; ; ; ; , w w 3 4 < 2 < , e X       ",
"      = O.s Q ^ G B Q o.' ` d d v E i / ' _ ~ j { n c ] -       ",
"      = @.p ..~ K x _  .%.J D V  .o.z ' ..o.J b o.` b Q -       ",
"      = @.s X._ ~ x _ o.o.K b )  ...z [ ..o.H D o.O.D ^ -       ",
"      = @.s ..[ o.z _ o.,.^ B %.A o.k [  .o.J B o.#.D / -       ",
"      = @.y ' ..o.z _ O.=.) D J l J z ' ..%.H D o.O.S ^ -       ",
"      = @.N L ..o.z _ o.&.K 0 W &.G 9 ' ..o.J V o.O.b / -       ",
"      > ;.9 [ ..o.z _ ..S P B K J ) S I ' o.J D o.o.b / -       ",
"      > =.p .. .o.z ' _ 0 1.2.>.>.:.2.1.P #.G D o.o.D ^ -       ",
"      : #.p .. .o.z ' ' r | -.{ <.,.<.#.P ,.Q S %.o.S / -       ",
"      = @.s [  .o.z ' ' 6 Q ] / ] Q @._ J ;.W V o.o.b ^ -       ",
"      = @.s X. .o.z _ %.z 6 6 r e e 3 0 ~ %.F D o.o.V ^ -       ",
"      = @.s .. .o.z _  .&.) V *.o.&.x } o.o.H D o.o.B / -       ",
"      = @.s X. .O.x _ o.o.K c o.....k ' ..o.J D O.O.B / -       ",
"      = @.i X. .&.z _ o.%.~ b o.[ %.z '  .%.F E P Z x / -       ",
"      = @.i [  .&.x _ ..o.J n o. ...k '  .%.H D G M z / -       ",
"      = +.s }  .O.z _ ..%.J B o. . .z [  .%.H D X.M f [ :       ",
"      = @.s }  .o.x _ ..%.~ c %. .%.k [  .%.H E S m d ] -       ",
"      = @.s ....%.z _ o.%.J B O. .%.z '  .%.J D _ z b ^ -       ",
"      = @.s ....o.z _  .o.) b o...=.z [  .%.J D ' u V / -       ",
"      = +.p .. .%.z _ o.%.J c o.$.=.z [  .%.F V %.[ B ^ -       ",
"      = @.y '  .o.x _  .&.J B %.X...k ' ..%.H V %.%.B / -       ",
"      = +.N L o. .x _  .%.K b O. .%.z [ ..o.J V %...B / -       ",
"      = @.0 ' ..o.z _ o.%.K b %. . .z [  .%.J V ..%.B ^ -       ",
"      = @.p ....%.z '  .o.K b O. . .k [  .%.F V %.%.B Q -       ",
"      = @.p ....%.z _ ..o.K b o. .o.k [  .%.J B  .%.B Q -       ",
"      = @.s _  .%.z _ o.o.K b o.[ ..z [ ..%.J c K %.B ^ -       ",
"      * ' s E ` %.z _ ..O.) c O.S  .z ' ..o.K c J o.B W *       ",
"      # ` j V ) &.z s a n d g X.c ` k R _ D D h G _ d ~ $       ",
"        $ & % & = @ X X o X % ; @ * @ % O O O @ & & + * .       "
};
