/* XPM */
static char *_052_68ef1ee9e55fda1b7986e3501651f042cec9248d23f2438097f9ce4ac9f251d4[] = {
/* columns rows colors chars-per-pixel */
"64 64 213 2 ",
"   c #000000",
".  c #08070B",
"X  c #0A090C",
"o  c #0E0D10",
"O  c #130C15",
"+  c #0E1017",
"@  c #131116",
"#  c #1B151B",
"$  c #1A1819",
"%  c #27151D",
"&  c #24181E",
"*  c #291F1C",
"=  c #23201F",
"-  c #2B231F",
";  c #281C25",
":  c #321D27",
">  c #391B23",
",  c #251F30",
"<  c #311D30",
"1  c #252220",
"2  c #2C2521",
"3  c #2D2924",
"4  c #2E2A2B",
"5  c #342622",
"6  c #382627",
"7  c #362B25",
"8  c #3D252A",
"9  c #3C2B2B",
"0  c #39342E",
"q  c #252332",
"w  c #2A2434",
"e  c #2C2836",
"r  c #2D2E3B",
"t  c #322535",
"y  c #3B2235",
"u  c #332937",
"i  c #322E3B",
"p  c #3D2D3C",
"a  c #2F303C",
"s  c #3C3835",
"d  c #33303C",
"f  c #42292D",
"g  c #422D3D",
"h  c #44313E",
"j  c #403B38",
"k  c #3A3443",
"l  c #383548",
"z  c #39394A",
"x  c #453241",
"c  c #4C3543",
"v  c #493649",
"b  c #543443",
"n  c #593645",
"m  c #543847",
"M  c #5C3947",
"N  c #553C4B",
"B  c #5E3A48",
"V  c #483D53",
"C  c #603546",
"Z  c #683748",
"A  c #633C4A",
"S  c #693C4A",
"D  c #793F4F",
"F  c #6F3F50",
"G  c #47454B",
"H  c #5C434E",
"J  c #474555",
"K  c #504557",
"L  c #534E55",
"P  c #5B4C52",
"I  c #5B5457",
"U  c #535558",
"Y  c #5C5559",
"T  c #5D5A5B",
"R  c #67404D",
"E  c #68404E",
"W  c #7B424D",
"Q  c #6C4652",
"!  c #654A54",
"~  c #6D4A54",
"^  c #7D4453",
"/  c #784855",
"(  c #665156",
")  c #60575A",
"_  c #6D575B",
"`  c #615A5C",
"'  c #6D5B5E",
"]  c #74515B",
"[  c #7E555E",
"{  c #75595E",
"}  c #6D615F",
"|  c #4D4C63",
" . c #4B4E6E",
".. c #534A61",
"X. c #5B5C68",
"o. c #4E5774",
"O. c #565D78",
"+. c #645F60",
"@. c #6E5F60",
"#. c #785E62",
"$. c #5F6779",
"%. c #666060",
"&. c #696161",
"*. c #6E6967",
"=. c #6F6869",
"-. c #726363",
";. c #726A66",
":. c #7D6867",
">. c #726A68",
",. c #7B6B69",
"<. c #75726D",
"1. c #79736D",
"2. c #7F7671",
"3. c #864957",
"4. c #884A57",
"5. c #8A4C59",
"6. c #924F5C",
"7. c #83565E",
"8. c #8B525C",
"9. c #94545F",
"0. c #855B62",
"q. c #8E5E66",
"w. c #965562",
"e. c #935D65",
"r. c #9A5D66",
"t. c #826365",
"y. c #8C6366",
"u. c #8B6068",
"i. c #866B6B",
"p. c #896C6C",
"a. c #97636A",
"s. c #946B6C",
"d. c #81726E",
"f. c #8C736D",
"g. c #89786E",
"h. c #907A6F",
"j. c #996E71",
"k. c #847672",
"l. c #8B7773",
"z. c #847A73",
"x. c #8C7C73",
"c. c #897D78",
"v. c #937673",
"b. c #9C7273",
"n. c #937C76",
"m. c #9A7C77",
"M. c #937E78",
"N. c #997878",
"B. c #A0676B",
"V. c #AA7777",
"C. c #858076",
"Z. c #8B8077",
"A. c #8E837A",
"S. c #918277",
"D. c #9A8177",
"F. c #92857C",
"G. c #9A847B",
"H. c #93897E",
"J. c #9B887E",
"K. c #A4847C",
"L. c #A3897E",
"P. c #AA8B7F",
"I. c #B58A7F",
"U. c #606B82",
"Y. c #666C94",
"T. c #7278A0",
"R. c #7E88AB",
"E. c #908581",
"W. c #968C81",
"Q. c #9A8C81",
"!. c #9A9286",
"~. c #9C9185",
"^. c #928E90",
"/. c #949397",
"(. c #A48E83",
"). c #A88D83",
"_. c #B38F83",
"`. c #BA8E81",
"'. c #A39285",
"]. c #AC9184",
"[. c #A39689",
"{. c #A7968A",
"}. c #AC9B8C",
"|. c #B69788",
" X c #BC9B8D",
".X c #B0A08F",
"XX c #B5A392",
"oX c #BEA995",
"OX c #B0A499",
"+X c #838AAE",
"@X c #C39787",
"#X c #CF9C8A",
"$X c #D09D8A",
"%X c #CEA08E",
"&X c #D6A18E",
"*X c #C3A191",
"=X c #C7A795",
"-X c #C6AE98",
";X c #D2A592",
":X c #D6AB96",
">X c #D5AC98",
",X c #DCAD98",
"<X c #CFB29D",
"1X c #D6B19B",
"2X c #DBB59E",
"3X c #C7B5A3",
"4X c #D8BAA3",
"5X c #E0B7A0",
"6X c #E3BDA5",
"7X c #DAC4AA",
"8X c #D2C1B1",
"9X c #E4CCAE",
"0X c #D6D0C4",
/* pixels */
"                X 2 * * * * * - - * 2 7 3 2 - - - * * * - * * * * * * * * - * * * * * * 2 2 3 - - * * * * * - $                 ",
"              o =.F.&X$X#X$X$X#X$X$X2X4X2X:X;X#X#X#X$X#X$X$X$X$X$X$X$X$X$X$X$X$X$X$X$X$X>X>X2X:X:X#X$X$X$X;X).z.$               ",
"              2 Q.;.J.D.D.D.D.D.D.D.D.D.D.D.D.D.D.D.D.D.D.D.D.J.D.D.D.J.D.D.D.D.G.D.G.D.D.D.D.D.D.D.D.D.G.L.1.A.3               ",
"              o k d i r d d r r d r i d r r a r d a r d d d d d d d d d d d r r r r i i a d d d d d i i i i i k o               ",
"              . w w w u x q n g e C t q b C p n t t n t q q q q q q q q q e b n n M e g n q q q w e t q q q w e X               ",
"              X T 1.c 4.Z N a./ c e.~ c 5.e.7.e.( ] r.~ q g u e h u p p q A 9.e.e.5.g 7.r.N p ^ D W Q i C g I k.@               ",
"              5 *XZ.c 6.{ 1.Q.y.v ~.2.n 4.p.W.x.{ Z.~.<.g 4.Q g 3.c 3.4.h A 8.x.W.p.@.H.~.` Z w.p.v.3.c b.S T =X2               ",
"              7 %Xz.b 6.{ >.~.7.x Q.1.b p.G.F.F.1.Z.J.>.M m.q.m k.x.l.J.' C v.M.H.f.' A.Q.` Z q.x.!.:.( Q.E I ;X5               ",
"              5 &Xx.c 5.x.S.H.f.@.Q.1.b n.E.S.E.W.M.W.>.b J.t.c A.Q.A.!.%.B J.H.A.F.M.Z.Q.T Z v.A.H.p.-.G.Q I @X5               ",
"              5 &Xx.c 5.F.H.G.i.P W.1.b v.H.F.F.F.F.Q.>.n J.p.H A.H.A.Q.&.A G.F.F.F.H.A.Q.` S M.H.G.l.1.W.R I =X5               ",
"              5 &Xx.h 5.A.A.H.i.( W.1.b v.H.S.F.F.A.W.>.n G.l.-.Z.H.A.~.+.C J.E.F.F.F.A.Q.` E H.F.A.F.Q.J.S Y ;X5               ",
"              5 &Xx.c 5.M.F.G.l.' Q.1.b v.H.H.S.A.G.Q.>.n m.n.;.H.G.F.Q.+.M G.F.F.F.F.S.Q.` S J.F.F.A.F.(.E I ;X5               ",
"              5 &Xx.c 5.M.F.F.A.z.Q.1.b v.H.F.H.G.I.).;.n m.H.Q.1.x.F.Q.&.M G.A.F.F.F.A.Q.Y R E.H.F.J.L.P.E I ;X6               ",
"              7 &Xx.c 8.A.F.S.F.F.Q.1.b v.H.A.L._.@X].*.n M.W.z.X.X.S.~.} A J.A.F.F.F.F.Q.) R G.A.F.P.J.J.E I ;X5               ",
"              5 &XM.x Z M.W.F.F.A.Q.1.b v.H.A.L.P.P.).;.m m.~.` ..K >.[.` B G.H.F.F.F.A.Q.) E G.F.F.J.S.S.E I ;X5               ",
"              5 &Xv.z O.&.F.F.F.A.Q.1.b v.H.S.G.J.L.'.*.M L.&.R t.:.B z.>.B G.A.F.F.A.F.Q.) E J.F.S.J.H.J.E I &X6               ",
"              5 &Xg...+XU A.G.A.A.Q.1.b v.H.A.J.J.G.H.*.M _ B n.W.W.i.R G R G.F.F.F.S.A.Q.Y R G.H.F.A.F.J.E I ;X5               ",
"              5 &Xg.J Y.L S.F.F.A.Q.1.b v.E.S.F.F.W.[.k.g Q J.~.Q.~.!.m.m E Q.~.F.F.F.F.Q.Y Q H.F.F.F.H.H.E I ;X5               ",
"              0 6Xv.k v #.W.F.F.A.Q.1.b v.H.F.H.G.;.} L < { *.&.&.&.&.>.! y Y } F.F.F.A.Q.` E G.F.F.F.A.E.E I ;X5               ",
"              0 6Xg.c 4.G.F.F.F.A.Q.1.b v.E.A.G.B G /.A.E.1.1.i.d.d.1.,.A.A.^./.=.F.F.A.Q.) S J.F.F.F.F.G.E I ;X5               ",
"          .   0 6Xg.c 5.M.H.F.F.A.Q.1.b v.H.H.v.< ` 8X}.3X}.=X.XoXXX'.|.3X.XOX0X+.c.J.G.'.) S F.H.S.F.F.H.E I ;X6               ",
"              0 6Xl.c 5.M.F.F.F.A.Q.1.b v.H.H.N.y I }.H.=XF..X(.[.XXZ.{.-XS.A.3XT M.J.J.].) E J.F.F.F.A.J.E I ;X5               ",
"              0 5Xx.x 5.Z.F.F.F.A.Q.1.b v.H.H.v.y I }.m.<X[.(.Q.XX<XZ.=X7X(.(.7XI S.K.J.|.T E J.A.F.F.H.G.R I ;X5               ",
"              7 ,Xx.c 5.A.H.F.F.A.Q.<.b v.H.H.b.y Y V.3.XXK.8.7. X-XW ].7Xe.e.-XL F._.`.@XT S H.H.F.F.A.G.E I ;X5               ",
"          .   7 :Xx.c 5.M.F.A.F.A.J.1.b v.H.H.N.y T `.a.<XB.`.V.I. Xw.V.9XV.V.7XI F.).I.|.` E G.H.F.S.A.H.E I ;X6               ",
"              5 $Xx.c 5.F.F.F.F.A.Q.1.b v.H.E.v.y v J.x.v.M.G.M.G.l.x.x.J.M.G.x.G F.K.A.J.) E G.A.F.F.H.G.E I ;X5               ",
"              5 &Xx.c 5.x.H.F.F.A.Q.<.b v.H.F.F./ w q w q q , q , q q < , q q , ~ W.J.A.Q.` S H.H.F.F.F.G.E I ;X5               ",
"              5 &Xx.c 5.F.E.F.F.F.Q.1.b v.H.F.H.S.7.7.! b 7.7.[ [ 7.[ 0.H n 7.[ M.S.F.F.Q.` E G.F.S.A.F.H.E I ;X5               ",
"              5 &Xx.c 5.S.H.F.F.F.J.1.b v.H.F.A.H.H.Q.>.B G.W.W.E.W.H.[.&.A J.W.F.F.F.F.Q.` E E.H.F.F.F.G.E I ;X5               ",
"              5 &Xx.c 5.F.S.F.F.A.W.1.b v.H.F.F.S.S.W.>.n m.A.F.F.F.F.Q.&.A G.A.F.F.F.x.Q.T E G.A.F.F.F.H.E I ;X5               ",
"              5 &Xx.c 5.M.H.F.F.F.J.<.b v.H.S.F.H.F.Q.>.m M.E.F.G.S.F.Q.+.B G.F.F.F.F.A.Q.` E G.F.F.A.A.G.E ( ;X5               ",
"              5 &Xx.c 5.M.A.S.A.G.(.<.b v.H.H.F.F.S.Q.>.n m.H.F.F.F.S.Q.+.B G.F.F.F.F.F.Q.) E J.F.H.Q.W.G.E I :X5               ",
"              5 &Xx.c 5.M.H.F.F.F.).<.b v.H.F.F.F.A.W.>.B m.H.F.F.F.F.~.&.M G.F.F.F.F.F.Q.Y A Q.E.k.I } J.S I ;X5               ",
"              5 &Xx.c 5.M.F.F.A.K.].<.b v.H.F.F.F.F.Q.>.m M.A.A.F.F.S.Q.&.B G.F.F.F.F.A.Q.) S Q.x.J $.$.:.Q I ;X7               ",
"              5 &Xx.c 5.Z.F.F.F.F.].<.b v.H.F.F.F.F.Q.;.m N.H.A.F.E.S.Q.%.B G.F.F.F.F.A.Q.) S W.c.b V U.' Q I :X7               ",
"              5 &Xx.c 5.A.E.F.A.F.P.<.m v.H.F.F.F.F.Q.>.n M.H.S.F.F.F.~.&.B G.F.S.F.A.M.Q.` Q G.F.s.N o.-.Q L :X7               ",
"              5 &Xx.c 4.M.A.A.F.S.Q.1.m v.H.F.F.F.F.W.=.n m.F.F.F.F.F.Q.&.B G.F.A.F.F.F.Q.) S G.W.f.N o.@.Q I 1X7               ",
"              7 &Xx.c 4.A.A.A.H.S.Q.1.b v.H.F.F.F.F.Q.>.n M.E.F.F.G.S.Q.+.A G.F.F.F.F.A.Q.T E J.H.v.N  .#.Q L >X0   .           ",
"              5 &Xx.c 8.M.H.F.F.F.Q.1.b v.H.F.F.F.F.Q.;.M M.H.F.F.H.F.Q.+.B G.A.F.F.F.F.Q.` E E.F._ c O.&.Q I :X7               ",
"              5 &Xx.c 5.M.H.F.F.A.Q.<.b v.F.F.F.F.F.Q.=.n M.A.F.F.F.F.Q.+.M J.E.F.F.F.F.Q.Y S (.z.l o. .#.Q I ;X5               ",
"              5 &Xx.c 5.S.H.F.F.A.Q.1.b v.H.F.S.F.F.Q.>.n N.A.F.F.A.A.~.+.B G.F.F.F.F.A.Q.` F E.G.] v N v.E I ;X5               ",
"              5 &Xx.c 4.M.H.F.F.A.J.1.b v.H.F.F.F.F.E.;.M m.H.F.F.G.K.'.%.B G.F.F.F.F.F.Q.` S F.E.M.q.v.J.R I ;X5               ",
"              5 &Xh.c 5.Z.S.F.F.A.Q.<.b v.H.F.F.F.F.Q.>.m M.F.F.S.F.L.'.%.B G.H.F.F.F.A.Q.T A G.Q.*.z U J.E I ;X5               ",
"              5 &XZ.c 5.M.H.F.F.F.Q.1.b v.H.F.F.F.F.W.>.n m.F.A.J.J.I.].+.B G.E.F.F.F.A.Q.` R F.W.:.l ( Q.E I ;X5               ",
"              7 &Xx.c 4.A.F.F.F.A.Q.1.b v.H.A.H.F.F.W.=.m m.H.A.P.`.`.].} C G.A.F.F.F.F.Q.Y Q G.H.F.f.x.J.R I ;X6               ",
"              5 &Xx.v 6.M.F.F.F.A.Q.1.b v.H.F.F.F.F.Q.>.n M.H.A.P.L.L.'.} A G.A.F.F.A.A.Q.) R G.S.H.H.E.G.R I ;X5               ",
"              5 &Xx.h W F.F.F.F.F.J.<.b v.H.S.F.F.F.W.>.n M.H.A.L.J.C.Q.} B G.H.F.F.F.A.Q.) S H.F.H.F.H.H.R I ;X5               ",
"              5 &Xv.z | >.F.F.F.A.Q.<.m v.W.F.F.F.F.Q.>.n m.E.A.J.J.A.~.} m G.A.F.F.F.M.Q.` E G.A.A.G.S.J.E I &X6               ",
"              5 ;Xf.| R.U A.G.A.A.Q.<.b v.H.S.F.F.F.W.>.n m.H.A.W.G.A.Q.+.B J.A.F.F.F.F.Q.) E E.H.S.F.F.G.E I ;X5               ",
"              7 &Xg.J T.L A.E.A.A.Q.1.b v.H.F.F.F.F.Q.>.n M.A.F.A.F.S.~.+.B G.H.F.F.A.A.Q.) E G.H.A.A.H.H.E I ;X5               ",
"              5 &Xh.l V ] H.F.F.F.J.1.b v.H.S.F.F.F.W.>.n N.F.F.F.F.F.Q.+.Z G.A.F.F.F.F.Q.` A Q.F.F.F.F.G.E I ;X5               ",
"              5 &Xn.h 3.F.H.F.F.A.Q.1.b v.H.F.H.F.F.Q.>.m M.H.F.F.F.S.Q.&.B G.H.F.F.F.F.Q.) S J.A.F.F.F.G.E I ;X5               ",
"              5 ;Xx.c 5.S.F.F.F.A.Q.1.b v.H.F.F.F.F.Q.=.n N.H.A.F.F.F.Q.&.A G.A.F.S.F.A.Q.` S J.H.F.F.F.H.E I ;X5               ",
"              5 &Xx.c 5.M.F.F.F.A.Q.<.b v.H.F.F.F.F.Q.>.n M.F.F.F.F.F.~.+.M m.H.M.F.F.A.Q.) R E.A.F.F.F.J.E Y ;X5               ",
"              5 &Xx.c 4.A.F.F.F.A.J.<.b v.H.F.F.F.F.W.=.n m.F.A.F.F.A.Q.+.A G.F.F.F.F.F.Q.` S W.W.G.A.F.G.E I ;X5               ",
"              5 &Xx.c 5.M.H.F.F.A.Q.1.m v.H.F.F.F.F.Q.=.n M.H.F.F.F.S.Q.+.B G.F.F.F.F.A.Q.Y Q M.1.A.F.F.G.E I *X7               ",
"              5 &Xx.c 4.F.F.F.F.A.Q.<.b v.E.F.F.F.F.W.>.n M.F.A.F.W.S.Q.&.B G.F.F.F.F.M.Q.T A N.-.Z.H.F.J.E I *X5               ",
"              6 $Xz.c 8.v.' z.G.A.Q.1.b v.H.A.F.F.F.W.>.n M.H.H.M.k.A.Q.&.B G.E.F.F.A.F.Q.T Q v.H c.H.S.F.E I ;X5               ",
"              2  Xz.b 5.v.' z.H.M.Q.1.b v.H.H.F.F.A.Q.>.n M.H.A.l.@.M.~.%.A J.F.F.F.W.F.Q.` F v.' c.F.H.J.E I *X5               ",
"              1 ~.z.c 8.p.H k.W.F.Q.>.b m.H.z.H.Q.E.Q.>.n s.H.A.p.( c.Q.%.B v.A.F.A.k.x.Q.) Q v.( C.J.k.M.E I [.=               ",
"              2 [.1.c 5.n.:.c.A.c.Q.<.b s.u.m p.:.i.b.' m q.l.W.y.x Z.Q.%.C 5.x.W.A.' f.~.Y Q s.g z.Q.#.1.E I }.1               ",
"              1 [.A.B w.j.n z.(.Q.(.l.k D F p ^ b F 3.x S w.N.(.j.N F.{.*.B w.a.e.a._ u.j.H ] b.N F.).#.i./ ` OX1               ",
"              . 4 s & 8 8 & 6 y 8 9 6 + # # + # # # # o ; 8 9 8 8 & 6 f ; # > > % > O % > O : 8 & 6 f % ; : 4 j X               ",
"                                                                                                                                "
};
