/* XPM */
static char *_6225_d579386a46420f029f4b708cd87cfa1df18df8268d7f979d85e9c973d194d11c[] = {
/* columns rows colors chars-per-pixel */
"64 64 201 2 ",
"   c #06040C",
".  c #0A070F",
"X  c #1E040A",
"o  c #0D0D14",
"O  c #080918",
"+  c #0F0F18",
"@  c #0F101A",
"#  c #11111C",
"$  c #340A11",
"%  c #0E1325",
"&  c #121522",
"*  c #151926",
"=  c #181C27",
"-  c #111628",
";  c #161B2C",
":  c #191D2C",
">  c #171E30",
",  c #181F31",
"<  c #2D1827",
"1  c #361928",
"2  c #1A2134",
"3  c #1C2639",
"4  c #1E263A",
"5  c #202738",
"6  c #21293D",
"7  c #282F3F",
"8  c #382638",
"9  c #461A27",
"0  c #571B27",
"q  c #4D222E",
"w  c #4D2637",
"e  c #502A3B",
"r  c #682839",
"t  c #792738",
"y  c #1D2642",
"u  c #1F2944",
"i  c #232C43",
"p  c #262F4A",
"a  c #3A2B42",
"s  c #253145",
"d  c #2B3345",
"f  c #27314B",
"g  c #2A344D",
"h  c #2C394E",
"j  c #363949",
"k  c #2B3651",
"l  c #2E3B56",
"z  c #2F3C58",
"x  c #313E54",
"c  c #3A3F55",
"v  c #303D59",
"b  c #542D43",
"n  c #50364B",
"m  c #6C3445",
"M  c #7B3142",
"N  c #70364A",
"B  c #7A3849",
"V  c #643F54",
"C  c #3D444E",
"Z  c #334055",
"A  c #33425C",
"S  c #3A475B",
"D  c #354965",
"F  c #374A64",
"G  c #3A4B64",
"H  c #3B4E68",
"J  c #3A506A",
"K  c #3D516B",
"L  c #324F70",
"P  c #355272",
"I  c #3A5370",
"U  c #454B5B",
"Y  c #59565D",
"T  c #76594C",
"R  c #7C5948",
"E  c #68485B",
"W  c #764254",
"Q  c #685754",
"!  c #4C5566",
"~  c #41546C",
"^  c #48566A",
"/  c #535561",
"(  c #545D6B",
")  c #425770",
"_  c #445972",
"`  c #4A5E75",
"'  c #6F5266",
"]  c #775D70",
"[  c #795E71",
"{  c #4C6276",
"}  c #4E647B",
"|  c #566577",
" . c #53667C",
".. c #6B6D75",
"X. c #7B6173",
"o. c #68737B",
"O. c #6E787B",
"+. c #832D3D",
"@. c #9B5C35",
"#. c #925B3B",
"$. c #AA5D2C",
"%. c #B65E24",
"&. c #BB5F21",
"*. c #C85F1B",
"=. c #CE6116",
"-. c #C6601B",
";. c #D16114",
":. c #843443",
">. c #893646",
",. c #873B4A",
"<. c #8B3A4A",
"1. c #903E4B",
"2. c #89404F",
"3. c #93414F",
"4. c #845B44",
"5. c #8C4353",
"6. c #944351",
"7. c #994957",
"8. c #9A4B59",
"9. c #9D5A5E",
"0. c #977C5B",
"q. c #AA7E4C",
"w. c #A27D52",
"e. c #897B66",
"r. c #907B60",
"t. c #B76770",
"y. c #C36E76",
"u. c #BA803F",
"i. c #F7870F",
"p. c #FB880B",
"a. c #ED8617",
"s. c #E5851D",
"d. c #F48711",
"f. c #D88427",
"g. c #C58136",
"h. c #546C83",
"j. c #5C6E84",
"k. c #577086",
"l. c #5D7186",
"z. c #577189",
"x. c #5B758B",
"c. c #5E788E",
"v. c #4B7498",
"b. c #517493",
"n. c #5E7A90",
"m. c #616F85",
"M. c #637484",
"N. c #667588",
"B. c #647B8E",
"V. c #6A7D8E",
"C. c #627C92",
"Z. c #697F91",
"A. c #668196",
"S. c #6D8292",
"D. c #678498",
"F. c #6B8499",
"G. c #6F899D",
"H. c #738494",
"J. c #788897",
"K. c #78879A",
"L. c #708A9E",
"P. c #7A8A9D",
"I. c #6887A0",
"U. c #6989A2",
"Y. c #738CA0",
"T. c #7792A5",
"R. c #7B93A6",
"E. c #7C97AB",
"W. c #859299",
"Q. c #8B969B",
"!. c #8E989C",
"~. c #959D9E",
"^. c #999F9F",
"/. c #99A09F",
"(. c #8995A5",
"). c #819BAE",
"_. c #839DB0",
"`. c #9BA1A0",
"'. c #85A1B3",
"]. c #8AA5B6",
"[. c #8BA6B8",
"{. c #8EA9BB",
"}. c #98A9B6",
"|. c #91ADBE",
" X c #A2B4BF",
".X c #FFAAAA",
"XX c #96B2C4",
"oX c #99B4C3",
"OX c #A1B6C4",
"+X c #A3BBCA",
"@X c #B9CDD7",
"#X c #C1D4DE",
"$X c #C3D7E0",
"%X c #C4D8E1",
"&X c #CADEE7",
"*X c #CBDFE8",
"=X c #CDE2EA",
"-X c #D8EAF1",
";X c #E3EFF3",
":X c #EAF5F8",
">X c #F3FDFE",
/* pixels */
". Z ) _ 5 o 2 4 6 7 s 7 d d d d g a f d d d f d d j d 6 2 6 d d j d d d d d d s p g a d d d d d d d d d i i i i 4 2 o 5 ) _ l o ",
". Z ) ) 3 # h ` A.].[.{.@X&X%X%X%X&X$X$X$X$X$X$X-X;X:X| 2 E.@X:X:X:X:X%X%X%X%X%X%X#X$X$X$X$X$X$X$X$X%X#XXX[._.Z._ k # 5 _ _ Z . ",
"o Z ) _ 5 o i A { h.j.l.K.P.K.K.Y.Z.K.Y.K.K.K.H.}.+X:X| 2 '.oXoX(.(.(.P.K.P.J.J.Z.(.Z.Y.K.K.K.Y.Z.Y.K.K.l.l.m.` A i o 5 _ ) Z o ",
". Z I _ 2 o ; 6 g p p p u i u u u i i i i i u u H Z.&X( 2 ].F.` u y u u u u i u i p p i i u i u p u i i p p p k i ; o 2 _ ) Z . ",
". x ) ) 5 o , 2 , 3 3 3 2 3 2 3 2 4 3 , 2 2 , 3 : S =X| 2 {.{ : , 3 3 , 3 3 , 3 , y , 4 , y , , 4 4 , , y 4 , , 2 2 o 2 F K h o ",
". x ) I 2 o 2 2 , > > > > > > > , , > , , , , , - j =X( 2 {.^ % , , , > > > > > , , , , , , , > > : > > > : , , ; 2 . C E.A.^ . ",
". x ~ _ 5 o 2 2 , , > , , 2 , , , , , , 3 , , , - Z =X| 2 {.{ - , , , 3 , , , , , , , , , , y > > , , > , , , , 2 2   / -XoXN.. ",
"  M.XX$XU   : 6 f p p i i u u u u u u u u i u 4 F B.&X( 2 [.A.~ i u u u u u u i y y p y i p y y i y p i p p p p 3 ; o s x.h.S o ",
"   .).OXC . 4 x ) ` ` ` m.m.m.m.m.m.m.m.m.m.m.j.P. X-X| 2 '.[._.V.V.V.m.j.m.m.m.m.m.m.m.m.m.m.m.m.m.m.m.} ` { ~ Z 3 @ : Z Z s O ",
". l K H 2 # k { D.{.|.|.%X=X*X*X&X&X&X&X&X&X&X&X;X:X>Xo., E.#X:X>X:X>X=X&X*X*X*X&X*X&X&X*X*X*X*X&X&X&X%X|.{.[.D.` k & & 2 ; - o ",
"o 2 i i & # k H h.].|.|.oXoXoXoXoXoXoXoXoXXXoXoX@X|.E.S 3 A.].@X+X+XOXoX+X+XoXXX+X+XXXXX+X+XXXOXoXoXoXoX|.|.{. .D k @ @ , 2 - @ ",
"o * , , # & f l G V.Z.Z.Z.K.F.Z.F.F.F.F.F.K.Z.Z.S.k._ 7 3 K  .A.Z.Z.Z.Z.Z.Z.Z.Z.C.Z.Z.Z.Z.Z.Z.Z.F.F.F.F.S.Z.B.G l f @ - 4 6 2 o ",
"o = , 2 & + , ; ; - - - p f p p p p p p p g y % % - - , 2 ; % - k p p p p p p p k p p p p p p p f p p i % % - - ; , + , Z z s o ",
"o 6 g f = + ; g A A H ` } } ` h.} } } } } } { { Z s { d 2 Z K { h.h.` h.` h.` h.h.h.` h.` h.` h. .} } } { G Z F g : + : l l i o ",
"o i v v : @ ; v _ ) h.C.n.n.n.n.c.n.n.n.x.n.c.A.F Z D.Z 2 J h.A.z.C.x.C.x.C.c.C.b.c.c.c.x.c.c.c.n.B.n.c.A.h.K _ Z ; o : l z 7 o ",
"o i l z : @ ; x ) H ` c.x.x.x.x.x.x.x.x.x.x.x.c.F l A.Z > J } x.z.x.x.x.z.x.z.x.j.b.b.x.x.x.x.x.x.x.x.x.c.} K _ l ; + : z l 6 o ",
". s l l : + ; v ) H h.C.x.x.x.x.x.x.x.x.x.x.x.n.K H c.Z , G } A.x.x.x.x.x.x.x.z.b.w.w.b.x.x.x.x.x.x.x.x.B.} H _ l ; o : v z i o ",
". i l l : # ; x ~ H ` h.x.x.x.x.x.x.x.c.x.x.x.c.{ _ A.Z , H } c.x.x.x.c.x.x.x.c.O.s.f.O.c.x.x.x.x.x.x.x.z.` H ~ l ; # , x z i o ",
"o i x l 6 : ; i k f p l h.n.x.x.x.x.x.x.x.x.x.x._ I B.x , H } c.x.x.x.x.x.x.v.e.d.d.i.d.O.b.x.x.x.x.x.k.k f p k i > > 4 l x 6 o ",
"o 7 x l 6 , ; v ` l.h._ x.x.x.x.x.x.x.x.x.x.x.x.h. .n.x 2 K  .c.x.x.x.x.x.b.0.g.i.q.q.p.g.0.b.x.x.x.c.z._  .x.} x ; > 6 l x i o ",
"o i l l 6 , > ~ F.XXT.x.x.x.x.x.x.x.x.x.c.x.x.x.c.c.C.x > H } c.c.x.x.x.x.M.s.i.s.N.O.s.i.f.N.M.x.x.x.x.x.T.{.D.~ ; ; 6 l l i o ",
"o i l l 4 , p ` Z.XXT.z.x.x.x.x.x.x.x.x.x.x.x.x.x.z.x.l ; g ` n.x.x.x.b.0.a.i.u.b.b.b.b.g.d.a.e.b.x.x.x.x.T.XXD.` f , 6 l l i o ",
"o i l l i 2 l G ` j.h. .x.x.x.x.x.x.x.x.x.x.x.x.x.B.T.S ; g _ B.x.x.x.b.0.p.d.f.0.w.w.0.f.d.p.r.b.x.x.x.h.h.j.` G k , i l l i o ",
". i l l 4 , k k f p v ) z.n.x.x.x.x.x.c.x.x.x.x.z.C.XX~ - k _ c.x.x.x.b.0.d.s.a.i.d.d.i.a.s.d.r.b.x.x.x.K v p f k k , 6 l x 6 o ",
". i l l 4 2 k k l G ` l.x.c.x.x.c.x.x.x.x.x.x.x.z.C.XXS ; [.h.g x.c.x.x.M.o.o.o.o.o.o.o.o.o.o.l.x.x.x.x.x.` G k k k , i l l i o ",
". d l l i 2 k v G ~ h.C.x.x.x.x.x.x.x.x.x.x.x.c.x.C.E. .! l. .} ` h.c.z.n.U.U.U.U.D.I.I.I.I.U.n.x.c.x.x.n. .H D v l , 6 l l i o ",
". i l l 5 , g G ) H ` c.x.x.x.x.x.x.x.x.x.x.x.x.x.z.h._.'.O | XXg K B.z.G.|.[.[.{.{.[.[.[.[.{.G.k.x.x.x.n.} H ) G k , 6 l l i o ",
"o i l l i 2 g G ~ D h.x.x.x.x.x.x.x.x.x.x.x.x.x.x.x.c.} } E.^ 6 E.l.k z.C.C.C.C.C.C.C.Z.C.C.C.n.x.x.x.x.x.} H ) D k , i l v 6 o ",
"o i v l , , k D ~ H } n.x.x.x.x.c.x.x.x.N.x.x.n.x.x.x.} ` E. .c V.j.~ `  .z.x.z.z.x.z.z.l.z.z.x.x.x.x.x.c.` H ) G k : 5 l l i o ",
"X i l l : # k D ) H } c.x.x.x.x.x.x.x.x.x.x.x.x.x.x.x.c.z.A G.{.O ` oXk F A.x.x.l.c.c.x.c.z.c.x.x.x.x.x.x.h.K ) D k o : l l i o ",
"o i x v * # k G ) H h.c.x.x.x.x.x.x.x.x.x.x.x.x.x.x.x.x.x.h._ ^ OXN.7  XT.Z h.c.c.z.x.x.x.x.x.x.x.c.x.x.c.` ~ ~ S k # : l l 7 o ",
"o i v l : # k G ) H ` c.x.x.x.x.x.x.x.x.x.x.x.x.x.x.x.c.x.C.^ G +XH.c }.H.g  .c.z.c.x.x.x.x.x.x.x.x.x.x.B.` G ~ D k # : l l i + ",
"; f l l ; @ l F K K } c.x.x.x.x.x.x.x.c.x.c.x.x.x.x.x.x.x.x.c.z.4 H.=X5 6 _ k.x.x.x.x.k.x.x.x.x.x.x.x.x.c.} K K G h # : l l f , ",
", f l z : @ 2 Z _ K } c.x.x.x.x.x.x.x.x.x.x.x.x.x.x.k.G.T.x.x.l.v R.%X7 i ) k.c.x.x.A.R.A.k.x.x.x.x.x.x.c.} H ) Z 2 @ : l l s , ",
"= f l l : @ ; l ) K } c.x.x.x.c.x.x.x.x.x.x.x.x.x.c.n.E.].x.x.x.G (.#Xi s ) k.x.x.k.A.|.F.c.c.x.x.x.x.x.c.} H ) Z ; + : l l f ; ",
"o i l l : @ ; Z ) H } c.c.x.x.x.x.x.x.x.x.x.x.x.k.c.].].'.x.x.z.F R.$X7 6 ~ k.c.x.x.A.].].E.k.x.c.x.x.x.c.{ K ) l ; + : l l 7 o ",
". i x x : o ; l ) H } c.x.x.x.x.x.x.x.x.x.x.x.z.G.E.].].'.x.x.z.F (.%X7 s ) k.x.x.x.A.].].'.R.A.x.x.x.x.c.} K ) l ; @ : z l i o ",
"o i v l : + ; Z _ H } c.x.x.x.x.x.c.x.x.x.x.x.x.R.].].].).x.x.x.F R.@X7 u ) z.x.x.z.A.].'.'.].F.k.x.x.x.c.} K _ x ; + : l z i o ",
"o i l l : + ; Z _ K } c.x.x.x.x.x.x.x.x.x.x.x.x.z.Z.[.[.).c.x.k.K B.].6 s _ k.c.x.z.D.].{._.x.x.x.x.x.x.c.} K _ Z ; o : l l 7 o ",
"o i z z ; @ ; g G K  .c.x.x.x.x.x.x.x.x.x.x.x.x.x.c.G._.'.x.x.x.J B.].5 s ~ k.x.x.z.A.{.R.F.x.x.x.x.x.x.c.} K S g ; @ : z l i o ",
". i v l : + , i l H } x.x.x.x.x.x.x.x.x.x.x.x.x.x.x.k.T.).x.x.k.H c.].4 s ) k.x.x.z.A.].A. .x.x.x.x.x.x.x.} H l i , + : l l 6 o ",
"o : , 6 & # : i k p A ) l.z.l.z.z.z.z.l.z.k.z.z.z.k.k.x.x.k.x.x.K  .c.3 s ) k.x.z.z.x.x.x.k.z.z.z.z.x.z.I A p k i , @ = 2 3 : + ",
"o * , , & # ; x _  .} } z.Z.Y.U.L.L.L.L.L.L.G.L.G.L.L.L.G.Y.A.z.K } x.3 s ) h.A.L.L.G.G.L.L.L.L.G.Y.Z.z.}  . .` l : @ # 2 2 = + ",
"o : , 2 & + - ~ D.XXT.z.z.Y.{.[.[.[.[.[.[.].[.[.{.].[.].].{.L.k.K } l.3 s ) h.F.{.].].].[.[.[.].[.{.G.z.z.T.{.D.K - + # 2 2 ; o ",
"+ ; 2 2 # # - ~ F.{.T.z.x.x.B.c.c.c.c.C.C.c.c.n.c.B.C.c.c.c.x.z.K } x.2 d ) k.x.c.c.c.B.C.c.c.c.c.C.c.x.z.T.XXD.K ; @ * 2 2 ; o ",
"o : 2 2 & + : x ` Z.l.h.x.x.x.S.S.H.x.z.z.V.S.S.c.z.z.B.S.S.B.k.K } c.3 d ) k.B.H.S.B.z.z.c.S.S.V.x.z.x. .x.C.` Z : @ # 2 2 ; o ",
"o ; 2 2 & + , : - p A K l.z.x.Q.^.~.B.x.z.W.^./.S.k.z.J.`.`.J.k.K } z.3 s I k.H.`./.W.z.z.S.~.~.!.x.x.l.K Z s ; - 2 @ & 2 2 - + ",
"o ; 2 , & + , g H F { x.z.S.!.~.W.B.x.V.Q.~.Q.B.x.B.!.~.!.S.c.k.Z ` x.4 4 A h.c.B.!.~.Q.S.z.B.W.~.!.S.z.k.{ F G h : @ # 2 2 : o ",
"o ; , , & # ; Z I K  .n.z.S.W.W.H.z.z.Z.W.W.J.z.z.B.W.W.J.l.c.l.k ~ c.4 4 k h.c.z.J.W.W.B.z.z.H.W.W.S.z.c.} K _ l - @ # 2 2 : o ",
"o : 2 2 # # : n E E ' X.X.X.] ] ] X.X.] ] ] ] X.X.[ ] ] ] X.X.] n ~ x.4 y k ..X.X.] ] ] X.] X.] ] ] [ X.X.' V E 8 . + = 2 2 = @ ",
"+ : 2 2 & + o b ,.6.8.8.8.8.8.8.8.8.8.8.8.8.8.8.8.8.8.8.8.8.6.>.b I C.= , l E 6.8.8.8.8.8.8.8.8.8.8.8.8.8.7.6.,.e . + # 2 2 = o ",
"o , 2 , & o * a N 2.5.5.5.5.5.5.5.5.5.5.5.5.5.5.5.5.5.5.2.5.>.r a G  .# : k b :.3.1.1.1.3.3.3.6.3.3.3.3.3.6.3.+.e = @ # 2 2 : o ",
"o ; , , & * E q X < > 2 2 > 2 ; ; > , 2 > ; : : 2 ; 2 ; < 1 1 < > > ; + & , , ; : 2 , ; > > , > ; 2 2 : , , w $ 0 E & @ 2 2 ; o ",
"o ; 4 , : 2 W N d @ w :.M M M ,.2.2.5.,.5.2.5.2.2.2.2.W E E E e w a p + : f w t t :.,.,.5.,.,.5.,.M M t 0 < : e M ^ 2 - 2 2 ; o ",
"o : , , , 6 U N V # e :.+.t..X.X.X.X.X.X.X.X.X.X.X.X.X.X.X.X.Xy.t b g # : x b +.<.t..X.X.X.X.X.X.X.X.X.X9.o & B ! G 3 2 2 2 ; o ",
"o , , , , , > c ,.v < $ r M ,.,.>.>.>.>.>.>.>.>.>.>.>.>.>.>.>.>.+.w ; o & 2 e +.<.>.:.:.>.>.>.>.>.,.+.t $ 0 t W Z , 2 2 2 2 , o ",
"o & = 2 2 > : i r m , o < 9 q e e e e e e e e e e e e e e e e e q 8 : - = , 8 w e e e e e e e e e q 9 9 X 0 m j 6 , 2 2 2 - # @ ",
"# O @ , , 2 2 ; , r 0 o + + + , 2 2 > 2 2 > 2 , , 2 , 2 , 2 , 2 , , 5 5 2 2 3 2 2 , 2 , , 2 , 2 : + + + + 2 k ; , 2 2 2 ; @ o @ ",
"+ + + o ; 2 , 2 , 2 - o p A K L L L J H K L L L K H K L L L H H H I L L H ~ H H L L P K ~ K L L P K A i o - 4 2 , , 2 ; + # + + ",
"# o + o & = , , , & : 5 A H ) T 4.4.! I I Q 4.4./ I I Q 4.4.Y I I Y 4.4.Q P I / 4.4.Q P K ! 4.4.T I H A 2 : & : 2 , = # o o + + ",
"o # + o o # 2 2 , o 5 D K K ^ %.=.*.Y P K $.;.=.Q P K #.;.=.R P L 4.;.;.#.I I Q =.;.$.K I Y =.;.%.^ ~ K A 4 o 2 2 2 # o o @ + + ",
"o : = o 6 k g G K G G K P R -.;.@.~ K Q -.;.$.~ ~ Y &.*.&./ ~ K K ~ / &.*.%./ K ! $.*.-.Q K ~ @.;.-.T P H H G K F g k 5 o : = + ",
"o ; > & i v l A H ~ ) K I Q #.#.Q I P Y #.#.T K I ! #.#.4.I K ~ ~ I K 4.#.#.! I P R #.#./ I P Q #.#.Q P ~ ) ~ H A k z i # 2 ; + ",
"o ; 2 , p x k k k ~ ) K K I P P I K ~ I P P I ~ ~ K P P P ~ K K ~ ~ I P P P K ~ ~ P P P K ~ ~ I P P I K ~ K ~ k k l l s 2 2 = o "
};
