/* XPM */
static char *_0856_957b07e2b33d76d1cb7535cc1b89659ae59ef5e6be7d76901f2547afcbc6f8c1[] = {
/* columns rows colors chars-per-pixel */
"256 20 256 2 ",
"   c black",
".  c #010101",
"X  c #020202",
"o  c gray1",
"O  c #040404",
"+  c gray2",
"@  c #060606",
"#  c #070707",
"$  c gray3",
"%  c #090909",
"&  c gray4",
"*  c #0B0B0B",
"=  c #0C0C0C",
"-  c gray5",
";  c #0E0E0E",
":  c gray6",
">  c #101010",
",  c #111111",
"<  c gray7",
"1  c #131313",
"2  c gray8",
"3  c #151515",
"4  c #161616",
"5  c gray9",
"6  c #181818",
"7  c #191919",
"8  c gray10",
"9  c #1B1B1B",
"0  c gray11",
"q  c #1D1D1D",
"w  c #1E1E1E",
"e  c gray12",
"r  c #202020",
"t  c gray13",
"y  c #222222",
"u  c #232323",
"i  c gray14",
"p  c #252525",
"a  c gray15",
"s  c #272727",
"d  c #282828",
"f  c gray16",
"g  c #2A2A2A",
"h  c gray17",
"j  c #2C2C2C",
"k  c #2D2D2D",
"l  c gray18",
"z  c #2F2F2F",
"x  c gray19",
"c  c #313131",
"v  c #323232",
"b  c gray20",
"n  c #343434",
"m  c #353535",
"M  c gray21",
"N  c #373737",
"B  c gray22",
"V  c #393939",
"C  c #3A3A3A",
"Z  c gray23",
"A  c #3C3C3C",
"S  c gray24",
"D  c #3E3E3E",
"F  c #3F3F3F",
"G  c gray25",
"H  c #414141",
"J  c gray26",
"K  c #434343",
"L  c #444444",
"P  c gray27",
"I  c #464646",
"U  c gray28",
"Y  c #484848",
"T  c #494949",
"R  c gray29",
"E  c #4B4B4B",
"W  c #4C4C4C",
"Q  c gray30",
"!  c #4E4E4E",
"~  c gray31",
"^  c #505050",
"/  c #515151",
"(  c gray32",
")  c #535353",
"_  c gray33",
"`  c #555555",
"'  c #565656",
"]  c gray34",
"[  c #585858",
"{  c gray35",
"}  c #5A5A5A",
"|  c #5B5B5B",
" . c gray36",
".. c #5D5D5D",
"X. c gray37",
"o. c #5F5F5F",
"O. c #606060",
"+. c gray38",
"@. c #626262",
"#. c gray39",
"$. c #646464",
"%. c #656565",
"&. c gray40",
"*. c #676767",
"=. c #686868",
"-. c DimGray",
";. c #6A6A6A",
":. c gray42",
">. c #6C6C6C",
",. c #6D6D6D",
"<. c gray43",
"1. c #6F6F6F",
"2. c gray44",
"3. c #717171",
"4. c #727272",
"5. c gray45",
"6. c #747474",
"7. c gray46",
"8. c #767676",
"9. c #777777",
"0. c gray47",
"q. c #797979",
"w. c gray48",
"e. c #7B7B7B",
"r. c #7C7C7C",
"t. c gray49",
"y. c #7E7E7E",
"u. c gray50",
"i. c #808080",
"p. c #818181",
"a. c gray51",
"s. c #838383",
"d. c #848484",
"f. c gray52",
"g. c #868686",
"h. c gray53",
"j. c #888888",
"k. c #898989",
"l. c gray54",
"z. c #8B8B8B",
"x. c gray55",
"c. c #8D8D8D",
"v. c #8E8E8E",
"b. c gray56",
"n. c #909090",
"m. c gray57",
"M. c #929292",
"N. c #939393",
"B. c gray58",
"V. c #959595",
"C. c gray59",
"Z. c #979797",
"A. c #989898",
"S. c gray60",
"D. c #9A9A9A",
"F. c #9B9B9B",
"G. c gray61",
"H. c #9D9D9D",
"J. c gray62",
"K. c #9F9F9F",
"L. c #A0A0A0",
"P. c gray63",
"I. c #A2A2A2",
"U. c gray64",
"Y. c #A4A4A4",
"T. c #A5A5A5",
"R. c gray65",
"E. c #A7A7A7",
"W. c gray66",
"Q. c #A9A9A9",
"!. c #AAAAAA",
"~. c gray67",
"^. c #ACACAC",
"/. c gray68",
"(. c #AEAEAE",
"). c #AFAFAF",
"_. c gray69",
"`. c #B1B1B1",
"'. c #B2B2B2",
"]. c gray70",
"[. c #B4B4B4",
"{. c gray71",
"}. c #B6B6B6",
"|. c #B7B7B7",
" X c gray72",
".X c #B9B9B9",
"XX c gray73",
"oX c #BBBBBB",
"OX c #BCBCBC",
"+X c gray74",
"@X c gray",
"#X c gray75",
"$X c #C0C0C0",
"%X c #C1C1C1",
"&X c gray76",
"*X c #C3C3C3",
"=X c gray77",
"-X c #C5C5C5",
";X c #C6C6C6",
":X c gray78",
">X c #C8C8C8",
",X c gray79",
"<X c #CACACA",
"1X c #CBCBCB",
"2X c gray80",
"3X c #CDCDCD",
"4X c #CECECE",
"5X c gray81",
"6X c #D0D0D0",
"7X c gray82",
"8X c #D2D2D2",
"9X c LightGray",
"0X c gray83",
"qX c #D5D5D5",
"wX c gray84",
"eX c #D7D7D7",
"rX c #D8D8D8",
"tX c gray85",
"yX c #DADADA",
"uX c gray86",
"iX c gainsboro",
"pX c #DDDDDD",
"aX c gray87",
"sX c #DFDFDF",
"dX c gray88",
"fX c #E1E1E1",
"gX c #E2E2E2",
"hX c gray89",
"jX c #E4E4E4",
"kX c gray90",
"lX c #E6E6E6",
"zX c #E7E7E7",
"xX c gray91",
"cX c #E9E9E9",
"vX c #EAEAEA",
"bX c gray92",
"nX c #ECECEC",
"mX c gray93",
"MX c #EEEEEE",
"NX c #EFEFEF",
"BX c gray94",
"VX c #F1F1F1",
"CX c gray95",
"ZX c #F3F3F3",
"AX c #F4F4F4",
"SX c gray96",
"DX c #F6F6F6",
"FX c gray97",
"GX c #F8F8F8",
"HX c #F9F9F9",
"JX c gray98",
"KX c #FBFBFB",
"LX c gray99",
"PX c #FDFDFD",
"IX c #FEFEFE",
"UX c white",
/* pixels */
". . .   . X X X X X . . X . X X . . X .   . . . .   . .   . .   . .   .       . . . . . . . . . . . . . . . .   . . . .   . . . . .   . .   . . . . X o X . . . . . . . . .   . . . . .   . X . X . X X X .   .   . .   . . . . . . . . . . .   . . . . . . . . . . . . . X o o X . . . . . . . .   . .   . .   . . . . . .   .   . X X X . . X . . X o o o X   . . . . . .   X o X . .       .   . . . . . .   . . . .   . X . X . X X X .   . .   . . . . . . .   . .         . .   . X . X X X X X . . .   . . . . . . . . . ",
"    .   . . . X .   X X . X . X X X X .     .     .     .     . . . . . . . . .                     . . . . . .         .         . .     .     X o @ # + o X             . .   . .     .   . X X X . . X .     .     . .                     .                       . X O @ # O X .             .     . .   .           . .   . X X . . X . X . X + O + O . . . . X . . X X + @ + o         .   . . . . .   .             X . . X . . X . .     .               .   . . . . .       . X O + + + o X       . .                 ",
". .     . o o . @ @ .   o   X .   . . . o .   X     X X   . .                   . X . . . . . . . .   . . . .   . . . .   . @ o .   . X X     X o O .   . O . o X . . X .     .     X     X o . . . o +   . o .   . .     . . . . . . . . O .   . X X . . . o X . o o X O O .   o O . o o X . X .   . X     X   X o . X .     .     . o o . .   o     o     o . + X   X o .           o .   X   . . . . .   . . O o X X   X X o o X o o .     . o . . . . . . @ o . X           . X X O #         o O . X .   . X X . . . . . . ",
"X X .   O # > & = * . # + o # & & + .   % # @ = o   o o   o # o O O O + O o X X o O . X X X X X X .   . . . .   X X X $   o - . # # . O O   o % . & e r a 0 O o X   . X o o . o @ @ - O . O + . + X ; : & & X o   + + . O . X X X X X X . % X . + o o       @ O   + O .   6 y r u ,   X o .   O + X X $ o $ % . @ @   @ X o O & X O . # o   O # o 8 g l d p =   $ # o O *   > g z r = % o   +   . . . .   .     @ O o @ X # o X o   o O   X o + +   . . + $ . & X   $ o X X . . X o X + $ > d v r > o + @ X     o o . X X X X X ",
". . X . o           # * X =     $   X % + # # +   X X   o X O + o o o O o O # $ O   X . . . . . X .   . . . .   X + O $ @ +   ;     o   @ O . @ o M T.;X`.) & $ @ @ # X   + & + $ $ @ X O + X O + o =     X # + + @ X   + . X . . . . X     o & o   . X @ O X $ @   o # # -.OX=Xb.d O % # # o . o # @ O @ + o . @ O O @ X o # # . @ + . X @ # = o p.kXOX-X`.z + . * +   # o ^ +X7XP.F o   X   .   . . . .   @ # X X O @ . X o X O ; #   O o @ o   o % % % + X + $ $ @ o . . X O @ + + +   E +X9X/.M # o X o @ # O o X . X . . . ",
"X . X X   Z p.n.' ; o     7 ( y.h.( ; - . $ ; # & @ X . % X . % # % & $ @ O + @ o   X . X X X . X .   . . . .   . + @ . $ =   J w.l.o.5 o o # > o F 7XUXnX1.6 # + + % O   o * . # = + # O X       a a.q.3.d O o O + o @ @ . X X X X X . o   # $   + % O @ + X $ $   & , # s.ZXUX>XS : # + @ + .   $ @   - * $ & + X X X o   o o + . -     O o $ o | =XNXUXkX] +   $ X $ 3 . -.DXUX9X/     %   . . . . . .   + O o + $ + # X # $ o - #   % @ : $   @ $ + o X O @ $ $ X . @ # @ O O + + 1 . { xXUXvX^ 3 * O   o O o X X . X X X X ",
". X o O   w.UXUX@XV 1 # - - H.UXPX[.s < $ $ > & ; & $ o * + o & $ @ - ; & $ @ # $ # . X X X X . X .   . . .   .   o #   + ;   r.HXUXXXF # + & 3 o V <XBXkX2.3 - = * - % .   $ $ O = # & @ + % $   F KXUXtX[ 6 + # % + + O . X X X X X . O   $ .   < $   $ % $ & & $ 3 6   r.hXSX-XC * > = & $ + .   = o = ; * : $ % % * = @ + & < o > = 1 , % % =   L pXHX0X-.- > = # = 5 X &.SXJX2X) +   o   .   . . . .   . * + & $ o > + O 1 * % + O + X * % o % = * - & & % O O $ = % = * O   O ; 3 . / uXLXbX^ $ ; % + o O # % O . X X X X ",
"  X o +   i.UXVXI.q X , 2 O c.HXMX}.s @ * +       + @ * & %     * *         @ +   X . X X X X . X .   . . .   .   o $ o $ -   c.KXGX_.M     X     K gXUXsX;.    X     o % - + # O       O O + +   x KXIX0X~ .   # @   o X . X X X X . X .   * X o 1 X *           o   #   c.LXJXoXx   O O     @ - = X *         @ O O o   $ o .   1 X       . # 4 # E kXUX1X! + # . X .     =.SXPX-X) %       .   . . . .   . = o O @   $   ; O O     $ # # X & -             # O O : @     X # $ @ + O   / yXUXlXY <   # O   . O @ X . X X X X ",
". X o +   V R.cXuXN.V + 4 7.@XIX.X5.e   O.T.A.Q.G.c.| 4   % $ w 1.V.D.K.A.F.A.6.m $ . X . . . . X .   .       .   X @ @ & ;   g.FXCXfX^.h.S.j.Y - Z 2XKXxX-XH.S.A.1.k $ @ +   [ T.D.~.K.c.| q # + m HXJXcX+XG.B.F.} 2 O   X . X X X X . X   & X * @ $ ,.S.b.L.N.B.U.w.z & t.ZXGXaX[.D.H.v.( 3 + % X 2 v.K.L.!.C.y.H = 2 j t.S.M.2.q # 2.U.D.&.2 . o } kXIXsX_ <   w 8.T.M.i.[.SXUX:X^ O   + o   .         .   & + H p.v.b._ O t z.J.M.P o + @ W m.c.M.U.F.=.u -   h a.n.Z.M.M.A.l.| 0 $ . _ uXHXjXG *.b.v.+.t @ $ X   X . . . X ",
". X o o *   D wXFXDXr.w i SXNXfX( O 4 : P.UXfXNXVXGX XS * + X d (.IXDXcXxXCXVXOX) O . . X X X X X .   . . . .   . +   O + <   k.PXCXKXAXjXLXpX8.2 m ,XIXMXBXZXGXSX|.E % @ % X v.IXdXVXZXAX{.K & o V HXAXHXFXlXAXFXc.q X o . X X X X X   % o + o - . d 8XSXgXFXzXvXJX[.D = 2.GXPXxXZXZXKXzXj.e   = $ k vXGXzXGXAXcXg.e s ~ 0XUXBX^.M ; ~.HXZXW.s 1 + ^ kXLXsX..# % a K.SXAXMXGXAXIX0X)   . $   . . . . .   .   & 1 a.VXUXlXb.h B 8XLXxX0.e % 1 x.LXAXCXAXSX$XJ 3   ^ pXLXHXCXAXUXDXW.Z 1   } xXKXMXF  XLXcXV.d . $ +   X X X X . ",
". X X   $ & % : G.HXKXxXkXUX.X' $   I aXJXqX7.1 L VXPX*X@.  K LXBXqX@.f z M v y @ $ o O = o $ O o O . X . . . X .     @ @ -   j.LXUX{.] x c l 7 # N 2XIXkXy.u c iXUXkX..4 * o a Z h ; T cXGX0X..  Z UXFXtX7.b t s q X   # . X X X X X . o X O %   o.MXDX4X..y s n x d , > 8.VXUX$X' o 8.UXGXX.    x.FXDX@X) * c.UXFXK.r / wXJXHXI.N 3 D.KXGXF.a ; . { fXIXrXo.  V SXMXY.1 1 #.bXIX8X(   X & X . X . . . X . #   d e.ZXSXIXNXBXJXKXFXjX0.; 5 eXKX;X1 g z gXJX0X2.7 l lXJXAXLX].(.IXAXqX .O O.xXIXIXdXPXcX>.0 X - #   * O   $ %   ",
"X X . X   X @ X T n.hXUXKX].Q q % . F fXAXBX4Xb.R.ZXUXFX+.O d c.uXCX!.J.n.m.{ X @ # ; > . o $ + . X . X X X X . X + o . # 1   i.GXHX*XZ   = - <   b 1XIXkXr.% + SXPXVX .* :   E C.I.k.C.CXJXbX' . A JXKX0XW > = - @   + @ . X X X X X . + . = $   v D.DXCX!.M.Q.b.G   + X r.LXUX#XL   1.UXSX` X X M.FXCX@XZ . N.LXCX(.S Q 5XIXZXm.f 6 ^.CXVX^.h > o ] hXKX4X#.; I CXIXJ.    :.CXPX;X~ O   # O . X X X X X   * O 2 <.IXFXPXDXUXGXvXDXGXl.0 8 9XUX7XO   G sXUX4X| 4 v aXUXSX[.} ` Z.v.h.Y $ ] pXJXNXPXsXs.u # $ $ + & & O O X X O ",
"X X . X   # @ @ > S qXLXbX@.# o & O ! ZXNXMXiX;X5X,X9X;XK 3 O   y.uX0X#XwXLX(.P < = o :   @ , % O o . X X X X X . + $   O -   b.SXvXoXC   * o 3 . S yXPXuXp.1 6 BXAXMX7.8 > m ~.KXfX7X7XmXLXjX%.O M ZXnXqX` ; % X   O # . . X X X X X . O   * # % X e D.3X9X4XzXBXJ.K u   u.GXSXOXF X q.IXDX{     Z.UXFX}.Z % k.FXZX~.B Q 5XIXFX(.k @ /.DXBXQ.a ,   _ MXUX1XX.O M BXGXD.O   @.BXPX*X( %   .   X . X X X . X   $ > $.wX8XIXSXHXLXPXdX@X-.> 2 lXUX2X:   z 2XPXjX,.6 V uXJXxX#.2 X 1   X #   o.lXUXMXJXE.F 1 4 % . , $   * 3 ; @ O ",
"X X X . X # X $ * z aXFXmX+.8 : # o D pXPX2X+.v k z N v   % q 0 u m n   ! hXUXhXG & < @ 9 5 2 <   . X . X X . X   X %   o O   s.NXPX'.D : 6 3 * . M eXFX2X3.3 i dXKXtX] : K xXUX6X8.  l nXHXiX@.  A JXSX3X' 3 < 5 : O $ X . X X X X X . X + o o % X > V f f @ ] PXUX'.K   a.ZXCX$XK X #.JXGX*.  X B.SXIXH.A ; q.LXUX/.5 [ pXLXCXv.F   H.HXDXU.u 6 . / vXPX2X..X D KXSXN.  . #.NXHX1X) O   +   X . X X X X X . &   1 b 1.PXPXDXSXFX8.u 0 ; 6 hXGXOX  = B xXCXrXq.1 B jXBXkX( w & & O ; 1 o  .wXKXPXZXKXaXJ $ : X * , > - o o O X ",
"X X X . o .   O - b dXUXVX;.9 $ - $ a *.=XGX|.I.V.Q.L.j.K o f W.J./.^.u.{.IX4Xe.y - O : f./.G.,.1 . X X X X . X . X o   # *   D 9.mXMX+XW.'.H.F 2 Z 0XUXzX7.3 j zXUXAX2.: 0 $.+XSX.Xk._.nXUXbXO.5 3 1.;XUX-XT./.!.*.<   $ . X X X X X . X %   O % U U.H.J.Q.m.}.KX1X=.i o g.HXUX>XG   4.UXUX&.  $ C a.VX6X!.z.#XJX.X} * V ' g.DXmX'.w.tXUXKX/.p : + ' jXUX0X@.- 9 2.<XhXN.P.oXBXUX0X/   . % . X X X X X X . X @ O = . %.UXAXJXKXUX>.  % O 5 ) #XBXC.W.D.DX0X4.L & B cXUXFX$.t . @ > & * o ! kXUXdXq.rXmX X:.6 > r.}.^.5.q   % + ",
". . . X . . O @ @ y U.<X|.( &   @ = o . :.6X<X9X1XeXeXXXo.o z 7XwX,X4XrX7X;X,.O % $ q &.8XDXOX6.6   X X X X X . o @     @ -   O 1 I.5X-X*X8X,XX.2 c N.>X.X` % 2 {.<X@X/ % -   @.1X3X5X0X$X,X'.N 8 O   e.;XOX4XeX5Xr.8 . $ . X . . . X . X + O + = [ <X4X7X3X1X0X|.o.% X # &.XX,XB.l   ' 1X.XR   7 + 5 E.9XqX6X5X'.P @ . -   a `.,X7X%XqX*X{.f.r   . T _.3X~.H % % X l.9X.X4XpX:X4XI.F o   X   X . . . . X . @ X X * % +.,X@X4X#X=X/ . * o ;   7.7X*X,X6X8Xh.7 % % k ^.4X.XW :   O < o o X n .XwXD.i a.>X&Xt.u 6 a.2X-Xy.7   @ @ ",
"X X X X   O O # o & y l r - + & . = ,   w x e f k t c 7 = # : i a q y y p i 5 ; % o I IXUXfX) < $ X . X X X X . X X o $   X * # O i y s h e a 5 . 3 p r z > O * t n d $ # < * y a h e y f h p 1   = $ 9 s i y y s 4 + @   X X X X X X . @ o & O   : 9 j p r i i u 9 %   O 5 s x e % % > y n 9   < @ $ s l q j c u 6 + + $ * > f d i g a a p 7 = * X 3 a z b & # = 3 q a h y i j l r = % o   + . X X X X X X o $     O < d c v z t & - + % @ 7 0 i s q u f w ; . @ * d g y # O ; O @ # $ $ 1 d h d 5 t s p * ; @ 6 p t 5 . O O . ",
". . . .   . . X o O         O +   . + o o                 O .     .           @ o O q +.$.^ 7 . $ O . X X X . X . . o O .   + + +       .     . o @ o     . @ &   .   o + X   X               $ o + +     X         O O . . . . . . . . .   X o X o         .     . + o o         . # o   o O X X o O             X   .   O                     # @ o     X X @ . $     # X           X .   X . . . . . . .   X   X O             . # o O   &     X         @ O o .         O $ o . o + # #     X #     + X X . o .     o o X   ",
"      .       . X O @ # O X     .   . o O + @ + + @ + @ + o O @ # % # # # # + o O o .   % $ # o . . X . X X X . X X . . X X . . o + @ + O @ @ + + O + # @ + O @ % # @ O X . o O + + + + @ @ $ O O X o @ # # $ $ @ O X   .             .         . o @ + @ + o + O X . o o O + O O o o @ # O o o X . o + + @ + + @ X   . . X O @ @ O O O O O O o o + + # # @ @ + O X @ @ O @ $ @ @ + o         .                     . O @ + O O + o . X X .   o + + # % # X   X o o O @ o X .   . X . o O O @ # + O @ + O O O O O O @ + o .     ",
". .   .     . . X o O + X . .     . X X o o o o o o o O o o o O + @ o X o o X O O o   X . . X X . . X . X X X X X . X X . . X X X o o o o o o o O O O O O O O + O O o . .   . o o o o o o o O O X . X o O O O o X . .     . . . . .   .         . X o o o X o X X . . . X X X X X . X o X X X . .   o O O o O O O X   . . X o O O X X X X X X . X o o o o o o o o o o X X X X X o X . .       .   . . .   .         X X o X X X X X X X X . . . o O O + O X o o X . X X . . . . . . . . . . . . . . . o o o o o o o o o X X .   "
};
