/* XPM */
static char *_410_a22dfc7504aa1c5a1bdbfb8a0695f825bd1e96246b329dc0c96ebfff0bf54cb7[] = {
/* columns rows colors chars-per-pixel */
"32 32 151 2 ",
"   c #000000",
".  c #0A0605",
"X  c #090906",
"o  c #040708",
"O  c #09050E",
"+  c #050909",
"@  c #0B0A0A",
"#  c #1A0D09",
"$  c #0C100D",
"%  c #0C0C11",
"&  c #080F1E",
"*  c #150F12",
"=  c #141314",
"-  c #1A1215",
";  c #12131B",
":  c #1C1B1C",
">  c #22160F",
",  c #2F0818",
"<  c #370D1A",
"1  c #231415",
"2  c #201318",
"3  c #201D1D",
"4  c #2D1A1E",
"5  c #392108",
"6  c #25201E",
"7  c #2C251C",
"8  c #3C2A13",
"9  c #33201D",
"0  c #1F1E26",
"q  c #221E22",
"w  c #2B1C20",
"e  c #3A1928",
"r  c #1F2024",
"t  c #242323",
"y  c #292525",
"u  c #262827",
"i  c #26262B",
"p  c #2B262A",
"a  c #26282C",
"s  c #2C2A2B",
"d  c #332225",
"f  c #392024",
"g  c #35242B",
"h  c #3F242F",
"j  c #36292C",
"k  c #2D2D33",
"l  c #232838",
"z  c #302F31",
"x  c #343434",
"c  c #383537",
"v  c #333638",
"b  c #313838",
"n  c #3B3C3C",
"m  c #4A330C",
"M  c #412511",
"N  c #583A1F",
"B  c #6B3E0C",
"V  c #490B27",
"C  c #5F0E28",
"Z  c #441827",
"A  c #47192A",
"S  c #511B2D",
"D  c #651730",
"F  c #671B38",
"G  c #701936",
"H  c #4F2C25",
"J  c #402A2C",
"K  c #48302D",
"L  c #573F24",
"P  c #59392C",
"I  c #572C3D",
"U  c #463037",
"Y  c #503935",
"T  c #5D3C33",
"R  c #5D3D3C",
"E  c #653928",
"W  c #733F2A",
"Q  c #71203B",
"!  c #673E37",
"~  c #7A580B",
"^  c #734216",
"/  c #4C4027",
"(  c #5A4036",
")  c #574439",
"_  c #654926",
"`  c #64432D",
"'  c #715E25",
"]  c #654339",
"[  c #6C473E",
"{  c #6C4E3F",
"}  c #76453B",
"|  c #76563F",
" . c #323343",
".. c #393A48",
"X. c #782546",
"o. c #783149",
"O. c #3E4042",
"+. c #434343",
"@. c #4A4949",
"#. c #575352",
"$. c #6C5341",
"%. c #68564A",
"&. c #7E5345",
"*. c #735A46",
"=. c #7E5840",
"-. c #795548",
";. c #65625F",
":. c #6D685E",
">. c #706255",
",. c #6A6563",
"<. c #726D65",
"1. c #727368",
"2. c #8D620E",
"3. c #98791F",
"4. c #844D25",
"5. c #825625",
"6. c #976020",
"7. c #B66822",
"8. c #A36A36",
"9. c #C36E24",
"0. c #C57D20",
"q. c #81314D",
"w. c #882550",
"e. c #874941",
"r. c #8B4F48",
"t. c #835A43",
"y. c #985D49",
"u. c #93684F",
"i. c #9F684E",
"p. c #9C6D56",
"a. c #966F5B",
"s. c #AC6C4C",
"d. c #A46858",
"f. c #A67653",
"g. c #A87457",
"h. c #B08D25",
"j. c #B79326",
"k. c #BE9E28",
"l. c #A08736",
"z. c #CB9318",
"x. c #DCA720",
"c. c #DCB824",
"v. c #838079",
"b. c #DEAF7F",
"n. c #9E988D",
"m. c #999691",
"M. c #A39F9D",
"N. c #EAB888",
"B. c #F1B886",
"V. c #C4C1BB",
"C. c #CCC9C7",
/* pixels */
"                                                                ",
"                                                                ",
"                                                                ",
"                                                                ",
"                          @ X                                   ",
"                          $ x +                                 ",
"                            x z   o * : : X                     ",
"                      X s s ; ' 3.: x +.@.n :                   ",
"                      : @.@.a / / 0 t s k +.s                   ",
"                      u +.c 3 % q q q : ! ] ;                   ",
"                      t s @ X y 0 K K J s.] 0 *                 ",
"                      : @ t ;.<.6 ( y.f.i.` = =                 ",
"                      : : x v.n.>.9 { b.N.*.  @                 ",
"                    = t t : 3 m.V.( I l.B.|                     ",
"                  = x x t u : +.C.n.P ! t.>                     ",
"                  u +.+.a 3 7 : #.C.:.Y .                       ",
"                  t +.+.5.j t q 2 ,.M.1.7   # .   2 =           ",
"              .   . p l.8.e.E y q 3 u { =.H d.2 e Z =           ",
"                    $ 5.r.r.f.g.t.4 4 f w g $.p.4               ",
"          8 ~ , e < A X.G V *.&.S D Q C e ` E T                 ",
"          E x.e.w.q.q.o.X.X.F e e j U j P z.L                   ",
"            X - , * : 6 h I S e O.v : w M 2.m                   ",
"                    : s O.b u ..+.p : k & B 5                   ",
"                . ^ j b b r ) @.c : o  .p                       ",
"                  _ 0.4.d l .. .t   o i ;                       ",
"              . 9 R N 7.9.6.j.k.L   . } [ @                     ",
"              ) %.a.9 * W 0.c.h.1   . -.u.)                     ",
"              X . o o     * O         X X @ o                   ",
"                                                                ",
"                                                                ",
"                                                                ",
"                                                                "
};
