/* XPM */
static char *_7543_54f690b4fa4c57f38f8718e098817a8233ad429c42d399af3f228ad5c05aefe6[] = {
/* columns rows colors chars-per-pixel */
"64 64 218 2 ",
"   c #000000",
".  c #0A0305",
"X  c #060807",
"o  c #0C0905",
"O  c #040509",
"+  c #09080A",
"@  c #0C0C0C",
"#  c #130D03",
"$  c #130B0B",
"%  c #15090C",
"&  c #0F110E",
"*  c #1A1506",
"=  c #13110D",
"-  c #1B130E",
";  c #110C10",
":  c #1E0B13",
">  c #0E1212",
",  c #141414",
"<  c #1C1514",
"1  c #181816",
"2  c #161718",
"3  c #1B141A",
"4  c #1C1B1B",
"5  c #2B1508",
"6  c #241611",
"7  c #271817",
"8  c #231E1F",
"9  c #2C1C1D",
"0  c #331C1D",
"q  c #1F211F",
"w  c #39230B",
"e  c #23211E",
"r  c #2D271F",
"t  c #33251C",
"y  c #0C1121",
"u  c #1D1C23",
"i  c #281525",
"p  c #221E21",
"a  c #2C1D23",
"s  c #211E2A",
"d  c #331C23",
"f  c #381826",
"g  c #1D2221",
"h  c #242323",
"j  c #2A2424",
"k  c #2A2927",
"l  c #25242A",
"z  c #2A252A",
"x  c #2B2A2B",
"c  c #332324",
"v  c #332A25",
"b  c #392829",
"n  c #3B322D",
"m  c #2D2D38",
"M  c #352B34",
"N  c #2F3838",
"B  c #343334",
"V  c #383637",
"C  c #35353A",
"Z  c #3B3B3C",
"A  c #553918",
"S  c #643B0F",
"D  c #4B0B2B",
"F  c #580D26",
"G  c #5B0E2A",
"H  c #481929",
"J  c #55132A",
"K  c #5B102A",
"L  c #5E0C33",
"P  c #571933",
"I  c #620F2B",
"U  c #62112A",
"Y  c #630F33",
"T  c #651735",
"R  c #492927",
"E  c #44242B",
"W  c #5C2C2B",
"Q  c #473628",
"!  c #573729",
"~  c #53322C",
"^  c #5C362E",
"/  c #5A3B2D",
"(  c #472731",
")  c #502134",
"_  c #473838",
"`  c #5A3531",
"'  c #593B37",
"]  c #692B28",
"[  c #693927",
"{  c #62352D",
"}  c #72263D",
"|  c #623D32",
" . c #683936",
".. c #5D4A17",
"X. c #69551B",
"o. c #7C691E",
"O. c #49433D",
"+. c #564233",
"@. c #67462D",
"#. c #635327",
"$. c #75532D",
"%. c #684538",
"&. c #784838",
"*. c #7C5338",
"=. c #7A652A",
"-. c #736032",
";. c #3C3C43",
":. c #3B394C",
">. c #373451",
",. c #741A42",
"<. c #443E41",
"1. c #593742",
"2. c #6B2B44",
"3. c #6A2D44",
"4. c #7A2644",
"5. c #752E44",
"6. c #434343",
"7. c #4D4944",
"8. c #464548",
"9. c #4B454A",
"0. c #4B4A4A",
"q. c #535551",
"w. c #5C5B59",
"e. c #6B4A43",
"r. c #685546",
"t. c #795549",
"y. c #635C57",
"u. c #6F6253",
"i. c #7C665A",
"p. c #6C6963",
"a. c #787468",
"s. c #787671",
"d. c #874916",
"f. c #965D14",
"g. c #B56C0C",
"h. c #B7671E",
"j. c #90512A",
"k. c #874B39",
"l. c #944E34",
"z. c #865C3B",
"x. c #AA5C25",
"c. c #AB573B",
"v. c #8E6C2B",
"b. c #987C28",
"n. c #AF6B2C",
"m. c #B27F30",
"M. c #CC7C0E",
"N. c #C8771D",
"B. c #D97A17",
"V. c #C77629",
"C. c #822749",
"Z. c #862848",
"A. c #852C4B",
"S. c #84334F",
"D. c #8D3251",
"F. c #933555",
"G. c #8A5845",
"H. c #8C534F",
"J. c #945848",
"K. c #9D5D4B",
"L. c #A35A50",
"P. c #8D6C48",
"I. c #98684B",
"U. c #876A56",
"Y. c #9B6555",
"T. c #A36548",
"R. c #AD7548",
"E. c #A96852",
"W. c #A67556",
"Q. c #B67656",
"!. c #9B7268",
"~. c #847973",
"^. c #9F801B",
"/. c #B58119",
"(. c #AC8A2E",
"). c #BD8637",
"_. c #B09330",
"`. c #CF8F17",
"'. c #E7860F",
"]. c #EE901A",
"[. c #DFAE18",
"{. c #F9B716",
"}. c #CB9127",
"|. c #C69D37",
" X c #DEB02D",
".X c #C7B034",
"XX c #E6B720",
"oX c #FDC91B",
"OX c #FDE31F",
"+X c #FFCF27",
"@X c #FFDC25",
"#X c #AE835F",
"$X c #B18158",
"%X c #8A867D",
"&X c #B58761",
"*X c #B6977D",
"=X c #C48B63",
"-X c #C89667",
";X c #C68E73",
":X c #DB9678",
">X c #D4A37B",
",X c #DAA87C",
"<X c #DBB27F",
"1X c #E4B47E",
"2X c #8C8983",
"3X c #95918A",
"4X c #989589",
"5X c #969594",
"6X c #AA9F97",
"7X c #B2ADAB",
"8X c #BEBBB5",
"9X c #DBA682",
"0X c #D4AB83",
"qX c #E7B987",
"wX c #CAC2BF",
"eX c #CCC8C6",
"rX c #D6D1CE",
"tX c #DFE1DF",
/* pixels */
"                                                                                                                                ",
"                                                                                                                                ",
"                                                                                                                                ",
"                                                                                                                                ",
"                                                                                                                                ",
"                                                                                                                                ",
"                                                                                                                                ",
"                                                                                                                                ",
"                                                                                                                                ",
"                                                      1 1                                                                       ",
"                                                      q x h                                                                     ",
"                                                      1 C 0.,                                                                   ",
"                                                      1 B 6.6.>                                                                 ",
"                                                        , B 6.l O     , 1 h V V V B 2                                           ",
"                                                & x l , 1 g N o.^.X., p x Z 0.6.6.O.N k @                                       ",
"                                              , B 0.8.V k h u `.XXv.l p V Z Z 6.6.6.8.0.V ,                                     ",
"                                              V 0.6.Z 6.N g h _.v.y h p h p h ;.6.6.6.<.0.M                                     ",
"                                              B 6.6.O.6.B q j v j h l z h h h j h g x 0.h                                       ",
"                                            , V 8.8.8.B k h = 4 u l j p z h z 8 c  .H.b h &                                     ",
"                                            4 V 6.B B k g 1   4 j h h h s p l 4 ~ E.E.j g h @                                   ",
"                                            4 B V h q k 1   & q j h e b c h h d G.Q.I.a u j 8                                   ",
"                                            4 g h h +     & 8.x h h u K.J.( c Y.Q.R.I.z g z 4                                   ",
"                                            4 x 4 +   h x 6.%Xn < h h W.z.W G.W.{ [ T.6 4 x 4                                   ",
"                                            q 1 > , , w.s.a.4Xa.O.b e e.J.I.-X=XY.W.=X= O h p                                   ",
"                                            h , > k q w.3X3X%X4Xi./ v b %.#X<X,X1XqX>X<   $ 1                                   ",
"                                            4 h h h h 4 0.3X%X4Xs.y.| r 1 r.0X,X,X,X>X=                                         ",
"                                        X 4 g h h h h h h _ 3X8XwX6X~ ~ ~ @.&X,X9X,X>X<                                         ",
"                                      + 1 h g g h h h h e 8 7.8XtX8Xu.@.{  .G.$X>X1X=X-                                         ",
"                                    X 2 x x x h q h h h h e 1 3XeXwX6Xr.^ ^ ^ *.$XQ.$.o                                         ",
"                                    4 h x 6.O.B q h h h j e j 7.5XrXwX%Xe.^ / { { c                                             ",
"                                    4 B 6.6.6.6.V h h h h j e e 0.3XrXrXp.6 / %.9                                               ",
"                                    1 V 6.Z Z 6.Z 2 q h j e j e h q.7XrX%X7.~.d .                                               ",
"                                    2 B 6.6.6.;._ %.n e 8 h h h 8 j y.7X7X5X2Xq.;                     , , O                     ",
"                                    1 B Z 6.Z 0.z.V.&.n j c 9 8 h 8 8 p.7X6Xq.4Xr.#   % 6 6 $   X % : x x ;                     ",
"                                      1 x 6.V |. X{ ^ / | ` r h j e e h x l v I.=X*.. { T.K.R + u H I J b >                     ",
"                                      X @ b .X(.k.L.J.Y.k.R _ 4 3 i p h 4 k ' &.&.%.~ { :X!.: = J ( i : ;                       ",
"                                          c ^.n.l.J.Q.L.G.I.*.U.G.+.q h q k n b c v n v t.t.%.U.R 7 >                           ",
"                                          u u l.x.] L.W P.1XR.;X=XG.d d d 0 0 d d 0 g z 3 %.=X;X4                               ",
"                    . o # # .   O . o . O . 5.C.L L Y i t.,XW.] D P U U I U I I I H v  ./ G.T.^ %                               ",
"                    0 v.[.g.] D F 5.K T 5.4.C.Z.} G G G E _ Q  .( f U 4.S.4.I F f M @.|.A v ( %                                 ",
"                    E n.{.oXc.,.A.F.Z.D.F.F.D.D.D.4.4.C.} ) i P E p f ( 1.1.f _ s R B.[.d.s +                                   ",
"                    d ] f..Xz.2.A.4.3.3.2.3.2.3.2.C.C.C.Z.C.H D f M x h x V q N ' X.g.[.=.i                                     ",
"                          4 u f G J i g q q q g d K K G G G G j C 9.8.z p p h 3 x.f.*  X..                                      ",
"                              X . . X   X h k g z <.<.9.V p i V 6.6.9.z p p e h * X 5 '.S                                       ",
"                                      o 1 h q k Z 6.6.C g g N 6.6.<.x z p j h m g O w ].S                                       ",
"                                      o x g k V 6.6.;.g l C 6.6.6.Z p z 8 3 l >.C > - f.w   .                                   ",
"                                    5 R h g Z 6.6.6.l u C 8.;.6.6.V p z @ O l >.m ,                                             ",
"                                  . g.n.b j Z 8.Z g h Z 6.6.6.8.B z z @   + z :.m 1                                             ",
"                                  . [ (.}.x.| x s s h _ 6.6.6.0.V u @     + l x z 1                                             ",
"                                    3 #./.B.h.j.[ M u ;.;.;.:.m l 1       $ V e u 2                                             ",
"                                  6 b s R V.N.B.N.k.' +.$.=.-.#.A g       -  .( ( t                                             ",
"                            o o 3  .E.&.6 t ~ x.B.B.`.M.[.+XoX@X).b       %  .T.Q.t.o .                                         ",
"                          X 0 !.*Xh *X:X&.X $  .k.l.M.{.+X@XOX).R %       $  .9XK.Y.>X=                                         ",
"                            7 r.i.e r.U./     7 d R l.m.(.b.b.! .         X Q i.~ +.U.h O                                       ",
"                            = = @ 1 @ @ &         o c c 3 ; +   .         X , & & , @ 4 @                                       ",
"                                                                                                                                ",
"                                                                                                                                ",
"                                                                                                                                ",
"                                                                                                                                ",
"                                                                                                                                ",
"                                                                                                                                ",
"                                                                                                                                ",
"                                                                                                                                ",
"                                                                                                                                "
};
