/* XPM */
static char *_3861_8775b9c53a70f8f77d3a411e507457e284923741bb5d72fcf60db0abdbd7a615[] = {
/* columns rows colors chars-per-pixel */
"32 32 124 2 ",
"   c black",
".  c #010000",
"X  c #070000",
"o  c #0E0000",
"O  c #270101",
"+  c #9F0707",
"@  c #8B0606",
"#  c #6D0404",
"$  c #BF0808",
"%  c #B50808",
"&  c #540303",
"*  c #050000",
"=  c #390202",
"-  c #940707",
";  c #A60707",
":  c #D60909",
">  c #4F0303",
",  c #020000",
"<  c #160101",
"1  c #280101",
"2  c #340202",
"3  c #100000",
"4  c #610404",
"5  c #9A0707",
"6  c #A30707",
"7  c #330202",
"8  c #0A0000",
"9  c #120000",
"0  c #250101",
"q  c #6B0404",
"w  c #4B0303",
"e  c #340101",
"r  c #3B0202",
"t  c #950606",
"y  c #D10909",
"u  c #BD0808",
"i  c #CD0909",
"p  c #D50909",
"a  c #040000",
"s  c #5C0404",
"d  c #B90808",
"f  c #320202",
"g  c #840505",
"h  c #3E0202",
"j  c #BA0808",
"k  c #C20808",
"l  c #B30808",
"z  c #B60808",
"x  c #AE0808",
"c  c #CB0909",
"v  c #B10707",
"b  c #0D0000",
"n  c #210101",
"m  c #150000",
"M  c #300202",
"N  c #520303",
"B  c #140000",
"V  c #640404",
"C  c #B80909",
"Z  c #B80808",
"A  c #B40808",
"S  c #D20909",
"D  c #6C0404",
"F  c #4E0303",
"G  c #310202",
"H  c #170000",
"J  c #940606",
"K  c #CE0909",
"L  c #C10808",
"P  c #E00A0A",
"I  c #7C0505",
"U  c #B70808",
"Y  c #D90909",
"T  c #B20808",
"R  c #B70909",
"E  c #A90707",
"W  c #500303",
"Q  c #0C0000",
"!  c #480303",
"~  c #AF0707",
"^  c #840606",
"/  c #920606",
"(  c #A80707",
")  c #980606",
"_  c #A10707",
"`  c #890606",
"'  c #710505",
"]  c #900606",
"[  c #8C0606",
"{  c #5E0404",
"}  c #230101",
"|  c #B00808",
" . c #290101",
".. c #720505",
"X. c #560303",
"o. c #3E0303",
"O. c #930606",
"+. c #740505",
"@. c #9C0707",
"#. c #C40909",
"$. c #630404",
"%. c #080000",
"&. c #370202",
"*. c #0B0000",
"=. c #960606",
"-. c #AF0808",
";. c #690404",
":. c #2C0101",
">. c #920707",
",. c #990707",
"<. c #2E0101",
"1. c #4D0303",
"2. c #130000",
"3. c #8A0505",
"4. c #970606",
"5. c #570303",
"6. c #3A0202",
"7. c #C70909",
"8. c #910606",
"9. c #110000",
"0. c #790505",
"q. c #200101",
"w. c #3F0202",
"e. c white",
/* pixels */
"                                                                ",
"                                                                ",
"                                                                ",
"                      . .                                       ",
"                        X o .                                   ",
"                  .   O + @                                     ",
"                  .   # $ % & *                                 ",
"                  .   = - ; : >   ,           .                 ",
"            . .   , ,   < 1 2 3                                 ",
"                  .   1 4 5 6 7   .     .   8 9                 ",
"            0 q w e r t y u i p =   a   .   s d f   ,           ",
"        .   7 g h j k j l z x c v     b n m M N B               ",
"                , V d z C C Z A S D F % y i G   ,               ",
"            . ,   H J j z C Z z Z K K L L P I   ,               ",
"                ,   w L % C C C U l l l z Y t   .               ",
"                    D T U z U z U R U j E W Q                   ",
"                .   ! ~ j U Z Z Z U A k ^   .                   ",
"              , a   q / 6 l ( ) _ U A L `   .                   ",
"          .   ' 4   g ] [ / { } q | d U z  .  .                 ",
"              ..X.V o.O.+.n ,   2 @.l % #.$.  ,                 ",
"              %.3 &.  B 8   .   *.I =.-.i ;.  ,                 ",
"                          .   .   :.>.,._ <.  .                 ",
"                  .   .             O 1.2.                      ",
"                                    *.3.4.5.                    ",
"                                ,   6.Z 7.8.                    ",
"                                    9.0.( }   .                 ",
"                                      b ! q.                    ",
"                                          w.*.                  ",
"                                        .                       ",
"                                                                ",
"                                                                ",
"                                                                "
};
