/* XPM */
static char *_123_a45cfbf98c6f5ad8bd60fe90f18c0ea3ff72e3442105e87775f92ecdc6359d85[] = {
/* columns rows colors chars-per-pixel */
"64 64 94 2 ",
"   c #1E0F34",
".  c #1C1033",
"X  c #151F36",
"o  c #1C1F3E",
"O  c #210D34",
"+  c #201033",
"@  c #231B3E",
"#  c #16203C",
"$  c #1A233E",
"%  c #3E272E",
"&  c #3E282F",
"*  c #3E2631",
"=  c #372A37",
"-  c #3B2933",
";  c #352D3D",
":  c #3A2B3A",
">  c #5D1605",
",  c #5C1609",
"<  c #55190C",
"1  c #5B180B",
"2  c #4F1C11",
"3  c #531B12",
"4  c #5C1A14",
"5  c #541D1C",
"6  c #5A1C1C",
"7  c #6F0F03",
"8  c #641303",
"9  c #6D1302",
"0  c #63150A",
"q  c #6B160C",
"w  c #6A180F",
"e  c #721302",
"r  c #791203",
"t  c #70160D",
"y  c #7D130B",
"u  c #651714",
"i  c #6C1611",
"p  c #651916",
"a  c #6B1914",
"s  c #641D1E",
"d  c #731712",
"f  c #7B1710",
"g  c #4B211E",
"h  c #50201C",
"j  c #541F20",
"k  c #5D1F21",
"l  c #511E29",
"z  c #6B1D20",
"x  c #462323",
"c  c #4B2325",
"v  c #44252C",
"b  c #4A252B",
"n  c #552125",
"m  c #472632",
"M  c #492532",
"N  c #412935",
"B  c #432A3B",
"V  c #492939",
"C  c #542233",
"Z  c #61222B",
"A  c #171F43",
"S  c #251A40",
"D  c #172144",
"F  c #1A2243",
"G  c #1E2843",
"H  c #202140",
"J  c #222B46",
"K  c #2E2C47",
"L  c #262F4C",
"P  c #292E4E",
"I  c #332E42",
"U  c #392F47",
"Y  c #2F3147",
"T  c #26304B",
"R  c #2A344E",
"E  c #2D394F",
"W  c #313147",
"Q  c #31354E",
"!  c #393049",
"~  c #2B3450",
"^  c #2E3951",
"/  c #323D54",
"(  c #472A40",
")  c #364156",
"_  c #364158",
"`  c #3A455B",
"'  c #3E495E",
"]  c #3F4961",
"[  c #414B5E",
"{  c #414D61",
"}  c #455164",
"|  c #81130E",
" . c #8C1008",
".. c #821919",
/* pixels */
"J } ] ' ' [ [ [ [ } [ } ' ] ] ] ] { [ [ [ [ [ [ [ [ [ [ [ { [ [ [ [ [ [ [ [ [ [ [ { [ [ [ [ [ [ [ [ [ [ { [ [ [ [ [ ] { { ' [ { ",
"L ] ] ' ' ' ' ' ' ' ' ' ' ' ' ] ' ' ' ' ' ' ' [ [ [ [ [ [ [ [ [ [ [ [ [ [ [ [ [ [ [ [ [ [ [ ' ' ' ' ' ' ] ] ] ' ' ' ' ' ' ' ] ` ",
"F F $ R E E E E E E E E R ) ) E E E E R ^ E E E Q Q R Q Q Q Q Q Q Q Q Q Q Q Q Q Q Q Q Q Q Q ~ E ~ E ~ ^ ~ ^ ^ E E E E ^ ^ ~ G $ ",
"A F F J T R R R R R T T T T R R R R R R R R R R ~ P Q R R R R Q P R R Q ~ R ~ P R P ~ Q P R ~ R R R R ~ T ~ R R R R R R T T D $ ",
"F D F T R ~ ~ ~ R T R T R ) T T ~ ~ R ~ ~ ~ R R ~ ~ ~ ~ Q ~ ~ ~ ~ P ~ ~ ~ Q P ~ ~ ~ ~ ~ ~ ~ R R ~ R R R R R R R ~ ~ ~ ~ ~ ~ D D ",
"D F F L ~ R ~ ~ R T ) T R T T R R R R ~ E R R R R R R ~ ~ P ~ R ~ Q R R R ~ ~ ~ R R R R R R R R R R R T R R R E R R R ~ R L D D ",
"A F F T R R R R R T R ) R ) ) R P R R R R R E R I N B W R R R R R R R R R R R R R R R R R R R Y R R / / / E R E R R ~ ~ ~ ~ F D ",
"D D F P R R R R ) T ) ] ' ' ' ) R E R P R E W M 0 9 e a Q ~ R P R ~ R ~ R P R ~ ~ R R R R R R R T E [ ' ` } ) Y R R ~ ~ ~ ~ F D ",
"D D D L R R R R J T ) ' ' } ' ) R R R R R W 1 8 9 e e a R R R R R R ~ R ~ R R R R R R R R R R R J ) ' ' ' ] _ R R R R R R R D D ",
"D D D L R R ~ R ) T ) ' ' ' ' ' R T R R R x 8 9 9 e e q N R R R R R R R R R R R R R R R R ~ R R T ) ' ' { ' ' T R R R R R ~ F A ",
"D D D L ~ R R R T T ) ' ' ' ' ` ~ ~ ~ ~ R b 8 8 9 9 9 e 0 h U R Q P ~ ~ P ~ ~ ~ ~ ~ ~ ~ P ~ ~ R T ) } } { } _ R R R R R ~ ~ F F ",
"D D D L L R R R T R ) ) ) ) ) ) T R ~ R R m 8 8 8 9 e 9 9 e w U ~ R R R ~ R R R ~ R R R ~ R R ~ T E ) ) _ ) ) R R R R R ~ ~ D A ",
"D D D ~ R R R R T T J D $ $ $ J T ~ ~ R R * , 8 8 8 9 9 9 > > p ~ R R R R R R R R R R R R R R ~ T T $ $ D # G R R R ~ R ~ P A A ",
"D G D L R R R R R ) J # $ $ X J R R R R R R x , 8 8 8 8 9 8 > h ~ P R R R R R R R R ~ R R R R R E J # # # D $ ^ R R ~ ~ ~ ~ D D ",
"F D D R R R R R R T T T T T T ) R R R R R ~ Y x 3 4 4 3 4 u p B ~ ~ R R R R ~ ~ R R R R R R R R E R T T G R L R R R ~ L ~ ~ D D ",
"F D D R R R R R R R T R R T T T ~ R R ~ R R R R E R R R W W R R R R R ~ ~ R R R R ~ ~ R R R T ~ T R R E R R R R ~ R ~ ~ ~ ~ D D ",
"D F F T R T ~ ~ R R T ~ ~ R T ~ R R R R R R R I ; I Z ..0 < v E R R R R R R R ~ R ~ ~ R R R R T E T T R R R R R R ~ R E R R D D ",
"D F F T R R R ~ R R ~ ~ ~ I R ~ R R R R R W n 8 8 8 e r r 9 0 b R R R R ~ ~ R E R R R R R R E E T E R R R R R R R R R R R L D D ",
"$ D F T R R ~ R R R R ~ - 3 b W R R R R ; 3 9 e r r e 9 e e r 9 b R ~ E R R ~ R ~ E R R R R R = s n : ~ R R R R R ~ R R ~ ~ D D ",
"D F F T R R R R R R M n < 8  .( B m N B v 1 e e r 9 9 9 9 e e r 0 m R R ~ R R R R R R R R R = 1 9 9 1 n Q R R ~ R R R R R ~ D D ",
"D F D L R R R R E ; > 9 9 9 | V 8 9 9 9 8 9 9 9 9 9 e 7 9 e 9 e e f ! E R R R R R R R R R R - > 9 9 e y ! ~ R R R R R R R R D D ",
"F D D T R R R T R R 5 0 8 9 c - 9 e 9 e e e 9 9 9 e r e 9 9 9 e r e m R R E R R R R R R R R & 0 8 8 9 s Q ~ ~ R R R R R R R D D ",
"F F D T R R R R R R R - 1 1 Y : 0 9 9 9 9 9 9 9 9 9 9 9 9 9 9 9 e e f ! R R R R R Y W W ; ; E c h 6 n Y R R R R R R R R ~ ~ D D ",
"D D D L R R R R R R R R & W R E , 8 8 e e 9 9 9 9 9 9 9 7 9 9 e e r 9 v R R R W z 9 9 9 9 0 b ^ ~ R R R R R R ~ R R R R R ~ D D ",
"D F F R ~ L ~ R ~ R R R ~ R R R - > 8 9 9 9 9 9 9 9 9 9 9 9 9 9 9 e e 9 b : Z e e e e r e r 9 N ~ R ~ R ~ R R R R R R R R L D D ",
"D F D L ~ ~ R ~ R R ~ R R R ~ R ; 3 8 9 9 9 9 9 9 9 9 7 9 9 9 9 9 9 e e e e e e r e e e e e e v R R R R R R ~ ~ R R R R R L D D ",
"D F D P ~ L R R ~ R R R R ~ R R R x > 8 9 9 9 9 9 9 9 9 9 9 9 e 9 9 e e e e e e e 9 e e e r e c ~ R ~ R R R R R R R R R ~ ~ G D ",
"D D D T ~ R R R R R R ~ R ~ R ~ E Y x , 9 9 9 9 9 9 9 9 9 9 9 9 9 9 9 9 9 9 9 9 9 9 9 e e e e 9 ; ~ R R R ~ ~ R R R R R ~ ~ D D ",
"A F D L ~ ~ R ~ R ~ R R R ~ R R R R = < 8 9 9 9 9 9 9 9 9 9 9 9 9 9 9 9 9 9 9 9 9 9 9 9 e e e e & E T R R ~ R R R R R R L ~ D D ",
"A F D ~ ~ R R L R R ~ R R R ~ R R R - < 9 9 9 9 9 9 9 9 9 9 9 9 e 9 9 9 9 9 9 9 9 9 9 9 9 e r 9 - E R R R ~ R ~ R R ~ R ~ L D D ",
"F F F P ~ R R ~ ~ ~ R R ~ ~ R R R R v 0 8 7 9 9 9 9 9 9 9 7 9 9 9 9 9 9 9 9 e 9 9 9 9 e e 9 0 h E R R R R R R ~ R R ~ R ~ L D D ",
"A F F P ~ R R R R R R ~ R R R ~ R E M e 8 8 9 9 9 e 9 9 9 9 9 9 9 9 9 9 9 9 9 9 9 9 9 q w g x R R R R R R ~ R R R R ~ ~ ~ ~ G D ",
"A F D L R R ~ T R ~ ~ R ~ R ~ R T ~ = > 8 7 9 7 9 9 9 9 9 9 9 9 9 9 9 9 9 9 9 9 9 9 r V W ~ R R ~ ~ R R R ~ ^ R R R R R R R D D ",
"D F D L R R R ~ E R R R R R R R ~ R = < 8 8 9 7 9 9 9 9 9 9 9 9 9 9 e 9 9 9 9 9 9 9 9 v ~ ~ ~ R R R E ~ R ~ R R R R R R R R D D ",
"A F D R R R R R ~ R R ~ R ~ E ~ ~ ~ x < 8 8 8 7 e 9 9 9 9 e 9 9 9 9 9 9 9 9 9 9 9 e 9 b R R R R R ~ R ~ R R R ~ R R R R R ~ D D ",
"A F D L ~ R ~ ~ R R R R K I R ~ R ; < 8 8 8 8 8 9 9 9 9 9 8 8 8 9 8 9 9 9 9 9 9 9 9 9 b R ~ R ~ R R R R R ~ R R R R ~ R ~ ~ D D ",
"D F D P ~ T ~ T ~ ~ R ; 2 < c R ~ = < 9 8 8 8 8 8 9 9 8 8 8 8 8 8 8 9 9 e 9 9 9 9 9 9 v R E R ~ ~ R R R R R ~ R R R R R R ~ D D ",
"A D F ~ ~ R R ~ R R ~ = , 9 y R R = < 8 8 8 8 8 8 8 8 8 8 8 > < 8 8 8 9 9 9 9 9 9 9 9 t E ~ R R ~ R R R R R R R R R R R R L D D ",
"D D F P ~ R R R R R R - 9 e y : M = < 9 8 8 8 8 7 8 8 8 8 v W - < 8 8 9 9 9 9 9 9 9 9 9 % R ~ R R R R R ~ R R ~ R R R R ~ ~ D D ",
"D D D P R R R R R R R - 8 9 , < 8 c 2 8 8 8 8 8 8 8 0 x W R R E 2 < 8 9 9 e 9 9 9 e 9 9 d R R R E R R R R R R R R R R R ~ ~ D D ",
"D D D P ~ ~ ~ ~ R R R N 8 9 % < e d ; < 8 8 8 8 0 v Y R R R R R - < 8 8 8 7 9 9 9 e 7 9 9 & E R R R R R R R R T R R R R R L D D ",
"A D D P ~ ~ ~ ~ R R R R 6 l - 3 9 i R x < > 0 u W R E E R R R R - < 8 8 8 8 9 e r 9 9 9 0 v R R ~ R R ~ R R R R R R R R R R D D ",
"D F F P ~ ~ R R R R R R ~ T E x 4 M ~ R - - I ~ R ~ R ~ R R R R Y x < 8 8 8 9 9 e 9 9 e 8 N R R R R R R ~ R R R R R ~ R ~ ~ D D ",
"A F F ~ L R R ~ R R L R ~ R R ~ ~ ~ ~ R R R ~ ~ R ~ R R R R R R ~ K < 8 8 8 8 9 9 9 9 9 8 & R R R ~ R R R R R R R R R R ~ ~ D D ",
"D D D L ~ ~ R L R R R R R R R R R R ~ ~ R R R R ~ R R R R R R ~ R ~ - < 8 8 > 8 9 9 9 e w K R R R R R R R R R R R R R R R R D D ",
"D D D L ~ ~ ~ ~ R R R R R R T R R R R T T R R R R R ~ R R R ^ R R R Y x > 9 8 8 8 8 9 0 v R R R R R R R R R R R R R R R R L D D ",
"D F D R L R ~ L R R R R R R R R R R R R R R R R R ~ ~ R ~ R R R ~ ~ R W 5 > 8 9 e q 4 2 & R R R R R R R R R R R R R R R ~ L D D ",
"F F D L ~ R ~ ~ R T R R R R T R R R R R R T R R R R R R ~ R ~ R R R R R Y v j 1 5 - K ~ R R R R R R R R R T R R R R ~ R ~ ~ G D ",
"F F F ~ R R R ~ ~ R ) ) ) _ / ~ R R R R R T R R R R R R R R R R R R R R R E = < 1 1 - ; R R R R R R ) ) ` ) ) R R R R R R T D D ",
"A F D L R R ~ R L T _ ] ] ] ] _ R E R R R R R R R R R R R ^ R ~ R ^ R ~ R ~ v 1 9 9 0 1 5 R R R T ) ] ] ' } _ R R R R T R R D D ",
"F F F L R L R R R R _ ] ] ] ] _ T T E R ~ E R R R R R R R ~ R R ~ R R R R W a 9 e 9 e 9 9 n R R T ) ] ] ' ' ' T R R R R R R G D ",
"D F D L R R R R R R _ ] ] ] ] _ R R R ~ R R R R R R R R R ~ R R ~ R R R R m 8 9 9 9 9 9 e a R R T ) ] ] ' ' ` T R R R R R R D D ",
"A D F R R ~ R R T E ) ' } ] } ) E T R ~ T R R R R R R ~ R R R R R R R ~ R x , 9 9 e 9 e 8 n ~ R R ) ' ` ' ' ) T ~ R R R R L D D ",
"D D F P R R R R E T E ) E E ^ R Y R T E R R R R R R R R R ~ R R R ~ E R R x 0 8 8 8 e 0 h K R R T T ) ) ) ) ) T R R R R R R D D ",
"D F F P R L R ~ R R J $ $ # # T R R R R R R R R R R R R R R R ^ R R R ~ R - < 8 8 8 9 w I R R E ) T X $ X X $ T R R R R ~ ~ D D ",
"A F F ~ R R ~ ~ R R T $ $ $ # T T R R R R R R R R R R R R R ~ R R R R R R Y & 5 8 8 8 p R R R R T J # $ # # J ) R R R L ~ ~ G D ",
"F D D T R R R T R R E T R R R R R R R R R T R R R R R R R R R R R R R R R R R R x > 8 6 R R R R R R R R R T R ~ R R ~ R R R D D ",
"D D F P T ~ R R R R R R R R R R R R R R R R R R R R R R R R R R R R R R R R R T R & x v v W R E R R R R R R R R R R R R R R D D ",
"F F D P ~ ~ R E R R E R R R R R R R R R R R T R R R R R R R R R R R R R R R R R R R = < 8 k R R R R R Y R R R R T ~ R R R ~ D D ",
"D F D L ~ R R R R R R R R E R R R R R E R R R R R R ~ R R R ~ ~ R ~ E R R R R R ~ R R N p C ~ ~ R E R R R E Q R ~ ~ R R ~ ~ D D ",
"F $ F J T R T T R J L L T T T T J R L P L L L P T T L L P R L T L L L P T R L L P L L K K I P L J P L L T J R L P P R J L J D D ",
"$ o H F @ $ $ o o $ @ A D $ F F F S A H o F F F F $ S F F S A @ A H F S F F F o F S F A A F $ F F F A $ F F F F o $ $ F D D o $ ",
"@ @ @ @ @ @ @ @ @ @ S S S S @ S S S S S @ S S S S S S S S S S S @ S S S S S @ @ S S S S S S S S S @ @ @ S S S S @ @ @ @ @ @ @ @ ",
"@ .     O + O   O O O O O O O O O O O O O O O O O O O O O O O O O O O O O O O O O O O O O O O O O O O O O O O O O O   . .   . . "
};
