/* XPM */
static char *_0393_9a1de64e7cae5a73a364d7de4a4ec634276df3580ef8f8abdfc5da8d34f4bb48[] = {
/* columns rows colors chars-per-pixel */
"64 64 243 2 ",
"   c black",
".  c #010000",
"X  c #0D0000",
"o  c #170101",
"O  c #0A0000",
"+  c #110000",
"@  c #390202",
"#  c #980707",
"$  c #C40A0A",
"%  c #630404",
"&  c #0F0000",
"*  c #860606",
"=  c #CC0909",
"-  c #B80909",
";  c #CB0A0A",
":  c #680505",
">  c #030000",
",  c #020000",
"<  c #370202",
"1  c #9F0707",
"2  c #B30808",
"3  c #B90808",
"4  c #BB0909",
"5  c #9D0707",
"6  c #250101",
"7  c #910707",
"8  c #8F0707",
"9  c #C10909",
"0  c #A70707",
"q  c #7F0505",
"w  c #130000",
"e  c #2B0101",
"r  c #8E0707",
"t  c #AD0808",
"y  c #B20808",
"u  c #BD0909",
"i  c #C60909",
"p  c #830505",
"a  c #330202",
"s  c #9C0707",
"d  c #950707",
"f  c #A60808",
"g  c #C20909",
"h  c #D40A0A",
"j  c #A60707",
"k  c #2F0202",
"l  c #4F0404",
"z  c #440303",
"x  c #3E0303",
"c  c #4D0303",
"v  c #640404",
"b  c #480303",
"n  c #0B0000",
"m  c #070000",
"M  c #210101",
"N  c #1A0101",
"B  c #450303",
"V  c #BA0909",
"C  c #B00808",
"Z  c #410303",
"A  c #120000",
"S  c #100000",
"D  c #770505",
"F  c #B90909",
"G  c #AF0808",
"H  c #C80909",
"J  c #DA0A0A",
"K  c #DD0A0A",
"L  c #D40909",
"P  c #AE0808",
"I  c #200101",
"U  c #500404",
"Y  c #460303",
"T  c #C90909",
"R  c #BF0909",
"E  c #BE0909",
"W  c #E20A0A",
"Q  c #B30909",
"!  c #7F0606",
"~  c #CB0909",
"^  c #3A0202",
"/  c #750505",
"(  c #6F0505",
")  c #B50808",
"_  c #700404",
"`  c #6F0404",
"'  c #6A0404",
"]  c #8A0606",
"[  c #B60808",
"{  c #BC0909",
"}  c #C00909",
"|  c #E10A0A",
" . c #B40808",
".. c #A90808",
"X. c #D50A0A",
"o. c #9E0707",
"O. c #1F0101",
"+. c #A90707",
"@. c #BA0808",
"#. c #300202",
"$. c #D20909",
"%. c #B70909",
"&. c #E60A0A",
"*. c #4B0303",
"=. c #290202",
"-. c #810606",
";. c #270101",
":. c #7C0505",
">. c #060000",
",. c #AA0808",
"<. c #B10808",
"1. c #BE0808",
"2. c #040000",
"3. c #2A0101",
"4. c #260101",
"5. c #0E0000",
"6. c #090000",
"7. c #920707",
"8. c #AB0808",
"9. c #B70808",
"0. c #D00A0A",
"q. c #D90A0A",
"w. c #500303",
"e. c #620404",
"r. c #D10A0A",
"t. c #C40909",
"y. c #310202",
"u. c #140101",
"i. c #730505",
"p. c #B40909",
"a. c #CE0909",
"s. c #750404",
"d. c #E90A0A",
"f. c #D30A0A",
"g. c #D30909",
"h. c #CF0909",
"j. c #E30A0A",
"k. c #990707",
"l. c #A50707",
"z. c #D00909",
"x. c #CA0909",
"c. c #C50909",
"v. c #D20A0A",
"b. c #DE0A0A",
"n. c #900606",
"m. c #0C0000",
"M. c #620303",
"N. c #B80808",
"B. c #D10909",
"V. c #580404",
"C. c #850606",
"Z. c #ED0B0B",
"A. c #7D0606",
"S. c #080000",
"D. c #840606",
"F. c #D80A0A",
"G. c #350202",
"H. c #8D0606",
"J. c #A70808",
"K. c #B60909",
"L. c #5C0303",
"P. c #320202",
"I. c #6E0404",
"U. c #960707",
"Y. c #6E0505",
"T. c #220101",
"R. c #180101",
"E. c #7A0505",
"W. c #A30707",
"Q. c #520404",
"!. c #790606",
"~. c #9B0707",
"^. c #BB0808",
"/. c #560404",
"(. c #8B0606",
"). c #A40808",
"_. c #530404",
"`. c #740505",
"'. c #970707",
"]. c #890707",
"[. c #940707",
"{. c #8A0707",
"}. c #880606",
"|. c #890606",
" X c #930707",
".X c #C30909",
"XX c #590303",
"oX c #7D0505",
"OX c #950606",
"+X c #680404",
"@X c #8D0707",
"#X c #900707",
"$X c #5B0404",
"%X c #8F0606",
"&X c #AF0707",
"*X c #8C0707",
"=X c #8C0606",
"-X c #630303",
";X c #560303",
":X c #570303",
">X c #630505",
",X c #A80808",
"<X c #180000",
"1X c #540404",
"2X c #3B0202",
"3X c #670505",
"4X c #160101",
"5X c #1D0101",
"6X c #1B0101",
"7X c #910606",
"8X c #050000",
"9X c #190101",
"0X c #1E0101",
"qX c #150000",
"wX c #9A0707",
"eX c #BC0808",
"rX c #880707",
"tX c #A10808",
"yX c #850505",
"uX c #2C0202",
"iX c #960808",
"pX c #9F0808",
"aX c #7B0505",
"sX c #280202",
"dX c #270202",
"fX c #150101",
"gX c #230101",
"hX c #310101",
"jX c #C10808",
"kX c #5C0404",
"lX c #6B0505",
"zX c #580303",
"xX c #2D0202",
"cX c #470303",
"vX c #980808",
"bX c #3D0202",
"nX c #490303",
"mX c #2F0101",
"MX c #610404",
"NX c #260202",
"BX c #120101",
"VX c #510404",
"CX c white",
/* pixels */
"                                                                                                                                ",
"                                                                                                                                ",
"                                                                                                                                ",
"                                                                                                                                ",
"                                                                                                                                ",
"                                                                                                                                ",
"                                                                                                                                ",
"                                                                                                                                ",
"                                                .                                                                               ",
"                                                  X o O                                                                         ",
"                                              + @ # $ %   .                                                                     ",
"                                            & * = - ; :   >                                                                     ",
"                                        ,   < 1 2 3 4 5 6   .                                                                   ",
"                                        ,   @ 7 8 2 4 9 0 q w                                                                   ",
"                                        .   e r r r t y u i p                                                                   ",
"                                              a r s d f g h j                                                                   ",
"                                                k l z x c v b                                                                   ",
"                                                      n m                                   .                                   ",
"                                              O M N B V C Z A   .                                                               ",
"                                        .   S D F G H J K L P I   .                   .   o @ ,                                 ",
"                          .   a U .     ,   Y T R E V C 4 h W Q N   .                   m ! ~ : ^ .                             ",
"                        o / ( 2 ) M _ ` ` ' ] 4 [ ) [ - [ { } |  .N                 ,   k ..5 X.o.,                             ",
"                    .   O.s +.@.#.e $.= H T g [ - - - %.-  .V = &.*.  .   . .       .   =.* -.-.;.                              ",
"                        ,   @ :.>.;.3 ,.<. .) - - %.- - %.- [ g X.1.w   2.    M 3.4.3.O., X 5.6.                                ",
"                                  + D 7.8.V 9.- - - - - - - [ 4 0.q.w.    4.e.H J r.J t.y.  .   .                               ",
"                                .   u.i.p.F %.- - - - - - 9.- [ V h a.s.' 3 d.f.g.$.h.j.k.  >                                   ",
"                                  ,   U l.) F 9.- - - - - - 9.- [ { z.| W x.V u c.v.a.b.n.  ,                                   ",
"                                      m.M.5 9.- 9.- - - - - %.N.- 9.F 3 3 [ ) ) [ i v.B.X.V.  ,                                 ",
"                                        5.C.u 9.%.- - - - - - %.- - [ [ [ %.- - %.[ t.= Z.A.  >                                 ",
"                                        S.D.9 [ %.- - - - - - - %.- - - - - %.%.N.- N.F.T G.  .                                 ",
"                                        c H.J.3 %.9.- - - - - - - - %.%.%.%.- - K.u ) L.P.  .                                   ",
"                                        I.n.U.@.- 9.%.- - 9.9.9.9.%.- - - - 9.9.} Y.T.m                                         ",
"                                        R.E.W.@.9.9.- 9.9.%.%.%.%.9.%.- - - 9.9.t.Q.  >                                         ",
"                                        n !.~.<.4 %.9.9.- V ^.@.^.- %.- %.- 9.9.$ /.  >                                         ",
"                                        Z (.] 7. .^.- 3 @.).1 W.5 y F 9.- %.9.9.t._.  >                                         ",
"                              >.6.      `.'.] ].7 5 %...[.7 {.}.|. XK.F %.- 9.%..XXX  ,                                         ",
"                            O oXOX>     +X[.] @X|.}.8 #X7 D.$Xa %Xr ,.3 9.- N.[ 4 &X3.  ,                                       ",
"                        .   Q.r.G N R.  / d |.*X(.=XU.-.-XR.    G.* [.N.F 9.- 9.N.g $X                                          ",
"                        .   z E ;X< W.N x 7.#X] 7 ].:X;.      .   >XU.,X4 9.9.- [ 4 9.<X  .                                     ",
"                        .   b j X <X~ 1X  Z #X7 8 2X    .     .   3X7.|...4 9.N.[ { <.4X  .                                     ",
"                            5.5X  6X7X<   8X9X0X9X, . .           9XD.r |...{ 9.) u G qX  .                                     ",
"                                  > m.>                           , v wX|.] ..E N.F eX9X  .                                     ",
"                                                                    m.% 7.rX] tXG x.yXS.                                        ",
"                                                                  ,   uXiX Xr r pXaX&   .                                       ",
"                                                                      X sX% '.v dX5.  .                                         ",
"                                                                          n fXgX+                                               ",
"                                                                        ,   hX[ *X^ ^ >.                                        ",
"                                                                          Z 3 t.{ t.jXkX                                        ",
"                                                                          lXG y 3 ) H ,.,                                       ",
"                                                                          zX'.t %.{ 0 xX                                        ",
"                                                                          cX'.{.vXE bX  ,                                       ",
"                                                                          . nXU.7.o.hX  ,                                       ",
"                                                                            2.mXMX~.dX  ,                                       ",
"                                                                            .   S.NXBX8X                                        ",
"                                                                              , .   VX#X.                                       ",
"                                                                                    5.*.2.                                      ",
"                                                                                                                                ",
"                                                                                      .                                         ",
"                                                                                                                                ",
"                                                                                                                                ",
"                                                                                                                                ",
"                                                                                                                                ",
"                                                                                                                                ",
"                                                                                                                                "
};
