/* XPM */
static char *_499_393bf9ac2507e8da08fab8135130056392747250fe0f0cfdd0c438f1b50af0cc[] = {
/* columns rows colors chars-per-pixel */
"64 64 222 2 ",
"   c #171616",
".  c #14151B",
"X  c #1A1619",
"o  c #1D1C1D",
"O  c #24161D",
"+  c #211D1D",
"@  c #361B1C",
"#  c #1C211F",
"$  c #23211E",
"%  c #2B231B",
"&  c #372A1D",
"*  c #161B23",
"=  c #1D1D23",
"-  c #161B2B",
";  c #1A1E2A",
":  c #1E0F34",
">  c #191A34",
",  c #1C1F3E",
"<  c #231E22",
"1  c #271C28",
"2  c #351B23",
"3  c #3A1829",
"4  c #210D34",
"5  c #261833",
"6  c #231B3E",
"7  c #321D31",
"8  c #152025",
"9  c #1D2322",
"0  c #1D212C",
"q  c #1C2233",
"w  c #16203C",
"e  c #1C243D",
"r  c #242323",
"t  c #2A2324",
"y  c #2E2B25",
"u  c #24242B",
"i  c #2A252B",
"p  c #25282C",
"a  c #2B2A2B",
"s  c #392727",
"d  c #322C25",
"f  c #33242B",
"g  c #352C2B",
"h  c #3B3128",
"j  c #222632",
"k  c #2C2533",
"l  c #252832",
"z  c #2B2C33",
"x  c #222A3C",
"c  c #2B2D3C",
"v  c #362B32",
"b  c #2E303E",
"n  c #333334",
"m  c #35343A",
"M  c #393838",
"N  c #3B3B3B",
"B  c #463A1F",
"V  c #683C1D",
"C  c #5C0E28",
"Z  c #481628",
"A  c #531228",
"S  c #5B122C",
"D  c #561533",
"F  c #620E2B",
"G  c #690E2D",
"H  c #62102B",
"J  c #630E35",
"K  c #6A1332",
"L  c #781F3D",
"P  c #452D28",
"I  c #552D29",
"U  c #46352A",
"Y  c #5B372A",
"T  c #482837",
"R  c #5A2A39",
"E  c #473736",
"W  c #573733",
"Q  c #5E3A33",
"!  c #65382A",
"~  c #672436",
"^  c #76223E",
"/  c #643C34",
"(  c #693937",
")  c #773C3B",
"_  c #3E4039",
"`  c #6F581D",
"'  c #76571D",
"]  c #45423C",
"[  c #5A433A",
"{  c #674328",
"}  c #794C28",
"|  c #6A5929",
" . c #6A4439",
".. c #764738",
"X. c #7F6326",
"o. c #171F43",
"O. c #251A40",
"+. c #172144",
"@. c #1A2243",
"#. c #1E2843",
"$. c #232B42",
"%. c #272B43",
"&. c #262F4C",
"*. c #3D2F47",
"=. c #283145",
"-. c #26304B",
";. c #2A344E",
":. c #2E394F",
">. c #3C3444",
",. c #3B3D42",
"<. c #393A45",
"1. c #31374E",
"2. c #343A4A",
"3. c #2B3450",
"4. c #2E3951",
"5. c #323D54",
"6. c #393953",
"7. c #7C1F4A",
"8. c #463A43",
"9. c #503541",
"0. c #6F3549",
"q. c #753249",
"w. c #79314C",
"e. c #3D4144",
"r. c #364156",
"t. c #364158",
"y. c #3A455B",
"u. c #3E495E",
"i. c #3F4961",
"p. c #434344",
"a. c #4B4742",
"s. c #454549",
"d. c #494549",
"f. c #4A4949",
"g. c #554A49",
"h. c #5A524B",
"j. c #474658",
"k. c #414B5E",
"l. c #59555A",
"z. c #674A45",
"x. c #725548",
"c. c #5F6051",
"v. c #6D625D",
"b. c #414D61",
"n. c #455164",
"m. c #6B6866",
"M. c #76716B",
"N. c #777773",
"B. c #935515",
"V. c #965817",
"C. c #A25919",
"Z. c #9D650C",
"A. c #B1661B",
"S. c #8E4F2C",
"D. c #87543A",
"F. c #A05D32",
"G. c #926B29",
"H. c #B36A28",
"J. c #A56531",
"K. c #D37A13",
"L. c #CB7222",
"P. c #862E4D",
"I. c #86314E",
"U. c #842F52",
"Y. c #892E50",
"T. c #8D3351",
"R. c #923253",
"E. c #8A5947",
"W. c #93554F",
"Q. c #9E5E4D",
"!. c #A05E47",
"~. c #996646",
"^. c #927258",
"/. c #A3674D",
"(. c #AE734E",
"). c #A96757",
"_. c #A57754",
"`. c #B57756",
"'. c #8B796A",
"]. c #B97660",
"[. c #9F8124",
"{. c #A6832A",
"}. c #B69330",
"|. c #D38D10",
" X c #EA8418",
".X c #D8B018",
"XX c #E9A819",
"oX c #CE922B",
"OX c #D4AD34",
"+X c #E7B729",
"@X c #F8BC38",
"#X c #FFD118",
"$X c #FFD927",
"%X c #F8C936",
"&X c #FCE122",
"*X c #BC8A57",
"=X c #8A8378",
"-X c #B88A68",
";X c #BC926F",
":X c #C0875D",
">X c #C4886B",
",X c #C7986B",
"<X c #D9A87B",
"1X c #DDB27E",
"2X c #E0B47F",
"3X c #7F8580",
"4X c #8E8C85",
"5X c #969288",
"6X c #9C9995",
"7X c #A7A29A",
"8X c #B1A79F",
"9X c #B3B0AB",
"0X c #CB9687",
"qX c #DBA580",
"wX c #DBB496",
"eX c #E0AA86",
"rX c #E2B485",
"tX c #C6C0BE",
"yX c #CEC9C7",
"uX c #D3CECB",
"iX c #D6D2CF",
"pX c #DBDAD7",
/* pixels */
"&.b.u.u.k.k.k.k.b.b.u.n.u.i.u.u.i.i.b.b.u.k.k.k.k.k.k.k.b.k.k.b.k.k.k.k.k.k.k.k.i.b.k.k.k.k.k.k.k.k.k.b.n.u.u.b.k.b.n.u.u.u.n.u.",
"&.i.u.u.u.u.u.u.u.u.u.u.u.i.u.u.u.u.u.u.u.u.u.u.u.k.k.k.k.k.k.j.k.u.i.j.u.k.k.k.j.j.u.k.k.k.y.u.k.k.u.u.i.u.u.u.u.u.i.u.u.u.i.y.",
"@.#.@.-.:.:.:.4.:.:.:.:.:.:.r.4.3.:.3.3.:.:.:.:.1.1.1.4.1.1.1.1.3.1.1.1.1.1.;.1.1.1.1.1.1.1.3.;.4.;.3.3.3.3.4.3.:.:.:.3.3.3.#.e ",
"o.@.w &.-.;.;.;.;.;.=.;.;.;.;.;.:.;.3.;.:.:.=.;.1.;.;.;.;.;.1.;.;.3.1.3.3.3.1.;.3.3.3.3.;.3.3.;.;.;.;.3.;.3.3.;.:.;.=.;.;.;.@.w ",
"o.@.@.&.;.;.3.3.;.;.-.;.;.;.;.;.;.;.;.3.3.3.;.3.3.3.1.3.3.3.3.3.3.3.3.3.3.3.3.3.1.3.3.3.;.1.;.;.3.;.;.;.;.3.3.3.3.;.;.3.;.3.+.+.",
"+.@.@.&.;.;.3.3.;.:.;.-.;.;.;.;.;.;.;.3.:.;.3.;.;.3.;.;.3.3.1.;.3.&.1.;.3.3.3.3.;.;.3.3.;.;.;.;.;.;.;.;.;.;.=.:.;.;.3.3.-.;.@.+.",
"o.@.@.&.;.;.;.;.;.;.;.r.;.r.r.;.;.;.;.;.-.3.;.;.;.;.;.%.k -.;.;.3.1.;.;.;.;.&.3.;.;.;.;.;.;.;.;.;.;.5.2.:.4.:.;.;.3.3.;.3.3.@.+.",
"o.+.@.;.;.;.;.3.;.-.r.u.u.u.u.r.;.3.;.-.:.3.;.;.3.;.;.l i ;.;.;.&.&.;.3.;.;.;.3.3.;.;.;.;.;.;.;.-.1.k.u.u.n.t.;.;.;.3.3.3.3.@.+.",
"+.+.+.&.;.;.;.;.-.:.r.u.u.u.n.r.;.;.3.;.;.;.:.;.;.;.;.j a f.2.;.3.3.3.;.3.;.;.;.;.;.;.;.;.;.;.;.=.:.n.u.u.n.y.;.;.;.;.;.3.;.+.+.",
"+.+.+.&.;.;.3.;.:.-.r.u.u.u.u.y.3.-.3.;.;.;.;.;.;.;.;.j a f.s.2.3.;.;.;.;.;.;.;.;.;.;.;.;.;.;.;.=.r.u.u.u.u.y.-.;.;.;.;.3.;.@.+.",
"+.+.+.&.3.3.;.;.;.-.r.u.u.u.u.y.3.;.3.;.;.3.3.;.;.3.3.c c _ f.N %.3.3.;.%.c =.2.2.2.:.c ;.;.3.3.;.r.i.n.n.n.y.;.;.;.;.;.3.3.@.+.",
"+.+.+.&.3.3.;.;.;.;.r.r.r.r.r.r.;.;.3.;.;.3.:.;.;.;.;.;.=.9 M M & 2.3.c t r n f.p.s._ u =.;.3.3.=.;.r.r.r.r.4.;.;.;.;.3.3.3.+.+.",
"+.+.@.;.&.;.;.;.;.;.#.+.x w w -.-.;.3.;.;.;.;.;.2.p.p.z u r ; | .XOX| . r M s.p.p.e.p.p.p.2.3.3.;.-.w e w w #.3.3.;.3.&.3.&.o.o.",
"+.+.+.;.;.;.:.;.;.;.-.w e w w #.;.;.;.;.;.;.3.<.p.s.d.N a r * ' XXG.E r r n n n p.p.p.p.f.p.,.;.;.-.w w w +.#.3.;.;.3.3.3.3.+.+.",
"@.@.+.-.;.;.;.;.;.;.-.-.-.-.;.;.;.;.3.;.;.3.;.e.f.p.p.p.N r * | }.t * r r < < r N N N N p.s.e.;.3.;.-.-.&.-.-.;.&.;.3.3.3.3.+.+.",
"@.+.+.&.;.;.;.;.;.;.-.;.;.;.;.;.;.:.;.;.3.;.;.e.p.p.p.p.N r < r < r r r u r r u r r t t f.,.;.;.;.;.;.;.;.;.3.;.3.;.3.3.3.3.+.+.",
"+.@.@.-.3.;.3.3.;.;.&.;.3.;.;.;.;.;.;.;.;.;.q _ f.p.f.M t p 0 r r r 1 t t u r 1 r s 0.Q.T p i 3.;.;.;.;.;.;.;.;.;.;.;.;.;.&.+.+.",
"+.@.@.-.;.;.;.;.;.&.;.;.3.;.;.;.;.;.;.;.;.;.8 m p.n n p $ p q 0 i r r r < r r u o Q ~.(.s 9 r l -.;.;.;.;.3.;.;.;.;.;.;.;.3.+.+.",
"@.@.@.-.;.;.3.;.3.3.3.3.3.;.3.;.;.;.;.;.;.;.9 n N r 9 r r q j l t r r t s d t t f E.`./.s 9 t u =.;.;.3.;.;.;.;.;.;.;.;.3.3.+.+.",
"w @.@.-.;.;.;.;.&.3.3.3.3.;.;.3.;.;.;.;.:.;.p 9 9 a 0 q 0 e e.N r r # T )...v 2 ).(.(./.s 9 r r q $.;.;.;.;.;.;.;.;.3.:.3.;.#.+.",
"+.@.@.&.;.;.;.;.;.;.3.3.;.;.3.3.;.;.;.:.;.;.u u r 0 q b N m N.c.  r # U `. ./ E._.( ! ~.i = i o q e ;.3.;.;.3.:.;.3.;.;.3.&.+.+.",
"+.+.@.&.;.;.;.-.;.;.3.;.3.;.3.;.;.;.;.;.;.;.r u u q 0 s.m.v.4X3X[ h t h W.D.~.,X*XE.E.(.c - r = q x ;.3.;.4.;.;.;.3.;.;.&.3.+.+.",
"@.@.+.&.;.;.;.;.;.;.;.;.:.;.;.;.;.;.;.;.:.=.r x j a o l.6X5X4X5X5X .& % U ~.;XrX<XrXrX;Xm q ; o q $.;.;.;.;.3.3.;.;.;.;.;.;.+.+.",
"+.@.+.&.3.;.;.;.;.;.;.;.;.;.;.;.3.;.;.;.;.:.p p 9 r r r p.5X5X4X=Xl.z.U # $ ^.rX<X<X<X-Xm q q q q x 3.;.3.;.;.;.;.;.3.;.;.;.+.+.",
"+.@.@.;.3.3.&.3.;.;.;.;.3.:.;.;.3.3.;.;.;.z r r r r r # r a.'.7X9X8Xv.I U s ..,XqXqX1X;Xm q > q q -.3.;.3.;.;.3.;.;.3.;.;.&.+.+.",
"+.@.+.&.3.&.3.;.3.;.3.;.3.;.;.;.3.3.3.=.l p r 9 r r r r $   h.7XpXpX=X[ ! ! .._.,X<X<X-Xm x x q q #.;.3.;.3.;.;.;.;.3.3.;.;.+.+.",
"+.+.+.;.3.;.;.3.;.3.;.;.;.;.;.;.;.;.3.l p $ r r r r r r r t   m.pXiX8X'.W ! !  .~.,X<X~.z $.;.-.#.;.;.;.;.4.;.;.;.;.;.3.3.3.+.+.",
"o.+.+.&.3.;.;.;.;.;.;.3.;.;.;.;.3.=.p # a N N a # r r r t $ X a.4XiXyX7Xh. .Y Q  .D. .<.j $.;.;.;.:.3.;.;.;.;.;.;.;.;.3.3.3.+.+.",
"+.+.@.&.3.3.;.3.3.;.3.;.;.3.;.:.3.=.r a N p.p.N a r r r t t $ d d.6XtXtX6X[ P Y [ U k q w #.;.3.;.;.;.;.;.;.;.;.;.3.;.;.;.&.+.+.",
"o.@.o.&.3.3.;.3.;.3.;.3.;.;.3.;.3.=.9 N p.e._ p._ $ r t r r r + r f.7XuXiXh.h [ W 9 q q x ;.;.;.;.;.:.;.;.;.;.;.;.;.;.;.;.;.+.+.",
"@.@.@.&.3.;.;.&.;.;.3.3.3.3.;.;.3.=.9 M p._ p.p.e.o $ $ $ t t t $ $ m.9XuXM.M.5Xr.w e -.:.;.;.3.;.;.;.;.r.-.;.;.;.;.3.;.3.;.+.+.",
"o.@.@.3.3.3.;.;.3.;.3.3.;.;.;.3.3.=.r N p.] e.<.9.J.[ d + + t $ $ + a l.9XtX7XN.3Xy.:.;.;.:.:.;.;.;.;.;.x p 0 ;.;.;.3.3.3.3.+.+.",
"+.@.+.&.3.;.;.;.;.3.;.;.;.;.3.;.;.=.p n p.] N c.G.H...E h h r r r r   y m.6XN.f.=X=Xh.;.E g.z.9.&.&.c T 7 f r ;.;.;.;.;.;.;.+.+.",
"+.+.@.&.3.;.;.;.;.;.3.3.3.3.;.;.;.;.;.u a a.] OX@X! Q ! / / s r r r r $ o o o P /.:X~.2./ !.`.( ;.j f S C 3 X x ;.;.;.;.;.;.@.+.",
"+.+.+.&.3.&.;.;.3.;.;.:.;.;.;.3.3.;.;.;.x P %X{.( ).!.).Q.Y W v X o 1 r $ + g z./ /  .Q R -X0X7   3 D 1 ; 1 0 $.;.;.;.;.;.;.@.+.",
"+.+.+.&.3.3.;.;.3.;.3.;.;.3.;.3.3.;.;.;.%.f G.A.F.E.]./.D._.E.~._.E.E o r # t s y y y g & Q x.) _.z.1 = 0 q e ;.;.;.;.;.3.;.@.+.",
"o.@.+.3.;.;.;.;.;.;.;.3.3.3.3.;.;.:.;.;.$.0 + S.H.K W.q.Y 2X*X`.,X`./ O 2 2 @ 2 2 2 2 9 a = I `.<Xl.q q q x ;.;.;.3.3.;.;.&.+.+.",
"@.@.o.&.3.3.;.;.;.3.3.;.3.1.3.3.;.3.;.;.3.;.U.7.J J J 3 U <X:XD.A D H H F F F F F H Z % Q Y } (.I 1 q q e 3.;.;.;.;.;.;.3.&.+.+.",
"o.@.+.3.3.-.-.3.3.>. .+X|.C.D D ~ w.D 0.w.w.P.P.^ C F C Z ] W W R 7 A K w.w.^ F H Z v [ }.} % U k j e -.3.;.3.3.;.;.3.;.3.3.+.+.",
"@.o.o.&.3.3.3.3.-.N D.XXXXoXL L P.R.L P.R.T.I.T.I.L L L L T 1 f R 2 2 P R 0.R Z T 5 h A.XX' O 8 > j ;.3.;.;.;.;.;.;.3.&.3.3.#.+.",
"o.@.o.3.3.3.3.3.;.*.0.A.+XOXq.I.Y.7.w.w.w.w.w.w.w.Y.Y.Y.Y.R.D Z D t u p < M n 9 _ n V K..XX.d q e #.;.;.;.;.;.;.;.;.;.;.;.3.+.+.",
"o.@.o.&.3.3.3.3.;.3.:.:.y y t D K D f i i t r r 2 J F F F G K Z r 8.s.E r r r r = J.J.,..X| q q e ;.;.;.;.;.;.;.;.;.;.;.3.&.+.+.",
"+.+.&.&.3.3.3.3.;.;.;.-.q 0 0 k k k x l p r r r t E 9.E T 2 3 f <.p.d.p.1 + + $ r U s l Z.V q e ;.;.;.;.;.;.;.;.;.;.3.;.;.3.+.+.",
"+.+.o.&.3.3.&.3.;.;.-.-.#.#.#.$.%.;.;.-.c r r r z p.p.e.m 9 9 N s.p.E n o X + r l q ; l B.{ q $.;.:.;.;.;.;.;.;.;.;.;.;.;.3.+.+.",
"o.+.@.&.3.3.3.&.;.;.;.;.;.3.-.3.;.;.;.p p p # n p.p.s.z = r N s.p.s.n + X X o u 1.i . j B.{ q $.;.;.;.;.;.;.;.;.;.;.;.;.3.3.+.+.",
"+.+.@.&.&.3.3.3.;.;.;.;.;.;.3.3.;.;.;.u r 9 N _ p.s.n 9 a ,.p.p.8.d.v o o 0 x i 6.p X q z q q #.;.;.;.;.;.;.;.;.;.;.;.;.3.&.+.+.",
"o.@.+.;.&.;.3.3.3.3.;.;.;.;.3.-.;.,.H.! r 8 _ s.p.n r a M p.p.p.e.n i X * x c z 8.k . q q e x =.;.3.;.;.;.;.;.;.;.;.;.;.3.3.+.+.",
"o.@.+.&.3.3.3.&.;.-.;.;.;.;.-.3.3.p.L.F.} I ] _ n o ; M s.p.p.p.p.r < * e ;.%.i 1.1 X $.;.;.:.;.;.3.-.-.;.;.-.;.;.3.3.;.;.3.+.+.",
"@.@.@.3.-.3.;.;.3.;.4.r.r.t.5.4.;.1.Y }.XXK.} s 1 1 r M p.s.p.p.p.r ; q x 3.c a r = X %.;.3.;.;.;.:.r.r.y.r.r.;.;.;.;.;.;.&.+.+.",
"o.@.+.&.;.;.3.3.-.;.t.i.i.i.i.5.2.;.1 U V. XK.H.S.W 1 c e._ ,.b = o ; e -.;.<.E r . X x ;.;.-.;.;.r.i.i.i.n.t.;.;.:.;.;.;.&.+.+.",
"o.@.@.;.3.3.-.3.;.;.t.n.b.b.n.5.%.9.9.< P B.S.A.K.F.S.X.G.G.{.[.G.B u $.3.3.8.~ / W f e $.;.3.;.=.r.i.u.u.i.y.-.;.;.;.;.;.3.+.+.",
"o.+.+.&.-.3.3.;.;.;.t.u.b.b.j.n.9.D.>XQ     @ V B.A.K.|.XX#X&X#X%X! u e 3.3.8.) `.~.z.m q $.;.;.-.r.u.u.i.i.t.-.;.;.;.;.;.;.#.+.",
"@.@.+.3.3.3.-.3.;.;.r.n.b.j. .wX'.d wX`.W q 5 s I I C.XX$X$X&X}.I k q $.;.:.<.x.eX..[ _.m $.3.;.;.r.u.u.u.i.t.:.;.;.;.;.3.3.+.+.",
"o.@.@.&.3.-.;.3.;.=.:.:.;.m d x.] t h. .y q q u 7 t ! } X.' ` U i q q $.;.;.p d [ @ % E r 0 ;.;.-.-.:.r.:.r.:.:.;.;.;.&.3.&.+.+.",
"o.@.@.&.3.;.3.3.;.:.#.e w q 0 = p u 8 0 * q q q 0 q i t ; . * * e $.$.-.:.$.8 8 . . # . * j ;.:.:.-.w e w w x -.;.;.;.;.;.3.+.+.",
"@.@.@.3.-.3.3.;.;.;.-.e e #.e -.-.;.;.;.$.e %.x $.$.x $.$.$.$.$.-.;.3.3.;.:.$.$.$.$.e q q c ;.;.;.=.w e e w $.:.;.;.;.;.3.3.+.+.",
"o.+.@.&.;.;.3.;.;.;.3.;.3.;.;.-.;.;.;.;.;.;.;.;.;.;.;.;.;.;.;.;.;.;.;.;.;.;.;.;.;.;.;.$.x ;.;.;.;.;.;.;.3.-.;.3.;.;.;.;.;.;.+.+.",
"+.@.+.&.-.3.3.;.;.;.;.3.3.;.;.;.-.;.;.;.-.;.;.;.;.;.;.;.;.;.;.;.;.;.;.;.;.;.;.:.;.;.;.;.;.;.;.;.;.;.;.;.3.-.;.;.;.;.3.3.-.;.+.+.",
"o.@.@.;.3.3.;.3.;.;.3.;.;.;.;.;.;.;.-.;.;.;.;.;.;.;.;.;.;.;.;.;.;.;.;.;.;.;.;.;.;.;.;.;.;.;.;.;.-.;.;.;.-.;.;.;.;.;.;.;.;.3.+.+.",
"w @.+.&.3.3.3.;.3.;.;.;.3.;.:.;.3.;.3.;.;.1.;.;.:.;.3.3.3.;.3.3.;.3.;.;.;.3.;.;.3.3.;.;.;.3.4.;.1.;.1.;.1.3.1.;.3.4.;.;.3.4.+.+.",
"@.w #.$.=.&.&.&.-.-.-.-.-.-.-.-.&.&.&.;.;.-.&.&.-.&.&.&.;.&.&.-.&.&.&.;.;.;.;.&.;.&.&.&.;.-.&.&.&.-.-.&.;.&.&.-.&.;.-.&.&.&.+.+.",
"@., o.$., 6 q @., o.6 o.+.e @.+.O.O.o.e o.o.o.O.@.@.x o.@.O.o.6 o.O.o.O.e o.o., 6 o.o.O., @.@.@.@.@., o., o., @.o.e e w o., , , ",
"6 6 6 6 x 6 6 6 6 6 O.O.O.O.O.O.O.O.O.O.6 6 O.O.O.O.O.O.O.O.O.O.6 O.O.O.O.O.6 6 O.O.O.O.O.O.O.O.6 O.6 6 O.O.O.6 6 6 6 6 6 6 , 6 ",
"6 : : 4 4 4 : 4 4 4 4 4 4 4 4 4 4 4 4 4 4 4 4 4 4 4 4 4 4 4 4 4 4 4 4 4 4 4 4 4 4 4 4 4 4 4 4 4 4 4 4 4 4 4 4 4 4 4 : : : : : : "
};
